G04 #@! TF.GenerationSoftware,KiCad,Pcbnew,6.0.7-f9a2dced07~116~ubuntu22.04.1*
G04 #@! TF.CreationDate,2022-08-25T07:51:25+02:00*
G04 #@! TF.ProjectId,PCB-Ange,5043422d-416e-4676-952e-6b696361645f,rev?*
G04 #@! TF.SameCoordinates,Original*
G04 #@! TF.FileFunction,Paste,Top*
G04 #@! TF.FilePolarity,Positive*
%FSLAX46Y46*%
G04 Gerber Fmt 4.6, Leading zero omitted, Abs format (unit mm)*
G04 Created by KiCad (PCBNEW 6.0.7-f9a2dced07~116~ubuntu22.04.1) date 2022-08-25 07:51:25*
%MOMM*%
%LPD*%
G01*
G04 APERTURE LIST*
G04 Aperture macros list*
%AMRoundRect*
0 Rectangle with rounded corners*
0 $1 Rounding radius*
0 $2 $3 $4 $5 $6 $7 $8 $9 X,Y pos of 4 corners*
0 Add a 4 corners polygon primitive as box body*
4,1,4,$2,$3,$4,$5,$6,$7,$8,$9,$2,$3,0*
0 Add four circle primitives for the rounded corners*
1,1,$1+$1,$2,$3*
1,1,$1+$1,$4,$5*
1,1,$1+$1,$6,$7*
1,1,$1+$1,$8,$9*
0 Add four rect primitives between the rounded corners*
20,1,$1+$1,$2,$3,$4,$5,0*
20,1,$1+$1,$4,$5,$6,$7,0*
20,1,$1+$1,$6,$7,$8,$9,0*
20,1,$1+$1,$8,$9,$2,$3,0*%
G04 Aperture macros list end*
G04 #@! TA.AperFunction,Profile*
%ADD10C,0.050000*%
G04 #@! TD*
%ADD11R,0.740000X2.400000*%
%ADD12RoundRect,0.112500X0.112500X-0.700000X0.112500X0.700000X-0.112500X0.700000X-0.112500X-0.700000X0*%
%ADD13R,7.620000X5.080000*%
%ADD14RoundRect,0.237500X-0.287500X-0.237500X0.287500X-0.237500X0.287500X0.237500X-0.287500X0.237500X0*%
%ADD15RoundRect,0.237500X-0.237500X0.287500X-0.237500X-0.287500X0.237500X-0.287500X0.237500X0.287500X0*%
%ADD16RoundRect,0.237500X0.287500X0.237500X-0.287500X0.237500X-0.287500X-0.237500X0.287500X-0.237500X0*%
%ADD17RoundRect,0.237500X0.237500X-0.287500X0.237500X0.287500X-0.237500X0.287500X-0.237500X-0.287500X0*%
%ADD18RoundRect,0.250001X0.462499X1.074999X-0.462499X1.074999X-0.462499X-1.074999X0.462499X-1.074999X0*%
%ADD19R,1.500000X3.600000*%
%ADD20R,0.450000X0.400000*%
%ADD21R,0.450000X0.500000*%
%ADD22R,0.900000X1.700000*%
%ADD23R,2.440000X1.120000*%
%ADD24RoundRect,0.075000X0.662500X0.075000X-0.662500X0.075000X-0.662500X-0.075000X0.662500X-0.075000X0*%
%ADD25RoundRect,0.075000X0.075000X0.662500X-0.075000X0.662500X-0.075000X-0.662500X0.075000X-0.662500X0*%
%ADD26RoundRect,0.150000X0.150000X-0.325000X0.150000X0.325000X-0.150000X0.325000X-0.150000X-0.325000X0*%
%ADD27RoundRect,0.150000X0.325000X-0.150000X0.325000X0.150000X-0.325000X0.150000X-0.325000X-0.150000X0*%
%ADD28R,0.450000X1.450000*%
G04 APERTURE END LIST*
D10*
X101800000Y-122365000D02*
G75*
G03*
X101800000Y-122365000I-1800000J0D01*
G01*
X101800000Y-77635000D02*
G75*
G03*
X101800000Y-77635000I-1800000J0D01*
G01*
X137500000Y-100000000D02*
G75*
G03*
X137500000Y-100000000I-37500000J0D01*
G01*
D11*
X94940000Y-128575000D03*
X94940000Y-124675000D03*
X96210000Y-128575000D03*
X96210000Y-124675000D03*
D12*
X88458600Y-84129300D03*
X89108600Y-84129300D03*
X89758600Y-84129300D03*
X90408600Y-84129300D03*
X90408600Y-79904300D03*
X89758600Y-79904300D03*
X89108600Y-79904300D03*
X88458600Y-79904300D03*
D13*
X71310000Y-100000000D03*
X128690000Y-100000000D03*
D14*
X103810000Y-131953200D03*
X105560000Y-131953200D03*
X122832000Y-116256000D03*
X121082000Y-116256000D03*
X96878400Y-132816800D03*
X98628400Y-132816800D03*
D15*
X84252000Y-76632000D03*
X84252000Y-74882000D03*
D14*
X121082000Y-119050000D03*
X122832000Y-119050000D03*
D16*
X108370600Y-109067800D03*
X110120600Y-109067800D03*
X106400800Y-118491200D03*
X104650800Y-118491200D03*
D14*
X121155600Y-122301200D03*
X119405600Y-122301200D03*
X122860000Y-113462000D03*
X121110000Y-113462000D03*
X121146800Y-110363200D03*
X122896800Y-110363200D03*
D16*
X106717000Y-107366000D03*
X104967000Y-107366000D03*
D17*
X94107200Y-82310200D03*
X94107200Y-84060200D03*
D14*
X120777200Y-90195600D03*
X122527200Y-90195600D03*
D15*
X125933400Y-89803200D03*
X125933400Y-91553200D03*
D14*
X122515800Y-93218200D03*
X120765800Y-93218200D03*
D15*
X129083000Y-91513800D03*
X129083000Y-89763800D03*
D14*
X84534000Y-125654000D03*
X86284000Y-125654000D03*
D18*
X74600000Y-110160000D03*
X71625000Y-110160000D03*
D17*
X78156000Y-109172000D03*
X78156000Y-110922000D03*
D15*
X88570000Y-110668000D03*
X88570000Y-112418000D03*
D11*
X103810000Y-128112000D03*
X103810000Y-124212000D03*
X105080000Y-128112000D03*
X105080000Y-124212000D03*
X106350000Y-128112000D03*
X106350000Y-124212000D03*
X107620000Y-128112000D03*
X107620000Y-124212000D03*
X108890000Y-128112000D03*
X108890000Y-124212000D03*
D19*
X90907800Y-75006400D03*
X87857800Y-75006400D03*
D20*
X107179000Y-80486400D03*
X107179000Y-79686400D03*
D21*
X106029000Y-80086400D03*
D20*
X107179000Y-84144000D03*
X107179000Y-83344000D03*
D21*
X106029000Y-83744000D03*
X106029000Y-87554000D03*
D20*
X107179000Y-87154000D03*
X107179000Y-87954000D03*
D14*
X109222800Y-107442200D03*
X110972800Y-107442200D03*
X116736000Y-123622000D03*
X114986000Y-123622000D03*
D15*
X84150400Y-81130400D03*
X84150400Y-82880400D03*
D14*
X112321600Y-80899200D03*
X114071600Y-80899200D03*
D17*
X110058400Y-79160600D03*
X110058400Y-80910600D03*
D16*
X92860000Y-128956000D03*
X91110000Y-128956000D03*
D17*
X98120400Y-87554000D03*
X98120400Y-89304000D03*
D14*
X86256000Y-122352000D03*
X84506000Y-122352000D03*
X112372400Y-84861600D03*
X114122400Y-84861600D03*
D17*
X74600000Y-116256000D03*
X74600000Y-114506000D03*
X110058400Y-83134400D03*
X110058400Y-84884400D03*
X101016000Y-89304000D03*
X101016000Y-87554000D03*
D14*
X80470000Y-109652000D03*
X82220000Y-109652000D03*
D15*
X83490000Y-116482000D03*
X83490000Y-114732000D03*
D14*
X114145200Y-88874800D03*
X112395200Y-88874800D03*
D15*
X85268000Y-112418000D03*
X85268000Y-110668000D03*
D17*
X110058400Y-88897600D03*
X110058400Y-87147600D03*
X103911600Y-87554000D03*
X103911600Y-89304000D03*
D22*
X116406600Y-107467600D03*
X113006600Y-107467600D03*
X117526000Y-126670000D03*
X114126000Y-126670000D03*
D23*
X84112600Y-89586000D03*
X92722600Y-89586000D03*
D24*
X117624500Y-118498000D03*
X117624500Y-117998000D03*
X117624500Y-117498000D03*
X117624500Y-116998000D03*
X117624500Y-116498000D03*
X117624500Y-115998000D03*
X117624500Y-115498000D03*
X117624500Y-114998000D03*
X117624500Y-114498000D03*
X117624500Y-113998000D03*
X117624500Y-113498000D03*
X117624500Y-112998000D03*
D25*
X116212000Y-111585500D03*
X115712000Y-111585500D03*
X115212000Y-111585500D03*
X114712000Y-111585500D03*
X114212000Y-111585500D03*
X113712000Y-111585500D03*
X113212000Y-111585500D03*
X112712000Y-111585500D03*
X112212000Y-111585500D03*
X111712000Y-111585500D03*
X111212000Y-111585500D03*
X110712000Y-111585500D03*
D24*
X109299500Y-112998000D03*
X109299500Y-113498000D03*
X109299500Y-113998000D03*
X109299500Y-114498000D03*
X109299500Y-114998000D03*
X109299500Y-115498000D03*
X109299500Y-115998000D03*
X109299500Y-116498000D03*
X109299500Y-116998000D03*
X109299500Y-117498000D03*
X109299500Y-117998000D03*
X109299500Y-118498000D03*
D25*
X110712000Y-119910500D03*
X111212000Y-119910500D03*
X111712000Y-119910500D03*
X112212000Y-119910500D03*
X112712000Y-119910500D03*
X113212000Y-119910500D03*
X113712000Y-119910500D03*
X114212000Y-119910500D03*
X114712000Y-119910500D03*
X115212000Y-119910500D03*
X115712000Y-119910500D03*
X116212000Y-119910500D03*
D26*
X120783800Y-87030000D03*
X121583800Y-87030000D03*
X122383800Y-87030000D03*
X123183800Y-87030000D03*
X123983800Y-87030000D03*
X124783800Y-87030000D03*
D27*
X124783800Y-86030000D03*
D26*
X124783800Y-85030000D03*
X123983800Y-85030000D03*
X123183800Y-85030000D03*
X122383800Y-85030000D03*
X121583800Y-85030000D03*
X120783800Y-85030000D03*
D27*
X120783800Y-86030000D03*
D28*
X78451000Y-117694000D03*
X79101000Y-117694000D03*
X79751000Y-117694000D03*
X80401000Y-117694000D03*
X80401000Y-113294000D03*
X79751000Y-113294000D03*
X79101000Y-113294000D03*
X78451000Y-113294000D03*
M02*
