G04 #@! TF.GenerationSoftware,KiCad,Pcbnew,5.1.5-52549c5~84~ubuntu18.04.1*
G04 #@! TF.CreationDate,2020-01-06T13:59:52+01:00*
G04 #@! TF.ProjectId,PCB-Ange,5043422d-416e-4676-952e-6b696361645f,rev?*
G04 #@! TF.SameCoordinates,Original*
G04 #@! TF.FileFunction,Copper,L2,Bot*
G04 #@! TF.FilePolarity,Positive*
%FSLAX46Y46*%
G04 Gerber Fmt 4.6, Leading zero omitted, Abs format (unit mm)*
G04 Created by KiCad (PCBNEW 5.1.5-52549c5~84~ubuntu18.04.1) date 2020-01-06 13:59:53*
%MOMM*%
%LPD*%
G04 APERTURE LIST*
%ADD10R,1.070000X1.800000*%
%ADD11O,1.070000X1.800000*%
%ADD12C,1.000000*%
%ADD13C,0.900000*%
%ADD14C,0.300000*%
%ADD15C,0.500000*%
%ADD16C,0.254000*%
G04 APERTURE END LIST*
D10*
X98095000Y-100000000D03*
D11*
X99365000Y-100000000D03*
X100635000Y-100000000D03*
X101905000Y-100000000D03*
D12*
X91110000Y-125273000D03*
X91110000Y-124003000D03*
D13*
X95834400Y-84099600D03*
X111887200Y-77089200D03*
X111531600Y-83134400D03*
X111430000Y-86487200D03*
X127381200Y-94005600D03*
X126111200Y-109499600D03*
X118846800Y-120472400D03*
X101625600Y-132105600D03*
X94107200Y-130581600D03*
X111633200Y-109398000D03*
X107772400Y-119253200D03*
X120015202Y-118034000D03*
X75971600Y-111785600D03*
X118440400Y-123977600D03*
X124892000Y-116256000D03*
X123368000Y-96596400D03*
X124333200Y-93700800D03*
X97917200Y-84556800D03*
X104368800Y-85572800D03*
X100508000Y-127584400D03*
X100762000Y-123926800D03*
X107670800Y-121031200D03*
X113309600Y-98933200D03*
X85420400Y-73482400D03*
X115900400Y-113970000D03*
X91872000Y-110566400D03*
X107315200Y-116814800D03*
X103860800Y-122098000D03*
X110769600Y-122758400D03*
X106400800Y-122250400D03*
X83642400Y-109906000D03*
X83540800Y-113360400D03*
X119608800Y-112954000D03*
X124028400Y-82778800D03*
X119456400Y-111887200D03*
X125552400Y-83032800D03*
X118846800Y-110160000D03*
X126466800Y-86030000D03*
X117322800Y-109093200D03*
X118592800Y-87300000D03*
X116066413Y-109178443D03*
X116865596Y-85979200D03*
X114224000Y-109956800D03*
X119151600Y-84963200D03*
D14*
X95834400Y-84099600D02*
X96494800Y-83439200D01*
X96494800Y-83439200D02*
X96494800Y-77749600D01*
X96494800Y-77749600D02*
X98882400Y-75362000D01*
X98882400Y-75362000D02*
X110160000Y-75362000D01*
X110160000Y-75362000D02*
X111887200Y-77089200D01*
X111887200Y-77089200D02*
X111887200Y-82778800D01*
X111887200Y-82778800D02*
X111531600Y-83134400D01*
X111531600Y-83134400D02*
X111531600Y-86385600D01*
X111531600Y-86385600D02*
X111430000Y-86487200D01*
X128295600Y-84048800D02*
X128295600Y-93091200D01*
X121336000Y-77089200D02*
X128295600Y-84048800D01*
X111887200Y-77089200D02*
X121336000Y-77089200D01*
X128295600Y-93091200D02*
X127381200Y-94005600D01*
X127381200Y-94005600D02*
X127381200Y-108229600D01*
X127381200Y-108229600D02*
X126111200Y-109499600D01*
X118846800Y-120472400D02*
X107213600Y-132105600D01*
X107213600Y-132105600D02*
X101625600Y-132105600D01*
X101625600Y-132105600D02*
X95631200Y-132105600D01*
X95631200Y-132105600D02*
X94107200Y-130581600D01*
X118846800Y-120472400D02*
X108991600Y-120472400D01*
X108991600Y-120472400D02*
X107772400Y-119253200D01*
X112421996Y-109398000D02*
X120015202Y-116991206D01*
X111633200Y-109398000D02*
X112421996Y-109398000D01*
X120465201Y-117584001D02*
X120015202Y-118034000D01*
X120015202Y-117397604D02*
X120015202Y-118034000D01*
X118846800Y-120472400D02*
X118846800Y-119202402D01*
X120015202Y-116991206D02*
X120015202Y-117397604D01*
X126111200Y-111938002D02*
X120465201Y-117584001D01*
X126111200Y-109499600D02*
X126111200Y-111938002D01*
X118846800Y-119202402D02*
X120015202Y-118034000D01*
X75971600Y-112446000D02*
X75971600Y-111785600D01*
X94107200Y-130581600D02*
X75971600Y-112446000D01*
X118440400Y-123977600D02*
X125044400Y-117373600D01*
X125044400Y-117373600D02*
X125044400Y-116408400D01*
X125044400Y-116408400D02*
X124892000Y-116256000D01*
X123368000Y-96596400D02*
X123368000Y-94666000D01*
X123368000Y-94666000D02*
X124333200Y-93700800D01*
X98553596Y-84556800D02*
X99569596Y-85572800D01*
X97917200Y-84556800D02*
X98553596Y-84556800D01*
X99569596Y-85572800D02*
X104368800Y-85572800D01*
X100508000Y-126948004D02*
X100762000Y-126694004D01*
X100508000Y-127584400D02*
X100508000Y-126948004D01*
X100762000Y-126694004D02*
X100762000Y-123926800D01*
X103145554Y-123926800D02*
X105080000Y-121992354D01*
X100762000Y-123926800D02*
X103145554Y-123926800D01*
X105080000Y-121992354D02*
X105080000Y-121183600D01*
X105080000Y-121183600D02*
X105232400Y-121031200D01*
X105232400Y-121031200D02*
X107670800Y-121031200D01*
D15*
X113309600Y-98933200D02*
X106908800Y-98933200D01*
X106908800Y-98933200D02*
X99898400Y-91922800D01*
X99898400Y-91922800D02*
X90703600Y-91922800D01*
X90703600Y-91922800D02*
X85420400Y-86639600D01*
X85420400Y-86639600D02*
X85420400Y-73482400D01*
D14*
X115900400Y-113970000D02*
X96240800Y-113970000D01*
X96240800Y-113970000D02*
X92837200Y-110566400D01*
X92837200Y-110566400D02*
X91872000Y-110566400D01*
X107315200Y-116814800D02*
X103860800Y-120269200D01*
X103860800Y-120269200D02*
X103860800Y-122098000D01*
X110769600Y-122758400D02*
X110261600Y-122250400D01*
X110261600Y-122250400D02*
X106400800Y-122250400D01*
X83642400Y-113258800D02*
X83540800Y-113360400D01*
X83642400Y-109906000D02*
X83642400Y-113258800D01*
X120208801Y-112353999D02*
X120208801Y-90337003D01*
X119608800Y-112954000D02*
X120208801Y-112353999D01*
X120208801Y-90337003D02*
X120959787Y-89586017D01*
X124526801Y-82280399D02*
X124478399Y-82328801D01*
X124478399Y-82328801D02*
X124028400Y-82778800D01*
X127782810Y-84175814D02*
X125887395Y-82280399D01*
X127782810Y-87720798D02*
X127782810Y-84175814D01*
X125917591Y-89586017D02*
X127782810Y-87720798D01*
X120959787Y-89586017D02*
X125917591Y-89586017D01*
X125887395Y-82280399D02*
X124526801Y-82280399D01*
X127330400Y-87533404D02*
X127330400Y-84810800D01*
X119456400Y-111250804D02*
X119608800Y-111098404D01*
X119608800Y-111098404D02*
X119608800Y-90297200D01*
X120772391Y-89133609D02*
X125730196Y-89133608D01*
X119608800Y-90297200D02*
X120772391Y-89133609D01*
X119456400Y-111887200D02*
X119456400Y-111250804D01*
X127330400Y-84810800D02*
X125552400Y-83032800D01*
X125730196Y-89133608D02*
X127330400Y-87533404D01*
X118846800Y-110160000D02*
X118846800Y-89281200D01*
X119446801Y-88681199D02*
X125542801Y-88681199D01*
X118846800Y-89281200D02*
X119446801Y-88681199D01*
X125542801Y-88681199D02*
X126466800Y-87757200D01*
X126466800Y-87757200D02*
X126466800Y-86030000D01*
X117322800Y-109093200D02*
X117322800Y-88570000D01*
X117322800Y-88570000D02*
X118592800Y-87300000D01*
X116415597Y-86429199D02*
X116865596Y-85979200D01*
X116413189Y-86431607D02*
X116415597Y-86429199D01*
X116066413Y-109178443D02*
X116413189Y-108831667D01*
X116413189Y-108831667D02*
X116413189Y-86431607D01*
X116564846Y-84963200D02*
X118515204Y-84963200D01*
X118515204Y-84963200D02*
X119151600Y-84963200D01*
X115960778Y-108220022D02*
X115960778Y-85567268D01*
X115960778Y-85567268D02*
X116564846Y-84963200D01*
X114224000Y-109956800D02*
X115960778Y-108220022D01*
D16*
G36*
X103635848Y-63084618D02*
G01*
X106042445Y-63401452D01*
X108423167Y-63875007D01*
X110767820Y-64503255D01*
X113066363Y-65283506D01*
X115308955Y-66212417D01*
X117485991Y-67286013D01*
X119588149Y-68499694D01*
X121606428Y-69848265D01*
X123532184Y-71325950D01*
X125357173Y-72926422D01*
X127073578Y-74642827D01*
X128674050Y-76467816D01*
X130151735Y-78393572D01*
X131500306Y-80411851D01*
X132713987Y-82514009D01*
X133787583Y-84691045D01*
X134716494Y-86933637D01*
X135496745Y-89232180D01*
X136124993Y-91576833D01*
X136598548Y-93957555D01*
X136915382Y-96364152D01*
X137074139Y-98786318D01*
X137074139Y-101213682D01*
X136915382Y-103635848D01*
X136598548Y-106042445D01*
X136124993Y-108423167D01*
X135496745Y-110767820D01*
X134716494Y-113066363D01*
X133787583Y-115308955D01*
X132713987Y-117485991D01*
X131500306Y-119588149D01*
X130151735Y-121606428D01*
X128674050Y-123532184D01*
X127073578Y-125357173D01*
X125357173Y-127073578D01*
X123532184Y-128674050D01*
X121606428Y-130151735D01*
X119588149Y-131500306D01*
X117485991Y-132713987D01*
X115308955Y-133787583D01*
X113066363Y-134716494D01*
X110767820Y-135496745D01*
X108423167Y-136124993D01*
X106042445Y-136598548D01*
X103635848Y-136915382D01*
X101213682Y-137074139D01*
X98786318Y-137074139D01*
X96364152Y-136915382D01*
X93957555Y-136598548D01*
X91576833Y-136124993D01*
X89232180Y-135496745D01*
X86933637Y-134716494D01*
X84691045Y-133787583D01*
X82514009Y-132713987D01*
X80411851Y-131500306D01*
X78393572Y-130151735D01*
X76467816Y-128674050D01*
X74642827Y-127073578D01*
X72926422Y-125357173D01*
X71325950Y-123532184D01*
X69848265Y-121606428D01*
X68499694Y-119588149D01*
X67286013Y-117485991D01*
X66212417Y-115308955D01*
X65283506Y-113066363D01*
X64820963Y-111703754D01*
X75140600Y-111703754D01*
X75140600Y-111867446D01*
X75172535Y-112027994D01*
X75235177Y-112179226D01*
X75326120Y-112315332D01*
X75439714Y-112428926D01*
X75438032Y-112446000D01*
X75440600Y-112472074D01*
X75440600Y-112472083D01*
X75448283Y-112550093D01*
X75478647Y-112650187D01*
X75527954Y-112742435D01*
X75594310Y-112823290D01*
X75614575Y-112839921D01*
X93276200Y-130501547D01*
X93276200Y-130663446D01*
X93308135Y-130823994D01*
X93370777Y-130975226D01*
X93461720Y-131111332D01*
X93577468Y-131227080D01*
X93713574Y-131318023D01*
X93864806Y-131380665D01*
X94025354Y-131412600D01*
X94187254Y-131412600D01*
X95237283Y-132462630D01*
X95253910Y-132482890D01*
X95274170Y-132499517D01*
X95334764Y-132549246D01*
X95384071Y-132575601D01*
X95427012Y-132598553D01*
X95527106Y-132628917D01*
X95605116Y-132636600D01*
X95605127Y-132636600D01*
X95631199Y-132639168D01*
X95657271Y-132636600D01*
X100981388Y-132636600D01*
X101095868Y-132751080D01*
X101231974Y-132842023D01*
X101383206Y-132904665D01*
X101543754Y-132936600D01*
X101707446Y-132936600D01*
X101867994Y-132904665D01*
X102019226Y-132842023D01*
X102155332Y-132751080D01*
X102269812Y-132636600D01*
X107187526Y-132636600D01*
X107213600Y-132639168D01*
X107239674Y-132636600D01*
X107239684Y-132636600D01*
X107317694Y-132628917D01*
X107417788Y-132598553D01*
X107510035Y-132549246D01*
X107590890Y-132482890D01*
X107607521Y-132462625D01*
X113477068Y-126593078D01*
X115045000Y-126593078D01*
X115045000Y-126746922D01*
X115075013Y-126897809D01*
X115133887Y-127039942D01*
X115219358Y-127167859D01*
X115328141Y-127276642D01*
X115456058Y-127362113D01*
X115598191Y-127420987D01*
X115749078Y-127451000D01*
X115902922Y-127451000D01*
X116053809Y-127420987D01*
X116195942Y-127362113D01*
X116323859Y-127276642D01*
X116432642Y-127167859D01*
X116518113Y-127039942D01*
X116576987Y-126897809D01*
X116607000Y-126746922D01*
X116607000Y-126593078D01*
X116576987Y-126442191D01*
X116518113Y-126300058D01*
X116432642Y-126172141D01*
X116323859Y-126063358D01*
X116195942Y-125977887D01*
X116053809Y-125919013D01*
X115902922Y-125889000D01*
X115749078Y-125889000D01*
X115598191Y-125919013D01*
X115456058Y-125977887D01*
X115328141Y-126063358D01*
X115219358Y-126172141D01*
X115133887Y-126300058D01*
X115075013Y-126442191D01*
X115045000Y-126593078D01*
X113477068Y-126593078D01*
X118766747Y-121303400D01*
X118928646Y-121303400D01*
X119089194Y-121271465D01*
X119240426Y-121208823D01*
X119376532Y-121117880D01*
X119492280Y-121002132D01*
X119583223Y-120866026D01*
X119645865Y-120714794D01*
X119677800Y-120554246D01*
X119677800Y-120390554D01*
X119645865Y-120230006D01*
X119583223Y-120078774D01*
X119492280Y-119942668D01*
X119377800Y-119828188D01*
X119377800Y-119422348D01*
X119935149Y-118865000D01*
X120097048Y-118865000D01*
X120257596Y-118833065D01*
X120408828Y-118770423D01*
X120544934Y-118679480D01*
X120660682Y-118563732D01*
X120751625Y-118427626D01*
X120814267Y-118276394D01*
X120846202Y-118115846D01*
X120846202Y-117953948D01*
X120859119Y-117941031D01*
X120859128Y-117941020D01*
X126468230Y-112331919D01*
X126488490Y-112315292D01*
X126516776Y-112280826D01*
X126554846Y-112234438D01*
X126582000Y-112183635D01*
X126604153Y-112142190D01*
X126634517Y-112042096D01*
X126642200Y-111964086D01*
X126642200Y-111964077D01*
X126644768Y-111938003D01*
X126642200Y-111911929D01*
X126642200Y-110143812D01*
X126756680Y-110029332D01*
X126847623Y-109893226D01*
X126910265Y-109741994D01*
X126942200Y-109581446D01*
X126942200Y-109419546D01*
X127738230Y-108623517D01*
X127758490Y-108606890D01*
X127775117Y-108586630D01*
X127824846Y-108526036D01*
X127842021Y-108493904D01*
X127874153Y-108433788D01*
X127904517Y-108333694D01*
X127912200Y-108255684D01*
X127912200Y-108255675D01*
X127914768Y-108229601D01*
X127912200Y-108203527D01*
X127912200Y-94649812D01*
X128026680Y-94535332D01*
X128117623Y-94399226D01*
X128180265Y-94247994D01*
X128212200Y-94087446D01*
X128212200Y-93925546D01*
X128652630Y-93485117D01*
X128672890Y-93468490D01*
X128689517Y-93448230D01*
X128739246Y-93387636D01*
X128788553Y-93295388D01*
X128796504Y-93269177D01*
X128818917Y-93195294D01*
X128826600Y-93117284D01*
X128826600Y-93117274D01*
X128829168Y-93091200D01*
X128826600Y-93065126D01*
X128826600Y-84074874D01*
X128829168Y-84048800D01*
X128826600Y-84022726D01*
X128826600Y-84022716D01*
X128818917Y-83944706D01*
X128788553Y-83844612D01*
X128774748Y-83818784D01*
X128739246Y-83752364D01*
X128689518Y-83691770D01*
X128689512Y-83691764D01*
X128672890Y-83671510D01*
X128652636Y-83654888D01*
X121729921Y-76732175D01*
X121713290Y-76711910D01*
X121632435Y-76645554D01*
X121540188Y-76596247D01*
X121440094Y-76565883D01*
X121362084Y-76558200D01*
X121362074Y-76558200D01*
X121336000Y-76555632D01*
X121309926Y-76558200D01*
X112531412Y-76558200D01*
X112416932Y-76443720D01*
X112280826Y-76352777D01*
X112129594Y-76290135D01*
X111969046Y-76258200D01*
X111807147Y-76258200D01*
X110553921Y-75004975D01*
X110537290Y-74984710D01*
X110456435Y-74918354D01*
X110364188Y-74869047D01*
X110264094Y-74838683D01*
X110186084Y-74831000D01*
X110186074Y-74831000D01*
X110160000Y-74828432D01*
X110133926Y-74831000D01*
X98908473Y-74831000D01*
X98882399Y-74828432D01*
X98856325Y-74831000D01*
X98856316Y-74831000D01*
X98778306Y-74838683D01*
X98678212Y-74869047D01*
X98618096Y-74901179D01*
X98585964Y-74918354D01*
X98525370Y-74968083D01*
X98505110Y-74984710D01*
X98488483Y-75004970D01*
X96137771Y-77355683D01*
X96117511Y-77372310D01*
X96100884Y-77392570D01*
X96100883Y-77392571D01*
X96051154Y-77453165D01*
X96001847Y-77545413D01*
X95971484Y-77645507D01*
X95961232Y-77749600D01*
X95963801Y-77775684D01*
X95963800Y-83219252D01*
X95914453Y-83268600D01*
X95752554Y-83268600D01*
X95592006Y-83300535D01*
X95440774Y-83363177D01*
X95304668Y-83454120D01*
X95188920Y-83569868D01*
X95097977Y-83705974D01*
X95035335Y-83857206D01*
X95003400Y-84017754D01*
X95003400Y-84181446D01*
X95035335Y-84341994D01*
X95097977Y-84493226D01*
X95188920Y-84629332D01*
X95304668Y-84745080D01*
X95440774Y-84836023D01*
X95592006Y-84898665D01*
X95752554Y-84930600D01*
X95916246Y-84930600D01*
X96076794Y-84898665D01*
X96228026Y-84836023D01*
X96364132Y-84745080D01*
X96479880Y-84629332D01*
X96570823Y-84493226D01*
X96633465Y-84341994D01*
X96665400Y-84181446D01*
X96665400Y-84019547D01*
X96851835Y-83833113D01*
X96872090Y-83816490D01*
X96888712Y-83796236D01*
X96888718Y-83796230D01*
X96938446Y-83735636D01*
X96987753Y-83643388D01*
X96999351Y-83605154D01*
X97018117Y-83543294D01*
X97025800Y-83465284D01*
X97025800Y-83465274D01*
X97028368Y-83439200D01*
X97025800Y-83413126D01*
X97025800Y-79781814D01*
X97784719Y-79781814D01*
X97784719Y-80218186D01*
X97869851Y-80646174D01*
X98036843Y-81049329D01*
X98279279Y-81412159D01*
X98587841Y-81720721D01*
X98950671Y-81963157D01*
X99353826Y-82130149D01*
X99781814Y-82215281D01*
X100218186Y-82215281D01*
X100646174Y-82130149D01*
X101049329Y-81963157D01*
X101412159Y-81720721D01*
X101720721Y-81412159D01*
X101963157Y-81049329D01*
X102130149Y-80646174D01*
X102215281Y-80218186D01*
X102215281Y-79781814D01*
X102130149Y-79353826D01*
X101963157Y-78950671D01*
X101720721Y-78587841D01*
X101412159Y-78279279D01*
X101049329Y-78036843D01*
X100646174Y-77869851D01*
X100218186Y-77784719D01*
X99781814Y-77784719D01*
X99353826Y-77869851D01*
X98950671Y-78036843D01*
X98587841Y-78279279D01*
X98279279Y-78587841D01*
X98036843Y-78950671D01*
X97869851Y-79353826D01*
X97784719Y-79781814D01*
X97025800Y-79781814D01*
X97025800Y-77969546D01*
X99102347Y-75893000D01*
X109940054Y-75893000D01*
X111056200Y-77009147D01*
X111056200Y-77171046D01*
X111088135Y-77331594D01*
X111150777Y-77482826D01*
X111241720Y-77618932D01*
X111356200Y-77733412D01*
X111356201Y-82322009D01*
X111289206Y-82335335D01*
X111137974Y-82397977D01*
X111001868Y-82488920D01*
X110886120Y-82604668D01*
X110795177Y-82740774D01*
X110732535Y-82892006D01*
X110700600Y-83052554D01*
X110700600Y-83216246D01*
X110732535Y-83376794D01*
X110795177Y-83528026D01*
X110886120Y-83664132D01*
X111000600Y-83778612D01*
X111000601Y-85774680D01*
X110900268Y-85841720D01*
X110784520Y-85957468D01*
X110693577Y-86093574D01*
X110630935Y-86244806D01*
X110599000Y-86405354D01*
X110599000Y-86569046D01*
X110630935Y-86729594D01*
X110693577Y-86880826D01*
X110784520Y-87016932D01*
X110900268Y-87132680D01*
X111036374Y-87223623D01*
X111187606Y-87286265D01*
X111348154Y-87318200D01*
X111511846Y-87318200D01*
X111672394Y-87286265D01*
X111823626Y-87223623D01*
X111959732Y-87132680D01*
X112075480Y-87016932D01*
X112166423Y-86880826D01*
X112229065Y-86729594D01*
X112261000Y-86569046D01*
X112261000Y-86405354D01*
X112229065Y-86244806D01*
X112166423Y-86093574D01*
X112075480Y-85957468D01*
X112062600Y-85944588D01*
X112062600Y-83778612D01*
X112177080Y-83664132D01*
X112268023Y-83528026D01*
X112330665Y-83376794D01*
X112362600Y-83216246D01*
X112362600Y-83052554D01*
X112357276Y-83025788D01*
X112373436Y-82995554D01*
X112380153Y-82982988D01*
X112410517Y-82882894D01*
X112418200Y-82804884D01*
X112418200Y-82804875D01*
X112420768Y-82778801D01*
X112418200Y-82752727D01*
X112418200Y-77733412D01*
X112531412Y-77620200D01*
X121116054Y-77620200D01*
X125245252Y-81749399D01*
X124552875Y-81749399D01*
X124526801Y-81746831D01*
X124500727Y-81749399D01*
X124500717Y-81749399D01*
X124422707Y-81757082D01*
X124322613Y-81787446D01*
X124230366Y-81836753D01*
X124149511Y-81903109D01*
X124132882Y-81923371D01*
X124121378Y-81934876D01*
X124121369Y-81934883D01*
X124108452Y-81947800D01*
X123946554Y-81947800D01*
X123786006Y-81979735D01*
X123634774Y-82042377D01*
X123498668Y-82133320D01*
X123382920Y-82249068D01*
X123291977Y-82385174D01*
X123229335Y-82536406D01*
X123197400Y-82696954D01*
X123197400Y-82860646D01*
X123229335Y-83021194D01*
X123291977Y-83172426D01*
X123382920Y-83308532D01*
X123498668Y-83424280D01*
X123634774Y-83515223D01*
X123786006Y-83577865D01*
X123946554Y-83609800D01*
X124110246Y-83609800D01*
X124270794Y-83577865D01*
X124422026Y-83515223D01*
X124558132Y-83424280D01*
X124673880Y-83308532D01*
X124740218Y-83209250D01*
X124753335Y-83275194D01*
X124815977Y-83426426D01*
X124906920Y-83562532D01*
X125022668Y-83678280D01*
X125158774Y-83769223D01*
X125310006Y-83831865D01*
X125470554Y-83863800D01*
X125632453Y-83863800D01*
X126799401Y-85030749D01*
X126799401Y-85268300D01*
X126709194Y-85230935D01*
X126548646Y-85199000D01*
X126384954Y-85199000D01*
X126224406Y-85230935D01*
X126073174Y-85293577D01*
X125937068Y-85384520D01*
X125821320Y-85500268D01*
X125730377Y-85636374D01*
X125667735Y-85787606D01*
X125635800Y-85948154D01*
X125635800Y-86111846D01*
X125667735Y-86272394D01*
X125730377Y-86423626D01*
X125821320Y-86559732D01*
X125935801Y-86674213D01*
X125935800Y-87537253D01*
X125322855Y-88150199D01*
X119472875Y-88150199D01*
X119446801Y-88147631D01*
X119420727Y-88150199D01*
X119420717Y-88150199D01*
X119342707Y-88157882D01*
X119242613Y-88188246D01*
X119150365Y-88237553D01*
X119089771Y-88287281D01*
X119089765Y-88287287D01*
X119069511Y-88303909D01*
X119052888Y-88324164D01*
X118489770Y-88887284D01*
X118469511Y-88903910D01*
X118452884Y-88924170D01*
X118452883Y-88924171D01*
X118403154Y-88984765D01*
X118353847Y-89077013D01*
X118336679Y-89133608D01*
X118323484Y-89177106D01*
X118320370Y-89208727D01*
X118313232Y-89281200D01*
X118315801Y-89307284D01*
X118315800Y-109515788D01*
X118201320Y-109630268D01*
X118110377Y-109766374D01*
X118047735Y-109917606D01*
X118015800Y-110078154D01*
X118015800Y-110241846D01*
X118047735Y-110402394D01*
X118110377Y-110553626D01*
X118201320Y-110689732D01*
X118317068Y-110805480D01*
X118453174Y-110896423D01*
X118604406Y-110959065D01*
X118764954Y-110991000D01*
X118928646Y-110991000D01*
X119000851Y-110976637D01*
X118963447Y-111046617D01*
X118942295Y-111116347D01*
X118933084Y-111146710D01*
X118925400Y-111224720D01*
X118925400Y-111224730D01*
X118923405Y-111244983D01*
X118810920Y-111357468D01*
X118719977Y-111493574D01*
X118657335Y-111644806D01*
X118625400Y-111805354D01*
X118625400Y-111969046D01*
X118657335Y-112129594D01*
X118719977Y-112280826D01*
X118810920Y-112416932D01*
X118905216Y-112511228D01*
X118872377Y-112560374D01*
X118809735Y-112711606D01*
X118777800Y-112872154D01*
X118777800Y-113035846D01*
X118809735Y-113196394D01*
X118872377Y-113347626D01*
X118963320Y-113483732D01*
X119079068Y-113599480D01*
X119215174Y-113690423D01*
X119366406Y-113753065D01*
X119526954Y-113785000D01*
X119690646Y-113785000D01*
X119851194Y-113753065D01*
X120002426Y-113690423D01*
X120138532Y-113599480D01*
X120254280Y-113483732D01*
X120345223Y-113347626D01*
X120407865Y-113196394D01*
X120439800Y-113035846D01*
X120439800Y-112873947D01*
X120565836Y-112747912D01*
X120586091Y-112731289D01*
X120602713Y-112711035D01*
X120602719Y-112711029D01*
X120652447Y-112650435D01*
X120701754Y-112558187D01*
X120704209Y-112550093D01*
X120732118Y-112458093D01*
X120739801Y-112380083D01*
X120739801Y-112380073D01*
X120742369Y-112353999D01*
X120739801Y-112327925D01*
X120739801Y-90556949D01*
X121179735Y-90117017D01*
X125891517Y-90117017D01*
X125917591Y-90119585D01*
X125943665Y-90117017D01*
X125943675Y-90117017D01*
X126021685Y-90109334D01*
X126121779Y-90078970D01*
X126214026Y-90029663D01*
X126294881Y-89963307D01*
X126311512Y-89943042D01*
X127764600Y-88489954D01*
X127764601Y-92871252D01*
X127461254Y-93174600D01*
X127299354Y-93174600D01*
X127138806Y-93206535D01*
X126987574Y-93269177D01*
X126851468Y-93360120D01*
X126735720Y-93475868D01*
X126644777Y-93611974D01*
X126582135Y-93763206D01*
X126550200Y-93923754D01*
X126550200Y-94087446D01*
X126582135Y-94247994D01*
X126644777Y-94399226D01*
X126735720Y-94535332D01*
X126850200Y-94649812D01*
X126850201Y-108009652D01*
X126191254Y-108668600D01*
X126029354Y-108668600D01*
X125868806Y-108700535D01*
X125717574Y-108763177D01*
X125581468Y-108854120D01*
X125465720Y-108969868D01*
X125374777Y-109105974D01*
X125312135Y-109257206D01*
X125280200Y-109417754D01*
X125280200Y-109581446D01*
X125312135Y-109741994D01*
X125374777Y-109893226D01*
X125465720Y-110029332D01*
X125580200Y-110143812D01*
X125580201Y-111718054D01*
X120508873Y-116789383D01*
X120508155Y-116787018D01*
X120458848Y-116694770D01*
X120409119Y-116634176D01*
X120392492Y-116613916D01*
X120372232Y-116597289D01*
X114511941Y-110736999D01*
X114617626Y-110693223D01*
X114753732Y-110602280D01*
X114869480Y-110486532D01*
X114960423Y-110350426D01*
X115023065Y-110199194D01*
X115055000Y-110038646D01*
X115055000Y-109876746D01*
X115341881Y-109589865D01*
X115420933Y-109708175D01*
X115536681Y-109823923D01*
X115672787Y-109914866D01*
X115824019Y-109977508D01*
X115984567Y-110009443D01*
X116148259Y-110009443D01*
X116308807Y-109977508D01*
X116460039Y-109914866D01*
X116596145Y-109823923D01*
X116711893Y-109708175D01*
X116732189Y-109677801D01*
X116793068Y-109738680D01*
X116929174Y-109829623D01*
X117080406Y-109892265D01*
X117240954Y-109924200D01*
X117404646Y-109924200D01*
X117565194Y-109892265D01*
X117716426Y-109829623D01*
X117852532Y-109738680D01*
X117968280Y-109622932D01*
X118059223Y-109486826D01*
X118121865Y-109335594D01*
X118153800Y-109175046D01*
X118153800Y-109011354D01*
X118121865Y-108850806D01*
X118059223Y-108699574D01*
X117968280Y-108563468D01*
X117853800Y-108448988D01*
X117853800Y-88789946D01*
X118512747Y-88131000D01*
X118674646Y-88131000D01*
X118835194Y-88099065D01*
X118986426Y-88036423D01*
X119122532Y-87945480D01*
X119238280Y-87829732D01*
X119329223Y-87693626D01*
X119391865Y-87542394D01*
X119423800Y-87381846D01*
X119423800Y-87218154D01*
X119391865Y-87057606D01*
X119329223Y-86906374D01*
X119238280Y-86770268D01*
X119122532Y-86654520D01*
X118986426Y-86563577D01*
X118835194Y-86500935D01*
X118674646Y-86469000D01*
X118510954Y-86469000D01*
X118350406Y-86500935D01*
X118199174Y-86563577D01*
X118063068Y-86654520D01*
X117947320Y-86770268D01*
X117856377Y-86906374D01*
X117793735Y-87057606D01*
X117761800Y-87218154D01*
X117761800Y-87380053D01*
X116965771Y-88176083D01*
X116945511Y-88192710D01*
X116944189Y-88194321D01*
X116944189Y-86810200D01*
X116947442Y-86810200D01*
X117107990Y-86778265D01*
X117259222Y-86715623D01*
X117395328Y-86624680D01*
X117511076Y-86508932D01*
X117602019Y-86372826D01*
X117664661Y-86221594D01*
X117696596Y-86061046D01*
X117696596Y-85897354D01*
X117664661Y-85736806D01*
X117602019Y-85585574D01*
X117540965Y-85494200D01*
X118507388Y-85494200D01*
X118621868Y-85608680D01*
X118757974Y-85699623D01*
X118909206Y-85762265D01*
X119069754Y-85794200D01*
X119233446Y-85794200D01*
X119393994Y-85762265D01*
X119545226Y-85699623D01*
X119681332Y-85608680D01*
X119797080Y-85492932D01*
X119888023Y-85356826D01*
X119950665Y-85205594D01*
X119982600Y-85045046D01*
X119982600Y-84881354D01*
X119950665Y-84720806D01*
X119888023Y-84569574D01*
X119797080Y-84433468D01*
X119681332Y-84317720D01*
X119545226Y-84226777D01*
X119393994Y-84164135D01*
X119233446Y-84132200D01*
X119069754Y-84132200D01*
X118909206Y-84164135D01*
X118757974Y-84226777D01*
X118621868Y-84317720D01*
X118507388Y-84432200D01*
X116590919Y-84432200D01*
X116564845Y-84429632D01*
X116538771Y-84432200D01*
X116538762Y-84432200D01*
X116460752Y-84439883D01*
X116360658Y-84470247D01*
X116268410Y-84519554D01*
X116241361Y-84541753D01*
X116187556Y-84585910D01*
X116170929Y-84606170D01*
X115603748Y-85173352D01*
X115583489Y-85189978D01*
X115566862Y-85210238D01*
X115566861Y-85210239D01*
X115517132Y-85270833D01*
X115467825Y-85363081D01*
X115461322Y-85384520D01*
X115439674Y-85455884D01*
X115437462Y-85463175D01*
X115427210Y-85567268D01*
X115429779Y-85593352D01*
X115429778Y-107172655D01*
X115398713Y-107097658D01*
X115313242Y-106969741D01*
X115204459Y-106860958D01*
X115076542Y-106775487D01*
X114934409Y-106716613D01*
X114783522Y-106686600D01*
X114629678Y-106686600D01*
X114478791Y-106716613D01*
X114336658Y-106775487D01*
X114208741Y-106860958D01*
X114099958Y-106969741D01*
X114014487Y-107097658D01*
X113955613Y-107239791D01*
X113925600Y-107390678D01*
X113925600Y-107544522D01*
X113955613Y-107695409D01*
X114014487Y-107837542D01*
X114099958Y-107965459D01*
X114208741Y-108074242D01*
X114336658Y-108159713D01*
X114478791Y-108218587D01*
X114629678Y-108248600D01*
X114783522Y-108248600D01*
X114934409Y-108218587D01*
X115076542Y-108159713D01*
X115204459Y-108074242D01*
X115313242Y-107965459D01*
X115398713Y-107837542D01*
X115429778Y-107762545D01*
X115429778Y-108000075D01*
X114304054Y-109125800D01*
X114142154Y-109125800D01*
X113981606Y-109157735D01*
X113830374Y-109220377D01*
X113694268Y-109311320D01*
X113578520Y-109427068D01*
X113487577Y-109563174D01*
X113443801Y-109668859D01*
X112815917Y-109040975D01*
X112799286Y-109020710D01*
X112718431Y-108954354D01*
X112626184Y-108905047D01*
X112526090Y-108874683D01*
X112448080Y-108867000D01*
X112448070Y-108867000D01*
X112421996Y-108864432D01*
X112395922Y-108867000D01*
X112277412Y-108867000D01*
X112162932Y-108752520D01*
X112026826Y-108661577D01*
X111875594Y-108598935D01*
X111715046Y-108567000D01*
X111551354Y-108567000D01*
X111390806Y-108598935D01*
X111239574Y-108661577D01*
X111103468Y-108752520D01*
X110987720Y-108868268D01*
X110896777Y-109004374D01*
X110834135Y-109155606D01*
X110802200Y-109316154D01*
X110802200Y-109479846D01*
X110834135Y-109640394D01*
X110896777Y-109791626D01*
X110987720Y-109927732D01*
X111103468Y-110043480D01*
X111239574Y-110134423D01*
X111390806Y-110197065D01*
X111551354Y-110229000D01*
X111715046Y-110229000D01*
X111875594Y-110197065D01*
X112026826Y-110134423D01*
X112162932Y-110043480D01*
X112239731Y-109966681D01*
X115506686Y-113233636D01*
X115370668Y-113324520D01*
X115256188Y-113439000D01*
X96460747Y-113439000D01*
X93231121Y-110209375D01*
X93214490Y-110189110D01*
X93133635Y-110122754D01*
X93041388Y-110073447D01*
X92941294Y-110043083D01*
X92863284Y-110035400D01*
X92863274Y-110035400D01*
X92837200Y-110032832D01*
X92811126Y-110035400D01*
X92516212Y-110035400D01*
X92401732Y-109920920D01*
X92265626Y-109829977D01*
X92114394Y-109767335D01*
X91953846Y-109735400D01*
X91790154Y-109735400D01*
X91629606Y-109767335D01*
X91478374Y-109829977D01*
X91342268Y-109920920D01*
X91226520Y-110036668D01*
X91135577Y-110172774D01*
X91072935Y-110324006D01*
X91041000Y-110484554D01*
X91041000Y-110648246D01*
X91072935Y-110808794D01*
X91135577Y-110960026D01*
X91226520Y-111096132D01*
X91342268Y-111211880D01*
X91478374Y-111302823D01*
X91629606Y-111365465D01*
X91790154Y-111397400D01*
X91953846Y-111397400D01*
X92114394Y-111365465D01*
X92265626Y-111302823D01*
X92401732Y-111211880D01*
X92516212Y-111097400D01*
X92617254Y-111097400D01*
X95846883Y-114327030D01*
X95863510Y-114347290D01*
X95883770Y-114363917D01*
X95944364Y-114413646D01*
X95976496Y-114430821D01*
X96036612Y-114462953D01*
X96136706Y-114493317D01*
X96214716Y-114501000D01*
X96214725Y-114501000D01*
X96240799Y-114503568D01*
X96266873Y-114501000D01*
X115256188Y-114501000D01*
X115370668Y-114615480D01*
X115506774Y-114706423D01*
X115658006Y-114769065D01*
X115818554Y-114801000D01*
X115982246Y-114801000D01*
X116142794Y-114769065D01*
X116294026Y-114706423D01*
X116430132Y-114615480D01*
X116545880Y-114499732D01*
X116636764Y-114363714D01*
X119484202Y-117211153D01*
X119484202Y-117389788D01*
X119369722Y-117504268D01*
X119278779Y-117640374D01*
X119216137Y-117791606D01*
X119184202Y-117952154D01*
X119184202Y-118114053D01*
X118489771Y-118808485D01*
X118469511Y-118825112D01*
X118452884Y-118845372D01*
X118452883Y-118845373D01*
X118403154Y-118905967D01*
X118353847Y-118998215D01*
X118350028Y-119010806D01*
X118323484Y-119098308D01*
X118318481Y-119149107D01*
X118313232Y-119202402D01*
X118315801Y-119228486D01*
X118315801Y-119828187D01*
X118202588Y-119941400D01*
X109211547Y-119941400D01*
X108603400Y-119333254D01*
X108603400Y-119171354D01*
X108571465Y-119010806D01*
X108508823Y-118859574D01*
X108417880Y-118723468D01*
X108302132Y-118607720D01*
X108166026Y-118516777D01*
X108014794Y-118454135D01*
X107854246Y-118422200D01*
X107690554Y-118422200D01*
X107530006Y-118454135D01*
X107378774Y-118516777D01*
X107242668Y-118607720D01*
X107126920Y-118723468D01*
X107035977Y-118859574D01*
X106973335Y-119010806D01*
X106941400Y-119171354D01*
X106941400Y-119335046D01*
X106973335Y-119495594D01*
X107035977Y-119646826D01*
X107126920Y-119782932D01*
X107242668Y-119898680D01*
X107378774Y-119989623D01*
X107530006Y-120052265D01*
X107690554Y-120084200D01*
X107852454Y-120084200D01*
X108597683Y-120829430D01*
X108614310Y-120849690D01*
X108634570Y-120866317D01*
X108695164Y-120916046D01*
X108787412Y-120965353D01*
X108887506Y-120995717D01*
X108965516Y-121003400D01*
X108965525Y-121003400D01*
X108991599Y-121005968D01*
X109017673Y-121003400D01*
X117564853Y-121003400D01*
X106993654Y-131574600D01*
X102269812Y-131574600D01*
X102155332Y-131460120D01*
X102019226Y-131369177D01*
X101867994Y-131306535D01*
X101707446Y-131274600D01*
X101543754Y-131274600D01*
X101383206Y-131306535D01*
X101231974Y-131369177D01*
X101095868Y-131460120D01*
X100981388Y-131574600D01*
X95851147Y-131574600D01*
X94938200Y-130661654D01*
X94938200Y-130499754D01*
X94906265Y-130339206D01*
X94843623Y-130187974D01*
X94752680Y-130051868D01*
X94636932Y-129936120D01*
X94500826Y-129845177D01*
X94349594Y-129782535D01*
X94189046Y-129750600D01*
X94027147Y-129750600D01*
X89462776Y-125186229D01*
X90229000Y-125186229D01*
X90229000Y-125359771D01*
X90262856Y-125529978D01*
X90329268Y-125690310D01*
X90425682Y-125834605D01*
X90548395Y-125957318D01*
X90692690Y-126053732D01*
X90853022Y-126120144D01*
X91023229Y-126154000D01*
X91196771Y-126154000D01*
X91366978Y-126120144D01*
X91527310Y-126053732D01*
X91671605Y-125957318D01*
X91794318Y-125834605D01*
X91890732Y-125690310D01*
X91957144Y-125529978D01*
X91991000Y-125359771D01*
X91991000Y-125186229D01*
X91957144Y-125016022D01*
X91890732Y-124855690D01*
X91794318Y-124711395D01*
X91671605Y-124588682D01*
X91662433Y-124582554D01*
X91667207Y-124563036D01*
X91110000Y-124005828D01*
X90552793Y-124563036D01*
X90557567Y-124582554D01*
X90548395Y-124588682D01*
X90425682Y-124711395D01*
X90329268Y-124855690D01*
X90262856Y-125016022D01*
X90229000Y-125186229D01*
X89462776Y-125186229D01*
X88246792Y-123970245D01*
X90225342Y-123970245D01*
X90235950Y-124143462D01*
X90280148Y-124311282D01*
X90356236Y-124467254D01*
X90392633Y-124521725D01*
X90549964Y-124560207D01*
X91107172Y-124003000D01*
X91112828Y-124003000D01*
X91670036Y-124560207D01*
X91827367Y-124521725D01*
X91914782Y-124371806D01*
X91971269Y-124207714D01*
X91994658Y-124035755D01*
X91984050Y-123862538D01*
X91939852Y-123694718D01*
X91863764Y-123538746D01*
X91827367Y-123484275D01*
X91670036Y-123445793D01*
X91112828Y-124003000D01*
X91107172Y-124003000D01*
X90549964Y-123445793D01*
X90392633Y-123484275D01*
X90305218Y-123634194D01*
X90248731Y-123798286D01*
X90225342Y-123970245D01*
X88246792Y-123970245D01*
X87719511Y-123442964D01*
X90552793Y-123442964D01*
X91110000Y-124000172D01*
X91667207Y-123442964D01*
X91628725Y-123285633D01*
X91478806Y-123198218D01*
X91314714Y-123141731D01*
X91142755Y-123118342D01*
X90969538Y-123128950D01*
X90801718Y-123173148D01*
X90645746Y-123249236D01*
X90591275Y-123285633D01*
X90552793Y-123442964D01*
X87719511Y-123442964D01*
X84058361Y-119781814D01*
X97784719Y-119781814D01*
X97784719Y-120218186D01*
X97869851Y-120646174D01*
X98036843Y-121049329D01*
X98279279Y-121412159D01*
X98587841Y-121720721D01*
X98950671Y-121963157D01*
X99353826Y-122130149D01*
X99781814Y-122215281D01*
X100218186Y-122215281D01*
X100646174Y-122130149D01*
X100921382Y-122016154D01*
X103029800Y-122016154D01*
X103029800Y-122179846D01*
X103061735Y-122340394D01*
X103124377Y-122491626D01*
X103215320Y-122627732D01*
X103331068Y-122743480D01*
X103467174Y-122834423D01*
X103618406Y-122897065D01*
X103778954Y-122929000D01*
X103942646Y-122929000D01*
X104103194Y-122897065D01*
X104254426Y-122834423D01*
X104390532Y-122743480D01*
X104506280Y-122627732D01*
X104597223Y-122491626D01*
X104659865Y-122340394D01*
X104691800Y-122179846D01*
X104691800Y-122168554D01*
X105569800Y-122168554D01*
X105569800Y-122332246D01*
X105601735Y-122492794D01*
X105664377Y-122644026D01*
X105755320Y-122780132D01*
X105871068Y-122895880D01*
X106007174Y-122986823D01*
X106158406Y-123049465D01*
X106318954Y-123081400D01*
X106482646Y-123081400D01*
X106643194Y-123049465D01*
X106794426Y-122986823D01*
X106930532Y-122895880D01*
X107045012Y-122781400D01*
X109938600Y-122781400D01*
X109938600Y-122840246D01*
X109970535Y-123000794D01*
X110033177Y-123152026D01*
X110124120Y-123288132D01*
X110239868Y-123403880D01*
X110375974Y-123494823D01*
X110527206Y-123557465D01*
X110687754Y-123589400D01*
X110851446Y-123589400D01*
X111011994Y-123557465D01*
X111163226Y-123494823D01*
X111299332Y-123403880D01*
X111415080Y-123288132D01*
X111506023Y-123152026D01*
X111568665Y-123000794D01*
X111600600Y-122840246D01*
X111600600Y-122676554D01*
X111568665Y-122516006D01*
X111506023Y-122364774D01*
X111415080Y-122228668D01*
X111299332Y-122112920D01*
X111163226Y-122021977D01*
X111011994Y-121959335D01*
X110851446Y-121927400D01*
X110689546Y-121927400D01*
X110655521Y-121893375D01*
X110638890Y-121873110D01*
X110558035Y-121806754D01*
X110465788Y-121757447D01*
X110365694Y-121727083D01*
X110287684Y-121719400D01*
X110287674Y-121719400D01*
X110261600Y-121716832D01*
X110235526Y-121719400D01*
X107045012Y-121719400D01*
X106930532Y-121604920D01*
X106794426Y-121513977D01*
X106643194Y-121451335D01*
X106482646Y-121419400D01*
X106318954Y-121419400D01*
X106158406Y-121451335D01*
X106007174Y-121513977D01*
X105871068Y-121604920D01*
X105755320Y-121720668D01*
X105664377Y-121856774D01*
X105601735Y-122008006D01*
X105569800Y-122168554D01*
X104691800Y-122168554D01*
X104691800Y-122016154D01*
X104659865Y-121855606D01*
X104597223Y-121704374D01*
X104506280Y-121568268D01*
X104391800Y-121453788D01*
X104391800Y-120489146D01*
X107235147Y-117645800D01*
X107397046Y-117645800D01*
X107557594Y-117613865D01*
X107708826Y-117551223D01*
X107844932Y-117460280D01*
X107960680Y-117344532D01*
X108051623Y-117208426D01*
X108114265Y-117057194D01*
X108146200Y-116896646D01*
X108146200Y-116732954D01*
X108114265Y-116572406D01*
X108051623Y-116421174D01*
X107960680Y-116285068D01*
X107844932Y-116169320D01*
X107708826Y-116078377D01*
X107557594Y-116015735D01*
X107397046Y-115983800D01*
X107233354Y-115983800D01*
X107072806Y-116015735D01*
X106921574Y-116078377D01*
X106785468Y-116169320D01*
X106669720Y-116285068D01*
X106578777Y-116421174D01*
X106516135Y-116572406D01*
X106484200Y-116732954D01*
X106484200Y-116894853D01*
X103503775Y-119875279D01*
X103483510Y-119891910D01*
X103417154Y-119972765D01*
X103367847Y-120065013D01*
X103337483Y-120165107D01*
X103329800Y-120243117D01*
X103329800Y-120243126D01*
X103327232Y-120269200D01*
X103329800Y-120295274D01*
X103329801Y-121453787D01*
X103215320Y-121568268D01*
X103124377Y-121704374D01*
X103061735Y-121855606D01*
X103029800Y-122016154D01*
X100921382Y-122016154D01*
X101049329Y-121963157D01*
X101412159Y-121720721D01*
X101720721Y-121412159D01*
X101963157Y-121049329D01*
X102130149Y-120646174D01*
X102215281Y-120218186D01*
X102215281Y-119781814D01*
X102130149Y-119353826D01*
X101963157Y-118950671D01*
X101720721Y-118587841D01*
X101412159Y-118279279D01*
X101049329Y-118036843D01*
X100646174Y-117869851D01*
X100218186Y-117784719D01*
X99781814Y-117784719D01*
X99353826Y-117869851D01*
X98950671Y-118036843D01*
X98587841Y-118279279D01*
X98279279Y-118587841D01*
X98036843Y-118950671D01*
X97869851Y-119353826D01*
X97784719Y-119781814D01*
X84058361Y-119781814D01*
X77555101Y-113278554D01*
X82709800Y-113278554D01*
X82709800Y-113442246D01*
X82741735Y-113602794D01*
X82804377Y-113754026D01*
X82895320Y-113890132D01*
X83011068Y-114005880D01*
X83147174Y-114096823D01*
X83298406Y-114159465D01*
X83458954Y-114191400D01*
X83622646Y-114191400D01*
X83783194Y-114159465D01*
X83934426Y-114096823D01*
X84070532Y-114005880D01*
X84186280Y-113890132D01*
X84277223Y-113754026D01*
X84339865Y-113602794D01*
X84371800Y-113442246D01*
X84371800Y-113278554D01*
X84339865Y-113118006D01*
X84277223Y-112966774D01*
X84186280Y-112830668D01*
X84173400Y-112817788D01*
X84173400Y-110550212D01*
X84287880Y-110435732D01*
X84378823Y-110299626D01*
X84441465Y-110148394D01*
X84473400Y-109987846D01*
X84473400Y-109824154D01*
X84441465Y-109663606D01*
X84378823Y-109512374D01*
X84287880Y-109376268D01*
X84172132Y-109260520D01*
X84036026Y-109169577D01*
X83884794Y-109106935D01*
X83724246Y-109075000D01*
X83560554Y-109075000D01*
X83400006Y-109106935D01*
X83248774Y-109169577D01*
X83112668Y-109260520D01*
X82996920Y-109376268D01*
X82905977Y-109512374D01*
X82843335Y-109663606D01*
X82811400Y-109824154D01*
X82811400Y-109987846D01*
X82843335Y-110148394D01*
X82905977Y-110299626D01*
X82996920Y-110435732D01*
X83111400Y-110550212D01*
X83111401Y-112647880D01*
X83011068Y-112714920D01*
X82895320Y-112830668D01*
X82804377Y-112966774D01*
X82741735Y-113118006D01*
X82709800Y-113278554D01*
X77555101Y-113278554D01*
X76604479Y-112327933D01*
X76617080Y-112315332D01*
X76708023Y-112179226D01*
X76770665Y-112027994D01*
X76802600Y-111867446D01*
X76802600Y-111703754D01*
X76770665Y-111543206D01*
X76708023Y-111391974D01*
X76617080Y-111255868D01*
X76501332Y-111140120D01*
X76365226Y-111049177D01*
X76213994Y-110986535D01*
X76053446Y-110954600D01*
X75889754Y-110954600D01*
X75729206Y-110986535D01*
X75577974Y-111049177D01*
X75441868Y-111140120D01*
X75326120Y-111255868D01*
X75235177Y-111391974D01*
X75172535Y-111543206D01*
X75140600Y-111703754D01*
X64820963Y-111703754D01*
X64503255Y-110767820D01*
X63875007Y-108423167D01*
X63401452Y-106042445D01*
X63084618Y-103635848D01*
X62925861Y-101213682D01*
X62925861Y-99100000D01*
X97177157Y-99100000D01*
X97177157Y-100900000D01*
X97184513Y-100974689D01*
X97206299Y-101046508D01*
X97241678Y-101112696D01*
X97289289Y-101170711D01*
X97347304Y-101218322D01*
X97413492Y-101253701D01*
X97485311Y-101275487D01*
X97560000Y-101282843D01*
X98630000Y-101282843D01*
X98704689Y-101275487D01*
X98776508Y-101253701D01*
X98842696Y-101218322D01*
X98900711Y-101170711D01*
X98912217Y-101156691D01*
X99016309Y-101212038D01*
X99188258Y-101263789D01*
X99219731Y-101269408D01*
X99363000Y-101185748D01*
X99363000Y-100002000D01*
X99343000Y-100002000D01*
X99343000Y-99998000D01*
X99363000Y-99998000D01*
X99363000Y-98814252D01*
X99367000Y-98814252D01*
X99367000Y-99998000D01*
X99387000Y-99998000D01*
X99387000Y-100002000D01*
X99367000Y-100002000D01*
X99367000Y-101185748D01*
X99510269Y-101269408D01*
X99541742Y-101263789D01*
X99713691Y-101212038D01*
X99872240Y-101127736D01*
X99996645Y-101026093D01*
X100123636Y-101130311D01*
X100282767Y-101215368D01*
X100455434Y-101267746D01*
X100635000Y-101285432D01*
X100814567Y-101267746D01*
X100987234Y-101215368D01*
X101146365Y-101130311D01*
X101270001Y-101028846D01*
X101393636Y-101130311D01*
X101552767Y-101215368D01*
X101725434Y-101267746D01*
X101905000Y-101285432D01*
X102084567Y-101267746D01*
X102257234Y-101215368D01*
X102416365Y-101130311D01*
X102555844Y-101015844D01*
X102670311Y-100876365D01*
X102755368Y-100717234D01*
X102807746Y-100544567D01*
X102821000Y-100409998D01*
X102821000Y-99590002D01*
X102807746Y-99455433D01*
X102755368Y-99282766D01*
X102670311Y-99123635D01*
X102555844Y-98984156D01*
X102416364Y-98869689D01*
X102257233Y-98784632D01*
X102084566Y-98732254D01*
X101905000Y-98714568D01*
X101725433Y-98732254D01*
X101552766Y-98784632D01*
X101393635Y-98869689D01*
X101270000Y-98971153D01*
X101146364Y-98869689D01*
X100987233Y-98784632D01*
X100814566Y-98732254D01*
X100635000Y-98714568D01*
X100455433Y-98732254D01*
X100282766Y-98784632D01*
X100123635Y-98869689D01*
X99996645Y-98973907D01*
X99872240Y-98872264D01*
X99713691Y-98787962D01*
X99541742Y-98736211D01*
X99510269Y-98730592D01*
X99367000Y-98814252D01*
X99363000Y-98814252D01*
X99219731Y-98730592D01*
X99188258Y-98736211D01*
X99016309Y-98787962D01*
X98912217Y-98843309D01*
X98900711Y-98829289D01*
X98842696Y-98781678D01*
X98776508Y-98746299D01*
X98704689Y-98724513D01*
X98630000Y-98717157D01*
X97560000Y-98717157D01*
X97485311Y-98724513D01*
X97413492Y-98746299D01*
X97347304Y-98781678D01*
X97289289Y-98829289D01*
X97241678Y-98887304D01*
X97206299Y-98953492D01*
X97184513Y-99025311D01*
X97177157Y-99100000D01*
X62925861Y-99100000D01*
X62925861Y-98786318D01*
X63084618Y-96364152D01*
X63401452Y-93957555D01*
X63875007Y-91576833D01*
X64503255Y-89232180D01*
X65283506Y-86933637D01*
X66212417Y-84691045D01*
X67286013Y-82514009D01*
X68499694Y-80411851D01*
X69848265Y-78393572D01*
X71325950Y-76467816D01*
X72926422Y-74642827D01*
X74168695Y-73400554D01*
X84589400Y-73400554D01*
X84589400Y-73564246D01*
X84621335Y-73724794D01*
X84683977Y-73876026D01*
X84774920Y-74012132D01*
X84789401Y-74026613D01*
X84789400Y-86608610D01*
X84786348Y-86639600D01*
X84789400Y-86670590D01*
X84789400Y-86670597D01*
X84798530Y-86763297D01*
X84834611Y-86882241D01*
X84893204Y-86991860D01*
X84972057Y-87087943D01*
X84996137Y-87107705D01*
X90235499Y-92347068D01*
X90255257Y-92371143D01*
X90351339Y-92449996D01*
X90460958Y-92508589D01*
X90579902Y-92544670D01*
X90672602Y-92553800D01*
X90672611Y-92553800D01*
X90703599Y-92556852D01*
X90734587Y-92553800D01*
X99637032Y-92553800D01*
X106440699Y-99357468D01*
X106460457Y-99381543D01*
X106556539Y-99460396D01*
X106666158Y-99518989D01*
X106785102Y-99555070D01*
X106877802Y-99564200D01*
X106877809Y-99564200D01*
X106908800Y-99567252D01*
X106939790Y-99564200D01*
X112765388Y-99564200D01*
X112779868Y-99578680D01*
X112915974Y-99669623D01*
X113067206Y-99732265D01*
X113227754Y-99764200D01*
X113391446Y-99764200D01*
X113551994Y-99732265D01*
X113703226Y-99669623D01*
X113839332Y-99578680D01*
X113955080Y-99462932D01*
X114046023Y-99326826D01*
X114108665Y-99175594D01*
X114140600Y-99015046D01*
X114140600Y-98851354D01*
X114108665Y-98690806D01*
X114046023Y-98539574D01*
X113955080Y-98403468D01*
X113839332Y-98287720D01*
X113703226Y-98196777D01*
X113551994Y-98134135D01*
X113391446Y-98102200D01*
X113227754Y-98102200D01*
X113067206Y-98134135D01*
X112915974Y-98196777D01*
X112779868Y-98287720D01*
X112765388Y-98302200D01*
X107170169Y-98302200D01*
X100366505Y-91498537D01*
X100346743Y-91474457D01*
X100250661Y-91395604D01*
X100141042Y-91337011D01*
X100022098Y-91300930D01*
X99929398Y-91291800D01*
X99929390Y-91291800D01*
X99898400Y-91288748D01*
X99867410Y-91291800D01*
X90964969Y-91291800D01*
X86051400Y-86378232D01*
X86051400Y-74026612D01*
X86065880Y-74012132D01*
X86156823Y-73876026D01*
X86219465Y-73724794D01*
X86251400Y-73564246D01*
X86251400Y-73400554D01*
X86219465Y-73240006D01*
X86156823Y-73088774D01*
X86065880Y-72952668D01*
X85950132Y-72836920D01*
X85814026Y-72745977D01*
X85662794Y-72683335D01*
X85502246Y-72651400D01*
X85338554Y-72651400D01*
X85178006Y-72683335D01*
X85026774Y-72745977D01*
X84890668Y-72836920D01*
X84774920Y-72952668D01*
X84683977Y-73088774D01*
X84621335Y-73240006D01*
X84589400Y-73400554D01*
X74168695Y-73400554D01*
X74642827Y-72926422D01*
X76467816Y-71325950D01*
X78393572Y-69848265D01*
X80411851Y-68499694D01*
X82514009Y-67286013D01*
X84691045Y-66212417D01*
X86933637Y-65283506D01*
X89232180Y-64503255D01*
X91576833Y-63875007D01*
X93957555Y-63401452D01*
X96364152Y-63084618D01*
X98786318Y-62925861D01*
X101213682Y-62925861D01*
X103635848Y-63084618D01*
G37*
X103635848Y-63084618D02*
X106042445Y-63401452D01*
X108423167Y-63875007D01*
X110767820Y-64503255D01*
X113066363Y-65283506D01*
X115308955Y-66212417D01*
X117485991Y-67286013D01*
X119588149Y-68499694D01*
X121606428Y-69848265D01*
X123532184Y-71325950D01*
X125357173Y-72926422D01*
X127073578Y-74642827D01*
X128674050Y-76467816D01*
X130151735Y-78393572D01*
X131500306Y-80411851D01*
X132713987Y-82514009D01*
X133787583Y-84691045D01*
X134716494Y-86933637D01*
X135496745Y-89232180D01*
X136124993Y-91576833D01*
X136598548Y-93957555D01*
X136915382Y-96364152D01*
X137074139Y-98786318D01*
X137074139Y-101213682D01*
X136915382Y-103635848D01*
X136598548Y-106042445D01*
X136124993Y-108423167D01*
X135496745Y-110767820D01*
X134716494Y-113066363D01*
X133787583Y-115308955D01*
X132713987Y-117485991D01*
X131500306Y-119588149D01*
X130151735Y-121606428D01*
X128674050Y-123532184D01*
X127073578Y-125357173D01*
X125357173Y-127073578D01*
X123532184Y-128674050D01*
X121606428Y-130151735D01*
X119588149Y-131500306D01*
X117485991Y-132713987D01*
X115308955Y-133787583D01*
X113066363Y-134716494D01*
X110767820Y-135496745D01*
X108423167Y-136124993D01*
X106042445Y-136598548D01*
X103635848Y-136915382D01*
X101213682Y-137074139D01*
X98786318Y-137074139D01*
X96364152Y-136915382D01*
X93957555Y-136598548D01*
X91576833Y-136124993D01*
X89232180Y-135496745D01*
X86933637Y-134716494D01*
X84691045Y-133787583D01*
X82514009Y-132713987D01*
X80411851Y-131500306D01*
X78393572Y-130151735D01*
X76467816Y-128674050D01*
X74642827Y-127073578D01*
X72926422Y-125357173D01*
X71325950Y-123532184D01*
X69848265Y-121606428D01*
X68499694Y-119588149D01*
X67286013Y-117485991D01*
X66212417Y-115308955D01*
X65283506Y-113066363D01*
X64820963Y-111703754D01*
X75140600Y-111703754D01*
X75140600Y-111867446D01*
X75172535Y-112027994D01*
X75235177Y-112179226D01*
X75326120Y-112315332D01*
X75439714Y-112428926D01*
X75438032Y-112446000D01*
X75440600Y-112472074D01*
X75440600Y-112472083D01*
X75448283Y-112550093D01*
X75478647Y-112650187D01*
X75527954Y-112742435D01*
X75594310Y-112823290D01*
X75614575Y-112839921D01*
X93276200Y-130501547D01*
X93276200Y-130663446D01*
X93308135Y-130823994D01*
X93370777Y-130975226D01*
X93461720Y-131111332D01*
X93577468Y-131227080D01*
X93713574Y-131318023D01*
X93864806Y-131380665D01*
X94025354Y-131412600D01*
X94187254Y-131412600D01*
X95237283Y-132462630D01*
X95253910Y-132482890D01*
X95274170Y-132499517D01*
X95334764Y-132549246D01*
X95384071Y-132575601D01*
X95427012Y-132598553D01*
X95527106Y-132628917D01*
X95605116Y-132636600D01*
X95605127Y-132636600D01*
X95631199Y-132639168D01*
X95657271Y-132636600D01*
X100981388Y-132636600D01*
X101095868Y-132751080D01*
X101231974Y-132842023D01*
X101383206Y-132904665D01*
X101543754Y-132936600D01*
X101707446Y-132936600D01*
X101867994Y-132904665D01*
X102019226Y-132842023D01*
X102155332Y-132751080D01*
X102269812Y-132636600D01*
X107187526Y-132636600D01*
X107213600Y-132639168D01*
X107239674Y-132636600D01*
X107239684Y-132636600D01*
X107317694Y-132628917D01*
X107417788Y-132598553D01*
X107510035Y-132549246D01*
X107590890Y-132482890D01*
X107607521Y-132462625D01*
X113477068Y-126593078D01*
X115045000Y-126593078D01*
X115045000Y-126746922D01*
X115075013Y-126897809D01*
X115133887Y-127039942D01*
X115219358Y-127167859D01*
X115328141Y-127276642D01*
X115456058Y-127362113D01*
X115598191Y-127420987D01*
X115749078Y-127451000D01*
X115902922Y-127451000D01*
X116053809Y-127420987D01*
X116195942Y-127362113D01*
X116323859Y-127276642D01*
X116432642Y-127167859D01*
X116518113Y-127039942D01*
X116576987Y-126897809D01*
X116607000Y-126746922D01*
X116607000Y-126593078D01*
X116576987Y-126442191D01*
X116518113Y-126300058D01*
X116432642Y-126172141D01*
X116323859Y-126063358D01*
X116195942Y-125977887D01*
X116053809Y-125919013D01*
X115902922Y-125889000D01*
X115749078Y-125889000D01*
X115598191Y-125919013D01*
X115456058Y-125977887D01*
X115328141Y-126063358D01*
X115219358Y-126172141D01*
X115133887Y-126300058D01*
X115075013Y-126442191D01*
X115045000Y-126593078D01*
X113477068Y-126593078D01*
X118766747Y-121303400D01*
X118928646Y-121303400D01*
X119089194Y-121271465D01*
X119240426Y-121208823D01*
X119376532Y-121117880D01*
X119492280Y-121002132D01*
X119583223Y-120866026D01*
X119645865Y-120714794D01*
X119677800Y-120554246D01*
X119677800Y-120390554D01*
X119645865Y-120230006D01*
X119583223Y-120078774D01*
X119492280Y-119942668D01*
X119377800Y-119828188D01*
X119377800Y-119422348D01*
X119935149Y-118865000D01*
X120097048Y-118865000D01*
X120257596Y-118833065D01*
X120408828Y-118770423D01*
X120544934Y-118679480D01*
X120660682Y-118563732D01*
X120751625Y-118427626D01*
X120814267Y-118276394D01*
X120846202Y-118115846D01*
X120846202Y-117953948D01*
X120859119Y-117941031D01*
X120859128Y-117941020D01*
X126468230Y-112331919D01*
X126488490Y-112315292D01*
X126516776Y-112280826D01*
X126554846Y-112234438D01*
X126582000Y-112183635D01*
X126604153Y-112142190D01*
X126634517Y-112042096D01*
X126642200Y-111964086D01*
X126642200Y-111964077D01*
X126644768Y-111938003D01*
X126642200Y-111911929D01*
X126642200Y-110143812D01*
X126756680Y-110029332D01*
X126847623Y-109893226D01*
X126910265Y-109741994D01*
X126942200Y-109581446D01*
X126942200Y-109419546D01*
X127738230Y-108623517D01*
X127758490Y-108606890D01*
X127775117Y-108586630D01*
X127824846Y-108526036D01*
X127842021Y-108493904D01*
X127874153Y-108433788D01*
X127904517Y-108333694D01*
X127912200Y-108255684D01*
X127912200Y-108255675D01*
X127914768Y-108229601D01*
X127912200Y-108203527D01*
X127912200Y-94649812D01*
X128026680Y-94535332D01*
X128117623Y-94399226D01*
X128180265Y-94247994D01*
X128212200Y-94087446D01*
X128212200Y-93925546D01*
X128652630Y-93485117D01*
X128672890Y-93468490D01*
X128689517Y-93448230D01*
X128739246Y-93387636D01*
X128788553Y-93295388D01*
X128796504Y-93269177D01*
X128818917Y-93195294D01*
X128826600Y-93117284D01*
X128826600Y-93117274D01*
X128829168Y-93091200D01*
X128826600Y-93065126D01*
X128826600Y-84074874D01*
X128829168Y-84048800D01*
X128826600Y-84022726D01*
X128826600Y-84022716D01*
X128818917Y-83944706D01*
X128788553Y-83844612D01*
X128774748Y-83818784D01*
X128739246Y-83752364D01*
X128689518Y-83691770D01*
X128689512Y-83691764D01*
X128672890Y-83671510D01*
X128652636Y-83654888D01*
X121729921Y-76732175D01*
X121713290Y-76711910D01*
X121632435Y-76645554D01*
X121540188Y-76596247D01*
X121440094Y-76565883D01*
X121362084Y-76558200D01*
X121362074Y-76558200D01*
X121336000Y-76555632D01*
X121309926Y-76558200D01*
X112531412Y-76558200D01*
X112416932Y-76443720D01*
X112280826Y-76352777D01*
X112129594Y-76290135D01*
X111969046Y-76258200D01*
X111807147Y-76258200D01*
X110553921Y-75004975D01*
X110537290Y-74984710D01*
X110456435Y-74918354D01*
X110364188Y-74869047D01*
X110264094Y-74838683D01*
X110186084Y-74831000D01*
X110186074Y-74831000D01*
X110160000Y-74828432D01*
X110133926Y-74831000D01*
X98908473Y-74831000D01*
X98882399Y-74828432D01*
X98856325Y-74831000D01*
X98856316Y-74831000D01*
X98778306Y-74838683D01*
X98678212Y-74869047D01*
X98618096Y-74901179D01*
X98585964Y-74918354D01*
X98525370Y-74968083D01*
X98505110Y-74984710D01*
X98488483Y-75004970D01*
X96137771Y-77355683D01*
X96117511Y-77372310D01*
X96100884Y-77392570D01*
X96100883Y-77392571D01*
X96051154Y-77453165D01*
X96001847Y-77545413D01*
X95971484Y-77645507D01*
X95961232Y-77749600D01*
X95963801Y-77775684D01*
X95963800Y-83219252D01*
X95914453Y-83268600D01*
X95752554Y-83268600D01*
X95592006Y-83300535D01*
X95440774Y-83363177D01*
X95304668Y-83454120D01*
X95188920Y-83569868D01*
X95097977Y-83705974D01*
X95035335Y-83857206D01*
X95003400Y-84017754D01*
X95003400Y-84181446D01*
X95035335Y-84341994D01*
X95097977Y-84493226D01*
X95188920Y-84629332D01*
X95304668Y-84745080D01*
X95440774Y-84836023D01*
X95592006Y-84898665D01*
X95752554Y-84930600D01*
X95916246Y-84930600D01*
X96076794Y-84898665D01*
X96228026Y-84836023D01*
X96364132Y-84745080D01*
X96479880Y-84629332D01*
X96570823Y-84493226D01*
X96633465Y-84341994D01*
X96665400Y-84181446D01*
X96665400Y-84019547D01*
X96851835Y-83833113D01*
X96872090Y-83816490D01*
X96888712Y-83796236D01*
X96888718Y-83796230D01*
X96938446Y-83735636D01*
X96987753Y-83643388D01*
X96999351Y-83605154D01*
X97018117Y-83543294D01*
X97025800Y-83465284D01*
X97025800Y-83465274D01*
X97028368Y-83439200D01*
X97025800Y-83413126D01*
X97025800Y-79781814D01*
X97784719Y-79781814D01*
X97784719Y-80218186D01*
X97869851Y-80646174D01*
X98036843Y-81049329D01*
X98279279Y-81412159D01*
X98587841Y-81720721D01*
X98950671Y-81963157D01*
X99353826Y-82130149D01*
X99781814Y-82215281D01*
X100218186Y-82215281D01*
X100646174Y-82130149D01*
X101049329Y-81963157D01*
X101412159Y-81720721D01*
X101720721Y-81412159D01*
X101963157Y-81049329D01*
X102130149Y-80646174D01*
X102215281Y-80218186D01*
X102215281Y-79781814D01*
X102130149Y-79353826D01*
X101963157Y-78950671D01*
X101720721Y-78587841D01*
X101412159Y-78279279D01*
X101049329Y-78036843D01*
X100646174Y-77869851D01*
X100218186Y-77784719D01*
X99781814Y-77784719D01*
X99353826Y-77869851D01*
X98950671Y-78036843D01*
X98587841Y-78279279D01*
X98279279Y-78587841D01*
X98036843Y-78950671D01*
X97869851Y-79353826D01*
X97784719Y-79781814D01*
X97025800Y-79781814D01*
X97025800Y-77969546D01*
X99102347Y-75893000D01*
X109940054Y-75893000D01*
X111056200Y-77009147D01*
X111056200Y-77171046D01*
X111088135Y-77331594D01*
X111150777Y-77482826D01*
X111241720Y-77618932D01*
X111356200Y-77733412D01*
X111356201Y-82322009D01*
X111289206Y-82335335D01*
X111137974Y-82397977D01*
X111001868Y-82488920D01*
X110886120Y-82604668D01*
X110795177Y-82740774D01*
X110732535Y-82892006D01*
X110700600Y-83052554D01*
X110700600Y-83216246D01*
X110732535Y-83376794D01*
X110795177Y-83528026D01*
X110886120Y-83664132D01*
X111000600Y-83778612D01*
X111000601Y-85774680D01*
X110900268Y-85841720D01*
X110784520Y-85957468D01*
X110693577Y-86093574D01*
X110630935Y-86244806D01*
X110599000Y-86405354D01*
X110599000Y-86569046D01*
X110630935Y-86729594D01*
X110693577Y-86880826D01*
X110784520Y-87016932D01*
X110900268Y-87132680D01*
X111036374Y-87223623D01*
X111187606Y-87286265D01*
X111348154Y-87318200D01*
X111511846Y-87318200D01*
X111672394Y-87286265D01*
X111823626Y-87223623D01*
X111959732Y-87132680D01*
X112075480Y-87016932D01*
X112166423Y-86880826D01*
X112229065Y-86729594D01*
X112261000Y-86569046D01*
X112261000Y-86405354D01*
X112229065Y-86244806D01*
X112166423Y-86093574D01*
X112075480Y-85957468D01*
X112062600Y-85944588D01*
X112062600Y-83778612D01*
X112177080Y-83664132D01*
X112268023Y-83528026D01*
X112330665Y-83376794D01*
X112362600Y-83216246D01*
X112362600Y-83052554D01*
X112357276Y-83025788D01*
X112373436Y-82995554D01*
X112380153Y-82982988D01*
X112410517Y-82882894D01*
X112418200Y-82804884D01*
X112418200Y-82804875D01*
X112420768Y-82778801D01*
X112418200Y-82752727D01*
X112418200Y-77733412D01*
X112531412Y-77620200D01*
X121116054Y-77620200D01*
X125245252Y-81749399D01*
X124552875Y-81749399D01*
X124526801Y-81746831D01*
X124500727Y-81749399D01*
X124500717Y-81749399D01*
X124422707Y-81757082D01*
X124322613Y-81787446D01*
X124230366Y-81836753D01*
X124149511Y-81903109D01*
X124132882Y-81923371D01*
X124121378Y-81934876D01*
X124121369Y-81934883D01*
X124108452Y-81947800D01*
X123946554Y-81947800D01*
X123786006Y-81979735D01*
X123634774Y-82042377D01*
X123498668Y-82133320D01*
X123382920Y-82249068D01*
X123291977Y-82385174D01*
X123229335Y-82536406D01*
X123197400Y-82696954D01*
X123197400Y-82860646D01*
X123229335Y-83021194D01*
X123291977Y-83172426D01*
X123382920Y-83308532D01*
X123498668Y-83424280D01*
X123634774Y-83515223D01*
X123786006Y-83577865D01*
X123946554Y-83609800D01*
X124110246Y-83609800D01*
X124270794Y-83577865D01*
X124422026Y-83515223D01*
X124558132Y-83424280D01*
X124673880Y-83308532D01*
X124740218Y-83209250D01*
X124753335Y-83275194D01*
X124815977Y-83426426D01*
X124906920Y-83562532D01*
X125022668Y-83678280D01*
X125158774Y-83769223D01*
X125310006Y-83831865D01*
X125470554Y-83863800D01*
X125632453Y-83863800D01*
X126799401Y-85030749D01*
X126799401Y-85268300D01*
X126709194Y-85230935D01*
X126548646Y-85199000D01*
X126384954Y-85199000D01*
X126224406Y-85230935D01*
X126073174Y-85293577D01*
X125937068Y-85384520D01*
X125821320Y-85500268D01*
X125730377Y-85636374D01*
X125667735Y-85787606D01*
X125635800Y-85948154D01*
X125635800Y-86111846D01*
X125667735Y-86272394D01*
X125730377Y-86423626D01*
X125821320Y-86559732D01*
X125935801Y-86674213D01*
X125935800Y-87537253D01*
X125322855Y-88150199D01*
X119472875Y-88150199D01*
X119446801Y-88147631D01*
X119420727Y-88150199D01*
X119420717Y-88150199D01*
X119342707Y-88157882D01*
X119242613Y-88188246D01*
X119150365Y-88237553D01*
X119089771Y-88287281D01*
X119089765Y-88287287D01*
X119069511Y-88303909D01*
X119052888Y-88324164D01*
X118489770Y-88887284D01*
X118469511Y-88903910D01*
X118452884Y-88924170D01*
X118452883Y-88924171D01*
X118403154Y-88984765D01*
X118353847Y-89077013D01*
X118336679Y-89133608D01*
X118323484Y-89177106D01*
X118320370Y-89208727D01*
X118313232Y-89281200D01*
X118315801Y-89307284D01*
X118315800Y-109515788D01*
X118201320Y-109630268D01*
X118110377Y-109766374D01*
X118047735Y-109917606D01*
X118015800Y-110078154D01*
X118015800Y-110241846D01*
X118047735Y-110402394D01*
X118110377Y-110553626D01*
X118201320Y-110689732D01*
X118317068Y-110805480D01*
X118453174Y-110896423D01*
X118604406Y-110959065D01*
X118764954Y-110991000D01*
X118928646Y-110991000D01*
X119000851Y-110976637D01*
X118963447Y-111046617D01*
X118942295Y-111116347D01*
X118933084Y-111146710D01*
X118925400Y-111224720D01*
X118925400Y-111224730D01*
X118923405Y-111244983D01*
X118810920Y-111357468D01*
X118719977Y-111493574D01*
X118657335Y-111644806D01*
X118625400Y-111805354D01*
X118625400Y-111969046D01*
X118657335Y-112129594D01*
X118719977Y-112280826D01*
X118810920Y-112416932D01*
X118905216Y-112511228D01*
X118872377Y-112560374D01*
X118809735Y-112711606D01*
X118777800Y-112872154D01*
X118777800Y-113035846D01*
X118809735Y-113196394D01*
X118872377Y-113347626D01*
X118963320Y-113483732D01*
X119079068Y-113599480D01*
X119215174Y-113690423D01*
X119366406Y-113753065D01*
X119526954Y-113785000D01*
X119690646Y-113785000D01*
X119851194Y-113753065D01*
X120002426Y-113690423D01*
X120138532Y-113599480D01*
X120254280Y-113483732D01*
X120345223Y-113347626D01*
X120407865Y-113196394D01*
X120439800Y-113035846D01*
X120439800Y-112873947D01*
X120565836Y-112747912D01*
X120586091Y-112731289D01*
X120602713Y-112711035D01*
X120602719Y-112711029D01*
X120652447Y-112650435D01*
X120701754Y-112558187D01*
X120704209Y-112550093D01*
X120732118Y-112458093D01*
X120739801Y-112380083D01*
X120739801Y-112380073D01*
X120742369Y-112353999D01*
X120739801Y-112327925D01*
X120739801Y-90556949D01*
X121179735Y-90117017D01*
X125891517Y-90117017D01*
X125917591Y-90119585D01*
X125943665Y-90117017D01*
X125943675Y-90117017D01*
X126021685Y-90109334D01*
X126121779Y-90078970D01*
X126214026Y-90029663D01*
X126294881Y-89963307D01*
X126311512Y-89943042D01*
X127764600Y-88489954D01*
X127764601Y-92871252D01*
X127461254Y-93174600D01*
X127299354Y-93174600D01*
X127138806Y-93206535D01*
X126987574Y-93269177D01*
X126851468Y-93360120D01*
X126735720Y-93475868D01*
X126644777Y-93611974D01*
X126582135Y-93763206D01*
X126550200Y-93923754D01*
X126550200Y-94087446D01*
X126582135Y-94247994D01*
X126644777Y-94399226D01*
X126735720Y-94535332D01*
X126850200Y-94649812D01*
X126850201Y-108009652D01*
X126191254Y-108668600D01*
X126029354Y-108668600D01*
X125868806Y-108700535D01*
X125717574Y-108763177D01*
X125581468Y-108854120D01*
X125465720Y-108969868D01*
X125374777Y-109105974D01*
X125312135Y-109257206D01*
X125280200Y-109417754D01*
X125280200Y-109581446D01*
X125312135Y-109741994D01*
X125374777Y-109893226D01*
X125465720Y-110029332D01*
X125580200Y-110143812D01*
X125580201Y-111718054D01*
X120508873Y-116789383D01*
X120508155Y-116787018D01*
X120458848Y-116694770D01*
X120409119Y-116634176D01*
X120392492Y-116613916D01*
X120372232Y-116597289D01*
X114511941Y-110736999D01*
X114617626Y-110693223D01*
X114753732Y-110602280D01*
X114869480Y-110486532D01*
X114960423Y-110350426D01*
X115023065Y-110199194D01*
X115055000Y-110038646D01*
X115055000Y-109876746D01*
X115341881Y-109589865D01*
X115420933Y-109708175D01*
X115536681Y-109823923D01*
X115672787Y-109914866D01*
X115824019Y-109977508D01*
X115984567Y-110009443D01*
X116148259Y-110009443D01*
X116308807Y-109977508D01*
X116460039Y-109914866D01*
X116596145Y-109823923D01*
X116711893Y-109708175D01*
X116732189Y-109677801D01*
X116793068Y-109738680D01*
X116929174Y-109829623D01*
X117080406Y-109892265D01*
X117240954Y-109924200D01*
X117404646Y-109924200D01*
X117565194Y-109892265D01*
X117716426Y-109829623D01*
X117852532Y-109738680D01*
X117968280Y-109622932D01*
X118059223Y-109486826D01*
X118121865Y-109335594D01*
X118153800Y-109175046D01*
X118153800Y-109011354D01*
X118121865Y-108850806D01*
X118059223Y-108699574D01*
X117968280Y-108563468D01*
X117853800Y-108448988D01*
X117853800Y-88789946D01*
X118512747Y-88131000D01*
X118674646Y-88131000D01*
X118835194Y-88099065D01*
X118986426Y-88036423D01*
X119122532Y-87945480D01*
X119238280Y-87829732D01*
X119329223Y-87693626D01*
X119391865Y-87542394D01*
X119423800Y-87381846D01*
X119423800Y-87218154D01*
X119391865Y-87057606D01*
X119329223Y-86906374D01*
X119238280Y-86770268D01*
X119122532Y-86654520D01*
X118986426Y-86563577D01*
X118835194Y-86500935D01*
X118674646Y-86469000D01*
X118510954Y-86469000D01*
X118350406Y-86500935D01*
X118199174Y-86563577D01*
X118063068Y-86654520D01*
X117947320Y-86770268D01*
X117856377Y-86906374D01*
X117793735Y-87057606D01*
X117761800Y-87218154D01*
X117761800Y-87380053D01*
X116965771Y-88176083D01*
X116945511Y-88192710D01*
X116944189Y-88194321D01*
X116944189Y-86810200D01*
X116947442Y-86810200D01*
X117107990Y-86778265D01*
X117259222Y-86715623D01*
X117395328Y-86624680D01*
X117511076Y-86508932D01*
X117602019Y-86372826D01*
X117664661Y-86221594D01*
X117696596Y-86061046D01*
X117696596Y-85897354D01*
X117664661Y-85736806D01*
X117602019Y-85585574D01*
X117540965Y-85494200D01*
X118507388Y-85494200D01*
X118621868Y-85608680D01*
X118757974Y-85699623D01*
X118909206Y-85762265D01*
X119069754Y-85794200D01*
X119233446Y-85794200D01*
X119393994Y-85762265D01*
X119545226Y-85699623D01*
X119681332Y-85608680D01*
X119797080Y-85492932D01*
X119888023Y-85356826D01*
X119950665Y-85205594D01*
X119982600Y-85045046D01*
X119982600Y-84881354D01*
X119950665Y-84720806D01*
X119888023Y-84569574D01*
X119797080Y-84433468D01*
X119681332Y-84317720D01*
X119545226Y-84226777D01*
X119393994Y-84164135D01*
X119233446Y-84132200D01*
X119069754Y-84132200D01*
X118909206Y-84164135D01*
X118757974Y-84226777D01*
X118621868Y-84317720D01*
X118507388Y-84432200D01*
X116590919Y-84432200D01*
X116564845Y-84429632D01*
X116538771Y-84432200D01*
X116538762Y-84432200D01*
X116460752Y-84439883D01*
X116360658Y-84470247D01*
X116268410Y-84519554D01*
X116241361Y-84541753D01*
X116187556Y-84585910D01*
X116170929Y-84606170D01*
X115603748Y-85173352D01*
X115583489Y-85189978D01*
X115566862Y-85210238D01*
X115566861Y-85210239D01*
X115517132Y-85270833D01*
X115467825Y-85363081D01*
X115461322Y-85384520D01*
X115439674Y-85455884D01*
X115437462Y-85463175D01*
X115427210Y-85567268D01*
X115429779Y-85593352D01*
X115429778Y-107172655D01*
X115398713Y-107097658D01*
X115313242Y-106969741D01*
X115204459Y-106860958D01*
X115076542Y-106775487D01*
X114934409Y-106716613D01*
X114783522Y-106686600D01*
X114629678Y-106686600D01*
X114478791Y-106716613D01*
X114336658Y-106775487D01*
X114208741Y-106860958D01*
X114099958Y-106969741D01*
X114014487Y-107097658D01*
X113955613Y-107239791D01*
X113925600Y-107390678D01*
X113925600Y-107544522D01*
X113955613Y-107695409D01*
X114014487Y-107837542D01*
X114099958Y-107965459D01*
X114208741Y-108074242D01*
X114336658Y-108159713D01*
X114478791Y-108218587D01*
X114629678Y-108248600D01*
X114783522Y-108248600D01*
X114934409Y-108218587D01*
X115076542Y-108159713D01*
X115204459Y-108074242D01*
X115313242Y-107965459D01*
X115398713Y-107837542D01*
X115429778Y-107762545D01*
X115429778Y-108000075D01*
X114304054Y-109125800D01*
X114142154Y-109125800D01*
X113981606Y-109157735D01*
X113830374Y-109220377D01*
X113694268Y-109311320D01*
X113578520Y-109427068D01*
X113487577Y-109563174D01*
X113443801Y-109668859D01*
X112815917Y-109040975D01*
X112799286Y-109020710D01*
X112718431Y-108954354D01*
X112626184Y-108905047D01*
X112526090Y-108874683D01*
X112448080Y-108867000D01*
X112448070Y-108867000D01*
X112421996Y-108864432D01*
X112395922Y-108867000D01*
X112277412Y-108867000D01*
X112162932Y-108752520D01*
X112026826Y-108661577D01*
X111875594Y-108598935D01*
X111715046Y-108567000D01*
X111551354Y-108567000D01*
X111390806Y-108598935D01*
X111239574Y-108661577D01*
X111103468Y-108752520D01*
X110987720Y-108868268D01*
X110896777Y-109004374D01*
X110834135Y-109155606D01*
X110802200Y-109316154D01*
X110802200Y-109479846D01*
X110834135Y-109640394D01*
X110896777Y-109791626D01*
X110987720Y-109927732D01*
X111103468Y-110043480D01*
X111239574Y-110134423D01*
X111390806Y-110197065D01*
X111551354Y-110229000D01*
X111715046Y-110229000D01*
X111875594Y-110197065D01*
X112026826Y-110134423D01*
X112162932Y-110043480D01*
X112239731Y-109966681D01*
X115506686Y-113233636D01*
X115370668Y-113324520D01*
X115256188Y-113439000D01*
X96460747Y-113439000D01*
X93231121Y-110209375D01*
X93214490Y-110189110D01*
X93133635Y-110122754D01*
X93041388Y-110073447D01*
X92941294Y-110043083D01*
X92863284Y-110035400D01*
X92863274Y-110035400D01*
X92837200Y-110032832D01*
X92811126Y-110035400D01*
X92516212Y-110035400D01*
X92401732Y-109920920D01*
X92265626Y-109829977D01*
X92114394Y-109767335D01*
X91953846Y-109735400D01*
X91790154Y-109735400D01*
X91629606Y-109767335D01*
X91478374Y-109829977D01*
X91342268Y-109920920D01*
X91226520Y-110036668D01*
X91135577Y-110172774D01*
X91072935Y-110324006D01*
X91041000Y-110484554D01*
X91041000Y-110648246D01*
X91072935Y-110808794D01*
X91135577Y-110960026D01*
X91226520Y-111096132D01*
X91342268Y-111211880D01*
X91478374Y-111302823D01*
X91629606Y-111365465D01*
X91790154Y-111397400D01*
X91953846Y-111397400D01*
X92114394Y-111365465D01*
X92265626Y-111302823D01*
X92401732Y-111211880D01*
X92516212Y-111097400D01*
X92617254Y-111097400D01*
X95846883Y-114327030D01*
X95863510Y-114347290D01*
X95883770Y-114363917D01*
X95944364Y-114413646D01*
X95976496Y-114430821D01*
X96036612Y-114462953D01*
X96136706Y-114493317D01*
X96214716Y-114501000D01*
X96214725Y-114501000D01*
X96240799Y-114503568D01*
X96266873Y-114501000D01*
X115256188Y-114501000D01*
X115370668Y-114615480D01*
X115506774Y-114706423D01*
X115658006Y-114769065D01*
X115818554Y-114801000D01*
X115982246Y-114801000D01*
X116142794Y-114769065D01*
X116294026Y-114706423D01*
X116430132Y-114615480D01*
X116545880Y-114499732D01*
X116636764Y-114363714D01*
X119484202Y-117211153D01*
X119484202Y-117389788D01*
X119369722Y-117504268D01*
X119278779Y-117640374D01*
X119216137Y-117791606D01*
X119184202Y-117952154D01*
X119184202Y-118114053D01*
X118489771Y-118808485D01*
X118469511Y-118825112D01*
X118452884Y-118845372D01*
X118452883Y-118845373D01*
X118403154Y-118905967D01*
X118353847Y-118998215D01*
X118350028Y-119010806D01*
X118323484Y-119098308D01*
X118318481Y-119149107D01*
X118313232Y-119202402D01*
X118315801Y-119228486D01*
X118315801Y-119828187D01*
X118202588Y-119941400D01*
X109211547Y-119941400D01*
X108603400Y-119333254D01*
X108603400Y-119171354D01*
X108571465Y-119010806D01*
X108508823Y-118859574D01*
X108417880Y-118723468D01*
X108302132Y-118607720D01*
X108166026Y-118516777D01*
X108014794Y-118454135D01*
X107854246Y-118422200D01*
X107690554Y-118422200D01*
X107530006Y-118454135D01*
X107378774Y-118516777D01*
X107242668Y-118607720D01*
X107126920Y-118723468D01*
X107035977Y-118859574D01*
X106973335Y-119010806D01*
X106941400Y-119171354D01*
X106941400Y-119335046D01*
X106973335Y-119495594D01*
X107035977Y-119646826D01*
X107126920Y-119782932D01*
X107242668Y-119898680D01*
X107378774Y-119989623D01*
X107530006Y-120052265D01*
X107690554Y-120084200D01*
X107852454Y-120084200D01*
X108597683Y-120829430D01*
X108614310Y-120849690D01*
X108634570Y-120866317D01*
X108695164Y-120916046D01*
X108787412Y-120965353D01*
X108887506Y-120995717D01*
X108965516Y-121003400D01*
X108965525Y-121003400D01*
X108991599Y-121005968D01*
X109017673Y-121003400D01*
X117564853Y-121003400D01*
X106993654Y-131574600D01*
X102269812Y-131574600D01*
X102155332Y-131460120D01*
X102019226Y-131369177D01*
X101867994Y-131306535D01*
X101707446Y-131274600D01*
X101543754Y-131274600D01*
X101383206Y-131306535D01*
X101231974Y-131369177D01*
X101095868Y-131460120D01*
X100981388Y-131574600D01*
X95851147Y-131574600D01*
X94938200Y-130661654D01*
X94938200Y-130499754D01*
X94906265Y-130339206D01*
X94843623Y-130187974D01*
X94752680Y-130051868D01*
X94636932Y-129936120D01*
X94500826Y-129845177D01*
X94349594Y-129782535D01*
X94189046Y-129750600D01*
X94027147Y-129750600D01*
X89462776Y-125186229D01*
X90229000Y-125186229D01*
X90229000Y-125359771D01*
X90262856Y-125529978D01*
X90329268Y-125690310D01*
X90425682Y-125834605D01*
X90548395Y-125957318D01*
X90692690Y-126053732D01*
X90853022Y-126120144D01*
X91023229Y-126154000D01*
X91196771Y-126154000D01*
X91366978Y-126120144D01*
X91527310Y-126053732D01*
X91671605Y-125957318D01*
X91794318Y-125834605D01*
X91890732Y-125690310D01*
X91957144Y-125529978D01*
X91991000Y-125359771D01*
X91991000Y-125186229D01*
X91957144Y-125016022D01*
X91890732Y-124855690D01*
X91794318Y-124711395D01*
X91671605Y-124588682D01*
X91662433Y-124582554D01*
X91667207Y-124563036D01*
X91110000Y-124005828D01*
X90552793Y-124563036D01*
X90557567Y-124582554D01*
X90548395Y-124588682D01*
X90425682Y-124711395D01*
X90329268Y-124855690D01*
X90262856Y-125016022D01*
X90229000Y-125186229D01*
X89462776Y-125186229D01*
X88246792Y-123970245D01*
X90225342Y-123970245D01*
X90235950Y-124143462D01*
X90280148Y-124311282D01*
X90356236Y-124467254D01*
X90392633Y-124521725D01*
X90549964Y-124560207D01*
X91107172Y-124003000D01*
X91112828Y-124003000D01*
X91670036Y-124560207D01*
X91827367Y-124521725D01*
X91914782Y-124371806D01*
X91971269Y-124207714D01*
X91994658Y-124035755D01*
X91984050Y-123862538D01*
X91939852Y-123694718D01*
X91863764Y-123538746D01*
X91827367Y-123484275D01*
X91670036Y-123445793D01*
X91112828Y-124003000D01*
X91107172Y-124003000D01*
X90549964Y-123445793D01*
X90392633Y-123484275D01*
X90305218Y-123634194D01*
X90248731Y-123798286D01*
X90225342Y-123970245D01*
X88246792Y-123970245D01*
X87719511Y-123442964D01*
X90552793Y-123442964D01*
X91110000Y-124000172D01*
X91667207Y-123442964D01*
X91628725Y-123285633D01*
X91478806Y-123198218D01*
X91314714Y-123141731D01*
X91142755Y-123118342D01*
X90969538Y-123128950D01*
X90801718Y-123173148D01*
X90645746Y-123249236D01*
X90591275Y-123285633D01*
X90552793Y-123442964D01*
X87719511Y-123442964D01*
X84058361Y-119781814D01*
X97784719Y-119781814D01*
X97784719Y-120218186D01*
X97869851Y-120646174D01*
X98036843Y-121049329D01*
X98279279Y-121412159D01*
X98587841Y-121720721D01*
X98950671Y-121963157D01*
X99353826Y-122130149D01*
X99781814Y-122215281D01*
X100218186Y-122215281D01*
X100646174Y-122130149D01*
X100921382Y-122016154D01*
X103029800Y-122016154D01*
X103029800Y-122179846D01*
X103061735Y-122340394D01*
X103124377Y-122491626D01*
X103215320Y-122627732D01*
X103331068Y-122743480D01*
X103467174Y-122834423D01*
X103618406Y-122897065D01*
X103778954Y-122929000D01*
X103942646Y-122929000D01*
X104103194Y-122897065D01*
X104254426Y-122834423D01*
X104390532Y-122743480D01*
X104506280Y-122627732D01*
X104597223Y-122491626D01*
X104659865Y-122340394D01*
X104691800Y-122179846D01*
X104691800Y-122168554D01*
X105569800Y-122168554D01*
X105569800Y-122332246D01*
X105601735Y-122492794D01*
X105664377Y-122644026D01*
X105755320Y-122780132D01*
X105871068Y-122895880D01*
X106007174Y-122986823D01*
X106158406Y-123049465D01*
X106318954Y-123081400D01*
X106482646Y-123081400D01*
X106643194Y-123049465D01*
X106794426Y-122986823D01*
X106930532Y-122895880D01*
X107045012Y-122781400D01*
X109938600Y-122781400D01*
X109938600Y-122840246D01*
X109970535Y-123000794D01*
X110033177Y-123152026D01*
X110124120Y-123288132D01*
X110239868Y-123403880D01*
X110375974Y-123494823D01*
X110527206Y-123557465D01*
X110687754Y-123589400D01*
X110851446Y-123589400D01*
X111011994Y-123557465D01*
X111163226Y-123494823D01*
X111299332Y-123403880D01*
X111415080Y-123288132D01*
X111506023Y-123152026D01*
X111568665Y-123000794D01*
X111600600Y-122840246D01*
X111600600Y-122676554D01*
X111568665Y-122516006D01*
X111506023Y-122364774D01*
X111415080Y-122228668D01*
X111299332Y-122112920D01*
X111163226Y-122021977D01*
X111011994Y-121959335D01*
X110851446Y-121927400D01*
X110689546Y-121927400D01*
X110655521Y-121893375D01*
X110638890Y-121873110D01*
X110558035Y-121806754D01*
X110465788Y-121757447D01*
X110365694Y-121727083D01*
X110287684Y-121719400D01*
X110287674Y-121719400D01*
X110261600Y-121716832D01*
X110235526Y-121719400D01*
X107045012Y-121719400D01*
X106930532Y-121604920D01*
X106794426Y-121513977D01*
X106643194Y-121451335D01*
X106482646Y-121419400D01*
X106318954Y-121419400D01*
X106158406Y-121451335D01*
X106007174Y-121513977D01*
X105871068Y-121604920D01*
X105755320Y-121720668D01*
X105664377Y-121856774D01*
X105601735Y-122008006D01*
X105569800Y-122168554D01*
X104691800Y-122168554D01*
X104691800Y-122016154D01*
X104659865Y-121855606D01*
X104597223Y-121704374D01*
X104506280Y-121568268D01*
X104391800Y-121453788D01*
X104391800Y-120489146D01*
X107235147Y-117645800D01*
X107397046Y-117645800D01*
X107557594Y-117613865D01*
X107708826Y-117551223D01*
X107844932Y-117460280D01*
X107960680Y-117344532D01*
X108051623Y-117208426D01*
X108114265Y-117057194D01*
X108146200Y-116896646D01*
X108146200Y-116732954D01*
X108114265Y-116572406D01*
X108051623Y-116421174D01*
X107960680Y-116285068D01*
X107844932Y-116169320D01*
X107708826Y-116078377D01*
X107557594Y-116015735D01*
X107397046Y-115983800D01*
X107233354Y-115983800D01*
X107072806Y-116015735D01*
X106921574Y-116078377D01*
X106785468Y-116169320D01*
X106669720Y-116285068D01*
X106578777Y-116421174D01*
X106516135Y-116572406D01*
X106484200Y-116732954D01*
X106484200Y-116894853D01*
X103503775Y-119875279D01*
X103483510Y-119891910D01*
X103417154Y-119972765D01*
X103367847Y-120065013D01*
X103337483Y-120165107D01*
X103329800Y-120243117D01*
X103329800Y-120243126D01*
X103327232Y-120269200D01*
X103329800Y-120295274D01*
X103329801Y-121453787D01*
X103215320Y-121568268D01*
X103124377Y-121704374D01*
X103061735Y-121855606D01*
X103029800Y-122016154D01*
X100921382Y-122016154D01*
X101049329Y-121963157D01*
X101412159Y-121720721D01*
X101720721Y-121412159D01*
X101963157Y-121049329D01*
X102130149Y-120646174D01*
X102215281Y-120218186D01*
X102215281Y-119781814D01*
X102130149Y-119353826D01*
X101963157Y-118950671D01*
X101720721Y-118587841D01*
X101412159Y-118279279D01*
X101049329Y-118036843D01*
X100646174Y-117869851D01*
X100218186Y-117784719D01*
X99781814Y-117784719D01*
X99353826Y-117869851D01*
X98950671Y-118036843D01*
X98587841Y-118279279D01*
X98279279Y-118587841D01*
X98036843Y-118950671D01*
X97869851Y-119353826D01*
X97784719Y-119781814D01*
X84058361Y-119781814D01*
X77555101Y-113278554D01*
X82709800Y-113278554D01*
X82709800Y-113442246D01*
X82741735Y-113602794D01*
X82804377Y-113754026D01*
X82895320Y-113890132D01*
X83011068Y-114005880D01*
X83147174Y-114096823D01*
X83298406Y-114159465D01*
X83458954Y-114191400D01*
X83622646Y-114191400D01*
X83783194Y-114159465D01*
X83934426Y-114096823D01*
X84070532Y-114005880D01*
X84186280Y-113890132D01*
X84277223Y-113754026D01*
X84339865Y-113602794D01*
X84371800Y-113442246D01*
X84371800Y-113278554D01*
X84339865Y-113118006D01*
X84277223Y-112966774D01*
X84186280Y-112830668D01*
X84173400Y-112817788D01*
X84173400Y-110550212D01*
X84287880Y-110435732D01*
X84378823Y-110299626D01*
X84441465Y-110148394D01*
X84473400Y-109987846D01*
X84473400Y-109824154D01*
X84441465Y-109663606D01*
X84378823Y-109512374D01*
X84287880Y-109376268D01*
X84172132Y-109260520D01*
X84036026Y-109169577D01*
X83884794Y-109106935D01*
X83724246Y-109075000D01*
X83560554Y-109075000D01*
X83400006Y-109106935D01*
X83248774Y-109169577D01*
X83112668Y-109260520D01*
X82996920Y-109376268D01*
X82905977Y-109512374D01*
X82843335Y-109663606D01*
X82811400Y-109824154D01*
X82811400Y-109987846D01*
X82843335Y-110148394D01*
X82905977Y-110299626D01*
X82996920Y-110435732D01*
X83111400Y-110550212D01*
X83111401Y-112647880D01*
X83011068Y-112714920D01*
X82895320Y-112830668D01*
X82804377Y-112966774D01*
X82741735Y-113118006D01*
X82709800Y-113278554D01*
X77555101Y-113278554D01*
X76604479Y-112327933D01*
X76617080Y-112315332D01*
X76708023Y-112179226D01*
X76770665Y-112027994D01*
X76802600Y-111867446D01*
X76802600Y-111703754D01*
X76770665Y-111543206D01*
X76708023Y-111391974D01*
X76617080Y-111255868D01*
X76501332Y-111140120D01*
X76365226Y-111049177D01*
X76213994Y-110986535D01*
X76053446Y-110954600D01*
X75889754Y-110954600D01*
X75729206Y-110986535D01*
X75577974Y-111049177D01*
X75441868Y-111140120D01*
X75326120Y-111255868D01*
X75235177Y-111391974D01*
X75172535Y-111543206D01*
X75140600Y-111703754D01*
X64820963Y-111703754D01*
X64503255Y-110767820D01*
X63875007Y-108423167D01*
X63401452Y-106042445D01*
X63084618Y-103635848D01*
X62925861Y-101213682D01*
X62925861Y-99100000D01*
X97177157Y-99100000D01*
X97177157Y-100900000D01*
X97184513Y-100974689D01*
X97206299Y-101046508D01*
X97241678Y-101112696D01*
X97289289Y-101170711D01*
X97347304Y-101218322D01*
X97413492Y-101253701D01*
X97485311Y-101275487D01*
X97560000Y-101282843D01*
X98630000Y-101282843D01*
X98704689Y-101275487D01*
X98776508Y-101253701D01*
X98842696Y-101218322D01*
X98900711Y-101170711D01*
X98912217Y-101156691D01*
X99016309Y-101212038D01*
X99188258Y-101263789D01*
X99219731Y-101269408D01*
X99363000Y-101185748D01*
X99363000Y-100002000D01*
X99343000Y-100002000D01*
X99343000Y-99998000D01*
X99363000Y-99998000D01*
X99363000Y-98814252D01*
X99367000Y-98814252D01*
X99367000Y-99998000D01*
X99387000Y-99998000D01*
X99387000Y-100002000D01*
X99367000Y-100002000D01*
X99367000Y-101185748D01*
X99510269Y-101269408D01*
X99541742Y-101263789D01*
X99713691Y-101212038D01*
X99872240Y-101127736D01*
X99996645Y-101026093D01*
X100123636Y-101130311D01*
X100282767Y-101215368D01*
X100455434Y-101267746D01*
X100635000Y-101285432D01*
X100814567Y-101267746D01*
X100987234Y-101215368D01*
X101146365Y-101130311D01*
X101270001Y-101028846D01*
X101393636Y-101130311D01*
X101552767Y-101215368D01*
X101725434Y-101267746D01*
X101905000Y-101285432D01*
X102084567Y-101267746D01*
X102257234Y-101215368D01*
X102416365Y-101130311D01*
X102555844Y-101015844D01*
X102670311Y-100876365D01*
X102755368Y-100717234D01*
X102807746Y-100544567D01*
X102821000Y-100409998D01*
X102821000Y-99590002D01*
X102807746Y-99455433D01*
X102755368Y-99282766D01*
X102670311Y-99123635D01*
X102555844Y-98984156D01*
X102416364Y-98869689D01*
X102257233Y-98784632D01*
X102084566Y-98732254D01*
X101905000Y-98714568D01*
X101725433Y-98732254D01*
X101552766Y-98784632D01*
X101393635Y-98869689D01*
X101270000Y-98971153D01*
X101146364Y-98869689D01*
X100987233Y-98784632D01*
X100814566Y-98732254D01*
X100635000Y-98714568D01*
X100455433Y-98732254D01*
X100282766Y-98784632D01*
X100123635Y-98869689D01*
X99996645Y-98973907D01*
X99872240Y-98872264D01*
X99713691Y-98787962D01*
X99541742Y-98736211D01*
X99510269Y-98730592D01*
X99367000Y-98814252D01*
X99363000Y-98814252D01*
X99219731Y-98730592D01*
X99188258Y-98736211D01*
X99016309Y-98787962D01*
X98912217Y-98843309D01*
X98900711Y-98829289D01*
X98842696Y-98781678D01*
X98776508Y-98746299D01*
X98704689Y-98724513D01*
X98630000Y-98717157D01*
X97560000Y-98717157D01*
X97485311Y-98724513D01*
X97413492Y-98746299D01*
X97347304Y-98781678D01*
X97289289Y-98829289D01*
X97241678Y-98887304D01*
X97206299Y-98953492D01*
X97184513Y-99025311D01*
X97177157Y-99100000D01*
X62925861Y-99100000D01*
X62925861Y-98786318D01*
X63084618Y-96364152D01*
X63401452Y-93957555D01*
X63875007Y-91576833D01*
X64503255Y-89232180D01*
X65283506Y-86933637D01*
X66212417Y-84691045D01*
X67286013Y-82514009D01*
X68499694Y-80411851D01*
X69848265Y-78393572D01*
X71325950Y-76467816D01*
X72926422Y-74642827D01*
X74168695Y-73400554D01*
X84589400Y-73400554D01*
X84589400Y-73564246D01*
X84621335Y-73724794D01*
X84683977Y-73876026D01*
X84774920Y-74012132D01*
X84789401Y-74026613D01*
X84789400Y-86608610D01*
X84786348Y-86639600D01*
X84789400Y-86670590D01*
X84789400Y-86670597D01*
X84798530Y-86763297D01*
X84834611Y-86882241D01*
X84893204Y-86991860D01*
X84972057Y-87087943D01*
X84996137Y-87107705D01*
X90235499Y-92347068D01*
X90255257Y-92371143D01*
X90351339Y-92449996D01*
X90460958Y-92508589D01*
X90579902Y-92544670D01*
X90672602Y-92553800D01*
X90672611Y-92553800D01*
X90703599Y-92556852D01*
X90734587Y-92553800D01*
X99637032Y-92553800D01*
X106440699Y-99357468D01*
X106460457Y-99381543D01*
X106556539Y-99460396D01*
X106666158Y-99518989D01*
X106785102Y-99555070D01*
X106877802Y-99564200D01*
X106877809Y-99564200D01*
X106908800Y-99567252D01*
X106939790Y-99564200D01*
X112765388Y-99564200D01*
X112779868Y-99578680D01*
X112915974Y-99669623D01*
X113067206Y-99732265D01*
X113227754Y-99764200D01*
X113391446Y-99764200D01*
X113551994Y-99732265D01*
X113703226Y-99669623D01*
X113839332Y-99578680D01*
X113955080Y-99462932D01*
X114046023Y-99326826D01*
X114108665Y-99175594D01*
X114140600Y-99015046D01*
X114140600Y-98851354D01*
X114108665Y-98690806D01*
X114046023Y-98539574D01*
X113955080Y-98403468D01*
X113839332Y-98287720D01*
X113703226Y-98196777D01*
X113551994Y-98134135D01*
X113391446Y-98102200D01*
X113227754Y-98102200D01*
X113067206Y-98134135D01*
X112915974Y-98196777D01*
X112779868Y-98287720D01*
X112765388Y-98302200D01*
X107170169Y-98302200D01*
X100366505Y-91498537D01*
X100346743Y-91474457D01*
X100250661Y-91395604D01*
X100141042Y-91337011D01*
X100022098Y-91300930D01*
X99929398Y-91291800D01*
X99929390Y-91291800D01*
X99898400Y-91288748D01*
X99867410Y-91291800D01*
X90964969Y-91291800D01*
X86051400Y-86378232D01*
X86051400Y-74026612D01*
X86065880Y-74012132D01*
X86156823Y-73876026D01*
X86219465Y-73724794D01*
X86251400Y-73564246D01*
X86251400Y-73400554D01*
X86219465Y-73240006D01*
X86156823Y-73088774D01*
X86065880Y-72952668D01*
X85950132Y-72836920D01*
X85814026Y-72745977D01*
X85662794Y-72683335D01*
X85502246Y-72651400D01*
X85338554Y-72651400D01*
X85178006Y-72683335D01*
X85026774Y-72745977D01*
X84890668Y-72836920D01*
X84774920Y-72952668D01*
X84683977Y-73088774D01*
X84621335Y-73240006D01*
X84589400Y-73400554D01*
X74168695Y-73400554D01*
X74642827Y-72926422D01*
X76467816Y-71325950D01*
X78393572Y-69848265D01*
X80411851Y-68499694D01*
X82514009Y-67286013D01*
X84691045Y-66212417D01*
X86933637Y-65283506D01*
X89232180Y-64503255D01*
X91576833Y-63875007D01*
X93957555Y-63401452D01*
X96364152Y-63084618D01*
X98786318Y-62925861D01*
X101213682Y-62925861D01*
X103635848Y-63084618D01*
M02*
