G04 #@! TF.GenerationSoftware,KiCad,Pcbnew,5.1.5-52549c5~84~ubuntu18.04.1*
G04 #@! TF.CreationDate,2020-01-06T13:59:53+01:00*
G04 #@! TF.ProjectId,PCB-Ange,5043422d-416e-4676-952e-6b696361645f,rev?*
G04 #@! TF.SameCoordinates,Original*
G04 #@! TF.FileFunction,Soldermask,Bot*
G04 #@! TF.FilePolarity,Negative*
%FSLAX46Y46*%
G04 Gerber Fmt 4.6, Leading zero omitted, Abs format (unit mm)*
G04 Created by KiCad (PCBNEW 5.1.5-52549c5~84~ubuntu18.04.1) date 2020-01-06 13:59:53*
%MOMM*%
%LPD*%
G04 APERTURE LIST*
%ADD10C,0.100000*%
G04 APERTURE END LIST*
D10*
G36*
X115957552Y-126236331D02*
G01*
X116039627Y-126270328D01*
X116039629Y-126270329D01*
X116076813Y-126295175D01*
X116113495Y-126319685D01*
X116176315Y-126382505D01*
X116225672Y-126456373D01*
X116259669Y-126538448D01*
X116277000Y-126625579D01*
X116277000Y-126714421D01*
X116259669Y-126801552D01*
X116225672Y-126883627D01*
X116225671Y-126883629D01*
X116176314Y-126957496D01*
X116113496Y-127020314D01*
X116039629Y-127069671D01*
X116039628Y-127069672D01*
X116039627Y-127069672D01*
X115957552Y-127103669D01*
X115870421Y-127121000D01*
X115781579Y-127121000D01*
X115694448Y-127103669D01*
X115612373Y-127069672D01*
X115612372Y-127069672D01*
X115612371Y-127069671D01*
X115538504Y-127020314D01*
X115475686Y-126957496D01*
X115426329Y-126883629D01*
X115426328Y-126883627D01*
X115392331Y-126801552D01*
X115375000Y-126714421D01*
X115375000Y-126625579D01*
X115392331Y-126538448D01*
X115426328Y-126456373D01*
X115475685Y-126382505D01*
X115538505Y-126319685D01*
X115575187Y-126295175D01*
X115612371Y-126270329D01*
X115612373Y-126270328D01*
X115694448Y-126236331D01*
X115781579Y-126219000D01*
X115870421Y-126219000D01*
X115957552Y-126236331D01*
G37*
G36*
X91270721Y-123473174D02*
G01*
X91370995Y-123514709D01*
X91370996Y-123514710D01*
X91461242Y-123575010D01*
X91537990Y-123651758D01*
X91537991Y-123651760D01*
X91598291Y-123742005D01*
X91639826Y-123842279D01*
X91661000Y-123948730D01*
X91661000Y-124057270D01*
X91639826Y-124163721D01*
X91598291Y-124263995D01*
X91598290Y-124263996D01*
X91537990Y-124354242D01*
X91461242Y-124430990D01*
X91415812Y-124461345D01*
X91370995Y-124491291D01*
X91295611Y-124522516D01*
X91274000Y-124534067D01*
X91255059Y-124549612D01*
X91239513Y-124568554D01*
X91227962Y-124590165D01*
X91220849Y-124613614D01*
X91218447Y-124638000D01*
X91220849Y-124662386D01*
X91227962Y-124685835D01*
X91239513Y-124707446D01*
X91255058Y-124726387D01*
X91274000Y-124741933D01*
X91295611Y-124753484D01*
X91370995Y-124784709D01*
X91370996Y-124784710D01*
X91461242Y-124845010D01*
X91537990Y-124921758D01*
X91537991Y-124921760D01*
X91598291Y-125012005D01*
X91639826Y-125112279D01*
X91661000Y-125218730D01*
X91661000Y-125327270D01*
X91639826Y-125433721D01*
X91598291Y-125533995D01*
X91598290Y-125533996D01*
X91537990Y-125624242D01*
X91461242Y-125700990D01*
X91415812Y-125731345D01*
X91370995Y-125761291D01*
X91270721Y-125802826D01*
X91164270Y-125824000D01*
X91055730Y-125824000D01*
X90949279Y-125802826D01*
X90849005Y-125761291D01*
X90804188Y-125731345D01*
X90758758Y-125700990D01*
X90682010Y-125624242D01*
X90621710Y-125533996D01*
X90621709Y-125533995D01*
X90580174Y-125433721D01*
X90559000Y-125327270D01*
X90559000Y-125218730D01*
X90580174Y-125112279D01*
X90621709Y-125012005D01*
X90682009Y-124921760D01*
X90682010Y-124921758D01*
X90758758Y-124845010D01*
X90849004Y-124784710D01*
X90849005Y-124784709D01*
X90924389Y-124753484D01*
X90946000Y-124741933D01*
X90964941Y-124726388D01*
X90980487Y-124707446D01*
X90992038Y-124685835D01*
X90999151Y-124662386D01*
X91001553Y-124638000D01*
X90999151Y-124613614D01*
X90992038Y-124590165D01*
X90980487Y-124568554D01*
X90964942Y-124549613D01*
X90946000Y-124534067D01*
X90924389Y-124522516D01*
X90849005Y-124491291D01*
X90804188Y-124461345D01*
X90758758Y-124430990D01*
X90682010Y-124354242D01*
X90621710Y-124263996D01*
X90621709Y-124263995D01*
X90580174Y-124163721D01*
X90559000Y-124057270D01*
X90559000Y-123948730D01*
X90580174Y-123842279D01*
X90621709Y-123742005D01*
X90682009Y-123651760D01*
X90682010Y-123651758D01*
X90758758Y-123575010D01*
X90849004Y-123514710D01*
X90849005Y-123514709D01*
X90949279Y-123473174D01*
X91055730Y-123452000D01*
X91164270Y-123452000D01*
X91270721Y-123473174D01*
G37*
G36*
X114838152Y-107033931D02*
G01*
X114920227Y-107067928D01*
X114920229Y-107067929D01*
X114957413Y-107092775D01*
X114994095Y-107117285D01*
X115056915Y-107180105D01*
X115106272Y-107253973D01*
X115140269Y-107336048D01*
X115157600Y-107423179D01*
X115157600Y-107512021D01*
X115140269Y-107599152D01*
X115106272Y-107681227D01*
X115106271Y-107681229D01*
X115056914Y-107755096D01*
X114994096Y-107817914D01*
X114920229Y-107867271D01*
X114920228Y-107867272D01*
X114920227Y-107867272D01*
X114838152Y-107901269D01*
X114751021Y-107918600D01*
X114662179Y-107918600D01*
X114575048Y-107901269D01*
X114492973Y-107867272D01*
X114492972Y-107867272D01*
X114492971Y-107867271D01*
X114419104Y-107817914D01*
X114356286Y-107755096D01*
X114306929Y-107681229D01*
X114306928Y-107681227D01*
X114272931Y-107599152D01*
X114255600Y-107512021D01*
X114255600Y-107423179D01*
X114272931Y-107336048D01*
X114306928Y-107253973D01*
X114356285Y-107180105D01*
X114419105Y-107117285D01*
X114455787Y-107092775D01*
X114492971Y-107067929D01*
X114492973Y-107067928D01*
X114575048Y-107033931D01*
X114662179Y-107016600D01*
X114751021Y-107016600D01*
X114838152Y-107033931D01*
G37*
G36*
X102019875Y-99057479D02*
G01*
X102093516Y-99079818D01*
X102130337Y-99090987D01*
X102232139Y-99145402D01*
X102289227Y-99192253D01*
X102321369Y-99218631D01*
X102394598Y-99307861D01*
X102394599Y-99307863D01*
X102449013Y-99409662D01*
X102449524Y-99411347D01*
X102482521Y-99520124D01*
X102491000Y-99606215D01*
X102491000Y-100393785D01*
X102482521Y-100479876D01*
X102460182Y-100553517D01*
X102449013Y-100590338D01*
X102394598Y-100692140D01*
X102321370Y-100781370D01*
X102232140Y-100854598D01*
X102130338Y-100909013D01*
X102093517Y-100920182D01*
X102019876Y-100942521D01*
X101905000Y-100953835D01*
X101790125Y-100942521D01*
X101716484Y-100920182D01*
X101679663Y-100909013D01*
X101577861Y-100854598D01*
X101488631Y-100781370D01*
X101415402Y-100692138D01*
X101380240Y-100626355D01*
X101366627Y-100605980D01*
X101349300Y-100588653D01*
X101328925Y-100575040D01*
X101306286Y-100565662D01*
X101282253Y-100560882D01*
X101257749Y-100560882D01*
X101233716Y-100565662D01*
X101211077Y-100575040D01*
X101190702Y-100588653D01*
X101173375Y-100605980D01*
X101159762Y-100626354D01*
X101124598Y-100692140D01*
X101051370Y-100781370D01*
X100962140Y-100854598D01*
X100860338Y-100909013D01*
X100823517Y-100920182D01*
X100749876Y-100942521D01*
X100635000Y-100953835D01*
X100520125Y-100942521D01*
X100446484Y-100920182D01*
X100409663Y-100909013D01*
X100307861Y-100854598D01*
X100218631Y-100781370D01*
X100145402Y-100692138D01*
X100110240Y-100626355D01*
X100096627Y-100605980D01*
X100079300Y-100588653D01*
X100058925Y-100575040D01*
X100036286Y-100565662D01*
X100012253Y-100560882D01*
X99987749Y-100560882D01*
X99963716Y-100565662D01*
X99941077Y-100575040D01*
X99920702Y-100588653D01*
X99903375Y-100605980D01*
X99889762Y-100626354D01*
X99854598Y-100692140D01*
X99781370Y-100781370D01*
X99692140Y-100854598D01*
X99590338Y-100909013D01*
X99553517Y-100920182D01*
X99479876Y-100942521D01*
X99365000Y-100953835D01*
X99250125Y-100942521D01*
X99176484Y-100920182D01*
X99139663Y-100909013D01*
X99037861Y-100854598D01*
X98948631Y-100781370D01*
X98902625Y-100725310D01*
X98885298Y-100707983D01*
X98864924Y-100694369D01*
X98842285Y-100684992D01*
X98818252Y-100680211D01*
X98793748Y-100680211D01*
X98769714Y-100684991D01*
X98747076Y-100694368D01*
X98726701Y-100707982D01*
X98709374Y-100725309D01*
X98695760Y-100745683D01*
X98686383Y-100768322D01*
X98681602Y-100792355D01*
X98681000Y-100804608D01*
X98681000Y-100951000D01*
X97509000Y-100951000D01*
X97509000Y-99049000D01*
X98681000Y-99049000D01*
X98681000Y-99195392D01*
X98683402Y-99219778D01*
X98690515Y-99243227D01*
X98702066Y-99264838D01*
X98717611Y-99283780D01*
X98736553Y-99299325D01*
X98758164Y-99310876D01*
X98781613Y-99317989D01*
X98805999Y-99320391D01*
X98830385Y-99317989D01*
X98853834Y-99310876D01*
X98875445Y-99299325D01*
X98894387Y-99283780D01*
X98902625Y-99274690D01*
X98948629Y-99218634D01*
X98948631Y-99218631D01*
X99037861Y-99145402D01*
X99049507Y-99139177D01*
X99139662Y-99090987D01*
X99176483Y-99079818D01*
X99250124Y-99057479D01*
X99365000Y-99046165D01*
X99479875Y-99057479D01*
X99553516Y-99079818D01*
X99590337Y-99090987D01*
X99692139Y-99145402D01*
X99749227Y-99192253D01*
X99781369Y-99218631D01*
X99854598Y-99307861D01*
X99854601Y-99307865D01*
X99889761Y-99373645D01*
X99903374Y-99394020D01*
X99920701Y-99411347D01*
X99941076Y-99424960D01*
X99963715Y-99434338D01*
X99987748Y-99439118D01*
X100012252Y-99439118D01*
X100036285Y-99434338D01*
X100058924Y-99424960D01*
X100079299Y-99411347D01*
X100096626Y-99394020D01*
X100110239Y-99373646D01*
X100145402Y-99307861D01*
X100218629Y-99218634D01*
X100218631Y-99218631D01*
X100307861Y-99145402D01*
X100319507Y-99139177D01*
X100409662Y-99090987D01*
X100446483Y-99079818D01*
X100520124Y-99057479D01*
X100635000Y-99046165D01*
X100749875Y-99057479D01*
X100823516Y-99079818D01*
X100860337Y-99090987D01*
X100962139Y-99145402D01*
X101019227Y-99192253D01*
X101051369Y-99218631D01*
X101124598Y-99307861D01*
X101124601Y-99307865D01*
X101159761Y-99373645D01*
X101173374Y-99394020D01*
X101190701Y-99411347D01*
X101211076Y-99424960D01*
X101233715Y-99434338D01*
X101257748Y-99439118D01*
X101282252Y-99439118D01*
X101306285Y-99434338D01*
X101328924Y-99424960D01*
X101349299Y-99411347D01*
X101366626Y-99394020D01*
X101380239Y-99373646D01*
X101415402Y-99307861D01*
X101488629Y-99218634D01*
X101488631Y-99218631D01*
X101577861Y-99145402D01*
X101589507Y-99139177D01*
X101679662Y-99090987D01*
X101716483Y-99079818D01*
X101790124Y-99057479D01*
X101905000Y-99046165D01*
X102019875Y-99057479D01*
G37*
M02*
