G04 #@! TF.GenerationSoftware,KiCad,Pcbnew,5.1.5-52549c5~84~ubuntu18.04.1*
G04 #@! TF.CreationDate,2020-01-06T13:59:53+01:00*
G04 #@! TF.ProjectId,PCB-Ange,5043422d-416e-4676-952e-6b696361645f,rev?*
G04 #@! TF.SameCoordinates,Original*
G04 #@! TF.FileFunction,Soldermask,Top*
G04 #@! TF.FilePolarity,Negative*
%FSLAX46Y46*%
G04 Gerber Fmt 4.6, Leading zero omitted, Abs format (unit mm)*
G04 Created by KiCad (PCBNEW 5.1.5-52549c5~84~ubuntu18.04.1) date 2020-01-06 13:59:53*
%MOMM*%
%LPD*%
G04 APERTURE LIST*
%ADD10C,0.100000*%
G04 APERTURE END LIST*
D10*
G36*
X99042899Y-132295245D02*
G01*
X99080395Y-132306620D01*
X99114954Y-132325092D01*
X99145247Y-132349953D01*
X99170108Y-132380246D01*
X99188580Y-132414805D01*
X99199955Y-132452301D01*
X99204400Y-132497438D01*
X99204400Y-133136162D01*
X99199955Y-133181299D01*
X99188580Y-133218795D01*
X99170108Y-133253354D01*
X99145247Y-133283647D01*
X99114954Y-133308508D01*
X99080395Y-133326980D01*
X99042899Y-133338355D01*
X98997762Y-133342800D01*
X98259038Y-133342800D01*
X98213901Y-133338355D01*
X98176405Y-133326980D01*
X98141846Y-133308508D01*
X98111553Y-133283647D01*
X98086692Y-133253354D01*
X98068220Y-133218795D01*
X98056845Y-133181299D01*
X98052400Y-133136162D01*
X98052400Y-132497438D01*
X98056845Y-132452301D01*
X98068220Y-132414805D01*
X98086692Y-132380246D01*
X98111553Y-132349953D01*
X98141846Y-132325092D01*
X98176405Y-132306620D01*
X98213901Y-132295245D01*
X98259038Y-132290800D01*
X98997762Y-132290800D01*
X99042899Y-132295245D01*
G37*
G36*
X97292899Y-132295245D02*
G01*
X97330395Y-132306620D01*
X97364954Y-132325092D01*
X97395247Y-132349953D01*
X97420108Y-132380246D01*
X97438580Y-132414805D01*
X97449955Y-132452301D01*
X97454400Y-132497438D01*
X97454400Y-133136162D01*
X97449955Y-133181299D01*
X97438580Y-133218795D01*
X97420108Y-133253354D01*
X97395247Y-133283647D01*
X97364954Y-133308508D01*
X97330395Y-133326980D01*
X97292899Y-133338355D01*
X97247762Y-133342800D01*
X96509038Y-133342800D01*
X96463901Y-133338355D01*
X96426405Y-133326980D01*
X96391846Y-133308508D01*
X96361553Y-133283647D01*
X96336692Y-133253354D01*
X96318220Y-133218795D01*
X96306845Y-133181299D01*
X96302400Y-133136162D01*
X96302400Y-132497438D01*
X96306845Y-132452301D01*
X96318220Y-132414805D01*
X96336692Y-132380246D01*
X96361553Y-132349953D01*
X96391846Y-132325092D01*
X96426405Y-132306620D01*
X96463901Y-132295245D01*
X96509038Y-132290800D01*
X97247762Y-132290800D01*
X97292899Y-132295245D01*
G37*
G36*
X105974499Y-131431645D02*
G01*
X106011995Y-131443020D01*
X106046554Y-131461492D01*
X106076847Y-131486353D01*
X106101708Y-131516646D01*
X106120180Y-131551205D01*
X106131555Y-131588701D01*
X106136000Y-131633838D01*
X106136000Y-132272562D01*
X106131555Y-132317699D01*
X106120180Y-132355195D01*
X106101708Y-132389754D01*
X106076847Y-132420047D01*
X106046554Y-132444908D01*
X106011995Y-132463380D01*
X105974499Y-132474755D01*
X105929362Y-132479200D01*
X105190638Y-132479200D01*
X105145501Y-132474755D01*
X105108005Y-132463380D01*
X105073446Y-132444908D01*
X105043153Y-132420047D01*
X105018292Y-132389754D01*
X104999820Y-132355195D01*
X104988445Y-132317699D01*
X104984000Y-132272562D01*
X104984000Y-131633838D01*
X104988445Y-131588701D01*
X104999820Y-131551205D01*
X105018292Y-131516646D01*
X105043153Y-131486353D01*
X105073446Y-131461492D01*
X105108005Y-131443020D01*
X105145501Y-131431645D01*
X105190638Y-131427200D01*
X105929362Y-131427200D01*
X105974499Y-131431645D01*
G37*
G36*
X104224499Y-131431645D02*
G01*
X104261995Y-131443020D01*
X104296554Y-131461492D01*
X104326847Y-131486353D01*
X104351708Y-131516646D01*
X104370180Y-131551205D01*
X104381555Y-131588701D01*
X104386000Y-131633838D01*
X104386000Y-132272562D01*
X104381555Y-132317699D01*
X104370180Y-132355195D01*
X104351708Y-132389754D01*
X104326847Y-132420047D01*
X104296554Y-132444908D01*
X104261995Y-132463380D01*
X104224499Y-132474755D01*
X104179362Y-132479200D01*
X103440638Y-132479200D01*
X103395501Y-132474755D01*
X103358005Y-132463380D01*
X103323446Y-132444908D01*
X103293153Y-132420047D01*
X103268292Y-132389754D01*
X103249820Y-132355195D01*
X103238445Y-132317699D01*
X103234000Y-132272562D01*
X103234000Y-131633838D01*
X103238445Y-131588701D01*
X103249820Y-131551205D01*
X103268292Y-131516646D01*
X103293153Y-131486353D01*
X103323446Y-131461492D01*
X103358005Y-131443020D01*
X103395501Y-131431645D01*
X103440638Y-131427200D01*
X104179362Y-131427200D01*
X104224499Y-131431645D01*
G37*
G36*
X97500000Y-129921800D02*
G01*
X96658000Y-129921800D01*
X96658000Y-127419800D01*
X97500000Y-127419800D01*
X97500000Y-129921800D01*
G37*
G36*
X98770000Y-129921800D02*
G01*
X97928000Y-129921800D01*
X97928000Y-127419800D01*
X98770000Y-127419800D01*
X98770000Y-129921800D01*
G37*
G36*
X91524499Y-128434445D02*
G01*
X91561995Y-128445820D01*
X91596554Y-128464292D01*
X91626847Y-128489153D01*
X91651708Y-128519446D01*
X91670180Y-128554005D01*
X91681555Y-128591501D01*
X91686000Y-128636638D01*
X91686000Y-129275362D01*
X91681555Y-129320499D01*
X91670180Y-129357995D01*
X91651708Y-129392554D01*
X91626847Y-129422847D01*
X91596554Y-129447708D01*
X91561995Y-129466180D01*
X91524499Y-129477555D01*
X91479362Y-129482000D01*
X90740638Y-129482000D01*
X90695501Y-129477555D01*
X90658005Y-129466180D01*
X90623446Y-129447708D01*
X90593153Y-129422847D01*
X90568292Y-129392554D01*
X90549820Y-129357995D01*
X90538445Y-129320499D01*
X90534000Y-129275362D01*
X90534000Y-128636638D01*
X90538445Y-128591501D01*
X90549820Y-128554005D01*
X90568292Y-128519446D01*
X90593153Y-128489153D01*
X90623446Y-128464292D01*
X90658005Y-128445820D01*
X90695501Y-128434445D01*
X90740638Y-128430000D01*
X91479362Y-128430000D01*
X91524499Y-128434445D01*
G37*
G36*
X93274499Y-128434445D02*
G01*
X93311995Y-128445820D01*
X93346554Y-128464292D01*
X93376847Y-128489153D01*
X93401708Y-128519446D01*
X93420180Y-128554005D01*
X93431555Y-128591501D01*
X93436000Y-128636638D01*
X93436000Y-129275362D01*
X93431555Y-129320499D01*
X93420180Y-129357995D01*
X93401708Y-129392554D01*
X93376847Y-129422847D01*
X93346554Y-129447708D01*
X93311995Y-129466180D01*
X93274499Y-129477555D01*
X93229362Y-129482000D01*
X92490638Y-129482000D01*
X92445501Y-129477555D01*
X92408005Y-129466180D01*
X92373446Y-129447708D01*
X92343153Y-129422847D01*
X92318292Y-129392554D01*
X92299820Y-129357995D01*
X92288445Y-129320499D01*
X92284000Y-129275362D01*
X92284000Y-128636638D01*
X92288445Y-128591501D01*
X92299820Y-128554005D01*
X92318292Y-128519446D01*
X92343153Y-128489153D01*
X92373446Y-128464292D01*
X92408005Y-128445820D01*
X92445501Y-128434445D01*
X92490638Y-128430000D01*
X93229362Y-128430000D01*
X93274499Y-128434445D01*
G37*
G36*
X109311000Y-129363000D02*
G01*
X108469000Y-129363000D01*
X108469000Y-126861000D01*
X109311000Y-126861000D01*
X109311000Y-129363000D01*
G37*
G36*
X104231000Y-129363000D02*
G01*
X103389000Y-129363000D01*
X103389000Y-126861000D01*
X104231000Y-126861000D01*
X104231000Y-129363000D01*
G37*
G36*
X108041000Y-129363000D02*
G01*
X107199000Y-129363000D01*
X107199000Y-126861000D01*
X108041000Y-126861000D01*
X108041000Y-129363000D01*
G37*
G36*
X106771000Y-129363000D02*
G01*
X105929000Y-129363000D01*
X105929000Y-126861000D01*
X106771000Y-126861000D01*
X106771000Y-129363000D01*
G37*
G36*
X105501000Y-129363000D02*
G01*
X104659000Y-129363000D01*
X104659000Y-126861000D01*
X105501000Y-126861000D01*
X105501000Y-129363000D01*
G37*
G36*
X114627000Y-127571000D02*
G01*
X113625000Y-127571000D01*
X113625000Y-125769000D01*
X114627000Y-125769000D01*
X114627000Y-127571000D01*
G37*
G36*
X118027000Y-127571000D02*
G01*
X117025000Y-127571000D01*
X117025000Y-125769000D01*
X118027000Y-125769000D01*
X118027000Y-127571000D01*
G37*
G36*
X115957552Y-126236331D02*
G01*
X116039627Y-126270328D01*
X116039629Y-126270329D01*
X116076813Y-126295175D01*
X116113495Y-126319685D01*
X116176315Y-126382505D01*
X116225672Y-126456373D01*
X116259669Y-126538448D01*
X116277000Y-126625579D01*
X116277000Y-126714421D01*
X116259669Y-126801552D01*
X116225672Y-126883627D01*
X116225671Y-126883629D01*
X116176314Y-126957496D01*
X116113496Y-127020314D01*
X116039629Y-127069671D01*
X116039628Y-127069672D01*
X116039627Y-127069672D01*
X115957552Y-127103669D01*
X115870421Y-127121000D01*
X115781579Y-127121000D01*
X115694448Y-127103669D01*
X115612373Y-127069672D01*
X115612372Y-127069672D01*
X115612371Y-127069671D01*
X115538504Y-127020314D01*
X115475686Y-126957496D01*
X115426329Y-126883629D01*
X115426328Y-126883627D01*
X115392331Y-126801552D01*
X115375000Y-126714421D01*
X115375000Y-126625579D01*
X115392331Y-126538448D01*
X115426328Y-126456373D01*
X115475685Y-126382505D01*
X115538505Y-126319685D01*
X115575187Y-126295175D01*
X115612371Y-126270329D01*
X115612373Y-126270328D01*
X115694448Y-126236331D01*
X115781579Y-126219000D01*
X115870421Y-126219000D01*
X115957552Y-126236331D01*
G37*
G36*
X86698499Y-125132445D02*
G01*
X86735995Y-125143820D01*
X86770554Y-125162292D01*
X86800847Y-125187153D01*
X86825708Y-125217446D01*
X86844180Y-125252005D01*
X86855555Y-125289501D01*
X86860000Y-125334638D01*
X86860000Y-125973362D01*
X86855555Y-126018499D01*
X86844180Y-126055995D01*
X86825708Y-126090554D01*
X86800847Y-126120847D01*
X86770554Y-126145708D01*
X86735995Y-126164180D01*
X86698499Y-126175555D01*
X86653362Y-126180000D01*
X85914638Y-126180000D01*
X85869501Y-126175555D01*
X85832005Y-126164180D01*
X85797446Y-126145708D01*
X85767153Y-126120847D01*
X85742292Y-126090554D01*
X85723820Y-126055995D01*
X85712445Y-126018499D01*
X85708000Y-125973362D01*
X85708000Y-125334638D01*
X85712445Y-125289501D01*
X85723820Y-125252005D01*
X85742292Y-125217446D01*
X85767153Y-125187153D01*
X85797446Y-125162292D01*
X85832005Y-125143820D01*
X85869501Y-125132445D01*
X85914638Y-125128000D01*
X86653362Y-125128000D01*
X86698499Y-125132445D01*
G37*
G36*
X84948499Y-125132445D02*
G01*
X84985995Y-125143820D01*
X85020554Y-125162292D01*
X85050847Y-125187153D01*
X85075708Y-125217446D01*
X85094180Y-125252005D01*
X85105555Y-125289501D01*
X85110000Y-125334638D01*
X85110000Y-125973362D01*
X85105555Y-126018499D01*
X85094180Y-126055995D01*
X85075708Y-126090554D01*
X85050847Y-126120847D01*
X85020554Y-126145708D01*
X84985995Y-126164180D01*
X84948499Y-126175555D01*
X84903362Y-126180000D01*
X84164638Y-126180000D01*
X84119501Y-126175555D01*
X84082005Y-126164180D01*
X84047446Y-126145708D01*
X84017153Y-126120847D01*
X83992292Y-126090554D01*
X83973820Y-126055995D01*
X83962445Y-126018499D01*
X83958000Y-125973362D01*
X83958000Y-125334638D01*
X83962445Y-125289501D01*
X83973820Y-125252005D01*
X83992292Y-125217446D01*
X84017153Y-125187153D01*
X84047446Y-125162292D01*
X84082005Y-125143820D01*
X84119501Y-125132445D01*
X84164638Y-125128000D01*
X84903362Y-125128000D01*
X84948499Y-125132445D01*
G37*
G36*
X98770000Y-126021800D02*
G01*
X97928000Y-126021800D01*
X97928000Y-123519800D01*
X98770000Y-123519800D01*
X98770000Y-126021800D01*
G37*
G36*
X97500000Y-126021800D02*
G01*
X96658000Y-126021800D01*
X96658000Y-123519800D01*
X97500000Y-123519800D01*
X97500000Y-126021800D01*
G37*
G36*
X91270721Y-123473174D02*
G01*
X91370995Y-123514709D01*
X91370996Y-123514710D01*
X91461242Y-123575010D01*
X91537990Y-123651758D01*
X91537991Y-123651760D01*
X91598291Y-123742005D01*
X91639826Y-123842279D01*
X91661000Y-123948730D01*
X91661000Y-124057270D01*
X91639826Y-124163721D01*
X91598291Y-124263995D01*
X91598290Y-124263996D01*
X91537990Y-124354242D01*
X91461242Y-124430990D01*
X91415812Y-124461345D01*
X91370995Y-124491291D01*
X91295611Y-124522516D01*
X91274000Y-124534067D01*
X91255059Y-124549612D01*
X91239513Y-124568554D01*
X91227962Y-124590165D01*
X91220849Y-124613614D01*
X91218447Y-124638000D01*
X91220849Y-124662386D01*
X91227962Y-124685835D01*
X91239513Y-124707446D01*
X91255058Y-124726387D01*
X91274000Y-124741933D01*
X91295611Y-124753484D01*
X91370995Y-124784709D01*
X91370996Y-124784710D01*
X91461242Y-124845010D01*
X91537990Y-124921758D01*
X91537991Y-124921760D01*
X91598291Y-125012005D01*
X91639826Y-125112279D01*
X91661000Y-125218730D01*
X91661000Y-125327270D01*
X91639826Y-125433721D01*
X91598291Y-125533995D01*
X91598290Y-125533996D01*
X91537990Y-125624242D01*
X91461242Y-125700990D01*
X91415812Y-125731345D01*
X91370995Y-125761291D01*
X91270721Y-125802826D01*
X91164270Y-125824000D01*
X91055730Y-125824000D01*
X90949279Y-125802826D01*
X90849005Y-125761291D01*
X90804188Y-125731345D01*
X90758758Y-125700990D01*
X90682010Y-125624242D01*
X90621710Y-125533996D01*
X90621709Y-125533995D01*
X90580174Y-125433721D01*
X90559000Y-125327270D01*
X90559000Y-125218730D01*
X90580174Y-125112279D01*
X90621709Y-125012005D01*
X90682009Y-124921760D01*
X90682010Y-124921758D01*
X90758758Y-124845010D01*
X90849004Y-124784710D01*
X90849005Y-124784709D01*
X90924389Y-124753484D01*
X90946000Y-124741933D01*
X90964941Y-124726388D01*
X90980487Y-124707446D01*
X90992038Y-124685835D01*
X90999151Y-124662386D01*
X91001553Y-124638000D01*
X90999151Y-124613614D01*
X90992038Y-124590165D01*
X90980487Y-124568554D01*
X90964942Y-124549613D01*
X90946000Y-124534067D01*
X90924389Y-124522516D01*
X90849005Y-124491291D01*
X90804188Y-124461345D01*
X90758758Y-124430990D01*
X90682010Y-124354242D01*
X90621710Y-124263996D01*
X90621709Y-124263995D01*
X90580174Y-124163721D01*
X90559000Y-124057270D01*
X90559000Y-123948730D01*
X90580174Y-123842279D01*
X90621709Y-123742005D01*
X90682009Y-123651760D01*
X90682010Y-123651758D01*
X90758758Y-123575010D01*
X90849004Y-123514710D01*
X90849005Y-123514709D01*
X90949279Y-123473174D01*
X91055730Y-123452000D01*
X91164270Y-123452000D01*
X91270721Y-123473174D01*
G37*
G36*
X104231000Y-125463000D02*
G01*
X103389000Y-125463000D01*
X103389000Y-122961000D01*
X104231000Y-122961000D01*
X104231000Y-125463000D01*
G37*
G36*
X105501000Y-125463000D02*
G01*
X104659000Y-125463000D01*
X104659000Y-122961000D01*
X105501000Y-122961000D01*
X105501000Y-125463000D01*
G37*
G36*
X109311000Y-125463000D02*
G01*
X108469000Y-125463000D01*
X108469000Y-122961000D01*
X109311000Y-122961000D01*
X109311000Y-125463000D01*
G37*
G36*
X106771000Y-125463000D02*
G01*
X105929000Y-125463000D01*
X105929000Y-122961000D01*
X106771000Y-122961000D01*
X106771000Y-125463000D01*
G37*
G36*
X108041000Y-125463000D02*
G01*
X107199000Y-125463000D01*
X107199000Y-122961000D01*
X108041000Y-122961000D01*
X108041000Y-125463000D01*
G37*
G36*
X115400499Y-123100445D02*
G01*
X115437995Y-123111820D01*
X115472554Y-123130292D01*
X115502847Y-123155153D01*
X115527708Y-123185446D01*
X115546180Y-123220005D01*
X115557555Y-123257501D01*
X115562000Y-123302638D01*
X115562000Y-123941362D01*
X115557555Y-123986499D01*
X115546180Y-124023995D01*
X115527708Y-124058554D01*
X115502847Y-124088847D01*
X115472554Y-124113708D01*
X115437995Y-124132180D01*
X115400499Y-124143555D01*
X115355362Y-124148000D01*
X114616638Y-124148000D01*
X114571501Y-124143555D01*
X114534005Y-124132180D01*
X114499446Y-124113708D01*
X114469153Y-124088847D01*
X114444292Y-124058554D01*
X114425820Y-124023995D01*
X114414445Y-123986499D01*
X114410000Y-123941362D01*
X114410000Y-123302638D01*
X114414445Y-123257501D01*
X114425820Y-123220005D01*
X114444292Y-123185446D01*
X114469153Y-123155153D01*
X114499446Y-123130292D01*
X114534005Y-123111820D01*
X114571501Y-123100445D01*
X114616638Y-123096000D01*
X115355362Y-123096000D01*
X115400499Y-123100445D01*
G37*
G36*
X117150499Y-123100445D02*
G01*
X117187995Y-123111820D01*
X117222554Y-123130292D01*
X117252847Y-123155153D01*
X117277708Y-123185446D01*
X117296180Y-123220005D01*
X117307555Y-123257501D01*
X117312000Y-123302638D01*
X117312000Y-123941362D01*
X117307555Y-123986499D01*
X117296180Y-124023995D01*
X117277708Y-124058554D01*
X117252847Y-124088847D01*
X117222554Y-124113708D01*
X117187995Y-124132180D01*
X117150499Y-124143555D01*
X117105362Y-124148000D01*
X116366638Y-124148000D01*
X116321501Y-124143555D01*
X116284005Y-124132180D01*
X116249446Y-124113708D01*
X116219153Y-124088847D01*
X116194292Y-124058554D01*
X116175820Y-124023995D01*
X116164445Y-123986499D01*
X116160000Y-123941362D01*
X116160000Y-123302638D01*
X116164445Y-123257501D01*
X116175820Y-123220005D01*
X116194292Y-123185446D01*
X116219153Y-123155153D01*
X116249446Y-123130292D01*
X116284005Y-123111820D01*
X116321501Y-123100445D01*
X116366638Y-123096000D01*
X117105362Y-123096000D01*
X117150499Y-123100445D01*
G37*
G36*
X86670499Y-121830445D02*
G01*
X86707995Y-121841820D01*
X86742554Y-121860292D01*
X86772847Y-121885153D01*
X86797708Y-121915446D01*
X86816180Y-121950005D01*
X86827555Y-121987501D01*
X86832000Y-122032638D01*
X86832000Y-122671362D01*
X86827555Y-122716499D01*
X86816180Y-122753995D01*
X86797708Y-122788554D01*
X86772847Y-122818847D01*
X86742554Y-122843708D01*
X86707995Y-122862180D01*
X86670499Y-122873555D01*
X86625362Y-122878000D01*
X85886638Y-122878000D01*
X85841501Y-122873555D01*
X85804005Y-122862180D01*
X85769446Y-122843708D01*
X85739153Y-122818847D01*
X85714292Y-122788554D01*
X85695820Y-122753995D01*
X85684445Y-122716499D01*
X85680000Y-122671362D01*
X85680000Y-122032638D01*
X85684445Y-121987501D01*
X85695820Y-121950005D01*
X85714292Y-121915446D01*
X85739153Y-121885153D01*
X85769446Y-121860292D01*
X85804005Y-121841820D01*
X85841501Y-121830445D01*
X85886638Y-121826000D01*
X86625362Y-121826000D01*
X86670499Y-121830445D01*
G37*
G36*
X84920499Y-121830445D02*
G01*
X84957995Y-121841820D01*
X84992554Y-121860292D01*
X85022847Y-121885153D01*
X85047708Y-121915446D01*
X85066180Y-121950005D01*
X85077555Y-121987501D01*
X85082000Y-122032638D01*
X85082000Y-122671362D01*
X85077555Y-122716499D01*
X85066180Y-122753995D01*
X85047708Y-122788554D01*
X85022847Y-122818847D01*
X84992554Y-122843708D01*
X84957995Y-122862180D01*
X84920499Y-122873555D01*
X84875362Y-122878000D01*
X84136638Y-122878000D01*
X84091501Y-122873555D01*
X84054005Y-122862180D01*
X84019446Y-122843708D01*
X83989153Y-122818847D01*
X83964292Y-122788554D01*
X83945820Y-122753995D01*
X83934445Y-122716499D01*
X83930000Y-122671362D01*
X83930000Y-122032638D01*
X83934445Y-121987501D01*
X83945820Y-121950005D01*
X83964292Y-121915446D01*
X83989153Y-121885153D01*
X84019446Y-121860292D01*
X84054005Y-121841820D01*
X84091501Y-121830445D01*
X84136638Y-121826000D01*
X84875362Y-121826000D01*
X84920499Y-121830445D01*
G37*
G36*
X119820099Y-121779645D02*
G01*
X119857595Y-121791020D01*
X119892154Y-121809492D01*
X119922447Y-121834353D01*
X119947308Y-121864646D01*
X119965780Y-121899205D01*
X119977155Y-121936701D01*
X119981600Y-121981838D01*
X119981600Y-122620562D01*
X119977155Y-122665699D01*
X119965780Y-122703195D01*
X119947308Y-122737754D01*
X119922447Y-122768047D01*
X119892154Y-122792908D01*
X119857595Y-122811380D01*
X119820099Y-122822755D01*
X119774962Y-122827200D01*
X119036238Y-122827200D01*
X118991101Y-122822755D01*
X118953605Y-122811380D01*
X118919046Y-122792908D01*
X118888753Y-122768047D01*
X118863892Y-122737754D01*
X118845420Y-122703195D01*
X118834045Y-122665699D01*
X118829600Y-122620562D01*
X118829600Y-121981838D01*
X118834045Y-121936701D01*
X118845420Y-121899205D01*
X118863892Y-121864646D01*
X118888753Y-121834353D01*
X118919046Y-121809492D01*
X118953605Y-121791020D01*
X118991101Y-121779645D01*
X119036238Y-121775200D01*
X119774962Y-121775200D01*
X119820099Y-121779645D01*
G37*
G36*
X121570099Y-121779645D02*
G01*
X121607595Y-121791020D01*
X121642154Y-121809492D01*
X121672447Y-121834353D01*
X121697308Y-121864646D01*
X121715780Y-121899205D01*
X121727155Y-121936701D01*
X121731600Y-121981838D01*
X121731600Y-122620562D01*
X121727155Y-122665699D01*
X121715780Y-122703195D01*
X121697308Y-122737754D01*
X121672447Y-122768047D01*
X121642154Y-122792908D01*
X121607595Y-122811380D01*
X121570099Y-122822755D01*
X121524962Y-122827200D01*
X120786238Y-122827200D01*
X120741101Y-122822755D01*
X120703605Y-122811380D01*
X120669046Y-122792908D01*
X120638753Y-122768047D01*
X120613892Y-122737754D01*
X120595420Y-122703195D01*
X120584045Y-122665699D01*
X120579600Y-122620562D01*
X120579600Y-121981838D01*
X120584045Y-121936701D01*
X120595420Y-121899205D01*
X120613892Y-121864646D01*
X120638753Y-121834353D01*
X120669046Y-121809492D01*
X120703605Y-121791020D01*
X120741101Y-121779645D01*
X120786238Y-121775200D01*
X121524962Y-121775200D01*
X121570099Y-121779645D01*
G37*
G36*
X110882295Y-119123323D02*
G01*
X110889309Y-119125451D01*
X110903077Y-119132810D01*
X110925716Y-119142187D01*
X110949749Y-119146967D01*
X110974253Y-119146967D01*
X110998286Y-119142186D01*
X111020923Y-119132810D01*
X111034691Y-119125451D01*
X111041705Y-119123323D01*
X111055140Y-119122000D01*
X111368860Y-119122000D01*
X111382295Y-119123323D01*
X111389309Y-119125451D01*
X111403077Y-119132810D01*
X111425716Y-119142187D01*
X111449749Y-119146967D01*
X111474253Y-119146967D01*
X111498286Y-119142186D01*
X111520923Y-119132810D01*
X111534691Y-119125451D01*
X111541705Y-119123323D01*
X111555140Y-119122000D01*
X111868860Y-119122000D01*
X111882295Y-119123323D01*
X111889309Y-119125451D01*
X111903077Y-119132810D01*
X111925716Y-119142187D01*
X111949749Y-119146967D01*
X111974253Y-119146967D01*
X111998286Y-119142186D01*
X112020923Y-119132810D01*
X112034691Y-119125451D01*
X112041705Y-119123323D01*
X112055140Y-119122000D01*
X112368860Y-119122000D01*
X112382295Y-119123323D01*
X112389309Y-119125451D01*
X112403077Y-119132810D01*
X112425716Y-119142187D01*
X112449749Y-119146967D01*
X112474253Y-119146967D01*
X112498286Y-119142186D01*
X112520923Y-119132810D01*
X112534691Y-119125451D01*
X112541705Y-119123323D01*
X112555140Y-119122000D01*
X112868860Y-119122000D01*
X112882295Y-119123323D01*
X112889309Y-119125451D01*
X112903077Y-119132810D01*
X112925716Y-119142187D01*
X112949749Y-119146967D01*
X112974253Y-119146967D01*
X112998286Y-119142186D01*
X113020923Y-119132810D01*
X113034691Y-119125451D01*
X113041705Y-119123323D01*
X113055140Y-119122000D01*
X113368860Y-119122000D01*
X113382295Y-119123323D01*
X113389309Y-119125451D01*
X113403077Y-119132810D01*
X113425716Y-119142187D01*
X113449749Y-119146967D01*
X113474253Y-119146967D01*
X113498286Y-119142186D01*
X113520923Y-119132810D01*
X113534691Y-119125451D01*
X113541705Y-119123323D01*
X113555140Y-119122000D01*
X113868860Y-119122000D01*
X113882295Y-119123323D01*
X113889309Y-119125451D01*
X113903077Y-119132810D01*
X113925716Y-119142187D01*
X113949749Y-119146967D01*
X113974253Y-119146967D01*
X113998286Y-119142186D01*
X114020923Y-119132810D01*
X114034691Y-119125451D01*
X114041705Y-119123323D01*
X114055140Y-119122000D01*
X114368860Y-119122000D01*
X114382295Y-119123323D01*
X114389309Y-119125451D01*
X114403077Y-119132810D01*
X114425716Y-119142187D01*
X114449749Y-119146967D01*
X114474253Y-119146967D01*
X114498286Y-119142186D01*
X114520923Y-119132810D01*
X114534691Y-119125451D01*
X114541705Y-119123323D01*
X114555140Y-119122000D01*
X114868860Y-119122000D01*
X114882295Y-119123323D01*
X114889309Y-119125451D01*
X114903077Y-119132810D01*
X114925716Y-119142187D01*
X114949749Y-119146967D01*
X114974253Y-119146967D01*
X114998286Y-119142186D01*
X115020923Y-119132810D01*
X115034691Y-119125451D01*
X115041705Y-119123323D01*
X115055140Y-119122000D01*
X115368860Y-119122000D01*
X115382295Y-119123323D01*
X115389309Y-119125451D01*
X115403077Y-119132810D01*
X115425716Y-119142187D01*
X115449749Y-119146967D01*
X115474253Y-119146967D01*
X115498286Y-119142186D01*
X115520923Y-119132810D01*
X115534691Y-119125451D01*
X115541705Y-119123323D01*
X115555140Y-119122000D01*
X115868860Y-119122000D01*
X115882295Y-119123323D01*
X115889309Y-119125451D01*
X115903077Y-119132810D01*
X115925716Y-119142187D01*
X115949749Y-119146967D01*
X115974253Y-119146967D01*
X115998286Y-119142186D01*
X116020923Y-119132810D01*
X116034691Y-119125451D01*
X116041705Y-119123323D01*
X116055140Y-119122000D01*
X116368860Y-119122000D01*
X116382295Y-119123323D01*
X116389310Y-119125451D01*
X116395776Y-119128908D01*
X116401442Y-119133558D01*
X116406092Y-119139224D01*
X116409549Y-119145690D01*
X116411677Y-119152705D01*
X116413000Y-119166140D01*
X116413000Y-120654860D01*
X116411677Y-120668295D01*
X116409549Y-120675310D01*
X116406092Y-120681776D01*
X116401442Y-120687442D01*
X116395776Y-120692092D01*
X116389310Y-120695549D01*
X116382295Y-120697677D01*
X116368860Y-120699000D01*
X116055140Y-120699000D01*
X116041705Y-120697677D01*
X116034691Y-120695549D01*
X116020923Y-120688190D01*
X115998284Y-120678813D01*
X115974251Y-120674033D01*
X115949747Y-120674033D01*
X115925714Y-120678814D01*
X115903077Y-120688190D01*
X115889309Y-120695549D01*
X115882295Y-120697677D01*
X115868860Y-120699000D01*
X115555140Y-120699000D01*
X115541705Y-120697677D01*
X115534691Y-120695549D01*
X115520923Y-120688190D01*
X115498284Y-120678813D01*
X115474251Y-120674033D01*
X115449747Y-120674033D01*
X115425714Y-120678814D01*
X115403077Y-120688190D01*
X115389309Y-120695549D01*
X115382295Y-120697677D01*
X115368860Y-120699000D01*
X115055140Y-120699000D01*
X115041705Y-120697677D01*
X115034691Y-120695549D01*
X115020923Y-120688190D01*
X114998284Y-120678813D01*
X114974251Y-120674033D01*
X114949747Y-120674033D01*
X114925714Y-120678814D01*
X114903077Y-120688190D01*
X114889309Y-120695549D01*
X114882295Y-120697677D01*
X114868860Y-120699000D01*
X114555140Y-120699000D01*
X114541705Y-120697677D01*
X114534691Y-120695549D01*
X114520923Y-120688190D01*
X114498284Y-120678813D01*
X114474251Y-120674033D01*
X114449747Y-120674033D01*
X114425714Y-120678814D01*
X114403077Y-120688190D01*
X114389309Y-120695549D01*
X114382295Y-120697677D01*
X114368860Y-120699000D01*
X114055140Y-120699000D01*
X114041705Y-120697677D01*
X114034691Y-120695549D01*
X114020923Y-120688190D01*
X113998284Y-120678813D01*
X113974251Y-120674033D01*
X113949747Y-120674033D01*
X113925714Y-120678814D01*
X113903077Y-120688190D01*
X113889309Y-120695549D01*
X113882295Y-120697677D01*
X113868860Y-120699000D01*
X113555140Y-120699000D01*
X113541705Y-120697677D01*
X113534691Y-120695549D01*
X113520923Y-120688190D01*
X113498284Y-120678813D01*
X113474251Y-120674033D01*
X113449747Y-120674033D01*
X113425714Y-120678814D01*
X113403077Y-120688190D01*
X113389309Y-120695549D01*
X113382295Y-120697677D01*
X113368860Y-120699000D01*
X113055140Y-120699000D01*
X113041705Y-120697677D01*
X113034691Y-120695549D01*
X113020923Y-120688190D01*
X112998284Y-120678813D01*
X112974251Y-120674033D01*
X112949747Y-120674033D01*
X112925714Y-120678814D01*
X112903077Y-120688190D01*
X112889309Y-120695549D01*
X112882295Y-120697677D01*
X112868860Y-120699000D01*
X112555140Y-120699000D01*
X112541705Y-120697677D01*
X112534691Y-120695549D01*
X112520923Y-120688190D01*
X112498284Y-120678813D01*
X112474251Y-120674033D01*
X112449747Y-120674033D01*
X112425714Y-120678814D01*
X112403077Y-120688190D01*
X112389309Y-120695549D01*
X112382295Y-120697677D01*
X112368860Y-120699000D01*
X112055140Y-120699000D01*
X112041705Y-120697677D01*
X112034691Y-120695549D01*
X112020923Y-120688190D01*
X111998284Y-120678813D01*
X111974251Y-120674033D01*
X111949747Y-120674033D01*
X111925714Y-120678814D01*
X111903077Y-120688190D01*
X111889309Y-120695549D01*
X111882295Y-120697677D01*
X111868860Y-120699000D01*
X111555140Y-120699000D01*
X111541705Y-120697677D01*
X111534691Y-120695549D01*
X111520923Y-120688190D01*
X111498284Y-120678813D01*
X111474251Y-120674033D01*
X111449747Y-120674033D01*
X111425714Y-120678814D01*
X111403077Y-120688190D01*
X111389309Y-120695549D01*
X111382295Y-120697677D01*
X111368860Y-120699000D01*
X111055140Y-120699000D01*
X111041705Y-120697677D01*
X111034691Y-120695549D01*
X111020923Y-120688190D01*
X110998284Y-120678813D01*
X110974251Y-120674033D01*
X110949747Y-120674033D01*
X110925714Y-120678814D01*
X110903077Y-120688190D01*
X110889309Y-120695549D01*
X110882295Y-120697677D01*
X110868860Y-120699000D01*
X110555140Y-120699000D01*
X110541705Y-120697677D01*
X110534690Y-120695549D01*
X110528224Y-120692092D01*
X110522558Y-120687442D01*
X110517908Y-120681776D01*
X110514451Y-120675310D01*
X110512323Y-120668295D01*
X110511000Y-120654860D01*
X110511000Y-119166140D01*
X110512323Y-119152705D01*
X110514451Y-119145690D01*
X110517908Y-119139224D01*
X110522558Y-119133558D01*
X110528224Y-119128908D01*
X110534690Y-119125451D01*
X110541705Y-119123323D01*
X110555140Y-119122000D01*
X110868860Y-119122000D01*
X110882295Y-119123323D01*
G37*
G36*
X123246499Y-118528445D02*
G01*
X123283995Y-118539820D01*
X123318554Y-118558292D01*
X123348847Y-118583153D01*
X123373708Y-118613446D01*
X123392180Y-118648005D01*
X123403555Y-118685501D01*
X123408000Y-118730638D01*
X123408000Y-119369362D01*
X123403555Y-119414499D01*
X123392180Y-119451995D01*
X123373708Y-119486554D01*
X123348847Y-119516847D01*
X123318554Y-119541708D01*
X123283995Y-119560180D01*
X123246499Y-119571555D01*
X123201362Y-119576000D01*
X122462638Y-119576000D01*
X122417501Y-119571555D01*
X122380005Y-119560180D01*
X122345446Y-119541708D01*
X122315153Y-119516847D01*
X122290292Y-119486554D01*
X122271820Y-119451995D01*
X122260445Y-119414499D01*
X122256000Y-119369362D01*
X122256000Y-118730638D01*
X122260445Y-118685501D01*
X122271820Y-118648005D01*
X122290292Y-118613446D01*
X122315153Y-118583153D01*
X122345446Y-118558292D01*
X122380005Y-118539820D01*
X122417501Y-118528445D01*
X122462638Y-118524000D01*
X123201362Y-118524000D01*
X123246499Y-118528445D01*
G37*
G36*
X121496499Y-118528445D02*
G01*
X121533995Y-118539820D01*
X121568554Y-118558292D01*
X121598847Y-118583153D01*
X121623708Y-118613446D01*
X121642180Y-118648005D01*
X121653555Y-118685501D01*
X121658000Y-118730638D01*
X121658000Y-119369362D01*
X121653555Y-119414499D01*
X121642180Y-119451995D01*
X121623708Y-119486554D01*
X121598847Y-119516847D01*
X121568554Y-119541708D01*
X121533995Y-119560180D01*
X121496499Y-119571555D01*
X121451362Y-119576000D01*
X120712638Y-119576000D01*
X120667501Y-119571555D01*
X120630005Y-119560180D01*
X120595446Y-119541708D01*
X120565153Y-119516847D01*
X120540292Y-119486554D01*
X120521820Y-119451995D01*
X120510445Y-119414499D01*
X120506000Y-119369362D01*
X120506000Y-118730638D01*
X120510445Y-118685501D01*
X120521820Y-118648005D01*
X120540292Y-118613446D01*
X120565153Y-118583153D01*
X120595446Y-118558292D01*
X120630005Y-118539820D01*
X120667501Y-118528445D01*
X120712638Y-118524000D01*
X121451362Y-118524000D01*
X121496499Y-118528445D01*
G37*
G36*
X106815299Y-117969645D02*
G01*
X106852795Y-117981020D01*
X106887354Y-117999492D01*
X106917647Y-118024353D01*
X106942508Y-118054646D01*
X106960980Y-118089205D01*
X106972355Y-118126701D01*
X106976800Y-118171838D01*
X106976800Y-118810562D01*
X106972355Y-118855699D01*
X106960980Y-118893195D01*
X106942508Y-118927754D01*
X106917647Y-118958047D01*
X106887354Y-118982908D01*
X106852795Y-119001380D01*
X106815299Y-119012755D01*
X106770162Y-119017200D01*
X106031438Y-119017200D01*
X105986301Y-119012755D01*
X105948805Y-119001380D01*
X105914246Y-118982908D01*
X105883953Y-118958047D01*
X105859092Y-118927754D01*
X105840620Y-118893195D01*
X105829245Y-118855699D01*
X105824800Y-118810562D01*
X105824800Y-118171838D01*
X105829245Y-118126701D01*
X105840620Y-118089205D01*
X105859092Y-118054646D01*
X105883953Y-118024353D01*
X105914246Y-117999492D01*
X105948805Y-117981020D01*
X105986301Y-117969645D01*
X106031438Y-117965200D01*
X106770162Y-117965200D01*
X106815299Y-117969645D01*
G37*
G36*
X105065299Y-117969645D02*
G01*
X105102795Y-117981020D01*
X105137354Y-117999492D01*
X105167647Y-118024353D01*
X105192508Y-118054646D01*
X105210980Y-118089205D01*
X105222355Y-118126701D01*
X105226800Y-118171838D01*
X105226800Y-118810562D01*
X105222355Y-118855699D01*
X105210980Y-118893195D01*
X105192508Y-118927754D01*
X105167647Y-118958047D01*
X105137354Y-118982908D01*
X105102795Y-119001380D01*
X105065299Y-119012755D01*
X105020162Y-119017200D01*
X104281438Y-119017200D01*
X104236301Y-119012755D01*
X104198805Y-119001380D01*
X104164246Y-118982908D01*
X104133953Y-118958047D01*
X104109092Y-118927754D01*
X104090620Y-118893195D01*
X104079245Y-118855699D01*
X104074800Y-118810562D01*
X104074800Y-118171838D01*
X104079245Y-118126701D01*
X104090620Y-118089205D01*
X104109092Y-118054646D01*
X104133953Y-118024353D01*
X104164246Y-117999492D01*
X104198805Y-117981020D01*
X104236301Y-117969645D01*
X104281438Y-117965200D01*
X105020162Y-117965200D01*
X105065299Y-117969645D01*
G37*
G36*
X118382295Y-112798323D02*
G01*
X118389310Y-112800451D01*
X118395776Y-112803908D01*
X118401442Y-112808558D01*
X118406092Y-112814224D01*
X118409549Y-112820690D01*
X118411677Y-112827705D01*
X118413000Y-112841140D01*
X118413000Y-113154860D01*
X118411677Y-113168295D01*
X118409549Y-113175309D01*
X118402190Y-113189077D01*
X118392813Y-113211716D01*
X118388033Y-113235749D01*
X118388033Y-113260253D01*
X118392814Y-113284286D01*
X118402190Y-113306923D01*
X118409549Y-113320691D01*
X118411677Y-113327705D01*
X118413000Y-113341140D01*
X118413000Y-113654860D01*
X118411677Y-113668295D01*
X118409549Y-113675309D01*
X118402190Y-113689077D01*
X118392813Y-113711716D01*
X118388033Y-113735749D01*
X118388033Y-113760253D01*
X118392814Y-113784286D01*
X118402190Y-113806923D01*
X118409549Y-113820691D01*
X118411677Y-113827705D01*
X118413000Y-113841140D01*
X118413000Y-114154860D01*
X118411677Y-114168295D01*
X118409549Y-114175309D01*
X118402190Y-114189077D01*
X118392813Y-114211716D01*
X118388033Y-114235749D01*
X118388033Y-114260253D01*
X118392814Y-114284286D01*
X118402190Y-114306923D01*
X118409549Y-114320691D01*
X118411677Y-114327705D01*
X118413000Y-114341140D01*
X118413000Y-114654860D01*
X118411677Y-114668295D01*
X118409549Y-114675309D01*
X118402190Y-114689077D01*
X118392813Y-114711716D01*
X118388033Y-114735749D01*
X118388033Y-114760253D01*
X118392814Y-114784286D01*
X118402190Y-114806923D01*
X118409549Y-114820691D01*
X118411677Y-114827705D01*
X118413000Y-114841140D01*
X118413000Y-115154860D01*
X118411677Y-115168295D01*
X118409549Y-115175309D01*
X118402190Y-115189077D01*
X118392813Y-115211716D01*
X118388033Y-115235749D01*
X118388033Y-115260253D01*
X118392814Y-115284286D01*
X118402190Y-115306923D01*
X118409549Y-115320691D01*
X118411677Y-115327705D01*
X118413000Y-115341140D01*
X118413000Y-115654860D01*
X118411677Y-115668295D01*
X118409549Y-115675309D01*
X118402190Y-115689077D01*
X118392813Y-115711716D01*
X118388033Y-115735749D01*
X118388033Y-115760253D01*
X118392814Y-115784286D01*
X118402190Y-115806923D01*
X118409549Y-115820691D01*
X118411677Y-115827705D01*
X118413000Y-115841140D01*
X118413000Y-116154860D01*
X118411677Y-116168295D01*
X118409549Y-116175309D01*
X118402190Y-116189077D01*
X118392813Y-116211716D01*
X118388033Y-116235749D01*
X118388033Y-116260253D01*
X118392814Y-116284286D01*
X118402190Y-116306923D01*
X118409549Y-116320691D01*
X118411677Y-116327705D01*
X118413000Y-116341140D01*
X118413000Y-116654860D01*
X118411677Y-116668295D01*
X118409549Y-116675309D01*
X118402190Y-116689077D01*
X118392813Y-116711716D01*
X118388033Y-116735749D01*
X118388033Y-116760253D01*
X118392814Y-116784286D01*
X118402190Y-116806923D01*
X118409549Y-116820691D01*
X118411677Y-116827705D01*
X118413000Y-116841140D01*
X118413000Y-117154860D01*
X118411677Y-117168295D01*
X118409549Y-117175309D01*
X118402190Y-117189077D01*
X118392813Y-117211716D01*
X118388033Y-117235749D01*
X118388033Y-117260253D01*
X118392814Y-117284286D01*
X118402190Y-117306923D01*
X118409549Y-117320691D01*
X118411677Y-117327705D01*
X118413000Y-117341140D01*
X118413000Y-117654860D01*
X118411677Y-117668295D01*
X118409549Y-117675309D01*
X118402190Y-117689077D01*
X118392813Y-117711716D01*
X118388033Y-117735749D01*
X118388033Y-117760253D01*
X118392814Y-117784286D01*
X118402190Y-117806923D01*
X118409549Y-117820691D01*
X118411677Y-117827705D01*
X118413000Y-117841140D01*
X118413000Y-118154860D01*
X118411677Y-118168295D01*
X118409549Y-118175309D01*
X118402190Y-118189077D01*
X118392813Y-118211716D01*
X118388033Y-118235749D01*
X118388033Y-118260253D01*
X118392814Y-118284286D01*
X118402190Y-118306923D01*
X118409549Y-118320691D01*
X118411677Y-118327705D01*
X118413000Y-118341140D01*
X118413000Y-118654860D01*
X118411677Y-118668295D01*
X118409549Y-118675310D01*
X118406092Y-118681776D01*
X118401442Y-118687442D01*
X118395776Y-118692092D01*
X118389310Y-118695549D01*
X118382295Y-118697677D01*
X118368860Y-118699000D01*
X116880140Y-118699000D01*
X116866705Y-118697677D01*
X116859690Y-118695549D01*
X116853224Y-118692092D01*
X116847558Y-118687442D01*
X116842908Y-118681776D01*
X116839451Y-118675310D01*
X116837323Y-118668295D01*
X116836000Y-118654860D01*
X116836000Y-118341140D01*
X116837323Y-118327705D01*
X116839451Y-118320691D01*
X116846810Y-118306923D01*
X116856187Y-118284284D01*
X116860967Y-118260251D01*
X116860967Y-118235747D01*
X116856186Y-118211714D01*
X116846810Y-118189077D01*
X116839451Y-118175309D01*
X116837323Y-118168295D01*
X116836000Y-118154860D01*
X116836000Y-117841140D01*
X116837323Y-117827705D01*
X116839451Y-117820691D01*
X116846810Y-117806923D01*
X116856187Y-117784284D01*
X116860967Y-117760251D01*
X116860967Y-117735747D01*
X116856186Y-117711714D01*
X116846810Y-117689077D01*
X116839451Y-117675309D01*
X116837323Y-117668295D01*
X116836000Y-117654860D01*
X116836000Y-117341140D01*
X116837323Y-117327705D01*
X116839451Y-117320691D01*
X116846810Y-117306923D01*
X116856187Y-117284284D01*
X116860967Y-117260251D01*
X116860967Y-117235747D01*
X116856186Y-117211714D01*
X116846810Y-117189077D01*
X116839451Y-117175309D01*
X116837323Y-117168295D01*
X116836000Y-117154860D01*
X116836000Y-116841140D01*
X116837323Y-116827705D01*
X116839451Y-116820691D01*
X116846810Y-116806923D01*
X116856187Y-116784284D01*
X116860967Y-116760251D01*
X116860967Y-116735747D01*
X116856186Y-116711714D01*
X116846810Y-116689077D01*
X116839451Y-116675309D01*
X116837323Y-116668295D01*
X116836000Y-116654860D01*
X116836000Y-116341140D01*
X116837323Y-116327705D01*
X116839451Y-116320691D01*
X116846810Y-116306923D01*
X116856187Y-116284284D01*
X116860967Y-116260251D01*
X116860967Y-116235747D01*
X116856186Y-116211714D01*
X116846810Y-116189077D01*
X116839451Y-116175309D01*
X116837323Y-116168295D01*
X116836000Y-116154860D01*
X116836000Y-115841140D01*
X116837323Y-115827705D01*
X116839451Y-115820691D01*
X116846810Y-115806923D01*
X116856187Y-115784284D01*
X116860967Y-115760251D01*
X116860967Y-115735747D01*
X116856186Y-115711714D01*
X116846810Y-115689077D01*
X116839451Y-115675309D01*
X116837323Y-115668295D01*
X116836000Y-115654860D01*
X116836000Y-115341140D01*
X116837323Y-115327705D01*
X116839451Y-115320691D01*
X116846810Y-115306923D01*
X116856187Y-115284284D01*
X116860967Y-115260251D01*
X116860967Y-115235747D01*
X116856186Y-115211714D01*
X116846810Y-115189077D01*
X116839451Y-115175309D01*
X116837323Y-115168295D01*
X116836000Y-115154860D01*
X116836000Y-114841140D01*
X116837323Y-114827705D01*
X116839451Y-114820691D01*
X116846810Y-114806923D01*
X116856187Y-114784284D01*
X116860967Y-114760251D01*
X116860967Y-114735747D01*
X116856186Y-114711714D01*
X116846810Y-114689077D01*
X116839451Y-114675309D01*
X116837323Y-114668295D01*
X116836000Y-114654860D01*
X116836000Y-114341140D01*
X116837323Y-114327705D01*
X116839451Y-114320691D01*
X116846810Y-114306923D01*
X116856187Y-114284284D01*
X116860967Y-114260251D01*
X116860967Y-114235747D01*
X116856186Y-114211714D01*
X116846810Y-114189077D01*
X116839451Y-114175309D01*
X116837323Y-114168295D01*
X116836000Y-114154860D01*
X116836000Y-113841140D01*
X116837323Y-113827705D01*
X116839451Y-113820691D01*
X116846810Y-113806923D01*
X116856187Y-113784284D01*
X116860967Y-113760251D01*
X116860967Y-113735747D01*
X116856186Y-113711714D01*
X116846810Y-113689077D01*
X116839451Y-113675309D01*
X116837323Y-113668295D01*
X116836000Y-113654860D01*
X116836000Y-113341140D01*
X116837323Y-113327705D01*
X116839451Y-113320691D01*
X116846810Y-113306923D01*
X116856187Y-113284284D01*
X116860967Y-113260251D01*
X116860967Y-113235747D01*
X116856186Y-113211714D01*
X116846810Y-113189077D01*
X116839451Y-113175309D01*
X116837323Y-113168295D01*
X116836000Y-113154860D01*
X116836000Y-112841140D01*
X116837323Y-112827705D01*
X116839451Y-112820690D01*
X116842908Y-112814224D01*
X116847558Y-112808558D01*
X116853224Y-112803908D01*
X116859690Y-112800451D01*
X116866705Y-112798323D01*
X116880140Y-112797000D01*
X118368860Y-112797000D01*
X118382295Y-112798323D01*
G37*
G36*
X110057295Y-112798323D02*
G01*
X110064310Y-112800451D01*
X110070776Y-112803908D01*
X110076442Y-112808558D01*
X110081092Y-112814224D01*
X110084549Y-112820690D01*
X110086677Y-112827705D01*
X110088000Y-112841140D01*
X110088000Y-113154860D01*
X110086677Y-113168295D01*
X110084549Y-113175309D01*
X110077190Y-113189077D01*
X110067813Y-113211716D01*
X110063033Y-113235749D01*
X110063033Y-113260253D01*
X110067814Y-113284286D01*
X110077190Y-113306923D01*
X110084549Y-113320691D01*
X110086677Y-113327705D01*
X110088000Y-113341140D01*
X110088000Y-113654860D01*
X110086677Y-113668295D01*
X110084549Y-113675309D01*
X110077190Y-113689077D01*
X110067813Y-113711716D01*
X110063033Y-113735749D01*
X110063033Y-113760253D01*
X110067814Y-113784286D01*
X110077190Y-113806923D01*
X110084549Y-113820691D01*
X110086677Y-113827705D01*
X110088000Y-113841140D01*
X110088000Y-114154860D01*
X110086677Y-114168295D01*
X110084549Y-114175309D01*
X110077190Y-114189077D01*
X110067813Y-114211716D01*
X110063033Y-114235749D01*
X110063033Y-114260253D01*
X110067814Y-114284286D01*
X110077190Y-114306923D01*
X110084549Y-114320691D01*
X110086677Y-114327705D01*
X110088000Y-114341140D01*
X110088000Y-114654860D01*
X110086677Y-114668295D01*
X110084549Y-114675309D01*
X110077190Y-114689077D01*
X110067813Y-114711716D01*
X110063033Y-114735749D01*
X110063033Y-114760253D01*
X110067814Y-114784286D01*
X110077190Y-114806923D01*
X110084549Y-114820691D01*
X110086677Y-114827705D01*
X110088000Y-114841140D01*
X110088000Y-115154860D01*
X110086677Y-115168295D01*
X110084549Y-115175309D01*
X110077190Y-115189077D01*
X110067813Y-115211716D01*
X110063033Y-115235749D01*
X110063033Y-115260253D01*
X110067814Y-115284286D01*
X110077190Y-115306923D01*
X110084549Y-115320691D01*
X110086677Y-115327705D01*
X110088000Y-115341140D01*
X110088000Y-115654860D01*
X110086677Y-115668295D01*
X110084549Y-115675309D01*
X110077190Y-115689077D01*
X110067813Y-115711716D01*
X110063033Y-115735749D01*
X110063033Y-115760253D01*
X110067814Y-115784286D01*
X110077190Y-115806923D01*
X110084549Y-115820691D01*
X110086677Y-115827705D01*
X110088000Y-115841140D01*
X110088000Y-116154860D01*
X110086677Y-116168295D01*
X110084549Y-116175309D01*
X110077190Y-116189077D01*
X110067813Y-116211716D01*
X110063033Y-116235749D01*
X110063033Y-116260253D01*
X110067814Y-116284286D01*
X110077190Y-116306923D01*
X110084549Y-116320691D01*
X110086677Y-116327705D01*
X110088000Y-116341140D01*
X110088000Y-116654860D01*
X110086677Y-116668295D01*
X110084549Y-116675309D01*
X110077190Y-116689077D01*
X110067813Y-116711716D01*
X110063033Y-116735749D01*
X110063033Y-116760253D01*
X110067814Y-116784286D01*
X110077190Y-116806923D01*
X110084549Y-116820691D01*
X110086677Y-116827705D01*
X110088000Y-116841140D01*
X110088000Y-117154860D01*
X110086677Y-117168295D01*
X110084549Y-117175309D01*
X110077190Y-117189077D01*
X110067813Y-117211716D01*
X110063033Y-117235749D01*
X110063033Y-117260253D01*
X110067814Y-117284286D01*
X110077190Y-117306923D01*
X110084549Y-117320691D01*
X110086677Y-117327705D01*
X110088000Y-117341140D01*
X110088000Y-117654860D01*
X110086677Y-117668295D01*
X110084549Y-117675309D01*
X110077190Y-117689077D01*
X110067813Y-117711716D01*
X110063033Y-117735749D01*
X110063033Y-117760253D01*
X110067814Y-117784286D01*
X110077190Y-117806923D01*
X110084549Y-117820691D01*
X110086677Y-117827705D01*
X110088000Y-117841140D01*
X110088000Y-118154860D01*
X110086677Y-118168295D01*
X110084549Y-118175309D01*
X110077190Y-118189077D01*
X110067813Y-118211716D01*
X110063033Y-118235749D01*
X110063033Y-118260253D01*
X110067814Y-118284286D01*
X110077190Y-118306923D01*
X110084549Y-118320691D01*
X110086677Y-118327705D01*
X110088000Y-118341140D01*
X110088000Y-118654860D01*
X110086677Y-118668295D01*
X110084549Y-118675310D01*
X110081092Y-118681776D01*
X110076442Y-118687442D01*
X110070776Y-118692092D01*
X110064310Y-118695549D01*
X110057295Y-118697677D01*
X110043860Y-118699000D01*
X108555140Y-118699000D01*
X108541705Y-118697677D01*
X108534690Y-118695549D01*
X108528224Y-118692092D01*
X108522558Y-118687442D01*
X108517908Y-118681776D01*
X108514451Y-118675310D01*
X108512323Y-118668295D01*
X108511000Y-118654860D01*
X108511000Y-118341140D01*
X108512323Y-118327705D01*
X108514451Y-118320691D01*
X108521810Y-118306923D01*
X108531187Y-118284284D01*
X108535967Y-118260251D01*
X108535967Y-118235747D01*
X108531186Y-118211714D01*
X108521810Y-118189077D01*
X108514451Y-118175309D01*
X108512323Y-118168295D01*
X108511000Y-118154860D01*
X108511000Y-117841140D01*
X108512323Y-117827705D01*
X108514451Y-117820691D01*
X108521810Y-117806923D01*
X108531187Y-117784284D01*
X108535967Y-117760251D01*
X108535967Y-117735747D01*
X108531186Y-117711714D01*
X108521810Y-117689077D01*
X108514451Y-117675309D01*
X108512323Y-117668295D01*
X108511000Y-117654860D01*
X108511000Y-117341140D01*
X108512323Y-117327705D01*
X108514451Y-117320691D01*
X108521810Y-117306923D01*
X108531187Y-117284284D01*
X108535967Y-117260251D01*
X108535967Y-117235747D01*
X108531186Y-117211714D01*
X108521810Y-117189077D01*
X108514451Y-117175309D01*
X108512323Y-117168295D01*
X108511000Y-117154860D01*
X108511000Y-116841140D01*
X108512323Y-116827705D01*
X108514451Y-116820691D01*
X108521810Y-116806923D01*
X108531187Y-116784284D01*
X108535967Y-116760251D01*
X108535967Y-116735747D01*
X108531186Y-116711714D01*
X108521810Y-116689077D01*
X108514451Y-116675309D01*
X108512323Y-116668295D01*
X108511000Y-116654860D01*
X108511000Y-116341140D01*
X108512323Y-116327705D01*
X108514451Y-116320691D01*
X108521810Y-116306923D01*
X108531187Y-116284284D01*
X108535967Y-116260251D01*
X108535967Y-116235747D01*
X108531186Y-116211714D01*
X108521810Y-116189077D01*
X108514451Y-116175309D01*
X108512323Y-116168295D01*
X108511000Y-116154860D01*
X108511000Y-115841140D01*
X108512323Y-115827705D01*
X108514451Y-115820691D01*
X108521810Y-115806923D01*
X108531187Y-115784284D01*
X108535967Y-115760251D01*
X108535967Y-115735747D01*
X108531186Y-115711714D01*
X108521810Y-115689077D01*
X108514451Y-115675309D01*
X108512323Y-115668295D01*
X108511000Y-115654860D01*
X108511000Y-115341140D01*
X108512323Y-115327705D01*
X108514451Y-115320691D01*
X108521810Y-115306923D01*
X108531187Y-115284284D01*
X108535967Y-115260251D01*
X108535967Y-115235747D01*
X108531186Y-115211714D01*
X108521810Y-115189077D01*
X108514451Y-115175309D01*
X108512323Y-115168295D01*
X108511000Y-115154860D01*
X108511000Y-114841140D01*
X108512323Y-114827705D01*
X108514451Y-114820691D01*
X108521810Y-114806923D01*
X108531187Y-114784284D01*
X108535967Y-114760251D01*
X108535967Y-114735747D01*
X108531186Y-114711714D01*
X108521810Y-114689077D01*
X108514451Y-114675309D01*
X108512323Y-114668295D01*
X108511000Y-114654860D01*
X108511000Y-114341140D01*
X108512323Y-114327705D01*
X108514451Y-114320691D01*
X108521810Y-114306923D01*
X108531187Y-114284284D01*
X108535967Y-114260251D01*
X108535967Y-114235747D01*
X108531186Y-114211714D01*
X108521810Y-114189077D01*
X108514451Y-114175309D01*
X108512323Y-114168295D01*
X108511000Y-114154860D01*
X108511000Y-113841140D01*
X108512323Y-113827705D01*
X108514451Y-113820691D01*
X108521810Y-113806923D01*
X108531187Y-113784284D01*
X108535967Y-113760251D01*
X108535967Y-113735747D01*
X108531186Y-113711714D01*
X108521810Y-113689077D01*
X108514451Y-113675309D01*
X108512323Y-113668295D01*
X108511000Y-113654860D01*
X108511000Y-113341140D01*
X108512323Y-113327705D01*
X108514451Y-113320691D01*
X108521810Y-113306923D01*
X108531187Y-113284284D01*
X108535967Y-113260251D01*
X108535967Y-113235747D01*
X108531186Y-113211714D01*
X108521810Y-113189077D01*
X108514451Y-113175309D01*
X108512323Y-113168295D01*
X108511000Y-113154860D01*
X108511000Y-112841140D01*
X108512323Y-112827705D01*
X108514451Y-112820690D01*
X108517908Y-112814224D01*
X108522558Y-112808558D01*
X108528224Y-112803908D01*
X108534690Y-112800451D01*
X108541705Y-112798323D01*
X108555140Y-112797000D01*
X110043860Y-112797000D01*
X110057295Y-112798323D01*
G37*
G36*
X80677000Y-118470000D02*
G01*
X78175000Y-118470000D01*
X78175000Y-116918000D01*
X80677000Y-116918000D01*
X80677000Y-118470000D01*
G37*
G36*
X83854499Y-115910445D02*
G01*
X83891995Y-115921820D01*
X83926554Y-115940292D01*
X83956847Y-115965153D01*
X83981708Y-115995446D01*
X84000180Y-116030005D01*
X84011555Y-116067501D01*
X84016000Y-116112638D01*
X84016000Y-116851362D01*
X84011555Y-116896499D01*
X84000180Y-116933995D01*
X83981708Y-116968554D01*
X83956847Y-116998847D01*
X83926554Y-117023708D01*
X83891995Y-117042180D01*
X83854499Y-117053555D01*
X83809362Y-117058000D01*
X83170638Y-117058000D01*
X83125501Y-117053555D01*
X83088005Y-117042180D01*
X83053446Y-117023708D01*
X83023153Y-116998847D01*
X82998292Y-116968554D01*
X82979820Y-116933995D01*
X82968445Y-116896499D01*
X82964000Y-116851362D01*
X82964000Y-116112638D01*
X82968445Y-116067501D01*
X82979820Y-116030005D01*
X82998292Y-115995446D01*
X83023153Y-115965153D01*
X83053446Y-115940292D01*
X83088005Y-115921820D01*
X83125501Y-115910445D01*
X83170638Y-115906000D01*
X83809362Y-115906000D01*
X83854499Y-115910445D01*
G37*
G36*
X74964499Y-115684445D02*
G01*
X75001995Y-115695820D01*
X75036554Y-115714292D01*
X75066847Y-115739153D01*
X75091708Y-115769446D01*
X75110180Y-115804005D01*
X75121555Y-115841501D01*
X75126000Y-115886638D01*
X75126000Y-116625362D01*
X75121555Y-116670499D01*
X75110180Y-116707995D01*
X75091708Y-116742554D01*
X75066847Y-116772847D01*
X75036554Y-116797708D01*
X75001995Y-116816180D01*
X74964499Y-116827555D01*
X74919362Y-116832000D01*
X74280638Y-116832000D01*
X74235501Y-116827555D01*
X74198005Y-116816180D01*
X74163446Y-116797708D01*
X74133153Y-116772847D01*
X74108292Y-116742554D01*
X74089820Y-116707995D01*
X74078445Y-116670499D01*
X74074000Y-116625362D01*
X74074000Y-115886638D01*
X74078445Y-115841501D01*
X74089820Y-115804005D01*
X74108292Y-115769446D01*
X74133153Y-115739153D01*
X74163446Y-115714292D01*
X74198005Y-115695820D01*
X74235501Y-115684445D01*
X74280638Y-115680000D01*
X74919362Y-115680000D01*
X74964499Y-115684445D01*
G37*
G36*
X123246499Y-115734445D02*
G01*
X123283995Y-115745820D01*
X123318554Y-115764292D01*
X123348847Y-115789153D01*
X123373708Y-115819446D01*
X123392180Y-115854005D01*
X123403555Y-115891501D01*
X123408000Y-115936638D01*
X123408000Y-116575362D01*
X123403555Y-116620499D01*
X123392180Y-116657995D01*
X123373708Y-116692554D01*
X123348847Y-116722847D01*
X123318554Y-116747708D01*
X123283995Y-116766180D01*
X123246499Y-116777555D01*
X123201362Y-116782000D01*
X122462638Y-116782000D01*
X122417501Y-116777555D01*
X122380005Y-116766180D01*
X122345446Y-116747708D01*
X122315153Y-116722847D01*
X122290292Y-116692554D01*
X122271820Y-116657995D01*
X122260445Y-116620499D01*
X122256000Y-116575362D01*
X122256000Y-115936638D01*
X122260445Y-115891501D01*
X122271820Y-115854005D01*
X122290292Y-115819446D01*
X122315153Y-115789153D01*
X122345446Y-115764292D01*
X122380005Y-115745820D01*
X122417501Y-115734445D01*
X122462638Y-115730000D01*
X123201362Y-115730000D01*
X123246499Y-115734445D01*
G37*
G36*
X121496499Y-115734445D02*
G01*
X121533995Y-115745820D01*
X121568554Y-115764292D01*
X121598847Y-115789153D01*
X121623708Y-115819446D01*
X121642180Y-115854005D01*
X121653555Y-115891501D01*
X121658000Y-115936638D01*
X121658000Y-116575362D01*
X121653555Y-116620499D01*
X121642180Y-116657995D01*
X121623708Y-116692554D01*
X121598847Y-116722847D01*
X121568554Y-116747708D01*
X121533995Y-116766180D01*
X121496499Y-116777555D01*
X121451362Y-116782000D01*
X120712638Y-116782000D01*
X120667501Y-116777555D01*
X120630005Y-116766180D01*
X120595446Y-116747708D01*
X120565153Y-116722847D01*
X120540292Y-116692554D01*
X120521820Y-116657995D01*
X120510445Y-116620499D01*
X120506000Y-116575362D01*
X120506000Y-115936638D01*
X120510445Y-115891501D01*
X120521820Y-115854005D01*
X120540292Y-115819446D01*
X120565153Y-115789153D01*
X120595446Y-115764292D01*
X120630005Y-115745820D01*
X120667501Y-115734445D01*
X120712638Y-115730000D01*
X121451362Y-115730000D01*
X121496499Y-115734445D01*
G37*
G36*
X83854499Y-114160445D02*
G01*
X83891995Y-114171820D01*
X83926554Y-114190292D01*
X83956847Y-114215153D01*
X83981708Y-114245446D01*
X84000180Y-114280005D01*
X84011555Y-114317501D01*
X84016000Y-114362638D01*
X84016000Y-115101362D01*
X84011555Y-115146499D01*
X84000180Y-115183995D01*
X83981708Y-115218554D01*
X83956847Y-115248847D01*
X83926554Y-115273708D01*
X83891995Y-115292180D01*
X83854499Y-115303555D01*
X83809362Y-115308000D01*
X83170638Y-115308000D01*
X83125501Y-115303555D01*
X83088005Y-115292180D01*
X83053446Y-115273708D01*
X83023153Y-115248847D01*
X82998292Y-115218554D01*
X82979820Y-115183995D01*
X82968445Y-115146499D01*
X82964000Y-115101362D01*
X82964000Y-114362638D01*
X82968445Y-114317501D01*
X82979820Y-114280005D01*
X82998292Y-114245446D01*
X83023153Y-114215153D01*
X83053446Y-114190292D01*
X83088005Y-114171820D01*
X83125501Y-114160445D01*
X83170638Y-114156000D01*
X83809362Y-114156000D01*
X83854499Y-114160445D01*
G37*
G36*
X74964499Y-113934445D02*
G01*
X75001995Y-113945820D01*
X75036554Y-113964292D01*
X75066847Y-113989153D01*
X75091708Y-114019446D01*
X75110180Y-114054005D01*
X75121555Y-114091501D01*
X75126000Y-114136638D01*
X75126000Y-114875362D01*
X75121555Y-114920499D01*
X75110180Y-114957995D01*
X75091708Y-114992554D01*
X75066847Y-115022847D01*
X75036554Y-115047708D01*
X75001995Y-115066180D01*
X74964499Y-115077555D01*
X74919362Y-115082000D01*
X74280638Y-115082000D01*
X74235501Y-115077555D01*
X74198005Y-115066180D01*
X74163446Y-115047708D01*
X74133153Y-115022847D01*
X74108292Y-114992554D01*
X74089820Y-114957995D01*
X74078445Y-114920499D01*
X74074000Y-114875362D01*
X74074000Y-114136638D01*
X74078445Y-114091501D01*
X74089820Y-114054005D01*
X74108292Y-114019446D01*
X74133153Y-113989153D01*
X74163446Y-113964292D01*
X74198005Y-113945820D01*
X74235501Y-113934445D01*
X74280638Y-113930000D01*
X74919362Y-113930000D01*
X74964499Y-113934445D01*
G37*
G36*
X80677000Y-114070000D02*
G01*
X78175000Y-114070000D01*
X78175000Y-112518000D01*
X80677000Y-112518000D01*
X80677000Y-114070000D01*
G37*
G36*
X121524499Y-112940445D02*
G01*
X121561995Y-112951820D01*
X121596554Y-112970292D01*
X121626847Y-112995153D01*
X121651708Y-113025446D01*
X121670180Y-113060005D01*
X121681555Y-113097501D01*
X121686000Y-113142638D01*
X121686000Y-113781362D01*
X121681555Y-113826499D01*
X121670180Y-113863995D01*
X121651708Y-113898554D01*
X121626847Y-113928847D01*
X121596554Y-113953708D01*
X121561995Y-113972180D01*
X121524499Y-113983555D01*
X121479362Y-113988000D01*
X120740638Y-113988000D01*
X120695501Y-113983555D01*
X120658005Y-113972180D01*
X120623446Y-113953708D01*
X120593153Y-113928847D01*
X120568292Y-113898554D01*
X120549820Y-113863995D01*
X120538445Y-113826499D01*
X120534000Y-113781362D01*
X120534000Y-113142638D01*
X120538445Y-113097501D01*
X120549820Y-113060005D01*
X120568292Y-113025446D01*
X120593153Y-112995153D01*
X120623446Y-112970292D01*
X120658005Y-112951820D01*
X120695501Y-112940445D01*
X120740638Y-112936000D01*
X121479362Y-112936000D01*
X121524499Y-112940445D01*
G37*
G36*
X123274499Y-112940445D02*
G01*
X123311995Y-112951820D01*
X123346554Y-112970292D01*
X123376847Y-112995153D01*
X123401708Y-113025446D01*
X123420180Y-113060005D01*
X123431555Y-113097501D01*
X123436000Y-113142638D01*
X123436000Y-113781362D01*
X123431555Y-113826499D01*
X123420180Y-113863995D01*
X123401708Y-113898554D01*
X123376847Y-113928847D01*
X123346554Y-113953708D01*
X123311995Y-113972180D01*
X123274499Y-113983555D01*
X123229362Y-113988000D01*
X122490638Y-113988000D01*
X122445501Y-113983555D01*
X122408005Y-113972180D01*
X122373446Y-113953708D01*
X122343153Y-113928847D01*
X122318292Y-113898554D01*
X122299820Y-113863995D01*
X122288445Y-113826499D01*
X122284000Y-113781362D01*
X122284000Y-113142638D01*
X122288445Y-113097501D01*
X122299820Y-113060005D01*
X122318292Y-113025446D01*
X122343153Y-112995153D01*
X122373446Y-112970292D01*
X122408005Y-112951820D01*
X122445501Y-112940445D01*
X122490638Y-112936000D01*
X123229362Y-112936000D01*
X123274499Y-112940445D01*
G37*
G36*
X85632499Y-111846445D02*
G01*
X85669995Y-111857820D01*
X85704554Y-111876292D01*
X85734847Y-111901153D01*
X85759708Y-111931446D01*
X85778180Y-111966005D01*
X85789555Y-112003501D01*
X85794000Y-112048638D01*
X85794000Y-112787362D01*
X85789555Y-112832499D01*
X85778180Y-112869995D01*
X85759708Y-112904554D01*
X85734847Y-112934847D01*
X85704554Y-112959708D01*
X85669995Y-112978180D01*
X85632499Y-112989555D01*
X85587362Y-112994000D01*
X84948638Y-112994000D01*
X84903501Y-112989555D01*
X84866005Y-112978180D01*
X84831446Y-112959708D01*
X84801153Y-112934847D01*
X84776292Y-112904554D01*
X84757820Y-112869995D01*
X84746445Y-112832499D01*
X84742000Y-112787362D01*
X84742000Y-112048638D01*
X84746445Y-112003501D01*
X84757820Y-111966005D01*
X84776292Y-111931446D01*
X84801153Y-111901153D01*
X84831446Y-111876292D01*
X84866005Y-111857820D01*
X84903501Y-111846445D01*
X84948638Y-111842000D01*
X85587362Y-111842000D01*
X85632499Y-111846445D01*
G37*
G36*
X88934499Y-111846445D02*
G01*
X88971995Y-111857820D01*
X89006554Y-111876292D01*
X89036847Y-111901153D01*
X89061708Y-111931446D01*
X89080180Y-111966005D01*
X89091555Y-112003501D01*
X89096000Y-112048638D01*
X89096000Y-112787362D01*
X89091555Y-112832499D01*
X89080180Y-112869995D01*
X89061708Y-112904554D01*
X89036847Y-112934847D01*
X89006554Y-112959708D01*
X88971995Y-112978180D01*
X88934499Y-112989555D01*
X88889362Y-112994000D01*
X88250638Y-112994000D01*
X88205501Y-112989555D01*
X88168005Y-112978180D01*
X88133446Y-112959708D01*
X88103153Y-112934847D01*
X88078292Y-112904554D01*
X88059820Y-112869995D01*
X88048445Y-112832499D01*
X88044000Y-112787362D01*
X88044000Y-112048638D01*
X88048445Y-112003501D01*
X88059820Y-111966005D01*
X88078292Y-111931446D01*
X88103153Y-111901153D01*
X88133446Y-111876292D01*
X88168005Y-111857820D01*
X88205501Y-111846445D01*
X88250638Y-111842000D01*
X88889362Y-111842000D01*
X88934499Y-111846445D01*
G37*
G36*
X110882295Y-110798323D02*
G01*
X110889309Y-110800451D01*
X110903077Y-110807810D01*
X110925716Y-110817187D01*
X110949749Y-110821967D01*
X110974253Y-110821967D01*
X110998286Y-110817186D01*
X111020923Y-110807810D01*
X111034691Y-110800451D01*
X111041705Y-110798323D01*
X111055140Y-110797000D01*
X111368860Y-110797000D01*
X111382295Y-110798323D01*
X111389309Y-110800451D01*
X111403077Y-110807810D01*
X111425716Y-110817187D01*
X111449749Y-110821967D01*
X111474253Y-110821967D01*
X111498286Y-110817186D01*
X111520923Y-110807810D01*
X111534691Y-110800451D01*
X111541705Y-110798323D01*
X111555140Y-110797000D01*
X111868860Y-110797000D01*
X111882295Y-110798323D01*
X111889309Y-110800451D01*
X111903077Y-110807810D01*
X111925716Y-110817187D01*
X111949749Y-110821967D01*
X111974253Y-110821967D01*
X111998286Y-110817186D01*
X112020923Y-110807810D01*
X112034691Y-110800451D01*
X112041705Y-110798323D01*
X112055140Y-110797000D01*
X112368860Y-110797000D01*
X112382295Y-110798323D01*
X112389309Y-110800451D01*
X112403077Y-110807810D01*
X112425716Y-110817187D01*
X112449749Y-110821967D01*
X112474253Y-110821967D01*
X112498286Y-110817186D01*
X112520923Y-110807810D01*
X112534691Y-110800451D01*
X112541705Y-110798323D01*
X112555140Y-110797000D01*
X112868860Y-110797000D01*
X112882295Y-110798323D01*
X112889309Y-110800451D01*
X112903077Y-110807810D01*
X112925716Y-110817187D01*
X112949749Y-110821967D01*
X112974253Y-110821967D01*
X112998286Y-110817186D01*
X113020923Y-110807810D01*
X113034691Y-110800451D01*
X113041705Y-110798323D01*
X113055140Y-110797000D01*
X113368860Y-110797000D01*
X113382295Y-110798323D01*
X113389309Y-110800451D01*
X113403077Y-110807810D01*
X113425716Y-110817187D01*
X113449749Y-110821967D01*
X113474253Y-110821967D01*
X113498286Y-110817186D01*
X113520923Y-110807810D01*
X113534691Y-110800451D01*
X113541705Y-110798323D01*
X113555140Y-110797000D01*
X113868860Y-110797000D01*
X113882295Y-110798323D01*
X113889309Y-110800451D01*
X113903077Y-110807810D01*
X113925716Y-110817187D01*
X113949749Y-110821967D01*
X113974253Y-110821967D01*
X113998286Y-110817186D01*
X114020923Y-110807810D01*
X114034691Y-110800451D01*
X114041705Y-110798323D01*
X114055140Y-110797000D01*
X114368860Y-110797000D01*
X114382295Y-110798323D01*
X114389309Y-110800451D01*
X114403077Y-110807810D01*
X114425716Y-110817187D01*
X114449749Y-110821967D01*
X114474253Y-110821967D01*
X114498286Y-110817186D01*
X114520923Y-110807810D01*
X114534691Y-110800451D01*
X114541705Y-110798323D01*
X114555140Y-110797000D01*
X114868860Y-110797000D01*
X114882295Y-110798323D01*
X114889309Y-110800451D01*
X114903077Y-110807810D01*
X114925716Y-110817187D01*
X114949749Y-110821967D01*
X114974253Y-110821967D01*
X114998286Y-110817186D01*
X115020923Y-110807810D01*
X115034691Y-110800451D01*
X115041705Y-110798323D01*
X115055140Y-110797000D01*
X115368860Y-110797000D01*
X115382295Y-110798323D01*
X115389309Y-110800451D01*
X115403077Y-110807810D01*
X115425716Y-110817187D01*
X115449749Y-110821967D01*
X115474253Y-110821967D01*
X115498286Y-110817186D01*
X115520923Y-110807810D01*
X115534691Y-110800451D01*
X115541705Y-110798323D01*
X115555140Y-110797000D01*
X115868860Y-110797000D01*
X115882295Y-110798323D01*
X115889309Y-110800451D01*
X115903077Y-110807810D01*
X115925716Y-110817187D01*
X115949749Y-110821967D01*
X115974253Y-110821967D01*
X115998286Y-110817186D01*
X116020923Y-110807810D01*
X116034691Y-110800451D01*
X116041705Y-110798323D01*
X116055140Y-110797000D01*
X116368860Y-110797000D01*
X116382295Y-110798323D01*
X116389310Y-110800451D01*
X116395776Y-110803908D01*
X116401442Y-110808558D01*
X116406092Y-110814224D01*
X116409549Y-110820690D01*
X116411677Y-110827705D01*
X116413000Y-110841140D01*
X116413000Y-112329860D01*
X116411677Y-112343295D01*
X116409549Y-112350310D01*
X116406092Y-112356776D01*
X116401442Y-112362442D01*
X116395776Y-112367092D01*
X116389310Y-112370549D01*
X116382295Y-112372677D01*
X116368860Y-112374000D01*
X116055140Y-112374000D01*
X116041705Y-112372677D01*
X116034691Y-112370549D01*
X116020923Y-112363190D01*
X115998284Y-112353813D01*
X115974251Y-112349033D01*
X115949747Y-112349033D01*
X115925714Y-112353814D01*
X115903077Y-112363190D01*
X115889309Y-112370549D01*
X115882295Y-112372677D01*
X115868860Y-112374000D01*
X115555140Y-112374000D01*
X115541705Y-112372677D01*
X115534691Y-112370549D01*
X115520923Y-112363190D01*
X115498284Y-112353813D01*
X115474251Y-112349033D01*
X115449747Y-112349033D01*
X115425714Y-112353814D01*
X115403077Y-112363190D01*
X115389309Y-112370549D01*
X115382295Y-112372677D01*
X115368860Y-112374000D01*
X115055140Y-112374000D01*
X115041705Y-112372677D01*
X115034691Y-112370549D01*
X115020923Y-112363190D01*
X114998284Y-112353813D01*
X114974251Y-112349033D01*
X114949747Y-112349033D01*
X114925714Y-112353814D01*
X114903077Y-112363190D01*
X114889309Y-112370549D01*
X114882295Y-112372677D01*
X114868860Y-112374000D01*
X114555140Y-112374000D01*
X114541705Y-112372677D01*
X114534691Y-112370549D01*
X114520923Y-112363190D01*
X114498284Y-112353813D01*
X114474251Y-112349033D01*
X114449747Y-112349033D01*
X114425714Y-112353814D01*
X114403077Y-112363190D01*
X114389309Y-112370549D01*
X114382295Y-112372677D01*
X114368860Y-112374000D01*
X114055140Y-112374000D01*
X114041705Y-112372677D01*
X114034691Y-112370549D01*
X114020923Y-112363190D01*
X113998284Y-112353813D01*
X113974251Y-112349033D01*
X113949747Y-112349033D01*
X113925714Y-112353814D01*
X113903077Y-112363190D01*
X113889309Y-112370549D01*
X113882295Y-112372677D01*
X113868860Y-112374000D01*
X113555140Y-112374000D01*
X113541705Y-112372677D01*
X113534691Y-112370549D01*
X113520923Y-112363190D01*
X113498284Y-112353813D01*
X113474251Y-112349033D01*
X113449747Y-112349033D01*
X113425714Y-112353814D01*
X113403077Y-112363190D01*
X113389309Y-112370549D01*
X113382295Y-112372677D01*
X113368860Y-112374000D01*
X113055140Y-112374000D01*
X113041705Y-112372677D01*
X113034691Y-112370549D01*
X113020923Y-112363190D01*
X112998284Y-112353813D01*
X112974251Y-112349033D01*
X112949747Y-112349033D01*
X112925714Y-112353814D01*
X112903077Y-112363190D01*
X112889309Y-112370549D01*
X112882295Y-112372677D01*
X112868860Y-112374000D01*
X112555140Y-112374000D01*
X112541705Y-112372677D01*
X112534691Y-112370549D01*
X112520923Y-112363190D01*
X112498284Y-112353813D01*
X112474251Y-112349033D01*
X112449747Y-112349033D01*
X112425714Y-112353814D01*
X112403077Y-112363190D01*
X112389309Y-112370549D01*
X112382295Y-112372677D01*
X112368860Y-112374000D01*
X112055140Y-112374000D01*
X112041705Y-112372677D01*
X112034691Y-112370549D01*
X112020923Y-112363190D01*
X111998284Y-112353813D01*
X111974251Y-112349033D01*
X111949747Y-112349033D01*
X111925714Y-112353814D01*
X111903077Y-112363190D01*
X111889309Y-112370549D01*
X111882295Y-112372677D01*
X111868860Y-112374000D01*
X111555140Y-112374000D01*
X111541705Y-112372677D01*
X111534691Y-112370549D01*
X111520923Y-112363190D01*
X111498284Y-112353813D01*
X111474251Y-112349033D01*
X111449747Y-112349033D01*
X111425714Y-112353814D01*
X111403077Y-112363190D01*
X111389309Y-112370549D01*
X111382295Y-112372677D01*
X111368860Y-112374000D01*
X111055140Y-112374000D01*
X111041705Y-112372677D01*
X111034691Y-112370549D01*
X111020923Y-112363190D01*
X110998284Y-112353813D01*
X110974251Y-112349033D01*
X110949747Y-112349033D01*
X110925714Y-112353814D01*
X110903077Y-112363190D01*
X110889309Y-112370549D01*
X110882295Y-112372677D01*
X110868860Y-112374000D01*
X110555140Y-112374000D01*
X110541705Y-112372677D01*
X110534690Y-112370549D01*
X110528224Y-112367092D01*
X110522558Y-112362442D01*
X110517908Y-112356776D01*
X110514451Y-112350310D01*
X110512323Y-112343295D01*
X110511000Y-112329860D01*
X110511000Y-110841140D01*
X110512323Y-110827705D01*
X110514451Y-110820690D01*
X110517908Y-110814224D01*
X110522558Y-110808558D01*
X110528224Y-110803908D01*
X110534690Y-110800451D01*
X110541705Y-110798323D01*
X110555140Y-110797000D01*
X110868860Y-110797000D01*
X110882295Y-110798323D01*
G37*
G36*
X72238062Y-108788181D02*
G01*
X72272981Y-108798774D01*
X72305163Y-108815976D01*
X72333373Y-108839127D01*
X72356524Y-108867337D01*
X72373726Y-108899519D01*
X72384319Y-108934438D01*
X72388500Y-108976895D01*
X72388500Y-111343105D01*
X72384319Y-111385562D01*
X72373726Y-111420481D01*
X72356524Y-111452663D01*
X72333373Y-111480873D01*
X72305163Y-111504024D01*
X72272981Y-111521226D01*
X72238062Y-111531819D01*
X72195605Y-111536000D01*
X71054395Y-111536000D01*
X71011938Y-111531819D01*
X70977019Y-111521226D01*
X70944837Y-111504024D01*
X70916627Y-111480873D01*
X70893476Y-111452663D01*
X70876274Y-111420481D01*
X70865681Y-111385562D01*
X70861500Y-111343105D01*
X70861500Y-108976895D01*
X70865681Y-108934438D01*
X70876274Y-108899519D01*
X70893476Y-108867337D01*
X70916627Y-108839127D01*
X70944837Y-108815976D01*
X70977019Y-108798774D01*
X71011938Y-108788181D01*
X71054395Y-108784000D01*
X72195605Y-108784000D01*
X72238062Y-108788181D01*
G37*
G36*
X75213062Y-108788181D02*
G01*
X75247981Y-108798774D01*
X75280163Y-108815976D01*
X75308373Y-108839127D01*
X75331524Y-108867337D01*
X75348726Y-108899519D01*
X75359319Y-108934438D01*
X75363500Y-108976895D01*
X75363500Y-111343105D01*
X75359319Y-111385562D01*
X75348726Y-111420481D01*
X75331524Y-111452663D01*
X75308373Y-111480873D01*
X75280163Y-111504024D01*
X75247981Y-111521226D01*
X75213062Y-111531819D01*
X75170605Y-111536000D01*
X74029395Y-111536000D01*
X73986938Y-111531819D01*
X73952019Y-111521226D01*
X73919837Y-111504024D01*
X73891627Y-111480873D01*
X73868476Y-111452663D01*
X73851274Y-111420481D01*
X73840681Y-111385562D01*
X73836500Y-111343105D01*
X73836500Y-108976895D01*
X73840681Y-108934438D01*
X73851274Y-108899519D01*
X73868476Y-108867337D01*
X73891627Y-108839127D01*
X73919837Y-108815976D01*
X73952019Y-108798774D01*
X73986938Y-108788181D01*
X74029395Y-108784000D01*
X75170605Y-108784000D01*
X75213062Y-108788181D01*
G37*
G36*
X78520499Y-110350445D02*
G01*
X78557995Y-110361820D01*
X78592554Y-110380292D01*
X78622847Y-110405153D01*
X78647708Y-110435446D01*
X78666180Y-110470005D01*
X78677555Y-110507501D01*
X78682000Y-110552638D01*
X78682000Y-111291362D01*
X78677555Y-111336499D01*
X78666180Y-111373995D01*
X78647708Y-111408554D01*
X78622847Y-111438847D01*
X78592554Y-111463708D01*
X78557995Y-111482180D01*
X78520499Y-111493555D01*
X78475362Y-111498000D01*
X77836638Y-111498000D01*
X77791501Y-111493555D01*
X77754005Y-111482180D01*
X77719446Y-111463708D01*
X77689153Y-111438847D01*
X77664292Y-111408554D01*
X77645820Y-111373995D01*
X77634445Y-111336499D01*
X77630000Y-111291362D01*
X77630000Y-110552638D01*
X77634445Y-110507501D01*
X77645820Y-110470005D01*
X77664292Y-110435446D01*
X77689153Y-110405153D01*
X77719446Y-110380292D01*
X77754005Y-110361820D01*
X77791501Y-110350445D01*
X77836638Y-110346000D01*
X78475362Y-110346000D01*
X78520499Y-110350445D01*
G37*
G36*
X85632499Y-110096445D02*
G01*
X85669995Y-110107820D01*
X85704554Y-110126292D01*
X85734847Y-110151153D01*
X85759708Y-110181446D01*
X85778180Y-110216005D01*
X85789555Y-110253501D01*
X85794000Y-110298638D01*
X85794000Y-111037362D01*
X85789555Y-111082499D01*
X85778180Y-111119995D01*
X85759708Y-111154554D01*
X85734847Y-111184847D01*
X85704554Y-111209708D01*
X85669995Y-111228180D01*
X85632499Y-111239555D01*
X85587362Y-111244000D01*
X84948638Y-111244000D01*
X84903501Y-111239555D01*
X84866005Y-111228180D01*
X84831446Y-111209708D01*
X84801153Y-111184847D01*
X84776292Y-111154554D01*
X84757820Y-111119995D01*
X84746445Y-111082499D01*
X84742000Y-111037362D01*
X84742000Y-110298638D01*
X84746445Y-110253501D01*
X84757820Y-110216005D01*
X84776292Y-110181446D01*
X84801153Y-110151153D01*
X84831446Y-110126292D01*
X84866005Y-110107820D01*
X84903501Y-110096445D01*
X84948638Y-110092000D01*
X85587362Y-110092000D01*
X85632499Y-110096445D01*
G37*
G36*
X88934499Y-110096445D02*
G01*
X88971995Y-110107820D01*
X89006554Y-110126292D01*
X89036847Y-110151153D01*
X89061708Y-110181446D01*
X89080180Y-110216005D01*
X89091555Y-110253501D01*
X89096000Y-110298638D01*
X89096000Y-111037362D01*
X89091555Y-111082499D01*
X89080180Y-111119995D01*
X89061708Y-111154554D01*
X89036847Y-111184847D01*
X89006554Y-111209708D01*
X88971995Y-111228180D01*
X88934499Y-111239555D01*
X88889362Y-111244000D01*
X88250638Y-111244000D01*
X88205501Y-111239555D01*
X88168005Y-111228180D01*
X88133446Y-111209708D01*
X88103153Y-111184847D01*
X88078292Y-111154554D01*
X88059820Y-111119995D01*
X88048445Y-111082499D01*
X88044000Y-111037362D01*
X88044000Y-110298638D01*
X88048445Y-110253501D01*
X88059820Y-110216005D01*
X88078292Y-110181446D01*
X88103153Y-110151153D01*
X88133446Y-110126292D01*
X88168005Y-110107820D01*
X88205501Y-110096445D01*
X88250638Y-110092000D01*
X88889362Y-110092000D01*
X88934499Y-110096445D01*
G37*
G36*
X123311299Y-109841645D02*
G01*
X123348795Y-109853020D01*
X123383354Y-109871492D01*
X123413647Y-109896353D01*
X123438508Y-109926646D01*
X123456980Y-109961205D01*
X123468355Y-109998701D01*
X123472800Y-110043838D01*
X123472800Y-110682562D01*
X123468355Y-110727699D01*
X123456980Y-110765195D01*
X123438508Y-110799754D01*
X123413647Y-110830047D01*
X123383354Y-110854908D01*
X123348795Y-110873380D01*
X123311299Y-110884755D01*
X123266162Y-110889200D01*
X122527438Y-110889200D01*
X122482301Y-110884755D01*
X122444805Y-110873380D01*
X122410246Y-110854908D01*
X122379953Y-110830047D01*
X122355092Y-110799754D01*
X122336620Y-110765195D01*
X122325245Y-110727699D01*
X122320800Y-110682562D01*
X122320800Y-110043838D01*
X122325245Y-109998701D01*
X122336620Y-109961205D01*
X122355092Y-109926646D01*
X122379953Y-109896353D01*
X122410246Y-109871492D01*
X122444805Y-109853020D01*
X122482301Y-109841645D01*
X122527438Y-109837200D01*
X123266162Y-109837200D01*
X123311299Y-109841645D01*
G37*
G36*
X121561299Y-109841645D02*
G01*
X121598795Y-109853020D01*
X121633354Y-109871492D01*
X121663647Y-109896353D01*
X121688508Y-109926646D01*
X121706980Y-109961205D01*
X121718355Y-109998701D01*
X121722800Y-110043838D01*
X121722800Y-110682562D01*
X121718355Y-110727699D01*
X121706980Y-110765195D01*
X121688508Y-110799754D01*
X121663647Y-110830047D01*
X121633354Y-110854908D01*
X121598795Y-110873380D01*
X121561299Y-110884755D01*
X121516162Y-110889200D01*
X120777438Y-110889200D01*
X120732301Y-110884755D01*
X120694805Y-110873380D01*
X120660246Y-110854908D01*
X120629953Y-110830047D01*
X120605092Y-110799754D01*
X120586620Y-110765195D01*
X120575245Y-110727699D01*
X120570800Y-110682562D01*
X120570800Y-110043838D01*
X120575245Y-109998701D01*
X120586620Y-109961205D01*
X120605092Y-109926646D01*
X120629953Y-109896353D01*
X120660246Y-109871492D01*
X120694805Y-109853020D01*
X120732301Y-109841645D01*
X120777438Y-109837200D01*
X121516162Y-109837200D01*
X121561299Y-109841645D01*
G37*
G36*
X80884499Y-109130445D02*
G01*
X80921995Y-109141820D01*
X80956554Y-109160292D01*
X80986847Y-109185153D01*
X81011708Y-109215446D01*
X81030180Y-109250005D01*
X81041555Y-109287501D01*
X81046000Y-109332638D01*
X81046000Y-109971362D01*
X81041555Y-110016499D01*
X81030180Y-110053995D01*
X81011708Y-110088554D01*
X80986847Y-110118847D01*
X80956554Y-110143708D01*
X80921995Y-110162180D01*
X80884499Y-110173555D01*
X80839362Y-110178000D01*
X80100638Y-110178000D01*
X80055501Y-110173555D01*
X80018005Y-110162180D01*
X79983446Y-110143708D01*
X79953153Y-110118847D01*
X79928292Y-110088554D01*
X79909820Y-110053995D01*
X79898445Y-110016499D01*
X79894000Y-109971362D01*
X79894000Y-109332638D01*
X79898445Y-109287501D01*
X79909820Y-109250005D01*
X79928292Y-109215446D01*
X79953153Y-109185153D01*
X79983446Y-109160292D01*
X80018005Y-109141820D01*
X80055501Y-109130445D01*
X80100638Y-109126000D01*
X80839362Y-109126000D01*
X80884499Y-109130445D01*
G37*
G36*
X82634499Y-109130445D02*
G01*
X82671995Y-109141820D01*
X82706554Y-109160292D01*
X82736847Y-109185153D01*
X82761708Y-109215446D01*
X82780180Y-109250005D01*
X82791555Y-109287501D01*
X82796000Y-109332638D01*
X82796000Y-109971362D01*
X82791555Y-110016499D01*
X82780180Y-110053995D01*
X82761708Y-110088554D01*
X82736847Y-110118847D01*
X82706554Y-110143708D01*
X82671995Y-110162180D01*
X82634499Y-110173555D01*
X82589362Y-110178000D01*
X81850638Y-110178000D01*
X81805501Y-110173555D01*
X81768005Y-110162180D01*
X81733446Y-110143708D01*
X81703153Y-110118847D01*
X81678292Y-110088554D01*
X81659820Y-110053995D01*
X81648445Y-110016499D01*
X81644000Y-109971362D01*
X81644000Y-109332638D01*
X81648445Y-109287501D01*
X81659820Y-109250005D01*
X81678292Y-109215446D01*
X81703153Y-109185153D01*
X81733446Y-109160292D01*
X81768005Y-109141820D01*
X81805501Y-109130445D01*
X81850638Y-109126000D01*
X82589362Y-109126000D01*
X82634499Y-109130445D01*
G37*
G36*
X78520499Y-108600445D02*
G01*
X78557995Y-108611820D01*
X78592554Y-108630292D01*
X78622847Y-108655153D01*
X78647708Y-108685446D01*
X78666180Y-108720005D01*
X78677555Y-108757501D01*
X78682000Y-108802638D01*
X78682000Y-109541362D01*
X78677555Y-109586499D01*
X78666180Y-109623995D01*
X78647708Y-109658554D01*
X78622847Y-109688847D01*
X78592554Y-109713708D01*
X78557995Y-109732180D01*
X78520499Y-109743555D01*
X78475362Y-109748000D01*
X77836638Y-109748000D01*
X77791501Y-109743555D01*
X77754005Y-109732180D01*
X77719446Y-109713708D01*
X77689153Y-109688847D01*
X77664292Y-109658554D01*
X77645820Y-109623995D01*
X77634445Y-109586499D01*
X77630000Y-109541362D01*
X77630000Y-108802638D01*
X77634445Y-108757501D01*
X77645820Y-108720005D01*
X77664292Y-108685446D01*
X77689153Y-108655153D01*
X77719446Y-108630292D01*
X77754005Y-108611820D01*
X77791501Y-108600445D01*
X77836638Y-108596000D01*
X78475362Y-108596000D01*
X78520499Y-108600445D01*
G37*
G36*
X108785099Y-108546245D02*
G01*
X108822595Y-108557620D01*
X108857154Y-108576092D01*
X108887447Y-108600953D01*
X108912308Y-108631246D01*
X108930780Y-108665805D01*
X108942155Y-108703301D01*
X108946600Y-108748438D01*
X108946600Y-109387162D01*
X108942155Y-109432299D01*
X108930780Y-109469795D01*
X108912308Y-109504354D01*
X108887447Y-109534647D01*
X108857154Y-109559508D01*
X108822595Y-109577980D01*
X108785099Y-109589355D01*
X108739962Y-109593800D01*
X108001238Y-109593800D01*
X107956101Y-109589355D01*
X107918605Y-109577980D01*
X107884046Y-109559508D01*
X107853753Y-109534647D01*
X107828892Y-109504354D01*
X107810420Y-109469795D01*
X107799045Y-109432299D01*
X107794600Y-109387162D01*
X107794600Y-108748438D01*
X107799045Y-108703301D01*
X107810420Y-108665805D01*
X107828892Y-108631246D01*
X107853753Y-108600953D01*
X107884046Y-108576092D01*
X107918605Y-108557620D01*
X107956101Y-108546245D01*
X108001238Y-108541800D01*
X108739962Y-108541800D01*
X108785099Y-108546245D01*
G37*
G36*
X110535099Y-108546245D02*
G01*
X110572595Y-108557620D01*
X110607154Y-108576092D01*
X110637447Y-108600953D01*
X110662308Y-108631246D01*
X110680780Y-108665805D01*
X110692155Y-108703301D01*
X110696600Y-108748438D01*
X110696600Y-109387162D01*
X110692155Y-109432299D01*
X110680780Y-109469795D01*
X110662308Y-109504354D01*
X110637447Y-109534647D01*
X110607154Y-109559508D01*
X110572595Y-109577980D01*
X110535099Y-109589355D01*
X110489962Y-109593800D01*
X109751238Y-109593800D01*
X109706101Y-109589355D01*
X109668605Y-109577980D01*
X109634046Y-109559508D01*
X109603753Y-109534647D01*
X109578892Y-109504354D01*
X109560420Y-109469795D01*
X109549045Y-109432299D01*
X109544600Y-109387162D01*
X109544600Y-108748438D01*
X109549045Y-108703301D01*
X109560420Y-108665805D01*
X109578892Y-108631246D01*
X109603753Y-108600953D01*
X109634046Y-108576092D01*
X109668605Y-108557620D01*
X109706101Y-108546245D01*
X109751238Y-108541800D01*
X110489962Y-108541800D01*
X110535099Y-108546245D01*
G37*
G36*
X116907600Y-108368600D02*
G01*
X115905600Y-108368600D01*
X115905600Y-106566600D01*
X116907600Y-106566600D01*
X116907600Y-108368600D01*
G37*
G36*
X113507600Y-108368600D02*
G01*
X112505600Y-108368600D01*
X112505600Y-106566600D01*
X113507600Y-106566600D01*
X113507600Y-108368600D01*
G37*
G36*
X111387299Y-106920645D02*
G01*
X111424795Y-106932020D01*
X111459354Y-106950492D01*
X111489647Y-106975353D01*
X111514508Y-107005646D01*
X111532980Y-107040205D01*
X111544355Y-107077701D01*
X111548800Y-107122838D01*
X111548800Y-107761562D01*
X111544355Y-107806699D01*
X111532980Y-107844195D01*
X111514508Y-107878754D01*
X111489647Y-107909047D01*
X111459354Y-107933908D01*
X111424795Y-107952380D01*
X111387299Y-107963755D01*
X111342162Y-107968200D01*
X110603438Y-107968200D01*
X110558301Y-107963755D01*
X110520805Y-107952380D01*
X110486246Y-107933908D01*
X110455953Y-107909047D01*
X110431092Y-107878754D01*
X110412620Y-107844195D01*
X110401245Y-107806699D01*
X110396800Y-107761562D01*
X110396800Y-107122838D01*
X110401245Y-107077701D01*
X110412620Y-107040205D01*
X110431092Y-107005646D01*
X110455953Y-106975353D01*
X110486246Y-106950492D01*
X110520805Y-106932020D01*
X110558301Y-106920645D01*
X110603438Y-106916200D01*
X111342162Y-106916200D01*
X111387299Y-106920645D01*
G37*
G36*
X109637299Y-106920645D02*
G01*
X109674795Y-106932020D01*
X109709354Y-106950492D01*
X109739647Y-106975353D01*
X109764508Y-107005646D01*
X109782980Y-107040205D01*
X109794355Y-107077701D01*
X109798800Y-107122838D01*
X109798800Y-107761562D01*
X109794355Y-107806699D01*
X109782980Y-107844195D01*
X109764508Y-107878754D01*
X109739647Y-107909047D01*
X109709354Y-107933908D01*
X109674795Y-107952380D01*
X109637299Y-107963755D01*
X109592162Y-107968200D01*
X108853438Y-107968200D01*
X108808301Y-107963755D01*
X108770805Y-107952380D01*
X108736246Y-107933908D01*
X108705953Y-107909047D01*
X108681092Y-107878754D01*
X108662620Y-107844195D01*
X108651245Y-107806699D01*
X108646800Y-107761562D01*
X108646800Y-107122838D01*
X108651245Y-107077701D01*
X108662620Y-107040205D01*
X108681092Y-107005646D01*
X108705953Y-106975353D01*
X108736246Y-106950492D01*
X108770805Y-106932020D01*
X108808301Y-106920645D01*
X108853438Y-106916200D01*
X109592162Y-106916200D01*
X109637299Y-106920645D01*
G37*
G36*
X114838152Y-107033931D02*
G01*
X114920227Y-107067928D01*
X114920229Y-107067929D01*
X114936130Y-107078554D01*
X114994095Y-107117285D01*
X115056915Y-107180105D01*
X115106272Y-107253973D01*
X115140269Y-107336048D01*
X115157600Y-107423179D01*
X115157600Y-107512021D01*
X115140269Y-107599152D01*
X115106272Y-107681227D01*
X115056915Y-107755095D01*
X114994095Y-107817915D01*
X114957413Y-107842425D01*
X114920229Y-107867271D01*
X114920228Y-107867272D01*
X114920227Y-107867272D01*
X114838152Y-107901269D01*
X114751021Y-107918600D01*
X114662179Y-107918600D01*
X114575048Y-107901269D01*
X114492973Y-107867272D01*
X114492972Y-107867272D01*
X114492971Y-107867271D01*
X114455787Y-107842425D01*
X114419105Y-107817915D01*
X114356285Y-107755095D01*
X114306928Y-107681227D01*
X114272931Y-107599152D01*
X114255600Y-107512021D01*
X114255600Y-107423179D01*
X114272931Y-107336048D01*
X114306928Y-107253973D01*
X114356285Y-107180105D01*
X114419105Y-107117285D01*
X114477070Y-107078554D01*
X114492971Y-107067929D01*
X114492973Y-107067928D01*
X114575048Y-107033931D01*
X114662179Y-107016600D01*
X114751021Y-107016600D01*
X114838152Y-107033931D01*
G37*
G36*
X105381499Y-106844445D02*
G01*
X105418995Y-106855820D01*
X105453554Y-106874292D01*
X105483847Y-106899153D01*
X105508708Y-106929446D01*
X105527180Y-106964005D01*
X105538555Y-107001501D01*
X105543000Y-107046638D01*
X105543000Y-107685362D01*
X105538555Y-107730499D01*
X105527180Y-107767995D01*
X105508708Y-107802554D01*
X105483847Y-107832847D01*
X105453554Y-107857708D01*
X105418995Y-107876180D01*
X105381499Y-107887555D01*
X105336362Y-107892000D01*
X104597638Y-107892000D01*
X104552501Y-107887555D01*
X104515005Y-107876180D01*
X104480446Y-107857708D01*
X104450153Y-107832847D01*
X104425292Y-107802554D01*
X104406820Y-107767995D01*
X104395445Y-107730499D01*
X104391000Y-107685362D01*
X104391000Y-107046638D01*
X104395445Y-107001501D01*
X104406820Y-106964005D01*
X104425292Y-106929446D01*
X104450153Y-106899153D01*
X104480446Y-106874292D01*
X104515005Y-106855820D01*
X104552501Y-106844445D01*
X104597638Y-106840000D01*
X105336362Y-106840000D01*
X105381499Y-106844445D01*
G37*
G36*
X107131499Y-106844445D02*
G01*
X107168995Y-106855820D01*
X107203554Y-106874292D01*
X107233847Y-106899153D01*
X107258708Y-106929446D01*
X107277180Y-106964005D01*
X107288555Y-107001501D01*
X107293000Y-107046638D01*
X107293000Y-107685362D01*
X107288555Y-107730499D01*
X107277180Y-107767995D01*
X107258708Y-107802554D01*
X107233847Y-107832847D01*
X107203554Y-107857708D01*
X107168995Y-107876180D01*
X107131499Y-107887555D01*
X107086362Y-107892000D01*
X106347638Y-107892000D01*
X106302501Y-107887555D01*
X106265005Y-107876180D01*
X106230446Y-107857708D01*
X106200153Y-107832847D01*
X106175292Y-107802554D01*
X106156820Y-107767995D01*
X106145445Y-107730499D01*
X106141000Y-107685362D01*
X106141000Y-107046638D01*
X106145445Y-107001501D01*
X106156820Y-106964005D01*
X106175292Y-106929446D01*
X106200153Y-106899153D01*
X106230446Y-106874292D01*
X106265005Y-106855820D01*
X106302501Y-106844445D01*
X106347638Y-106840000D01*
X107086362Y-106840000D01*
X107131499Y-106844445D01*
G37*
G36*
X75171000Y-102591000D02*
G01*
X67449000Y-102591000D01*
X67449000Y-97409000D01*
X75171000Y-97409000D01*
X75171000Y-102591000D01*
G37*
G36*
X132551000Y-102591000D02*
G01*
X124829000Y-102591000D01*
X124829000Y-97409000D01*
X132551000Y-97409000D01*
X132551000Y-102591000D01*
G37*
G36*
X102019875Y-99057479D02*
G01*
X102093516Y-99079818D01*
X102130337Y-99090987D01*
X102232139Y-99145402D01*
X102289227Y-99192253D01*
X102321369Y-99218631D01*
X102394598Y-99307861D01*
X102394599Y-99307863D01*
X102449013Y-99409662D01*
X102449524Y-99411347D01*
X102482521Y-99520124D01*
X102491000Y-99606215D01*
X102491000Y-100393785D01*
X102482521Y-100479876D01*
X102460182Y-100553517D01*
X102449013Y-100590338D01*
X102394598Y-100692140D01*
X102321370Y-100781370D01*
X102232140Y-100854598D01*
X102130338Y-100909013D01*
X102093517Y-100920182D01*
X102019876Y-100942521D01*
X101905000Y-100953835D01*
X101790125Y-100942521D01*
X101716484Y-100920182D01*
X101679663Y-100909013D01*
X101577861Y-100854598D01*
X101488631Y-100781370D01*
X101415402Y-100692138D01*
X101380240Y-100626355D01*
X101366627Y-100605980D01*
X101349300Y-100588653D01*
X101328925Y-100575040D01*
X101306286Y-100565662D01*
X101282253Y-100560882D01*
X101257749Y-100560882D01*
X101233716Y-100565662D01*
X101211077Y-100575040D01*
X101190702Y-100588653D01*
X101173375Y-100605980D01*
X101159762Y-100626354D01*
X101124598Y-100692140D01*
X101051370Y-100781370D01*
X100962140Y-100854598D01*
X100860338Y-100909013D01*
X100823517Y-100920182D01*
X100749876Y-100942521D01*
X100635000Y-100953835D01*
X100520125Y-100942521D01*
X100446484Y-100920182D01*
X100409663Y-100909013D01*
X100307861Y-100854598D01*
X100218631Y-100781370D01*
X100145402Y-100692138D01*
X100110240Y-100626355D01*
X100096627Y-100605980D01*
X100079300Y-100588653D01*
X100058925Y-100575040D01*
X100036286Y-100565662D01*
X100012253Y-100560882D01*
X99987749Y-100560882D01*
X99963716Y-100565662D01*
X99941077Y-100575040D01*
X99920702Y-100588653D01*
X99903375Y-100605980D01*
X99889762Y-100626354D01*
X99854598Y-100692140D01*
X99781370Y-100781370D01*
X99692140Y-100854598D01*
X99590338Y-100909013D01*
X99553517Y-100920182D01*
X99479876Y-100942521D01*
X99365000Y-100953835D01*
X99250125Y-100942521D01*
X99176484Y-100920182D01*
X99139663Y-100909013D01*
X99037861Y-100854598D01*
X98948631Y-100781370D01*
X98902625Y-100725310D01*
X98885298Y-100707983D01*
X98864924Y-100694369D01*
X98842285Y-100684992D01*
X98818252Y-100680211D01*
X98793748Y-100680211D01*
X98769714Y-100684991D01*
X98747076Y-100694368D01*
X98726701Y-100707982D01*
X98709374Y-100725309D01*
X98695760Y-100745683D01*
X98686383Y-100768322D01*
X98681602Y-100792355D01*
X98681000Y-100804608D01*
X98681000Y-100951000D01*
X97509000Y-100951000D01*
X97509000Y-99049000D01*
X98681000Y-99049000D01*
X98681000Y-99195392D01*
X98683402Y-99219778D01*
X98690515Y-99243227D01*
X98702066Y-99264838D01*
X98717611Y-99283780D01*
X98736553Y-99299325D01*
X98758164Y-99310876D01*
X98781613Y-99317989D01*
X98805999Y-99320391D01*
X98830385Y-99317989D01*
X98853834Y-99310876D01*
X98875445Y-99299325D01*
X98894387Y-99283780D01*
X98902625Y-99274690D01*
X98948629Y-99218634D01*
X98948631Y-99218631D01*
X99037861Y-99145402D01*
X99049507Y-99139177D01*
X99139662Y-99090987D01*
X99176483Y-99079818D01*
X99250124Y-99057479D01*
X99365000Y-99046165D01*
X99479875Y-99057479D01*
X99553516Y-99079818D01*
X99590337Y-99090987D01*
X99692139Y-99145402D01*
X99749227Y-99192253D01*
X99781369Y-99218631D01*
X99854598Y-99307861D01*
X99854601Y-99307865D01*
X99889761Y-99373645D01*
X99903374Y-99394020D01*
X99920701Y-99411347D01*
X99941076Y-99424960D01*
X99963715Y-99434338D01*
X99987748Y-99439118D01*
X100012252Y-99439118D01*
X100036285Y-99434338D01*
X100058924Y-99424960D01*
X100079299Y-99411347D01*
X100096626Y-99394020D01*
X100110239Y-99373646D01*
X100145402Y-99307861D01*
X100218629Y-99218634D01*
X100218631Y-99218631D01*
X100307861Y-99145402D01*
X100319507Y-99139177D01*
X100409662Y-99090987D01*
X100446483Y-99079818D01*
X100520124Y-99057479D01*
X100635000Y-99046165D01*
X100749875Y-99057479D01*
X100823516Y-99079818D01*
X100860337Y-99090987D01*
X100962139Y-99145402D01*
X101019227Y-99192253D01*
X101051369Y-99218631D01*
X101124598Y-99307861D01*
X101124601Y-99307865D01*
X101159761Y-99373645D01*
X101173374Y-99394020D01*
X101190701Y-99411347D01*
X101211076Y-99424960D01*
X101233715Y-99434338D01*
X101257748Y-99439118D01*
X101282252Y-99439118D01*
X101306285Y-99434338D01*
X101328924Y-99424960D01*
X101349299Y-99411347D01*
X101366626Y-99394020D01*
X101380239Y-99373646D01*
X101415402Y-99307861D01*
X101488629Y-99218634D01*
X101488631Y-99218631D01*
X101577861Y-99145402D01*
X101589507Y-99139177D01*
X101679662Y-99090987D01*
X101716483Y-99079818D01*
X101790124Y-99057479D01*
X101905000Y-99046165D01*
X102019875Y-99057479D01*
G37*
G36*
X121180299Y-92696645D02*
G01*
X121217795Y-92708020D01*
X121252354Y-92726492D01*
X121282647Y-92751353D01*
X121307508Y-92781646D01*
X121325980Y-92816205D01*
X121337355Y-92853701D01*
X121341800Y-92898838D01*
X121341800Y-93537562D01*
X121337355Y-93582699D01*
X121325980Y-93620195D01*
X121307508Y-93654754D01*
X121282647Y-93685047D01*
X121252354Y-93709908D01*
X121217795Y-93728380D01*
X121180299Y-93739755D01*
X121135162Y-93744200D01*
X120396438Y-93744200D01*
X120351301Y-93739755D01*
X120313805Y-93728380D01*
X120279246Y-93709908D01*
X120248953Y-93685047D01*
X120224092Y-93654754D01*
X120205620Y-93620195D01*
X120194245Y-93582699D01*
X120189800Y-93537562D01*
X120189800Y-92898838D01*
X120194245Y-92853701D01*
X120205620Y-92816205D01*
X120224092Y-92781646D01*
X120248953Y-92751353D01*
X120279246Y-92726492D01*
X120313805Y-92708020D01*
X120351301Y-92696645D01*
X120396438Y-92692200D01*
X121135162Y-92692200D01*
X121180299Y-92696645D01*
G37*
G36*
X122930299Y-92696645D02*
G01*
X122967795Y-92708020D01*
X123002354Y-92726492D01*
X123032647Y-92751353D01*
X123057508Y-92781646D01*
X123075980Y-92816205D01*
X123087355Y-92853701D01*
X123091800Y-92898838D01*
X123091800Y-93537562D01*
X123087355Y-93582699D01*
X123075980Y-93620195D01*
X123057508Y-93654754D01*
X123032647Y-93685047D01*
X123002354Y-93709908D01*
X122967795Y-93728380D01*
X122930299Y-93739755D01*
X122885162Y-93744200D01*
X122146438Y-93744200D01*
X122101301Y-93739755D01*
X122063805Y-93728380D01*
X122029246Y-93709908D01*
X121998953Y-93685047D01*
X121974092Y-93654754D01*
X121955620Y-93620195D01*
X121944245Y-93582699D01*
X121939800Y-93537562D01*
X121939800Y-92898838D01*
X121944245Y-92853701D01*
X121955620Y-92816205D01*
X121974092Y-92781646D01*
X121998953Y-92751353D01*
X122029246Y-92726492D01*
X122063805Y-92708020D01*
X122101301Y-92696645D01*
X122146438Y-92692200D01*
X122885162Y-92692200D01*
X122930299Y-92696645D01*
G37*
G36*
X126297899Y-90981645D02*
G01*
X126335395Y-90993020D01*
X126369954Y-91011492D01*
X126400247Y-91036353D01*
X126425108Y-91066646D01*
X126443580Y-91101205D01*
X126454955Y-91138701D01*
X126459400Y-91183838D01*
X126459400Y-91922562D01*
X126454955Y-91967699D01*
X126443580Y-92005195D01*
X126425108Y-92039754D01*
X126400247Y-92070047D01*
X126369954Y-92094908D01*
X126335395Y-92113380D01*
X126297899Y-92124755D01*
X126252762Y-92129200D01*
X125614038Y-92129200D01*
X125568901Y-92124755D01*
X125531405Y-92113380D01*
X125496846Y-92094908D01*
X125466553Y-92070047D01*
X125441692Y-92039754D01*
X125423220Y-92005195D01*
X125411845Y-91967699D01*
X125407400Y-91922562D01*
X125407400Y-91183838D01*
X125411845Y-91138701D01*
X125423220Y-91101205D01*
X125441692Y-91066646D01*
X125466553Y-91036353D01*
X125496846Y-91011492D01*
X125531405Y-90993020D01*
X125568901Y-90981645D01*
X125614038Y-90977200D01*
X126252762Y-90977200D01*
X126297899Y-90981645D01*
G37*
G36*
X129447499Y-90942245D02*
G01*
X129484995Y-90953620D01*
X129519554Y-90972092D01*
X129549847Y-90996953D01*
X129574708Y-91027246D01*
X129593180Y-91061805D01*
X129604555Y-91099301D01*
X129609000Y-91144438D01*
X129609000Y-91883162D01*
X129604555Y-91928299D01*
X129593180Y-91965795D01*
X129574708Y-92000354D01*
X129549847Y-92030647D01*
X129519554Y-92055508D01*
X129484995Y-92073980D01*
X129447499Y-92085355D01*
X129402362Y-92089800D01*
X128763638Y-92089800D01*
X128718501Y-92085355D01*
X128681005Y-92073980D01*
X128646446Y-92055508D01*
X128616153Y-92030647D01*
X128591292Y-92000354D01*
X128572820Y-91965795D01*
X128561445Y-91928299D01*
X128557000Y-91883162D01*
X128557000Y-91144438D01*
X128561445Y-91099301D01*
X128572820Y-91061805D01*
X128591292Y-91027246D01*
X128616153Y-90996953D01*
X128646446Y-90972092D01*
X128681005Y-90953620D01*
X128718501Y-90942245D01*
X128763638Y-90937800D01*
X129402362Y-90937800D01*
X129447499Y-90942245D01*
G37*
G36*
X122941699Y-89674045D02*
G01*
X122979195Y-89685420D01*
X123013754Y-89703892D01*
X123044047Y-89728753D01*
X123068908Y-89759046D01*
X123087380Y-89793605D01*
X123098755Y-89831101D01*
X123103200Y-89876238D01*
X123103200Y-90514962D01*
X123098755Y-90560099D01*
X123087380Y-90597595D01*
X123068908Y-90632154D01*
X123044047Y-90662447D01*
X123013754Y-90687308D01*
X122979195Y-90705780D01*
X122941699Y-90717155D01*
X122896562Y-90721600D01*
X122157838Y-90721600D01*
X122112701Y-90717155D01*
X122075205Y-90705780D01*
X122040646Y-90687308D01*
X122010353Y-90662447D01*
X121985492Y-90632154D01*
X121967020Y-90597595D01*
X121955645Y-90560099D01*
X121951200Y-90514962D01*
X121951200Y-89876238D01*
X121955645Y-89831101D01*
X121967020Y-89793605D01*
X121985492Y-89759046D01*
X122010353Y-89728753D01*
X122040646Y-89703892D01*
X122075205Y-89685420D01*
X122112701Y-89674045D01*
X122157838Y-89669600D01*
X122896562Y-89669600D01*
X122941699Y-89674045D01*
G37*
G36*
X121191699Y-89674045D02*
G01*
X121229195Y-89685420D01*
X121263754Y-89703892D01*
X121294047Y-89728753D01*
X121318908Y-89759046D01*
X121337380Y-89793605D01*
X121348755Y-89831101D01*
X121353200Y-89876238D01*
X121353200Y-90514962D01*
X121348755Y-90560099D01*
X121337380Y-90597595D01*
X121318908Y-90632154D01*
X121294047Y-90662447D01*
X121263754Y-90687308D01*
X121229195Y-90705780D01*
X121191699Y-90717155D01*
X121146562Y-90721600D01*
X120407838Y-90721600D01*
X120362701Y-90717155D01*
X120325205Y-90705780D01*
X120290646Y-90687308D01*
X120260353Y-90662447D01*
X120235492Y-90632154D01*
X120217020Y-90597595D01*
X120205645Y-90560099D01*
X120201200Y-90514962D01*
X120201200Y-89876238D01*
X120205645Y-89831101D01*
X120217020Y-89793605D01*
X120235492Y-89759046D01*
X120260353Y-89728753D01*
X120290646Y-89703892D01*
X120325205Y-89685420D01*
X120362701Y-89674045D01*
X120407838Y-89669600D01*
X121146562Y-89669600D01*
X121191699Y-89674045D01*
G37*
G36*
X126297899Y-89231645D02*
G01*
X126335395Y-89243020D01*
X126369954Y-89261492D01*
X126400247Y-89286353D01*
X126425108Y-89316646D01*
X126443580Y-89351205D01*
X126454955Y-89388701D01*
X126459400Y-89433838D01*
X126459400Y-90172562D01*
X126454955Y-90217699D01*
X126443580Y-90255195D01*
X126425108Y-90289754D01*
X126400247Y-90320047D01*
X126369954Y-90344908D01*
X126335395Y-90363380D01*
X126297899Y-90374755D01*
X126252762Y-90379200D01*
X125614038Y-90379200D01*
X125568901Y-90374755D01*
X125531405Y-90363380D01*
X125496846Y-90344908D01*
X125466553Y-90320047D01*
X125441692Y-90289754D01*
X125423220Y-90255195D01*
X125411845Y-90217699D01*
X125407400Y-90172562D01*
X125407400Y-89433838D01*
X125411845Y-89388701D01*
X125423220Y-89351205D01*
X125441692Y-89316646D01*
X125466553Y-89286353D01*
X125496846Y-89261492D01*
X125531405Y-89243020D01*
X125568901Y-89231645D01*
X125614038Y-89227200D01*
X126252762Y-89227200D01*
X126297899Y-89231645D01*
G37*
G36*
X129447499Y-89192245D02*
G01*
X129484995Y-89203620D01*
X129519554Y-89222092D01*
X129549847Y-89246953D01*
X129574708Y-89277246D01*
X129593180Y-89311805D01*
X129604555Y-89349301D01*
X129609000Y-89394438D01*
X129609000Y-90133162D01*
X129604555Y-90178299D01*
X129593180Y-90215795D01*
X129574708Y-90250354D01*
X129549847Y-90280647D01*
X129519554Y-90305508D01*
X129484995Y-90323980D01*
X129447499Y-90335355D01*
X129402362Y-90339800D01*
X128763638Y-90339800D01*
X128718501Y-90335355D01*
X128681005Y-90323980D01*
X128646446Y-90305508D01*
X128616153Y-90280647D01*
X128591292Y-90250354D01*
X128572820Y-90215795D01*
X128561445Y-90178299D01*
X128557000Y-90133162D01*
X128557000Y-89394438D01*
X128561445Y-89349301D01*
X128572820Y-89311805D01*
X128591292Y-89277246D01*
X128616153Y-89246953D01*
X128646446Y-89222092D01*
X128681005Y-89203620D01*
X128718501Y-89192245D01*
X128763638Y-89187800D01*
X129402362Y-89187800D01*
X129447499Y-89192245D01*
G37*
G36*
X85383600Y-90197000D02*
G01*
X82841600Y-90197000D01*
X82841600Y-88975000D01*
X85383600Y-88975000D01*
X85383600Y-90197000D01*
G37*
G36*
X93993600Y-90197000D02*
G01*
X91451600Y-90197000D01*
X91451600Y-88975000D01*
X93993600Y-88975000D01*
X93993600Y-90197000D01*
G37*
G36*
X98484899Y-88732445D02*
G01*
X98522395Y-88743820D01*
X98556954Y-88762292D01*
X98587247Y-88787153D01*
X98612108Y-88817446D01*
X98630580Y-88852005D01*
X98641955Y-88889501D01*
X98646400Y-88934638D01*
X98646400Y-89673362D01*
X98641955Y-89718499D01*
X98630580Y-89755995D01*
X98612108Y-89790554D01*
X98587247Y-89820847D01*
X98556954Y-89845708D01*
X98522395Y-89864180D01*
X98484899Y-89875555D01*
X98439762Y-89880000D01*
X97801038Y-89880000D01*
X97755901Y-89875555D01*
X97718405Y-89864180D01*
X97683846Y-89845708D01*
X97653553Y-89820847D01*
X97628692Y-89790554D01*
X97610220Y-89755995D01*
X97598845Y-89718499D01*
X97594400Y-89673362D01*
X97594400Y-88934638D01*
X97598845Y-88889501D01*
X97610220Y-88852005D01*
X97628692Y-88817446D01*
X97653553Y-88787153D01*
X97683846Y-88762292D01*
X97718405Y-88743820D01*
X97755901Y-88732445D01*
X97801038Y-88728000D01*
X98439762Y-88728000D01*
X98484899Y-88732445D01*
G37*
G36*
X101380499Y-88732445D02*
G01*
X101417995Y-88743820D01*
X101452554Y-88762292D01*
X101482847Y-88787153D01*
X101507708Y-88817446D01*
X101526180Y-88852005D01*
X101537555Y-88889501D01*
X101542000Y-88934638D01*
X101542000Y-89673362D01*
X101537555Y-89718499D01*
X101526180Y-89755995D01*
X101507708Y-89790554D01*
X101482847Y-89820847D01*
X101452554Y-89845708D01*
X101417995Y-89864180D01*
X101380499Y-89875555D01*
X101335362Y-89880000D01*
X100696638Y-89880000D01*
X100651501Y-89875555D01*
X100614005Y-89864180D01*
X100579446Y-89845708D01*
X100549153Y-89820847D01*
X100524292Y-89790554D01*
X100505820Y-89755995D01*
X100494445Y-89718499D01*
X100490000Y-89673362D01*
X100490000Y-88934638D01*
X100494445Y-88889501D01*
X100505820Y-88852005D01*
X100524292Y-88817446D01*
X100549153Y-88787153D01*
X100579446Y-88762292D01*
X100614005Y-88743820D01*
X100651501Y-88732445D01*
X100696638Y-88728000D01*
X101335362Y-88728000D01*
X101380499Y-88732445D01*
G37*
G36*
X104276099Y-88732445D02*
G01*
X104313595Y-88743820D01*
X104348154Y-88762292D01*
X104378447Y-88787153D01*
X104403308Y-88817446D01*
X104421780Y-88852005D01*
X104433155Y-88889501D01*
X104437600Y-88934638D01*
X104437600Y-89673362D01*
X104433155Y-89718499D01*
X104421780Y-89755995D01*
X104403308Y-89790554D01*
X104378447Y-89820847D01*
X104348154Y-89845708D01*
X104313595Y-89864180D01*
X104276099Y-89875555D01*
X104230962Y-89880000D01*
X103592238Y-89880000D01*
X103547101Y-89875555D01*
X103509605Y-89864180D01*
X103475046Y-89845708D01*
X103444753Y-89820847D01*
X103419892Y-89790554D01*
X103401420Y-89755995D01*
X103390045Y-89718499D01*
X103385600Y-89673362D01*
X103385600Y-88934638D01*
X103390045Y-88889501D01*
X103401420Y-88852005D01*
X103419892Y-88817446D01*
X103444753Y-88787153D01*
X103475046Y-88762292D01*
X103509605Y-88743820D01*
X103547101Y-88732445D01*
X103592238Y-88728000D01*
X104230962Y-88728000D01*
X104276099Y-88732445D01*
G37*
G36*
X110422899Y-88326045D02*
G01*
X110460395Y-88337420D01*
X110494954Y-88355892D01*
X110525247Y-88380753D01*
X110550108Y-88411046D01*
X110568580Y-88445605D01*
X110579955Y-88483101D01*
X110584400Y-88528238D01*
X110584400Y-89266962D01*
X110579955Y-89312099D01*
X110568580Y-89349595D01*
X110550108Y-89384154D01*
X110525247Y-89414447D01*
X110494954Y-89439308D01*
X110460395Y-89457780D01*
X110422899Y-89469155D01*
X110377762Y-89473600D01*
X109739038Y-89473600D01*
X109693901Y-89469155D01*
X109656405Y-89457780D01*
X109621846Y-89439308D01*
X109591553Y-89414447D01*
X109566692Y-89384154D01*
X109548220Y-89349595D01*
X109536845Y-89312099D01*
X109532400Y-89266962D01*
X109532400Y-88528238D01*
X109536845Y-88483101D01*
X109548220Y-88445605D01*
X109566692Y-88411046D01*
X109591553Y-88380753D01*
X109621846Y-88355892D01*
X109656405Y-88337420D01*
X109693901Y-88326045D01*
X109739038Y-88321600D01*
X110377762Y-88321600D01*
X110422899Y-88326045D01*
G37*
G36*
X114559699Y-88353245D02*
G01*
X114597195Y-88364620D01*
X114631754Y-88383092D01*
X114662047Y-88407953D01*
X114686908Y-88438246D01*
X114705380Y-88472805D01*
X114716755Y-88510301D01*
X114721200Y-88555438D01*
X114721200Y-89194162D01*
X114716755Y-89239299D01*
X114705380Y-89276795D01*
X114686908Y-89311354D01*
X114662047Y-89341647D01*
X114631754Y-89366508D01*
X114597195Y-89384980D01*
X114559699Y-89396355D01*
X114514562Y-89400800D01*
X113775838Y-89400800D01*
X113730701Y-89396355D01*
X113693205Y-89384980D01*
X113658646Y-89366508D01*
X113628353Y-89341647D01*
X113603492Y-89311354D01*
X113585020Y-89276795D01*
X113573645Y-89239299D01*
X113569200Y-89194162D01*
X113569200Y-88555438D01*
X113573645Y-88510301D01*
X113585020Y-88472805D01*
X113603492Y-88438246D01*
X113628353Y-88407953D01*
X113658646Y-88383092D01*
X113693205Y-88364620D01*
X113730701Y-88353245D01*
X113775838Y-88348800D01*
X114514562Y-88348800D01*
X114559699Y-88353245D01*
G37*
G36*
X112809699Y-88353245D02*
G01*
X112847195Y-88364620D01*
X112881754Y-88383092D01*
X112912047Y-88407953D01*
X112936908Y-88438246D01*
X112955380Y-88472805D01*
X112966755Y-88510301D01*
X112971200Y-88555438D01*
X112971200Y-89194162D01*
X112966755Y-89239299D01*
X112955380Y-89276795D01*
X112936908Y-89311354D01*
X112912047Y-89341647D01*
X112881754Y-89366508D01*
X112847195Y-89384980D01*
X112809699Y-89396355D01*
X112764562Y-89400800D01*
X112025838Y-89400800D01*
X111980701Y-89396355D01*
X111943205Y-89384980D01*
X111908646Y-89366508D01*
X111878353Y-89341647D01*
X111853492Y-89311354D01*
X111835020Y-89276795D01*
X111823645Y-89239299D01*
X111819200Y-89194162D01*
X111819200Y-88555438D01*
X111823645Y-88510301D01*
X111835020Y-88472805D01*
X111853492Y-88438246D01*
X111878353Y-88407953D01*
X111908646Y-88383092D01*
X111943205Y-88364620D01*
X111980701Y-88353245D01*
X112025838Y-88348800D01*
X112764562Y-88348800D01*
X112809699Y-88353245D01*
G37*
G36*
X107455000Y-88205000D02*
G01*
X106903000Y-88205000D01*
X106903000Y-87703000D01*
X107455000Y-87703000D01*
X107455000Y-88205000D01*
G37*
G36*
X104276099Y-86982445D02*
G01*
X104313595Y-86993820D01*
X104348154Y-87012292D01*
X104378447Y-87037153D01*
X104403308Y-87067446D01*
X104421780Y-87102005D01*
X104433155Y-87139501D01*
X104437600Y-87184638D01*
X104437600Y-87923362D01*
X104433155Y-87968499D01*
X104421780Y-88005995D01*
X104403308Y-88040554D01*
X104378447Y-88070847D01*
X104348154Y-88095708D01*
X104313595Y-88114180D01*
X104276099Y-88125555D01*
X104230962Y-88130000D01*
X103592238Y-88130000D01*
X103547101Y-88125555D01*
X103509605Y-88114180D01*
X103475046Y-88095708D01*
X103444753Y-88070847D01*
X103419892Y-88040554D01*
X103401420Y-88005995D01*
X103390045Y-87968499D01*
X103385600Y-87923362D01*
X103385600Y-87184638D01*
X103390045Y-87139501D01*
X103401420Y-87102005D01*
X103419892Y-87067446D01*
X103444753Y-87037153D01*
X103475046Y-87012292D01*
X103509605Y-86993820D01*
X103547101Y-86982445D01*
X103592238Y-86978000D01*
X104230962Y-86978000D01*
X104276099Y-86982445D01*
G37*
G36*
X101380499Y-86982445D02*
G01*
X101417995Y-86993820D01*
X101452554Y-87012292D01*
X101482847Y-87037153D01*
X101507708Y-87067446D01*
X101526180Y-87102005D01*
X101537555Y-87139501D01*
X101542000Y-87184638D01*
X101542000Y-87923362D01*
X101537555Y-87968499D01*
X101526180Y-88005995D01*
X101507708Y-88040554D01*
X101482847Y-88070847D01*
X101452554Y-88095708D01*
X101417995Y-88114180D01*
X101380499Y-88125555D01*
X101335362Y-88130000D01*
X100696638Y-88130000D01*
X100651501Y-88125555D01*
X100614005Y-88114180D01*
X100579446Y-88095708D01*
X100549153Y-88070847D01*
X100524292Y-88040554D01*
X100505820Y-88005995D01*
X100494445Y-87968499D01*
X100490000Y-87923362D01*
X100490000Y-87184638D01*
X100494445Y-87139501D01*
X100505820Y-87102005D01*
X100524292Y-87067446D01*
X100549153Y-87037153D01*
X100579446Y-87012292D01*
X100614005Y-86993820D01*
X100651501Y-86982445D01*
X100696638Y-86978000D01*
X101335362Y-86978000D01*
X101380499Y-86982445D01*
G37*
G36*
X98484899Y-86982445D02*
G01*
X98522395Y-86993820D01*
X98556954Y-87012292D01*
X98587247Y-87037153D01*
X98612108Y-87067446D01*
X98630580Y-87102005D01*
X98641955Y-87139501D01*
X98646400Y-87184638D01*
X98646400Y-87923362D01*
X98641955Y-87968499D01*
X98630580Y-88005995D01*
X98612108Y-88040554D01*
X98587247Y-88070847D01*
X98556954Y-88095708D01*
X98522395Y-88114180D01*
X98484899Y-88125555D01*
X98439762Y-88130000D01*
X97801038Y-88130000D01*
X97755901Y-88125555D01*
X97718405Y-88114180D01*
X97683846Y-88095708D01*
X97653553Y-88070847D01*
X97628692Y-88040554D01*
X97610220Y-88005995D01*
X97598845Y-87968499D01*
X97594400Y-87923362D01*
X97594400Y-87184638D01*
X97598845Y-87139501D01*
X97610220Y-87102005D01*
X97628692Y-87067446D01*
X97653553Y-87037153D01*
X97683846Y-87012292D01*
X97718405Y-86993820D01*
X97755901Y-86982445D01*
X97801038Y-86978000D01*
X98439762Y-86978000D01*
X98484899Y-86982445D01*
G37*
G36*
X106305000Y-87855000D02*
G01*
X105753000Y-87855000D01*
X105753000Y-87253000D01*
X106305000Y-87253000D01*
X106305000Y-87855000D01*
G37*
G36*
X110422899Y-86576045D02*
G01*
X110460395Y-86587420D01*
X110494954Y-86605892D01*
X110525247Y-86630753D01*
X110550108Y-86661046D01*
X110568580Y-86695605D01*
X110579955Y-86733101D01*
X110584400Y-86778238D01*
X110584400Y-87516962D01*
X110579955Y-87562099D01*
X110568580Y-87599595D01*
X110550108Y-87634154D01*
X110525247Y-87664447D01*
X110494954Y-87689308D01*
X110460395Y-87707780D01*
X110422899Y-87719155D01*
X110377762Y-87723600D01*
X109739038Y-87723600D01*
X109693901Y-87719155D01*
X109656405Y-87707780D01*
X109621846Y-87689308D01*
X109591553Y-87664447D01*
X109566692Y-87634154D01*
X109548220Y-87599595D01*
X109536845Y-87562099D01*
X109532400Y-87516962D01*
X109532400Y-86778238D01*
X109536845Y-86733101D01*
X109548220Y-86695605D01*
X109566692Y-86661046D01*
X109591553Y-86630753D01*
X109621846Y-86605892D01*
X109656405Y-86587420D01*
X109693901Y-86576045D01*
X109739038Y-86571600D01*
X110377762Y-86571600D01*
X110422899Y-86576045D01*
G37*
G36*
X121043728Y-84506764D02*
G01*
X121064809Y-84513160D01*
X121084244Y-84523548D01*
X121104503Y-84540173D01*
X121124877Y-84553786D01*
X121147516Y-84563163D01*
X121171550Y-84567943D01*
X121196054Y-84567943D01*
X121220087Y-84563162D01*
X121242726Y-84553784D01*
X121263097Y-84540173D01*
X121283356Y-84523548D01*
X121302791Y-84513160D01*
X121323872Y-84506764D01*
X121351940Y-84504000D01*
X121815660Y-84504000D01*
X121843728Y-84506764D01*
X121864809Y-84513160D01*
X121884244Y-84523548D01*
X121904503Y-84540173D01*
X121924877Y-84553786D01*
X121947516Y-84563163D01*
X121971550Y-84567943D01*
X121996054Y-84567943D01*
X122020087Y-84563162D01*
X122042726Y-84553784D01*
X122063097Y-84540173D01*
X122083356Y-84523548D01*
X122102791Y-84513160D01*
X122123872Y-84506764D01*
X122151940Y-84504000D01*
X122615660Y-84504000D01*
X122643728Y-84506764D01*
X122664809Y-84513160D01*
X122684244Y-84523548D01*
X122704503Y-84540173D01*
X122724877Y-84553786D01*
X122747516Y-84563163D01*
X122771550Y-84567943D01*
X122796054Y-84567943D01*
X122820087Y-84563162D01*
X122842726Y-84553784D01*
X122863097Y-84540173D01*
X122883356Y-84523548D01*
X122902791Y-84513160D01*
X122923872Y-84506764D01*
X122951940Y-84504000D01*
X123415660Y-84504000D01*
X123443728Y-84506764D01*
X123464809Y-84513160D01*
X123484244Y-84523548D01*
X123504503Y-84540173D01*
X123524877Y-84553786D01*
X123547516Y-84563163D01*
X123571550Y-84567943D01*
X123596054Y-84567943D01*
X123620087Y-84563162D01*
X123642726Y-84553784D01*
X123663097Y-84540173D01*
X123683356Y-84523548D01*
X123702791Y-84513160D01*
X123723872Y-84506764D01*
X123751940Y-84504000D01*
X124215660Y-84504000D01*
X124243728Y-84506764D01*
X124264809Y-84513160D01*
X124284244Y-84523548D01*
X124304503Y-84540173D01*
X124324877Y-84553786D01*
X124347516Y-84563163D01*
X124371550Y-84567943D01*
X124396054Y-84567943D01*
X124420087Y-84563162D01*
X124442726Y-84553784D01*
X124463097Y-84540173D01*
X124483356Y-84523548D01*
X124502791Y-84513160D01*
X124523872Y-84506764D01*
X124551940Y-84504000D01*
X125015660Y-84504000D01*
X125043728Y-84506764D01*
X125064809Y-84513160D01*
X125084245Y-84523548D01*
X125101276Y-84537524D01*
X125115252Y-84554555D01*
X125125640Y-84573991D01*
X125132036Y-84595072D01*
X125134800Y-84623140D01*
X125134800Y-85436860D01*
X125132036Y-85464928D01*
X125125640Y-85486011D01*
X125119082Y-85498280D01*
X125109704Y-85520919D01*
X125104924Y-85544952D01*
X125104924Y-85569456D01*
X125109705Y-85593490D01*
X125119082Y-85616129D01*
X125132696Y-85636503D01*
X125150023Y-85653830D01*
X125170397Y-85667443D01*
X125193036Y-85676821D01*
X125217069Y-85681601D01*
X125218728Y-85681764D01*
X125239809Y-85688160D01*
X125259245Y-85698548D01*
X125276276Y-85712524D01*
X125290252Y-85729555D01*
X125300640Y-85748991D01*
X125307036Y-85770072D01*
X125309800Y-85798140D01*
X125309800Y-86261860D01*
X125307036Y-86289928D01*
X125300640Y-86311009D01*
X125290252Y-86330445D01*
X125276276Y-86347476D01*
X125259245Y-86361452D01*
X125239809Y-86371840D01*
X125218728Y-86378236D01*
X125217069Y-86378399D01*
X125193036Y-86383179D01*
X125170397Y-86392557D01*
X125150023Y-86406170D01*
X125132696Y-86423497D01*
X125119082Y-86443872D01*
X125109704Y-86466511D01*
X125104924Y-86490544D01*
X125104924Y-86515048D01*
X125109704Y-86539081D01*
X125119082Y-86561720D01*
X125125640Y-86573989D01*
X125132036Y-86595072D01*
X125134800Y-86623140D01*
X125134800Y-87436860D01*
X125132036Y-87464928D01*
X125125640Y-87486009D01*
X125115252Y-87505445D01*
X125101276Y-87522476D01*
X125084245Y-87536452D01*
X125064809Y-87546840D01*
X125043728Y-87553236D01*
X125015660Y-87556000D01*
X124551940Y-87556000D01*
X124523872Y-87553236D01*
X124502791Y-87546840D01*
X124483356Y-87536452D01*
X124463097Y-87519827D01*
X124442723Y-87506214D01*
X124420084Y-87496837D01*
X124396050Y-87492057D01*
X124371546Y-87492057D01*
X124347513Y-87496838D01*
X124324874Y-87506216D01*
X124304503Y-87519827D01*
X124284244Y-87536452D01*
X124264809Y-87546840D01*
X124243728Y-87553236D01*
X124215660Y-87556000D01*
X123751940Y-87556000D01*
X123723872Y-87553236D01*
X123702791Y-87546840D01*
X123683356Y-87536452D01*
X123663097Y-87519827D01*
X123642723Y-87506214D01*
X123620084Y-87496837D01*
X123596050Y-87492057D01*
X123571546Y-87492057D01*
X123547513Y-87496838D01*
X123524874Y-87506216D01*
X123504503Y-87519827D01*
X123484244Y-87536452D01*
X123464809Y-87546840D01*
X123443728Y-87553236D01*
X123415660Y-87556000D01*
X122951940Y-87556000D01*
X122923872Y-87553236D01*
X122902791Y-87546840D01*
X122883356Y-87536452D01*
X122863097Y-87519827D01*
X122842723Y-87506214D01*
X122820084Y-87496837D01*
X122796050Y-87492057D01*
X122771546Y-87492057D01*
X122747513Y-87496838D01*
X122724874Y-87506216D01*
X122704503Y-87519827D01*
X122684244Y-87536452D01*
X122664809Y-87546840D01*
X122643728Y-87553236D01*
X122615660Y-87556000D01*
X122151940Y-87556000D01*
X122123872Y-87553236D01*
X122102791Y-87546840D01*
X122083356Y-87536452D01*
X122063097Y-87519827D01*
X122042723Y-87506214D01*
X122020084Y-87496837D01*
X121996050Y-87492057D01*
X121971546Y-87492057D01*
X121947513Y-87496838D01*
X121924874Y-87506216D01*
X121904503Y-87519827D01*
X121884244Y-87536452D01*
X121864809Y-87546840D01*
X121843728Y-87553236D01*
X121815660Y-87556000D01*
X121351940Y-87556000D01*
X121323872Y-87553236D01*
X121302791Y-87546840D01*
X121283356Y-87536452D01*
X121263097Y-87519827D01*
X121242723Y-87506214D01*
X121220084Y-87496837D01*
X121196050Y-87492057D01*
X121171546Y-87492057D01*
X121147513Y-87496838D01*
X121124874Y-87506216D01*
X121104503Y-87519827D01*
X121084244Y-87536452D01*
X121064809Y-87546840D01*
X121043728Y-87553236D01*
X121015660Y-87556000D01*
X120551940Y-87556000D01*
X120523872Y-87553236D01*
X120502791Y-87546840D01*
X120483355Y-87536452D01*
X120466324Y-87522476D01*
X120452348Y-87505445D01*
X120441960Y-87486009D01*
X120435564Y-87464928D01*
X120432800Y-87436860D01*
X120432800Y-86623140D01*
X120435564Y-86595072D01*
X120441960Y-86573989D01*
X120448518Y-86561720D01*
X120457896Y-86539081D01*
X120462676Y-86515048D01*
X120462676Y-86490544D01*
X120457895Y-86466510D01*
X120448518Y-86443871D01*
X120434904Y-86423497D01*
X120417577Y-86406170D01*
X120397203Y-86392557D01*
X120374564Y-86383179D01*
X120350531Y-86378399D01*
X120348872Y-86378236D01*
X120327791Y-86371840D01*
X120308355Y-86361452D01*
X120291324Y-86347476D01*
X120277348Y-86330445D01*
X120266960Y-86311009D01*
X120260564Y-86289928D01*
X120257800Y-86261860D01*
X120257800Y-85798140D01*
X120260564Y-85770072D01*
X120266960Y-85748991D01*
X120277348Y-85729555D01*
X120291324Y-85712524D01*
X120308355Y-85698548D01*
X120327791Y-85688160D01*
X120348872Y-85681764D01*
X120350531Y-85681601D01*
X120353557Y-85680999D01*
X121281034Y-85680999D01*
X121283436Y-85705385D01*
X121295794Y-85739923D01*
X121300640Y-85748989D01*
X121307036Y-85770072D01*
X121309800Y-85798140D01*
X121309800Y-86261860D01*
X121307036Y-86289928D01*
X121300640Y-86311011D01*
X121295794Y-86320077D01*
X121286416Y-86342716D01*
X121281636Y-86366749D01*
X121281636Y-86391253D01*
X121286417Y-86415287D01*
X121295794Y-86437925D01*
X121309408Y-86458300D01*
X121326735Y-86475627D01*
X121347109Y-86489240D01*
X121369748Y-86498618D01*
X121406033Y-86504000D01*
X121815660Y-86504000D01*
X121843728Y-86506764D01*
X121864809Y-86513160D01*
X121884244Y-86523548D01*
X121904503Y-86540173D01*
X121924877Y-86553786D01*
X121947516Y-86563163D01*
X121971550Y-86567943D01*
X121996054Y-86567943D01*
X122020087Y-86563162D01*
X122042726Y-86553784D01*
X122063097Y-86540173D01*
X122083356Y-86523548D01*
X122102791Y-86513160D01*
X122123872Y-86506764D01*
X122151940Y-86504000D01*
X122615660Y-86504000D01*
X122643728Y-86506764D01*
X122664809Y-86513160D01*
X122684244Y-86523548D01*
X122704503Y-86540173D01*
X122724877Y-86553786D01*
X122747516Y-86563163D01*
X122771550Y-86567943D01*
X122796054Y-86567943D01*
X122820087Y-86563162D01*
X122842726Y-86553784D01*
X122863097Y-86540173D01*
X122883356Y-86523548D01*
X122902791Y-86513160D01*
X122923872Y-86506764D01*
X122951940Y-86504000D01*
X123415660Y-86504000D01*
X123443728Y-86506764D01*
X123464809Y-86513160D01*
X123484244Y-86523548D01*
X123504503Y-86540173D01*
X123524877Y-86553786D01*
X123547516Y-86563163D01*
X123571550Y-86567943D01*
X123596054Y-86567943D01*
X123620087Y-86563162D01*
X123642726Y-86553784D01*
X123663097Y-86540173D01*
X123683356Y-86523548D01*
X123702791Y-86513160D01*
X123723872Y-86506764D01*
X123751940Y-86504000D01*
X124161567Y-86504000D01*
X124185953Y-86501598D01*
X124209402Y-86494485D01*
X124231013Y-86482934D01*
X124249955Y-86467389D01*
X124265500Y-86448447D01*
X124277051Y-86426836D01*
X124284164Y-86403387D01*
X124286566Y-86379001D01*
X124284164Y-86354615D01*
X124271806Y-86320077D01*
X124266960Y-86311011D01*
X124260564Y-86289928D01*
X124257800Y-86261860D01*
X124257800Y-85798140D01*
X124260564Y-85770072D01*
X124266960Y-85748989D01*
X124271806Y-85739923D01*
X124281184Y-85717284D01*
X124285964Y-85693251D01*
X124285964Y-85668747D01*
X124281183Y-85644713D01*
X124271806Y-85622075D01*
X124258192Y-85601700D01*
X124240865Y-85584373D01*
X124220491Y-85570760D01*
X124197852Y-85561382D01*
X124161567Y-85556000D01*
X123751940Y-85556000D01*
X123723872Y-85553236D01*
X123702791Y-85546840D01*
X123683356Y-85536452D01*
X123663097Y-85519827D01*
X123642723Y-85506214D01*
X123620084Y-85496837D01*
X123596050Y-85492057D01*
X123571546Y-85492057D01*
X123547513Y-85496838D01*
X123524874Y-85506216D01*
X123504503Y-85519827D01*
X123484244Y-85536452D01*
X123464809Y-85546840D01*
X123443728Y-85553236D01*
X123415660Y-85556000D01*
X122951940Y-85556000D01*
X122923872Y-85553236D01*
X122902791Y-85546840D01*
X122883356Y-85536452D01*
X122863097Y-85519827D01*
X122842723Y-85506214D01*
X122820084Y-85496837D01*
X122796050Y-85492057D01*
X122771546Y-85492057D01*
X122747513Y-85496838D01*
X122724874Y-85506216D01*
X122704503Y-85519827D01*
X122684244Y-85536452D01*
X122664809Y-85546840D01*
X122643728Y-85553236D01*
X122615660Y-85556000D01*
X122151940Y-85556000D01*
X122123872Y-85553236D01*
X122102791Y-85546840D01*
X122083356Y-85536452D01*
X122063097Y-85519827D01*
X122042723Y-85506214D01*
X122020084Y-85496837D01*
X121996050Y-85492057D01*
X121971546Y-85492057D01*
X121947513Y-85496838D01*
X121924874Y-85506216D01*
X121904503Y-85519827D01*
X121884244Y-85536452D01*
X121864809Y-85546840D01*
X121843728Y-85553236D01*
X121815660Y-85556000D01*
X121406033Y-85556000D01*
X121381647Y-85558402D01*
X121358198Y-85565515D01*
X121336587Y-85577066D01*
X121317645Y-85592611D01*
X121302100Y-85611553D01*
X121290549Y-85633164D01*
X121283436Y-85656613D01*
X121281034Y-85680999D01*
X120353557Y-85680999D01*
X120374564Y-85676821D01*
X120397203Y-85667443D01*
X120417577Y-85653830D01*
X120434904Y-85636503D01*
X120448518Y-85616128D01*
X120457896Y-85593489D01*
X120462676Y-85569456D01*
X120462676Y-85544952D01*
X120457896Y-85520919D01*
X120448518Y-85498280D01*
X120441960Y-85486011D01*
X120435564Y-85464928D01*
X120432800Y-85436860D01*
X120432800Y-84623140D01*
X120435564Y-84595072D01*
X120441960Y-84573991D01*
X120452348Y-84554555D01*
X120466324Y-84537524D01*
X120483355Y-84523548D01*
X120502791Y-84513160D01*
X120523872Y-84506764D01*
X120551940Y-84504000D01*
X121015660Y-84504000D01*
X121043728Y-84506764D01*
G37*
G36*
X107455000Y-87405000D02*
G01*
X106903000Y-87405000D01*
X106903000Y-86903000D01*
X107455000Y-86903000D01*
X107455000Y-87405000D01*
G37*
G36*
X110422899Y-84312845D02*
G01*
X110460395Y-84324220D01*
X110494954Y-84342692D01*
X110525247Y-84367553D01*
X110550108Y-84397846D01*
X110568580Y-84432405D01*
X110579955Y-84469901D01*
X110584400Y-84515038D01*
X110584400Y-85253762D01*
X110579955Y-85298899D01*
X110568580Y-85336395D01*
X110550108Y-85370954D01*
X110525247Y-85401247D01*
X110494954Y-85426108D01*
X110460395Y-85444580D01*
X110422899Y-85455955D01*
X110377762Y-85460400D01*
X109739038Y-85460400D01*
X109693901Y-85455955D01*
X109656405Y-85444580D01*
X109621846Y-85426108D01*
X109591553Y-85401247D01*
X109566692Y-85370954D01*
X109548220Y-85336395D01*
X109536845Y-85298899D01*
X109532400Y-85253762D01*
X109532400Y-84515038D01*
X109536845Y-84469901D01*
X109548220Y-84432405D01*
X109566692Y-84397846D01*
X109591553Y-84367553D01*
X109621846Y-84342692D01*
X109656405Y-84324220D01*
X109693901Y-84312845D01*
X109739038Y-84308400D01*
X110377762Y-84308400D01*
X110422899Y-84312845D01*
G37*
G36*
X112786899Y-84340045D02*
G01*
X112824395Y-84351420D01*
X112858954Y-84369892D01*
X112889247Y-84394753D01*
X112914108Y-84425046D01*
X112932580Y-84459605D01*
X112943955Y-84497101D01*
X112948400Y-84542238D01*
X112948400Y-85180962D01*
X112943955Y-85226099D01*
X112932580Y-85263595D01*
X112914108Y-85298154D01*
X112889247Y-85328447D01*
X112858954Y-85353308D01*
X112824395Y-85371780D01*
X112786899Y-85383155D01*
X112741762Y-85387600D01*
X112003038Y-85387600D01*
X111957901Y-85383155D01*
X111920405Y-85371780D01*
X111885846Y-85353308D01*
X111855553Y-85328447D01*
X111830692Y-85298154D01*
X111812220Y-85263595D01*
X111800845Y-85226099D01*
X111796400Y-85180962D01*
X111796400Y-84542238D01*
X111800845Y-84497101D01*
X111812220Y-84459605D01*
X111830692Y-84425046D01*
X111855553Y-84394753D01*
X111885846Y-84369892D01*
X111920405Y-84351420D01*
X111957901Y-84340045D01*
X112003038Y-84335600D01*
X112741762Y-84335600D01*
X112786899Y-84340045D01*
G37*
G36*
X114536899Y-84340045D02*
G01*
X114574395Y-84351420D01*
X114608954Y-84369892D01*
X114639247Y-84394753D01*
X114664108Y-84425046D01*
X114682580Y-84459605D01*
X114693955Y-84497101D01*
X114698400Y-84542238D01*
X114698400Y-85180962D01*
X114693955Y-85226099D01*
X114682580Y-85263595D01*
X114664108Y-85298154D01*
X114639247Y-85328447D01*
X114608954Y-85353308D01*
X114574395Y-85371780D01*
X114536899Y-85383155D01*
X114491762Y-85387600D01*
X113753038Y-85387600D01*
X113707901Y-85383155D01*
X113670405Y-85371780D01*
X113635846Y-85353308D01*
X113605553Y-85328447D01*
X113580692Y-85298154D01*
X113562220Y-85263595D01*
X113550845Y-85226099D01*
X113546400Y-85180962D01*
X113546400Y-84542238D01*
X113550845Y-84497101D01*
X113562220Y-84459605D01*
X113580692Y-84425046D01*
X113605553Y-84394753D01*
X113635846Y-84369892D01*
X113670405Y-84351420D01*
X113707901Y-84340045D01*
X113753038Y-84335600D01*
X114491762Y-84335600D01*
X114536899Y-84340045D01*
G37*
G36*
X88673713Y-83267845D02*
G01*
X88687760Y-83272105D01*
X88700710Y-83279027D01*
X88704303Y-83281976D01*
X88724677Y-83295589D01*
X88747316Y-83304966D01*
X88771350Y-83309746D01*
X88795854Y-83309746D01*
X88819887Y-83304965D01*
X88842526Y-83295588D01*
X88862897Y-83281976D01*
X88866490Y-83279027D01*
X88879440Y-83272105D01*
X88893487Y-83267845D01*
X88914243Y-83265800D01*
X89302957Y-83265800D01*
X89323713Y-83267845D01*
X89337760Y-83272105D01*
X89350710Y-83279027D01*
X89354303Y-83281976D01*
X89374677Y-83295589D01*
X89397316Y-83304966D01*
X89421350Y-83309746D01*
X89445854Y-83309746D01*
X89469887Y-83304965D01*
X89492526Y-83295588D01*
X89512897Y-83281976D01*
X89516490Y-83279027D01*
X89529440Y-83272105D01*
X89543487Y-83267845D01*
X89564243Y-83265800D01*
X89952957Y-83265800D01*
X89973713Y-83267845D01*
X89987760Y-83272105D01*
X90000710Y-83279027D01*
X90004303Y-83281976D01*
X90024677Y-83295589D01*
X90047316Y-83304966D01*
X90071350Y-83309746D01*
X90095854Y-83309746D01*
X90119887Y-83304965D01*
X90142526Y-83295588D01*
X90162897Y-83281976D01*
X90166490Y-83279027D01*
X90179440Y-83272105D01*
X90193487Y-83267845D01*
X90214243Y-83265800D01*
X90602957Y-83265800D01*
X90623713Y-83267845D01*
X90637760Y-83272105D01*
X90650710Y-83279027D01*
X90662059Y-83288341D01*
X90671373Y-83299690D01*
X90678295Y-83312640D01*
X90682555Y-83326687D01*
X90684600Y-83347443D01*
X90684600Y-84911157D01*
X90682555Y-84931913D01*
X90678295Y-84945960D01*
X90671373Y-84958910D01*
X90662059Y-84970259D01*
X90650710Y-84979573D01*
X90637760Y-84986495D01*
X90623713Y-84990755D01*
X90602957Y-84992800D01*
X90214243Y-84992800D01*
X90193487Y-84990755D01*
X90179440Y-84986495D01*
X90166490Y-84979573D01*
X90162897Y-84976624D01*
X90142523Y-84963011D01*
X90119884Y-84953634D01*
X90095850Y-84948854D01*
X90071346Y-84948854D01*
X90047313Y-84953635D01*
X90024674Y-84963012D01*
X90004303Y-84976624D01*
X90000710Y-84979573D01*
X89987760Y-84986495D01*
X89973713Y-84990755D01*
X89952957Y-84992800D01*
X89564243Y-84992800D01*
X89543487Y-84990755D01*
X89529440Y-84986495D01*
X89516490Y-84979573D01*
X89512897Y-84976624D01*
X89492523Y-84963011D01*
X89469884Y-84953634D01*
X89445850Y-84948854D01*
X89421346Y-84948854D01*
X89397313Y-84953635D01*
X89374674Y-84963012D01*
X89354303Y-84976624D01*
X89350710Y-84979573D01*
X89337760Y-84986495D01*
X89323713Y-84990755D01*
X89302957Y-84992800D01*
X88914243Y-84992800D01*
X88893487Y-84990755D01*
X88879440Y-84986495D01*
X88866490Y-84979573D01*
X88862897Y-84976624D01*
X88842523Y-84963011D01*
X88819884Y-84953634D01*
X88795850Y-84948854D01*
X88771346Y-84948854D01*
X88747313Y-84953635D01*
X88724674Y-84963012D01*
X88704303Y-84976624D01*
X88700710Y-84979573D01*
X88687760Y-84986495D01*
X88673713Y-84990755D01*
X88652957Y-84992800D01*
X88264243Y-84992800D01*
X88243487Y-84990755D01*
X88229440Y-84986495D01*
X88216490Y-84979573D01*
X88205141Y-84970259D01*
X88195827Y-84958910D01*
X88188905Y-84945960D01*
X88184645Y-84931913D01*
X88182600Y-84911157D01*
X88182600Y-83347443D01*
X88184645Y-83326687D01*
X88188905Y-83312640D01*
X88195827Y-83299690D01*
X88205141Y-83288341D01*
X88216490Y-83279027D01*
X88229440Y-83272105D01*
X88243487Y-83267845D01*
X88264243Y-83265800D01*
X88652957Y-83265800D01*
X88673713Y-83267845D01*
G37*
G36*
X94471699Y-83488645D02*
G01*
X94509195Y-83500020D01*
X94543754Y-83518492D01*
X94574047Y-83543353D01*
X94598908Y-83573646D01*
X94617380Y-83608205D01*
X94628755Y-83645701D01*
X94633200Y-83690838D01*
X94633200Y-84429562D01*
X94628755Y-84474699D01*
X94617380Y-84512195D01*
X94598908Y-84546754D01*
X94574047Y-84577047D01*
X94543754Y-84601908D01*
X94509195Y-84620380D01*
X94471699Y-84631755D01*
X94426562Y-84636200D01*
X93787838Y-84636200D01*
X93742701Y-84631755D01*
X93705205Y-84620380D01*
X93670646Y-84601908D01*
X93640353Y-84577047D01*
X93615492Y-84546754D01*
X93597020Y-84512195D01*
X93585645Y-84474699D01*
X93581200Y-84429562D01*
X93581200Y-83690838D01*
X93585645Y-83645701D01*
X93597020Y-83608205D01*
X93615492Y-83573646D01*
X93640353Y-83543353D01*
X93670646Y-83518492D01*
X93705205Y-83500020D01*
X93742701Y-83488645D01*
X93787838Y-83484200D01*
X94426562Y-83484200D01*
X94471699Y-83488645D01*
G37*
G36*
X107455000Y-84395000D02*
G01*
X106903000Y-84395000D01*
X106903000Y-83893000D01*
X107455000Y-83893000D01*
X107455000Y-84395000D01*
G37*
G36*
X106305000Y-84045000D02*
G01*
X105753000Y-84045000D01*
X105753000Y-83443000D01*
X106305000Y-83443000D01*
X106305000Y-84045000D01*
G37*
G36*
X110422899Y-82562845D02*
G01*
X110460395Y-82574220D01*
X110494954Y-82592692D01*
X110525247Y-82617553D01*
X110550108Y-82647846D01*
X110568580Y-82682405D01*
X110579955Y-82719901D01*
X110584400Y-82765038D01*
X110584400Y-83503762D01*
X110579955Y-83548899D01*
X110568580Y-83586395D01*
X110550108Y-83620954D01*
X110525247Y-83651247D01*
X110494954Y-83676108D01*
X110460395Y-83694580D01*
X110422899Y-83705955D01*
X110377762Y-83710400D01*
X109739038Y-83710400D01*
X109693901Y-83705955D01*
X109656405Y-83694580D01*
X109621846Y-83676108D01*
X109591553Y-83651247D01*
X109566692Y-83620954D01*
X109548220Y-83586395D01*
X109536845Y-83548899D01*
X109532400Y-83503762D01*
X109532400Y-82765038D01*
X109536845Y-82719901D01*
X109548220Y-82682405D01*
X109566692Y-82647846D01*
X109591553Y-82617553D01*
X109621846Y-82592692D01*
X109656405Y-82574220D01*
X109693901Y-82562845D01*
X109739038Y-82558400D01*
X110377762Y-82558400D01*
X110422899Y-82562845D01*
G37*
G36*
X107455000Y-83595000D02*
G01*
X106903000Y-83595000D01*
X106903000Y-83093000D01*
X107455000Y-83093000D01*
X107455000Y-83595000D01*
G37*
G36*
X84514899Y-82308845D02*
G01*
X84552395Y-82320220D01*
X84586954Y-82338692D01*
X84617247Y-82363553D01*
X84642108Y-82393846D01*
X84660580Y-82428405D01*
X84671955Y-82465901D01*
X84676400Y-82511038D01*
X84676400Y-83249762D01*
X84671955Y-83294899D01*
X84660580Y-83332395D01*
X84642108Y-83366954D01*
X84617247Y-83397247D01*
X84586954Y-83422108D01*
X84552395Y-83440580D01*
X84514899Y-83451955D01*
X84469762Y-83456400D01*
X83831038Y-83456400D01*
X83785901Y-83451955D01*
X83748405Y-83440580D01*
X83713846Y-83422108D01*
X83683553Y-83397247D01*
X83658692Y-83366954D01*
X83640220Y-83332395D01*
X83628845Y-83294899D01*
X83624400Y-83249762D01*
X83624400Y-82511038D01*
X83628845Y-82465901D01*
X83640220Y-82428405D01*
X83658692Y-82393846D01*
X83683553Y-82363553D01*
X83713846Y-82338692D01*
X83748405Y-82320220D01*
X83785901Y-82308845D01*
X83831038Y-82304400D01*
X84469762Y-82304400D01*
X84514899Y-82308845D01*
G37*
G36*
X94471699Y-81738645D02*
G01*
X94509195Y-81750020D01*
X94543754Y-81768492D01*
X94574047Y-81793353D01*
X94598908Y-81823646D01*
X94617380Y-81858205D01*
X94628755Y-81895701D01*
X94633200Y-81940838D01*
X94633200Y-82679562D01*
X94628755Y-82724699D01*
X94617380Y-82762195D01*
X94598908Y-82796754D01*
X94574047Y-82827047D01*
X94543754Y-82851908D01*
X94509195Y-82870380D01*
X94471699Y-82881755D01*
X94426562Y-82886200D01*
X93787838Y-82886200D01*
X93742701Y-82881755D01*
X93705205Y-82870380D01*
X93670646Y-82851908D01*
X93640353Y-82827047D01*
X93615492Y-82796754D01*
X93597020Y-82762195D01*
X93585645Y-82724699D01*
X93581200Y-82679562D01*
X93581200Y-81940838D01*
X93585645Y-81895701D01*
X93597020Y-81858205D01*
X93615492Y-81823646D01*
X93640353Y-81793353D01*
X93670646Y-81768492D01*
X93705205Y-81750020D01*
X93742701Y-81738645D01*
X93787838Y-81734200D01*
X94426562Y-81734200D01*
X94471699Y-81738645D01*
G37*
G36*
X84514899Y-80558845D02*
G01*
X84552395Y-80570220D01*
X84586954Y-80588692D01*
X84617247Y-80613553D01*
X84642108Y-80643846D01*
X84660580Y-80678405D01*
X84671955Y-80715901D01*
X84676400Y-80761038D01*
X84676400Y-81499762D01*
X84671955Y-81544899D01*
X84660580Y-81582395D01*
X84642108Y-81616954D01*
X84617247Y-81647247D01*
X84586954Y-81672108D01*
X84552395Y-81690580D01*
X84514899Y-81701955D01*
X84469762Y-81706400D01*
X83831038Y-81706400D01*
X83785901Y-81701955D01*
X83748405Y-81690580D01*
X83713846Y-81672108D01*
X83683553Y-81647247D01*
X83658692Y-81616954D01*
X83640220Y-81582395D01*
X83628845Y-81544899D01*
X83624400Y-81499762D01*
X83624400Y-80761038D01*
X83628845Y-80715901D01*
X83640220Y-80678405D01*
X83658692Y-80643846D01*
X83683553Y-80613553D01*
X83713846Y-80588692D01*
X83748405Y-80570220D01*
X83785901Y-80558845D01*
X83831038Y-80554400D01*
X84469762Y-80554400D01*
X84514899Y-80558845D01*
G37*
G36*
X110422899Y-80339045D02*
G01*
X110460395Y-80350420D01*
X110494954Y-80368892D01*
X110525247Y-80393753D01*
X110550108Y-80424046D01*
X110568580Y-80458605D01*
X110579955Y-80496101D01*
X110584400Y-80541238D01*
X110584400Y-81279962D01*
X110579955Y-81325099D01*
X110568580Y-81362595D01*
X110550108Y-81397154D01*
X110525247Y-81427447D01*
X110494954Y-81452308D01*
X110460395Y-81470780D01*
X110422899Y-81482155D01*
X110377762Y-81486600D01*
X109739038Y-81486600D01*
X109693901Y-81482155D01*
X109656405Y-81470780D01*
X109621846Y-81452308D01*
X109591553Y-81427447D01*
X109566692Y-81397154D01*
X109548220Y-81362595D01*
X109536845Y-81325099D01*
X109532400Y-81279962D01*
X109532400Y-80541238D01*
X109536845Y-80496101D01*
X109548220Y-80458605D01*
X109566692Y-80424046D01*
X109591553Y-80393753D01*
X109621846Y-80368892D01*
X109656405Y-80350420D01*
X109693901Y-80339045D01*
X109739038Y-80334600D01*
X110377762Y-80334600D01*
X110422899Y-80339045D01*
G37*
G36*
X114486099Y-80377645D02*
G01*
X114523595Y-80389020D01*
X114558154Y-80407492D01*
X114588447Y-80432353D01*
X114613308Y-80462646D01*
X114631780Y-80497205D01*
X114643155Y-80534701D01*
X114647600Y-80579838D01*
X114647600Y-81218562D01*
X114643155Y-81263699D01*
X114631780Y-81301195D01*
X114613308Y-81335754D01*
X114588447Y-81366047D01*
X114558154Y-81390908D01*
X114523595Y-81409380D01*
X114486099Y-81420755D01*
X114440962Y-81425200D01*
X113702238Y-81425200D01*
X113657101Y-81420755D01*
X113619605Y-81409380D01*
X113585046Y-81390908D01*
X113554753Y-81366047D01*
X113529892Y-81335754D01*
X113511420Y-81301195D01*
X113500045Y-81263699D01*
X113495600Y-81218562D01*
X113495600Y-80579838D01*
X113500045Y-80534701D01*
X113511420Y-80497205D01*
X113529892Y-80462646D01*
X113554753Y-80432353D01*
X113585046Y-80407492D01*
X113619605Y-80389020D01*
X113657101Y-80377645D01*
X113702238Y-80373200D01*
X114440962Y-80373200D01*
X114486099Y-80377645D01*
G37*
G36*
X112736099Y-80377645D02*
G01*
X112773595Y-80389020D01*
X112808154Y-80407492D01*
X112838447Y-80432353D01*
X112863308Y-80462646D01*
X112881780Y-80497205D01*
X112893155Y-80534701D01*
X112897600Y-80579838D01*
X112897600Y-81218562D01*
X112893155Y-81263699D01*
X112881780Y-81301195D01*
X112863308Y-81335754D01*
X112838447Y-81366047D01*
X112808154Y-81390908D01*
X112773595Y-81409380D01*
X112736099Y-81420755D01*
X112690962Y-81425200D01*
X111952238Y-81425200D01*
X111907101Y-81420755D01*
X111869605Y-81409380D01*
X111835046Y-81390908D01*
X111804753Y-81366047D01*
X111779892Y-81335754D01*
X111761420Y-81301195D01*
X111750045Y-81263699D01*
X111745600Y-81218562D01*
X111745600Y-80579838D01*
X111750045Y-80534701D01*
X111761420Y-80497205D01*
X111779892Y-80462646D01*
X111804753Y-80432353D01*
X111835046Y-80407492D01*
X111869605Y-80389020D01*
X111907101Y-80377645D01*
X111952238Y-80373200D01*
X112690962Y-80373200D01*
X112736099Y-80377645D01*
G37*
G36*
X88673713Y-79042845D02*
G01*
X88687760Y-79047105D01*
X88700710Y-79054027D01*
X88704303Y-79056976D01*
X88724677Y-79070589D01*
X88747316Y-79079966D01*
X88771350Y-79084746D01*
X88795854Y-79084746D01*
X88819887Y-79079965D01*
X88842526Y-79070588D01*
X88862897Y-79056976D01*
X88866490Y-79054027D01*
X88879440Y-79047105D01*
X88893487Y-79042845D01*
X88914243Y-79040800D01*
X89302957Y-79040800D01*
X89323713Y-79042845D01*
X89337760Y-79047105D01*
X89350710Y-79054027D01*
X89354303Y-79056976D01*
X89374677Y-79070589D01*
X89397316Y-79079966D01*
X89421350Y-79084746D01*
X89445854Y-79084746D01*
X89469887Y-79079965D01*
X89492526Y-79070588D01*
X89512897Y-79056976D01*
X89516490Y-79054027D01*
X89529440Y-79047105D01*
X89543487Y-79042845D01*
X89564243Y-79040800D01*
X89952957Y-79040800D01*
X89973713Y-79042845D01*
X89987760Y-79047105D01*
X90000710Y-79054027D01*
X90004303Y-79056976D01*
X90024677Y-79070589D01*
X90047316Y-79079966D01*
X90071350Y-79084746D01*
X90095854Y-79084746D01*
X90119887Y-79079965D01*
X90142526Y-79070588D01*
X90162897Y-79056976D01*
X90166490Y-79054027D01*
X90179440Y-79047105D01*
X90193487Y-79042845D01*
X90214243Y-79040800D01*
X90602957Y-79040800D01*
X90623713Y-79042845D01*
X90637760Y-79047105D01*
X90650710Y-79054027D01*
X90662059Y-79063341D01*
X90671373Y-79074690D01*
X90678295Y-79087640D01*
X90682555Y-79101687D01*
X90684600Y-79122443D01*
X90684600Y-80686157D01*
X90682555Y-80706913D01*
X90678295Y-80720960D01*
X90671373Y-80733910D01*
X90662059Y-80745259D01*
X90650710Y-80754573D01*
X90637760Y-80761495D01*
X90623713Y-80765755D01*
X90602957Y-80767800D01*
X90214243Y-80767800D01*
X90193487Y-80765755D01*
X90179440Y-80761495D01*
X90166490Y-80754573D01*
X90162897Y-80751624D01*
X90142523Y-80738011D01*
X90119884Y-80728634D01*
X90095850Y-80723854D01*
X90071346Y-80723854D01*
X90047313Y-80728635D01*
X90024674Y-80738012D01*
X90004303Y-80751624D01*
X90000710Y-80754573D01*
X89987760Y-80761495D01*
X89973713Y-80765755D01*
X89952957Y-80767800D01*
X89564243Y-80767800D01*
X89543487Y-80765755D01*
X89529440Y-80761495D01*
X89516490Y-80754573D01*
X89512897Y-80751624D01*
X89492523Y-80738011D01*
X89469884Y-80728634D01*
X89445850Y-80723854D01*
X89421346Y-80723854D01*
X89397313Y-80728635D01*
X89374674Y-80738012D01*
X89354303Y-80751624D01*
X89350710Y-80754573D01*
X89337760Y-80761495D01*
X89323713Y-80765755D01*
X89302957Y-80767800D01*
X88914243Y-80767800D01*
X88893487Y-80765755D01*
X88879440Y-80761495D01*
X88866490Y-80754573D01*
X88862897Y-80751624D01*
X88842523Y-80738011D01*
X88819884Y-80728634D01*
X88795850Y-80723854D01*
X88771346Y-80723854D01*
X88747313Y-80728635D01*
X88724674Y-80738012D01*
X88704303Y-80751624D01*
X88700710Y-80754573D01*
X88687760Y-80761495D01*
X88673713Y-80765755D01*
X88652957Y-80767800D01*
X88264243Y-80767800D01*
X88243487Y-80765755D01*
X88229440Y-80761495D01*
X88216490Y-80754573D01*
X88205141Y-80745259D01*
X88195827Y-80733910D01*
X88188905Y-80720960D01*
X88184645Y-80706913D01*
X88182600Y-80686157D01*
X88182600Y-79122443D01*
X88184645Y-79101687D01*
X88188905Y-79087640D01*
X88195827Y-79074690D01*
X88205141Y-79063341D01*
X88216490Y-79054027D01*
X88229440Y-79047105D01*
X88243487Y-79042845D01*
X88264243Y-79040800D01*
X88652957Y-79040800D01*
X88673713Y-79042845D01*
G37*
G36*
X107455000Y-80737400D02*
G01*
X106903000Y-80737400D01*
X106903000Y-80235400D01*
X107455000Y-80235400D01*
X107455000Y-80737400D01*
G37*
G36*
X106305000Y-80387400D02*
G01*
X105753000Y-80387400D01*
X105753000Y-79785400D01*
X106305000Y-79785400D01*
X106305000Y-80387400D01*
G37*
G36*
X107455000Y-79937400D02*
G01*
X106903000Y-79937400D01*
X106903000Y-79435400D01*
X107455000Y-79435400D01*
X107455000Y-79937400D01*
G37*
G36*
X110422899Y-78589045D02*
G01*
X110460395Y-78600420D01*
X110494954Y-78618892D01*
X110525247Y-78643753D01*
X110550108Y-78674046D01*
X110568580Y-78708605D01*
X110579955Y-78746101D01*
X110584400Y-78791238D01*
X110584400Y-79529962D01*
X110579955Y-79575099D01*
X110568580Y-79612595D01*
X110550108Y-79647154D01*
X110525247Y-79677447D01*
X110494954Y-79702308D01*
X110460395Y-79720780D01*
X110422899Y-79732155D01*
X110377762Y-79736600D01*
X109739038Y-79736600D01*
X109693901Y-79732155D01*
X109656405Y-79720780D01*
X109621846Y-79702308D01*
X109591553Y-79677447D01*
X109566692Y-79647154D01*
X109548220Y-79612595D01*
X109536845Y-79575099D01*
X109532400Y-79529962D01*
X109532400Y-78791238D01*
X109536845Y-78746101D01*
X109548220Y-78708605D01*
X109566692Y-78674046D01*
X109591553Y-78643753D01*
X109621846Y-78618892D01*
X109656405Y-78600420D01*
X109693901Y-78589045D01*
X109739038Y-78584600D01*
X110377762Y-78584600D01*
X110422899Y-78589045D01*
G37*
G36*
X84616499Y-76060445D02*
G01*
X84653995Y-76071820D01*
X84688554Y-76090292D01*
X84718847Y-76115153D01*
X84743708Y-76145446D01*
X84762180Y-76180005D01*
X84773555Y-76217501D01*
X84778000Y-76262638D01*
X84778000Y-77001362D01*
X84773555Y-77046499D01*
X84762180Y-77083995D01*
X84743708Y-77118554D01*
X84718847Y-77148847D01*
X84688554Y-77173708D01*
X84653995Y-77192180D01*
X84616499Y-77203555D01*
X84571362Y-77208000D01*
X83932638Y-77208000D01*
X83887501Y-77203555D01*
X83850005Y-77192180D01*
X83815446Y-77173708D01*
X83785153Y-77148847D01*
X83760292Y-77118554D01*
X83741820Y-77083995D01*
X83730445Y-77046499D01*
X83726000Y-77001362D01*
X83726000Y-76262638D01*
X83730445Y-76217501D01*
X83741820Y-76180005D01*
X83760292Y-76145446D01*
X83785153Y-76115153D01*
X83815446Y-76090292D01*
X83850005Y-76071820D01*
X83887501Y-76060445D01*
X83932638Y-76056000D01*
X84571362Y-76056000D01*
X84616499Y-76060445D01*
G37*
G36*
X88658800Y-76857400D02*
G01*
X87056800Y-76857400D01*
X87056800Y-73155400D01*
X88658800Y-73155400D01*
X88658800Y-76857400D01*
G37*
G36*
X91708800Y-76857400D02*
G01*
X90106800Y-76857400D01*
X90106800Y-73155400D01*
X91708800Y-73155400D01*
X91708800Y-76857400D01*
G37*
G36*
X84616499Y-74310445D02*
G01*
X84653995Y-74321820D01*
X84688554Y-74340292D01*
X84718847Y-74365153D01*
X84743708Y-74395446D01*
X84762180Y-74430005D01*
X84773555Y-74467501D01*
X84778000Y-74512638D01*
X84778000Y-75251362D01*
X84773555Y-75296499D01*
X84762180Y-75333995D01*
X84743708Y-75368554D01*
X84718847Y-75398847D01*
X84688554Y-75423708D01*
X84653995Y-75442180D01*
X84616499Y-75453555D01*
X84571362Y-75458000D01*
X83932638Y-75458000D01*
X83887501Y-75453555D01*
X83850005Y-75442180D01*
X83815446Y-75423708D01*
X83785153Y-75398847D01*
X83760292Y-75368554D01*
X83741820Y-75333995D01*
X83730445Y-75296499D01*
X83726000Y-75251362D01*
X83726000Y-74512638D01*
X83730445Y-74467501D01*
X83741820Y-74430005D01*
X83760292Y-74395446D01*
X83785153Y-74365153D01*
X83815446Y-74340292D01*
X83850005Y-74321820D01*
X83887501Y-74310445D01*
X83932638Y-74306000D01*
X84571362Y-74306000D01*
X84616499Y-74310445D01*
G37*
M02*
