G04 #@! TF.GenerationSoftware,KiCad,Pcbnew,6.0.7-f9a2dced07~116~ubuntu22.04.1*
G04 #@! TF.CreationDate,2022-08-25T07:51:25+02:00*
G04 #@! TF.ProjectId,PCB-Ange,5043422d-416e-4676-952e-6b696361645f,rev?*
G04 #@! TF.SameCoordinates,Original*
G04 #@! TF.FileFunction,Soldermask,Top*
G04 #@! TF.FilePolarity,Negative*
%FSLAX46Y46*%
G04 Gerber Fmt 4.6, Leading zero omitted, Abs format (unit mm)*
G04 Created by KiCad (PCBNEW 6.0.7-f9a2dced07~116~ubuntu22.04.1) date 2022-08-25 07:51:25*
%MOMM*%
%LPD*%
G01*
G04 APERTURE LIST*
G04 Aperture macros list*
%AMRoundRect*
0 Rectangle with rounded corners*
0 $1 Rounding radius*
0 $2 $3 $4 $5 $6 $7 $8 $9 X,Y pos of 4 corners*
0 Add a 4 corners polygon primitive as box body*
4,1,4,$2,$3,$4,$5,$6,$7,$8,$9,$2,$3,0*
0 Add four circle primitives for the rounded corners*
1,1,$1+$1,$2,$3*
1,1,$1+$1,$4,$5*
1,1,$1+$1,$6,$7*
1,1,$1+$1,$8,$9*
0 Add four rect primitives between the rounded corners*
20,1,$1+$1,$2,$3,$4,$5,0*
20,1,$1+$1,$4,$5,$6,$7,0*
20,1,$1+$1,$6,$7,$8,$9,0*
20,1,$1+$1,$8,$9,$2,$3,0*%
G04 Aperture macros list end*
G04 #@! TA.AperFunction,Profile*
%ADD10C,0.050000*%
G04 #@! TD*
%ADD11RoundRect,0.051000X0.370000X-1.200000X0.370000X1.200000X-0.370000X1.200000X-0.370000X-1.200000X0*%
%ADD12RoundRect,0.163500X0.112500X-0.700000X0.112500X0.700000X-0.112500X0.700000X-0.112500X-0.700000X0*%
%ADD13RoundRect,0.051000X-3.810000X-2.540000X3.810000X-2.540000X3.810000X2.540000X-3.810000X2.540000X0*%
%ADD14RoundRect,0.288500X-0.287500X-0.237500X0.287500X-0.237500X0.287500X0.237500X-0.287500X0.237500X0*%
%ADD15RoundRect,0.288500X-0.237500X0.287500X-0.237500X-0.287500X0.237500X-0.287500X0.237500X0.287500X0*%
%ADD16RoundRect,0.288500X0.287500X0.237500X-0.287500X0.237500X-0.287500X-0.237500X0.287500X-0.237500X0*%
%ADD17RoundRect,0.288500X0.237500X-0.287500X0.237500X0.287500X-0.237500X0.287500X-0.237500X-0.287500X0*%
%ADD18RoundRect,0.301001X0.462499X1.074999X-0.462499X1.074999X-0.462499X-1.074999X0.462499X-1.074999X0*%
%ADD19RoundRect,0.051000X-0.535000X-0.900000X0.535000X-0.900000X0.535000X0.900000X-0.535000X0.900000X0*%
%ADD20O,1.172000X1.902000*%
%ADD21RoundRect,0.051000X0.750000X1.800000X-0.750000X1.800000X-0.750000X-1.800000X0.750000X-1.800000X0*%
%ADD22C,1.102000*%
%ADD23RoundRect,0.051000X0.225000X0.200000X-0.225000X0.200000X-0.225000X-0.200000X0.225000X-0.200000X0*%
%ADD24RoundRect,0.051000X0.225000X0.250000X-0.225000X0.250000X-0.225000X-0.250000X0.225000X-0.250000X0*%
%ADD25C,0.902000*%
%ADD26RoundRect,0.051000X-0.450000X-0.850000X0.450000X-0.850000X0.450000X0.850000X-0.450000X0.850000X0*%
%ADD27RoundRect,0.051000X0.450000X0.850000X-0.450000X0.850000X-0.450000X-0.850000X0.450000X-0.850000X0*%
%ADD28RoundRect,0.051000X-1.220000X-0.560000X1.220000X-0.560000X1.220000X0.560000X-1.220000X0.560000X0*%
%ADD29RoundRect,0.126000X0.662500X0.075000X-0.662500X0.075000X-0.662500X-0.075000X0.662500X-0.075000X0*%
%ADD30RoundRect,0.126000X0.075000X0.662500X-0.075000X0.662500X-0.075000X-0.662500X0.075000X-0.662500X0*%
%ADD31RoundRect,0.201000X0.150000X-0.325000X0.150000X0.325000X-0.150000X0.325000X-0.150000X-0.325000X0*%
%ADD32RoundRect,0.201000X0.325000X-0.150000X0.325000X0.150000X-0.325000X0.150000X-0.325000X-0.150000X0*%
%ADD33RoundRect,0.051000X-0.225000X-0.725000X0.225000X-0.725000X0.225000X0.725000X-0.225000X0.725000X0*%
G04 APERTURE END LIST*
D10*
X101800000Y-122365000D02*
G75*
G03*
X101800000Y-122365000I-1800000J0D01*
G01*
X101800000Y-77635000D02*
G75*
G03*
X101800000Y-77635000I-1800000J0D01*
G01*
X137500000Y-100000000D02*
G75*
G03*
X137500000Y-100000000I-37500000J0D01*
G01*
X101800000Y-122365000D02*
G75*
G03*
X101800000Y-122365000I-1800000J0D01*
G01*
X101800000Y-77635000D02*
G75*
G03*
X101800000Y-77635000I-1800000J0D01*
G01*
X137500000Y-100000000D02*
G75*
G03*
X137500000Y-100000000I-37500000J0D01*
G01*
D11*
X94940000Y-128575000D03*
X94940000Y-124675000D03*
X96210000Y-128575000D03*
X96210000Y-124675000D03*
D12*
X88458600Y-84129300D03*
X89108600Y-84129300D03*
X89758600Y-84129300D03*
X90408600Y-84129300D03*
X90408600Y-79904300D03*
X89758600Y-79904300D03*
X89108600Y-79904300D03*
X88458600Y-79904300D03*
D13*
X71310000Y-100000000D03*
X128690000Y-100000000D03*
D14*
X103810000Y-131953200D03*
X105560000Y-131953200D03*
X122832000Y-116256000D03*
X121082000Y-116256000D03*
X96878400Y-132816800D03*
X98628400Y-132816800D03*
D15*
X84252000Y-76632000D03*
X84252000Y-74882000D03*
D14*
X121082000Y-119050000D03*
X122832000Y-119050000D03*
D16*
X108370600Y-109067800D03*
X110120600Y-109067800D03*
X106400800Y-118491200D03*
X104650800Y-118491200D03*
D14*
X121155600Y-122301200D03*
X119405600Y-122301200D03*
X122860000Y-113462000D03*
X121110000Y-113462000D03*
X121146800Y-110363200D03*
X122896800Y-110363200D03*
D16*
X106717000Y-107366000D03*
X104967000Y-107366000D03*
D17*
X94107200Y-82310200D03*
X94107200Y-84060200D03*
D14*
X120777200Y-90195600D03*
X122527200Y-90195600D03*
D15*
X125933400Y-89803200D03*
X125933400Y-91553200D03*
D14*
X122515800Y-93218200D03*
X120765800Y-93218200D03*
D15*
X129083000Y-91513800D03*
X129083000Y-89763800D03*
D14*
X84534000Y-125654000D03*
X86284000Y-125654000D03*
D18*
X74600000Y-110160000D03*
X71625000Y-110160000D03*
D17*
X78156000Y-109172000D03*
X78156000Y-110922000D03*
D15*
X88570000Y-110668000D03*
X88570000Y-112418000D03*
D19*
X98095000Y-100000000D03*
D20*
X99365000Y-100000000D03*
X100635000Y-100000000D03*
X101905000Y-100000000D03*
D11*
X103810000Y-128112000D03*
X103810000Y-124212000D03*
X105080000Y-128112000D03*
X105080000Y-124212000D03*
X106350000Y-128112000D03*
X106350000Y-124212000D03*
X107620000Y-128112000D03*
X107620000Y-124212000D03*
X108890000Y-128112000D03*
X108890000Y-124212000D03*
D21*
X90907800Y-75006400D03*
X87857800Y-75006400D03*
D22*
X91110000Y-125273000D03*
X91110000Y-124003000D03*
D23*
X107179000Y-80486400D03*
X107179000Y-79686400D03*
D24*
X106029000Y-80086400D03*
D23*
X107179000Y-84144000D03*
X107179000Y-83344000D03*
D24*
X106029000Y-83744000D03*
X106029000Y-87554000D03*
D23*
X107179000Y-87154000D03*
X107179000Y-87954000D03*
D14*
X109222800Y-107442200D03*
X110972800Y-107442200D03*
X116736000Y-123622000D03*
X114986000Y-123622000D03*
D15*
X84150400Y-81130400D03*
X84150400Y-82880400D03*
D14*
X112321600Y-80899200D03*
X114071600Y-80899200D03*
D17*
X110058400Y-79160600D03*
X110058400Y-80910600D03*
D16*
X92860000Y-128956000D03*
X91110000Y-128956000D03*
D17*
X98120400Y-87554000D03*
X98120400Y-89304000D03*
D14*
X86256000Y-122352000D03*
X84506000Y-122352000D03*
X112372400Y-84861600D03*
X114122400Y-84861600D03*
D17*
X74600000Y-116256000D03*
X74600000Y-114506000D03*
X110058400Y-83134400D03*
X110058400Y-84884400D03*
X101016000Y-89304000D03*
X101016000Y-87554000D03*
D14*
X80470000Y-109652000D03*
X82220000Y-109652000D03*
D15*
X83490000Y-116482000D03*
X83490000Y-114732000D03*
D14*
X114145200Y-88874800D03*
X112395200Y-88874800D03*
D15*
X85268000Y-112418000D03*
X85268000Y-110668000D03*
D17*
X110058400Y-88897600D03*
X110058400Y-87147600D03*
X103911600Y-87554000D03*
X103911600Y-89304000D03*
D25*
X114706600Y-107467600D03*
D26*
X116406600Y-107467600D03*
X113006600Y-107467600D03*
D27*
X117526000Y-126670000D03*
X114126000Y-126670000D03*
D25*
X115826000Y-126670000D03*
D28*
X84112600Y-89586000D03*
X92722600Y-89586000D03*
D29*
X117624500Y-118498000D03*
X117624500Y-117998000D03*
X117624500Y-117498000D03*
X117624500Y-116998000D03*
X117624500Y-116498000D03*
X117624500Y-115998000D03*
X117624500Y-115498000D03*
X117624500Y-114998000D03*
X117624500Y-114498000D03*
X117624500Y-113998000D03*
X117624500Y-113498000D03*
X117624500Y-112998000D03*
D30*
X116212000Y-111585500D03*
X115712000Y-111585500D03*
X115212000Y-111585500D03*
X114712000Y-111585500D03*
X114212000Y-111585500D03*
X113712000Y-111585500D03*
X113212000Y-111585500D03*
X112712000Y-111585500D03*
X112212000Y-111585500D03*
X111712000Y-111585500D03*
X111212000Y-111585500D03*
X110712000Y-111585500D03*
D29*
X109299500Y-112998000D03*
X109299500Y-113498000D03*
X109299500Y-113998000D03*
X109299500Y-114498000D03*
X109299500Y-114998000D03*
X109299500Y-115498000D03*
X109299500Y-115998000D03*
X109299500Y-116498000D03*
X109299500Y-116998000D03*
X109299500Y-117498000D03*
X109299500Y-117998000D03*
X109299500Y-118498000D03*
D30*
X110712000Y-119910500D03*
X111212000Y-119910500D03*
X111712000Y-119910500D03*
X112212000Y-119910500D03*
X112712000Y-119910500D03*
X113212000Y-119910500D03*
X113712000Y-119910500D03*
X114212000Y-119910500D03*
X114712000Y-119910500D03*
X115212000Y-119910500D03*
X115712000Y-119910500D03*
X116212000Y-119910500D03*
D31*
X120783800Y-87030000D03*
X121583800Y-87030000D03*
X122383800Y-87030000D03*
X123183800Y-87030000D03*
X123983800Y-87030000D03*
X124783800Y-87030000D03*
D32*
X124783800Y-86030000D03*
D31*
X124783800Y-85030000D03*
X123983800Y-85030000D03*
X123183800Y-85030000D03*
X122383800Y-85030000D03*
X121583800Y-85030000D03*
X120783800Y-85030000D03*
D32*
X120783800Y-86030000D03*
D33*
X78451000Y-117694000D03*
X79101000Y-117694000D03*
X79751000Y-117694000D03*
X80401000Y-117694000D03*
X80401000Y-113294000D03*
X79751000Y-113294000D03*
X79101000Y-113294000D03*
X78451000Y-113294000D03*
G36*
X90967913Y-124533276D02*
G01*
X91110000Y-124551983D01*
X91252087Y-124533276D01*
X91334489Y-124499144D01*
X91336472Y-124499405D01*
X91337237Y-124501253D01*
X91336153Y-124502779D01*
X91284595Y-124528710D01*
X91233777Y-124576204D01*
X91216776Y-124643345D01*
X91238772Y-124709015D01*
X91292960Y-124752513D01*
X91306969Y-124757131D01*
X91307279Y-124757262D01*
X91342005Y-124775648D01*
X91343068Y-124777343D01*
X91342132Y-124779110D01*
X91340304Y-124779264D01*
X91252087Y-124742724D01*
X91110000Y-124724017D01*
X90967913Y-124742724D01*
X90882563Y-124778077D01*
X90880580Y-124777816D01*
X90879815Y-124775968D01*
X90880881Y-124774452D01*
X90929002Y-124749615D01*
X90928818Y-124749258D01*
X90928912Y-124747260D01*
X90929599Y-124746606D01*
X90971886Y-124722323D01*
X91003767Y-124660836D01*
X90997345Y-124591878D01*
X90954590Y-124537249D01*
X90914165Y-124518275D01*
X90906989Y-124516393D01*
X90906542Y-124516216D01*
X90875144Y-124499168D01*
X90874099Y-124497462D01*
X90875053Y-124495705D01*
X90876863Y-124495562D01*
X90967913Y-124533276D01*
G37*
G36*
X112880693Y-119162460D02*
G01*
X112893425Y-119170967D01*
X112959789Y-119191747D01*
X113030589Y-119170958D01*
X113043307Y-119162460D01*
X113045303Y-119162329D01*
X113046414Y-119163992D01*
X113046081Y-119165234D01*
X113022476Y-119200561D01*
X113013000Y-119248199D01*
X113013000Y-120572801D01*
X113022476Y-120620439D01*
X113046081Y-120655766D01*
X113046212Y-120657762D01*
X113044549Y-120658873D01*
X113043307Y-120658540D01*
X113030575Y-120650033D01*
X112964211Y-120629253D01*
X112893411Y-120650042D01*
X112880693Y-120658540D01*
X112878697Y-120658671D01*
X112877586Y-120657008D01*
X112877919Y-120655766D01*
X112901524Y-120620439D01*
X112911000Y-120572801D01*
X112911000Y-119248199D01*
X112901524Y-119200561D01*
X112877919Y-119165234D01*
X112877788Y-119163238D01*
X112879451Y-119162127D01*
X112880693Y-119162460D01*
G37*
G36*
X110880693Y-119162460D02*
G01*
X110893425Y-119170967D01*
X110959789Y-119191747D01*
X111030589Y-119170958D01*
X111043307Y-119162460D01*
X111045303Y-119162329D01*
X111046414Y-119163992D01*
X111046081Y-119165234D01*
X111022476Y-119200561D01*
X111013000Y-119248199D01*
X111013000Y-120572801D01*
X111022476Y-120620439D01*
X111046081Y-120655766D01*
X111046212Y-120657762D01*
X111044549Y-120658873D01*
X111043307Y-120658540D01*
X111030575Y-120650033D01*
X110964211Y-120629253D01*
X110893411Y-120650042D01*
X110880693Y-120658540D01*
X110878697Y-120658671D01*
X110877586Y-120657008D01*
X110877919Y-120655766D01*
X110901524Y-120620439D01*
X110911000Y-120572801D01*
X110911000Y-119248199D01*
X110901524Y-119200561D01*
X110877919Y-119165234D01*
X110877788Y-119163238D01*
X110879451Y-119162127D01*
X110880693Y-119162460D01*
G37*
G36*
X113880693Y-119162460D02*
G01*
X113893425Y-119170967D01*
X113959789Y-119191747D01*
X114030589Y-119170958D01*
X114043307Y-119162460D01*
X114045303Y-119162329D01*
X114046414Y-119163992D01*
X114046081Y-119165234D01*
X114022476Y-119200561D01*
X114013000Y-119248199D01*
X114013000Y-120572801D01*
X114022476Y-120620439D01*
X114046081Y-120655766D01*
X114046212Y-120657762D01*
X114044549Y-120658873D01*
X114043307Y-120658540D01*
X114030575Y-120650033D01*
X113964211Y-120629253D01*
X113893411Y-120650042D01*
X113880693Y-120658540D01*
X113878697Y-120658671D01*
X113877586Y-120657008D01*
X113877919Y-120655766D01*
X113901524Y-120620439D01*
X113911000Y-120572801D01*
X113911000Y-119248199D01*
X113901524Y-119200561D01*
X113877919Y-119165234D01*
X113877788Y-119163238D01*
X113879451Y-119162127D01*
X113880693Y-119162460D01*
G37*
G36*
X115880693Y-119162460D02*
G01*
X115893425Y-119170967D01*
X115959789Y-119191747D01*
X116030589Y-119170958D01*
X116043307Y-119162460D01*
X116045303Y-119162329D01*
X116046414Y-119163992D01*
X116046081Y-119165234D01*
X116022476Y-119200561D01*
X116013000Y-119248199D01*
X116013000Y-120572801D01*
X116022476Y-120620439D01*
X116046081Y-120655766D01*
X116046212Y-120657762D01*
X116044549Y-120658873D01*
X116043307Y-120658540D01*
X116030575Y-120650033D01*
X115964211Y-120629253D01*
X115893411Y-120650042D01*
X115880693Y-120658540D01*
X115878697Y-120658671D01*
X115877586Y-120657008D01*
X115877919Y-120655766D01*
X115901524Y-120620439D01*
X115911000Y-120572801D01*
X115911000Y-119248199D01*
X115901524Y-119200561D01*
X115877919Y-119165234D01*
X115877788Y-119163238D01*
X115879451Y-119162127D01*
X115880693Y-119162460D01*
G37*
G36*
X112380693Y-119162460D02*
G01*
X112393425Y-119170967D01*
X112459789Y-119191747D01*
X112530589Y-119170958D01*
X112543307Y-119162460D01*
X112545303Y-119162329D01*
X112546414Y-119163992D01*
X112546081Y-119165234D01*
X112522476Y-119200561D01*
X112513000Y-119248199D01*
X112513000Y-120572801D01*
X112522476Y-120620439D01*
X112546081Y-120655766D01*
X112546212Y-120657762D01*
X112544549Y-120658873D01*
X112543307Y-120658540D01*
X112530575Y-120650033D01*
X112464211Y-120629253D01*
X112393411Y-120650042D01*
X112380693Y-120658540D01*
X112378697Y-120658671D01*
X112377586Y-120657008D01*
X112377919Y-120655766D01*
X112401524Y-120620439D01*
X112411000Y-120572801D01*
X112411000Y-119248199D01*
X112401524Y-119200561D01*
X112377919Y-119165234D01*
X112377788Y-119163238D01*
X112379451Y-119162127D01*
X112380693Y-119162460D01*
G37*
G36*
X111380693Y-119162460D02*
G01*
X111393425Y-119170967D01*
X111459789Y-119191747D01*
X111530589Y-119170958D01*
X111543307Y-119162460D01*
X111545303Y-119162329D01*
X111546414Y-119163992D01*
X111546081Y-119165234D01*
X111522476Y-119200561D01*
X111513000Y-119248199D01*
X111513000Y-120572801D01*
X111522476Y-120620439D01*
X111546081Y-120655766D01*
X111546212Y-120657762D01*
X111544549Y-120658873D01*
X111543307Y-120658540D01*
X111530575Y-120650033D01*
X111464211Y-120629253D01*
X111393411Y-120650042D01*
X111380693Y-120658540D01*
X111378697Y-120658671D01*
X111377586Y-120657008D01*
X111377919Y-120655766D01*
X111401524Y-120620439D01*
X111411000Y-120572801D01*
X111411000Y-119248199D01*
X111401524Y-119200561D01*
X111377919Y-119165234D01*
X111377788Y-119163238D01*
X111379451Y-119162127D01*
X111380693Y-119162460D01*
G37*
G36*
X113380693Y-119162460D02*
G01*
X113393425Y-119170967D01*
X113459789Y-119191747D01*
X113530589Y-119170958D01*
X113543307Y-119162460D01*
X113545303Y-119162329D01*
X113546414Y-119163992D01*
X113546081Y-119165234D01*
X113522476Y-119200561D01*
X113513000Y-119248199D01*
X113513000Y-120572801D01*
X113522476Y-120620439D01*
X113546081Y-120655766D01*
X113546212Y-120657762D01*
X113544549Y-120658873D01*
X113543307Y-120658540D01*
X113530575Y-120650033D01*
X113464211Y-120629253D01*
X113393411Y-120650042D01*
X113380693Y-120658540D01*
X113378697Y-120658671D01*
X113377586Y-120657008D01*
X113377919Y-120655766D01*
X113401524Y-120620439D01*
X113411000Y-120572801D01*
X113411000Y-119248199D01*
X113401524Y-119200561D01*
X113377919Y-119165234D01*
X113377788Y-119163238D01*
X113379451Y-119162127D01*
X113380693Y-119162460D01*
G37*
G36*
X115380693Y-119162460D02*
G01*
X115393425Y-119170967D01*
X115459789Y-119191747D01*
X115530589Y-119170958D01*
X115543307Y-119162460D01*
X115545303Y-119162329D01*
X115546414Y-119163992D01*
X115546081Y-119165234D01*
X115522476Y-119200561D01*
X115513000Y-119248199D01*
X115513000Y-120572801D01*
X115522476Y-120620439D01*
X115546081Y-120655766D01*
X115546212Y-120657762D01*
X115544549Y-120658873D01*
X115543307Y-120658540D01*
X115530575Y-120650033D01*
X115464211Y-120629253D01*
X115393411Y-120650042D01*
X115380693Y-120658540D01*
X115378697Y-120658671D01*
X115377586Y-120657008D01*
X115377919Y-120655766D01*
X115401524Y-120620439D01*
X115411000Y-120572801D01*
X115411000Y-119248199D01*
X115401524Y-119200561D01*
X115377919Y-119165234D01*
X115377788Y-119163238D01*
X115379451Y-119162127D01*
X115380693Y-119162460D01*
G37*
G36*
X114380693Y-119162460D02*
G01*
X114393425Y-119170967D01*
X114459789Y-119191747D01*
X114530589Y-119170958D01*
X114543307Y-119162460D01*
X114545303Y-119162329D01*
X114546414Y-119163992D01*
X114546081Y-119165234D01*
X114522476Y-119200561D01*
X114513000Y-119248199D01*
X114513000Y-120572801D01*
X114522476Y-120620439D01*
X114546081Y-120655766D01*
X114546212Y-120657762D01*
X114544549Y-120658873D01*
X114543307Y-120658540D01*
X114530575Y-120650033D01*
X114464211Y-120629253D01*
X114393411Y-120650042D01*
X114380693Y-120658540D01*
X114378697Y-120658671D01*
X114377586Y-120657008D01*
X114377919Y-120655766D01*
X114401524Y-120620439D01*
X114411000Y-120572801D01*
X114411000Y-119248199D01*
X114401524Y-119200561D01*
X114377919Y-119165234D01*
X114377788Y-119163238D01*
X114379451Y-119162127D01*
X114380693Y-119162460D01*
G37*
G36*
X114880693Y-119162460D02*
G01*
X114893425Y-119170967D01*
X114959789Y-119191747D01*
X115030589Y-119170958D01*
X115043307Y-119162460D01*
X115045303Y-119162329D01*
X115046414Y-119163992D01*
X115046081Y-119165234D01*
X115022476Y-119200561D01*
X115013000Y-119248199D01*
X115013000Y-120572801D01*
X115022476Y-120620439D01*
X115046081Y-120655766D01*
X115046212Y-120657762D01*
X115044549Y-120658873D01*
X115043307Y-120658540D01*
X115030575Y-120650033D01*
X114964211Y-120629253D01*
X114893411Y-120650042D01*
X114880693Y-120658540D01*
X114878697Y-120658671D01*
X114877586Y-120657008D01*
X114877919Y-120655766D01*
X114901524Y-120620439D01*
X114911000Y-120572801D01*
X114911000Y-119248199D01*
X114901524Y-119200561D01*
X114877919Y-119165234D01*
X114877788Y-119163238D01*
X114879451Y-119162127D01*
X114880693Y-119162460D01*
G37*
G36*
X111880693Y-119162460D02*
G01*
X111893425Y-119170967D01*
X111959789Y-119191747D01*
X112030589Y-119170958D01*
X112043307Y-119162460D01*
X112045303Y-119162329D01*
X112046414Y-119163992D01*
X112046081Y-119165234D01*
X112022476Y-119200561D01*
X112013000Y-119248199D01*
X112013000Y-120572801D01*
X112022476Y-120620439D01*
X112046081Y-120655766D01*
X112046212Y-120657762D01*
X112044549Y-120658873D01*
X112043307Y-120658540D01*
X112030575Y-120650033D01*
X111964211Y-120629253D01*
X111893411Y-120650042D01*
X111880693Y-120658540D01*
X111878697Y-120658671D01*
X111877586Y-120657008D01*
X111877919Y-120655766D01*
X111901524Y-120620439D01*
X111911000Y-120572801D01*
X111911000Y-119248199D01*
X111901524Y-119200561D01*
X111877919Y-119165234D01*
X111877788Y-119163238D01*
X111879451Y-119162127D01*
X111880693Y-119162460D01*
G37*
G36*
X79490633Y-116932517D02*
G01*
X79491197Y-116934436D01*
X79490916Y-116935075D01*
X79480767Y-116950263D01*
X79477000Y-116969199D01*
X79477000Y-118418801D01*
X79480767Y-118437738D01*
X79490814Y-118452773D01*
X79490945Y-118454768D01*
X79489282Y-118455880D01*
X79488553Y-118455793D01*
X79428212Y-118436898D01*
X79363310Y-118455955D01*
X79361367Y-118455483D01*
X79360803Y-118453564D01*
X79361084Y-118452925D01*
X79371233Y-118437737D01*
X79375000Y-118418801D01*
X79375000Y-116969199D01*
X79371233Y-116950262D01*
X79361186Y-116935227D01*
X79361055Y-116933232D01*
X79362718Y-116932120D01*
X79363447Y-116932207D01*
X79423788Y-116951102D01*
X79488690Y-116932045D01*
X79490633Y-116932517D01*
G37*
G36*
X78840633Y-116932517D02*
G01*
X78841197Y-116934436D01*
X78840916Y-116935075D01*
X78830767Y-116950263D01*
X78827000Y-116969199D01*
X78827000Y-118418801D01*
X78830767Y-118437738D01*
X78840814Y-118452773D01*
X78840945Y-118454768D01*
X78839282Y-118455880D01*
X78838553Y-118455793D01*
X78778212Y-118436898D01*
X78713310Y-118455955D01*
X78711367Y-118455483D01*
X78710803Y-118453564D01*
X78711084Y-118452925D01*
X78721233Y-118437737D01*
X78725000Y-118418801D01*
X78725000Y-116969199D01*
X78721233Y-116950262D01*
X78711186Y-116935227D01*
X78711055Y-116933232D01*
X78712718Y-116932120D01*
X78713447Y-116932207D01*
X78773788Y-116951102D01*
X78838690Y-116932045D01*
X78840633Y-116932517D01*
G37*
G36*
X80140633Y-116932517D02*
G01*
X80141197Y-116934436D01*
X80140916Y-116935075D01*
X80130767Y-116950263D01*
X80127000Y-116969199D01*
X80127000Y-118418801D01*
X80130767Y-118437738D01*
X80140814Y-118452773D01*
X80140945Y-118454768D01*
X80139282Y-118455880D01*
X80138553Y-118455793D01*
X80078212Y-118436898D01*
X80013310Y-118455955D01*
X80011367Y-118455483D01*
X80010803Y-118453564D01*
X80011084Y-118452925D01*
X80021233Y-118437737D01*
X80025000Y-118418801D01*
X80025000Y-116969199D01*
X80021233Y-116950262D01*
X80011186Y-116935227D01*
X80011055Y-116933232D01*
X80012718Y-116932120D01*
X80013447Y-116932207D01*
X80073788Y-116951102D01*
X80138690Y-116932045D01*
X80140633Y-116932517D01*
G37*
G36*
X116879234Y-118163919D02*
G01*
X116914561Y-118187524D01*
X116962199Y-118197000D01*
X118286801Y-118197000D01*
X118334439Y-118187524D01*
X118369766Y-118163919D01*
X118371762Y-118163788D01*
X118372873Y-118165451D01*
X118372540Y-118166693D01*
X118364033Y-118179425D01*
X118343253Y-118245789D01*
X118364042Y-118316589D01*
X118372540Y-118329307D01*
X118372671Y-118331303D01*
X118371008Y-118332414D01*
X118369766Y-118332081D01*
X118334439Y-118308476D01*
X118286801Y-118299000D01*
X116962199Y-118299000D01*
X116914561Y-118308476D01*
X116879234Y-118332081D01*
X116877238Y-118332212D01*
X116876127Y-118330549D01*
X116876460Y-118329307D01*
X116884967Y-118316575D01*
X116905747Y-118250211D01*
X116884958Y-118179411D01*
X116876460Y-118166693D01*
X116876329Y-118164697D01*
X116877992Y-118163586D01*
X116879234Y-118163919D01*
G37*
G36*
X108554234Y-118163919D02*
G01*
X108589561Y-118187524D01*
X108637199Y-118197000D01*
X109961801Y-118197000D01*
X110009439Y-118187524D01*
X110044766Y-118163919D01*
X110046762Y-118163788D01*
X110047873Y-118165451D01*
X110047540Y-118166693D01*
X110039033Y-118179425D01*
X110018253Y-118245789D01*
X110039042Y-118316589D01*
X110047540Y-118329307D01*
X110047671Y-118331303D01*
X110046008Y-118332414D01*
X110044766Y-118332081D01*
X110009439Y-118308476D01*
X109961801Y-118299000D01*
X108637199Y-118299000D01*
X108589561Y-118308476D01*
X108554234Y-118332081D01*
X108552238Y-118332212D01*
X108551127Y-118330549D01*
X108551460Y-118329307D01*
X108559967Y-118316575D01*
X108580747Y-118250211D01*
X108559958Y-118179411D01*
X108551460Y-118166693D01*
X108551329Y-118164697D01*
X108552992Y-118163586D01*
X108554234Y-118163919D01*
G37*
G36*
X116879234Y-117663919D02*
G01*
X116914561Y-117687524D01*
X116962199Y-117697000D01*
X118286801Y-117697000D01*
X118334439Y-117687524D01*
X118369766Y-117663919D01*
X118371762Y-117663788D01*
X118372873Y-117665451D01*
X118372540Y-117666693D01*
X118364033Y-117679425D01*
X118343253Y-117745789D01*
X118364042Y-117816589D01*
X118372540Y-117829307D01*
X118372671Y-117831303D01*
X118371008Y-117832414D01*
X118369766Y-117832081D01*
X118334439Y-117808476D01*
X118286801Y-117799000D01*
X116962199Y-117799000D01*
X116914561Y-117808476D01*
X116879234Y-117832081D01*
X116877238Y-117832212D01*
X116876127Y-117830549D01*
X116876460Y-117829307D01*
X116884967Y-117816575D01*
X116905747Y-117750211D01*
X116884958Y-117679411D01*
X116876460Y-117666693D01*
X116876329Y-117664697D01*
X116877992Y-117663586D01*
X116879234Y-117663919D01*
G37*
G36*
X108554234Y-117663919D02*
G01*
X108589561Y-117687524D01*
X108637199Y-117697000D01*
X109961801Y-117697000D01*
X110009439Y-117687524D01*
X110044766Y-117663919D01*
X110046762Y-117663788D01*
X110047873Y-117665451D01*
X110047540Y-117666693D01*
X110039033Y-117679425D01*
X110018253Y-117745789D01*
X110039042Y-117816589D01*
X110047540Y-117829307D01*
X110047671Y-117831303D01*
X110046008Y-117832414D01*
X110044766Y-117832081D01*
X110009439Y-117808476D01*
X109961801Y-117799000D01*
X108637199Y-117799000D01*
X108589561Y-117808476D01*
X108554234Y-117832081D01*
X108552238Y-117832212D01*
X108551127Y-117830549D01*
X108551460Y-117829307D01*
X108559967Y-117816575D01*
X108580747Y-117750211D01*
X108559958Y-117679411D01*
X108551460Y-117666693D01*
X108551329Y-117664697D01*
X108552992Y-117663586D01*
X108554234Y-117663919D01*
G37*
G36*
X116879234Y-117163919D02*
G01*
X116914561Y-117187524D01*
X116962199Y-117197000D01*
X118286801Y-117197000D01*
X118334439Y-117187524D01*
X118369766Y-117163919D01*
X118371762Y-117163788D01*
X118372873Y-117165451D01*
X118372540Y-117166693D01*
X118364033Y-117179425D01*
X118343253Y-117245789D01*
X118364042Y-117316589D01*
X118372540Y-117329307D01*
X118372671Y-117331303D01*
X118371008Y-117332414D01*
X118369766Y-117332081D01*
X118334439Y-117308476D01*
X118286801Y-117299000D01*
X116962199Y-117299000D01*
X116914561Y-117308476D01*
X116879234Y-117332081D01*
X116877238Y-117332212D01*
X116876127Y-117330549D01*
X116876460Y-117329307D01*
X116884967Y-117316575D01*
X116905747Y-117250211D01*
X116884958Y-117179411D01*
X116876460Y-117166693D01*
X116876329Y-117164697D01*
X116877992Y-117163586D01*
X116879234Y-117163919D01*
G37*
G36*
X108554234Y-117163919D02*
G01*
X108589561Y-117187524D01*
X108637199Y-117197000D01*
X109961801Y-117197000D01*
X110009439Y-117187524D01*
X110044766Y-117163919D01*
X110046762Y-117163788D01*
X110047873Y-117165451D01*
X110047540Y-117166693D01*
X110039033Y-117179425D01*
X110018253Y-117245789D01*
X110039042Y-117316589D01*
X110047540Y-117329307D01*
X110047671Y-117331303D01*
X110046008Y-117332414D01*
X110044766Y-117332081D01*
X110009439Y-117308476D01*
X109961801Y-117299000D01*
X108637199Y-117299000D01*
X108589561Y-117308476D01*
X108554234Y-117332081D01*
X108552238Y-117332212D01*
X108551127Y-117330549D01*
X108551460Y-117329307D01*
X108559967Y-117316575D01*
X108580747Y-117250211D01*
X108559958Y-117179411D01*
X108551460Y-117166693D01*
X108551329Y-117164697D01*
X108552992Y-117163586D01*
X108554234Y-117163919D01*
G37*
G36*
X116879234Y-116663919D02*
G01*
X116914561Y-116687524D01*
X116962199Y-116697000D01*
X118286801Y-116697000D01*
X118334439Y-116687524D01*
X118369766Y-116663919D01*
X118371762Y-116663788D01*
X118372873Y-116665451D01*
X118372540Y-116666693D01*
X118364033Y-116679425D01*
X118343253Y-116745789D01*
X118364042Y-116816589D01*
X118372540Y-116829307D01*
X118372671Y-116831303D01*
X118371008Y-116832414D01*
X118369766Y-116832081D01*
X118334439Y-116808476D01*
X118286801Y-116799000D01*
X116962199Y-116799000D01*
X116914561Y-116808476D01*
X116879234Y-116832081D01*
X116877238Y-116832212D01*
X116876127Y-116830549D01*
X116876460Y-116829307D01*
X116884967Y-116816575D01*
X116905747Y-116750211D01*
X116884958Y-116679411D01*
X116876460Y-116666693D01*
X116876329Y-116664697D01*
X116877992Y-116663586D01*
X116879234Y-116663919D01*
G37*
G36*
X108554234Y-116663919D02*
G01*
X108589561Y-116687524D01*
X108637199Y-116697000D01*
X109961801Y-116697000D01*
X110009439Y-116687524D01*
X110044766Y-116663919D01*
X110046762Y-116663788D01*
X110047873Y-116665451D01*
X110047540Y-116666693D01*
X110039033Y-116679425D01*
X110018253Y-116745789D01*
X110039042Y-116816589D01*
X110047540Y-116829307D01*
X110047671Y-116831303D01*
X110046008Y-116832414D01*
X110044766Y-116832081D01*
X110009439Y-116808476D01*
X109961801Y-116799000D01*
X108637199Y-116799000D01*
X108589561Y-116808476D01*
X108554234Y-116832081D01*
X108552238Y-116832212D01*
X108551127Y-116830549D01*
X108551460Y-116829307D01*
X108559967Y-116816575D01*
X108580747Y-116750211D01*
X108559958Y-116679411D01*
X108551460Y-116666693D01*
X108551329Y-116664697D01*
X108552992Y-116663586D01*
X108554234Y-116663919D01*
G37*
G36*
X116879234Y-116163919D02*
G01*
X116914561Y-116187524D01*
X116962199Y-116197000D01*
X118286801Y-116197000D01*
X118334439Y-116187524D01*
X118369766Y-116163919D01*
X118371762Y-116163788D01*
X118372873Y-116165451D01*
X118372540Y-116166693D01*
X118364033Y-116179425D01*
X118343253Y-116245789D01*
X118364042Y-116316589D01*
X118372540Y-116329307D01*
X118372671Y-116331303D01*
X118371008Y-116332414D01*
X118369766Y-116332081D01*
X118334439Y-116308476D01*
X118286801Y-116299000D01*
X116962199Y-116299000D01*
X116914561Y-116308476D01*
X116879234Y-116332081D01*
X116877238Y-116332212D01*
X116876127Y-116330549D01*
X116876460Y-116329307D01*
X116884967Y-116316575D01*
X116905747Y-116250211D01*
X116884958Y-116179411D01*
X116876460Y-116166693D01*
X116876329Y-116164697D01*
X116877992Y-116163586D01*
X116879234Y-116163919D01*
G37*
G36*
X108554234Y-116163919D02*
G01*
X108589561Y-116187524D01*
X108637199Y-116197000D01*
X109961801Y-116197000D01*
X110009439Y-116187524D01*
X110044766Y-116163919D01*
X110046762Y-116163788D01*
X110047873Y-116165451D01*
X110047540Y-116166693D01*
X110039033Y-116179425D01*
X110018253Y-116245789D01*
X110039042Y-116316589D01*
X110047540Y-116329307D01*
X110047671Y-116331303D01*
X110046008Y-116332414D01*
X110044766Y-116332081D01*
X110009439Y-116308476D01*
X109961801Y-116299000D01*
X108637199Y-116299000D01*
X108589561Y-116308476D01*
X108554234Y-116332081D01*
X108552238Y-116332212D01*
X108551127Y-116330549D01*
X108551460Y-116329307D01*
X108559967Y-116316575D01*
X108580747Y-116250211D01*
X108559958Y-116179411D01*
X108551460Y-116166693D01*
X108551329Y-116164697D01*
X108552992Y-116163586D01*
X108554234Y-116163919D01*
G37*
G36*
X116879234Y-115663919D02*
G01*
X116914561Y-115687524D01*
X116962199Y-115697000D01*
X118286801Y-115697000D01*
X118334439Y-115687524D01*
X118369766Y-115663919D01*
X118371762Y-115663788D01*
X118372873Y-115665451D01*
X118372540Y-115666693D01*
X118364033Y-115679425D01*
X118343253Y-115745789D01*
X118364042Y-115816589D01*
X118372540Y-115829307D01*
X118372671Y-115831303D01*
X118371008Y-115832414D01*
X118369766Y-115832081D01*
X118334439Y-115808476D01*
X118286801Y-115799000D01*
X116962199Y-115799000D01*
X116914561Y-115808476D01*
X116879234Y-115832081D01*
X116877238Y-115832212D01*
X116876127Y-115830549D01*
X116876460Y-115829307D01*
X116884967Y-115816575D01*
X116905747Y-115750211D01*
X116884958Y-115679411D01*
X116876460Y-115666693D01*
X116876329Y-115664697D01*
X116877992Y-115663586D01*
X116879234Y-115663919D01*
G37*
G36*
X108554234Y-115663919D02*
G01*
X108589561Y-115687524D01*
X108637199Y-115697000D01*
X109961801Y-115697000D01*
X110009439Y-115687524D01*
X110044766Y-115663919D01*
X110046762Y-115663788D01*
X110047873Y-115665451D01*
X110047540Y-115666693D01*
X110039033Y-115679425D01*
X110018253Y-115745789D01*
X110039042Y-115816589D01*
X110047540Y-115829307D01*
X110047671Y-115831303D01*
X110046008Y-115832414D01*
X110044766Y-115832081D01*
X110009439Y-115808476D01*
X109961801Y-115799000D01*
X108637199Y-115799000D01*
X108589561Y-115808476D01*
X108554234Y-115832081D01*
X108552238Y-115832212D01*
X108551127Y-115830549D01*
X108551460Y-115829307D01*
X108559967Y-115816575D01*
X108580747Y-115750211D01*
X108559958Y-115679411D01*
X108551460Y-115666693D01*
X108551329Y-115664697D01*
X108552992Y-115663586D01*
X108554234Y-115663919D01*
G37*
G36*
X108554234Y-115163919D02*
G01*
X108589561Y-115187524D01*
X108637199Y-115197000D01*
X109961801Y-115197000D01*
X110009439Y-115187524D01*
X110044766Y-115163919D01*
X110046762Y-115163788D01*
X110047873Y-115165451D01*
X110047540Y-115166693D01*
X110039033Y-115179425D01*
X110018253Y-115245789D01*
X110039042Y-115316589D01*
X110047540Y-115329307D01*
X110047671Y-115331303D01*
X110046008Y-115332414D01*
X110044766Y-115332081D01*
X110009439Y-115308476D01*
X109961801Y-115299000D01*
X108637199Y-115299000D01*
X108589561Y-115308476D01*
X108554234Y-115332081D01*
X108552238Y-115332212D01*
X108551127Y-115330549D01*
X108551460Y-115329307D01*
X108559967Y-115316575D01*
X108580747Y-115250211D01*
X108559958Y-115179411D01*
X108551460Y-115166693D01*
X108551329Y-115164697D01*
X108552992Y-115163586D01*
X108554234Y-115163919D01*
G37*
G36*
X116879234Y-115163919D02*
G01*
X116914561Y-115187524D01*
X116962199Y-115197000D01*
X118286801Y-115197000D01*
X118334439Y-115187524D01*
X118369766Y-115163919D01*
X118371762Y-115163788D01*
X118372873Y-115165451D01*
X118372540Y-115166693D01*
X118364033Y-115179425D01*
X118343253Y-115245789D01*
X118364042Y-115316589D01*
X118372540Y-115329307D01*
X118372671Y-115331303D01*
X118371008Y-115332414D01*
X118369766Y-115332081D01*
X118334439Y-115308476D01*
X118286801Y-115299000D01*
X116962199Y-115299000D01*
X116914561Y-115308476D01*
X116879234Y-115332081D01*
X116877238Y-115332212D01*
X116876127Y-115330549D01*
X116876460Y-115329307D01*
X116884967Y-115316575D01*
X116905747Y-115250211D01*
X116884958Y-115179411D01*
X116876460Y-115166693D01*
X116876329Y-115164697D01*
X116877992Y-115163586D01*
X116879234Y-115163919D01*
G37*
G36*
X108554234Y-114663919D02*
G01*
X108589561Y-114687524D01*
X108637199Y-114697000D01*
X109961801Y-114697000D01*
X110009439Y-114687524D01*
X110044766Y-114663919D01*
X110046762Y-114663788D01*
X110047873Y-114665451D01*
X110047540Y-114666693D01*
X110039033Y-114679425D01*
X110018253Y-114745789D01*
X110039042Y-114816589D01*
X110047540Y-114829307D01*
X110047671Y-114831303D01*
X110046008Y-114832414D01*
X110044766Y-114832081D01*
X110009439Y-114808476D01*
X109961801Y-114799000D01*
X108637199Y-114799000D01*
X108589561Y-114808476D01*
X108554234Y-114832081D01*
X108552238Y-114832212D01*
X108551127Y-114830549D01*
X108551460Y-114829307D01*
X108559967Y-114816575D01*
X108580747Y-114750211D01*
X108559958Y-114679411D01*
X108551460Y-114666693D01*
X108551329Y-114664697D01*
X108552992Y-114663586D01*
X108554234Y-114663919D01*
G37*
G36*
X116879234Y-114663919D02*
G01*
X116914561Y-114687524D01*
X116962199Y-114697000D01*
X118286801Y-114697000D01*
X118334439Y-114687524D01*
X118369766Y-114663919D01*
X118371762Y-114663788D01*
X118372873Y-114665451D01*
X118372540Y-114666693D01*
X118364033Y-114679425D01*
X118343253Y-114745789D01*
X118364042Y-114816589D01*
X118372540Y-114829307D01*
X118372671Y-114831303D01*
X118371008Y-114832414D01*
X118369766Y-114832081D01*
X118334439Y-114808476D01*
X118286801Y-114799000D01*
X116962199Y-114799000D01*
X116914561Y-114808476D01*
X116879234Y-114832081D01*
X116877238Y-114832212D01*
X116876127Y-114830549D01*
X116876460Y-114829307D01*
X116884967Y-114816575D01*
X116905747Y-114750211D01*
X116884958Y-114679411D01*
X116876460Y-114666693D01*
X116876329Y-114664697D01*
X116877992Y-114663586D01*
X116879234Y-114663919D01*
G37*
G36*
X116879234Y-114163919D02*
G01*
X116914561Y-114187524D01*
X116962199Y-114197000D01*
X118286801Y-114197000D01*
X118334439Y-114187524D01*
X118369766Y-114163919D01*
X118371762Y-114163788D01*
X118372873Y-114165451D01*
X118372540Y-114166693D01*
X118364033Y-114179425D01*
X118343253Y-114245789D01*
X118364042Y-114316589D01*
X118372540Y-114329307D01*
X118372671Y-114331303D01*
X118371008Y-114332414D01*
X118369766Y-114332081D01*
X118334439Y-114308476D01*
X118286801Y-114299000D01*
X116962199Y-114299000D01*
X116914561Y-114308476D01*
X116879234Y-114332081D01*
X116877238Y-114332212D01*
X116876127Y-114330549D01*
X116876460Y-114329307D01*
X116884967Y-114316575D01*
X116905747Y-114250211D01*
X116884958Y-114179411D01*
X116876460Y-114166693D01*
X116876329Y-114164697D01*
X116877992Y-114163586D01*
X116879234Y-114163919D01*
G37*
G36*
X108554234Y-114163919D02*
G01*
X108589561Y-114187524D01*
X108637199Y-114197000D01*
X109961801Y-114197000D01*
X110009439Y-114187524D01*
X110044766Y-114163919D01*
X110046762Y-114163788D01*
X110047873Y-114165451D01*
X110047540Y-114166693D01*
X110039033Y-114179425D01*
X110018253Y-114245789D01*
X110039042Y-114316589D01*
X110047540Y-114329307D01*
X110047671Y-114331303D01*
X110046008Y-114332414D01*
X110044766Y-114332081D01*
X110009439Y-114308476D01*
X109961801Y-114299000D01*
X108637199Y-114299000D01*
X108589561Y-114308476D01*
X108554234Y-114332081D01*
X108552238Y-114332212D01*
X108551127Y-114330549D01*
X108551460Y-114329307D01*
X108559967Y-114316575D01*
X108580747Y-114250211D01*
X108559958Y-114179411D01*
X108551460Y-114166693D01*
X108551329Y-114164697D01*
X108552992Y-114163586D01*
X108554234Y-114163919D01*
G37*
G36*
X80140633Y-112532517D02*
G01*
X80141197Y-112534436D01*
X80140916Y-112535075D01*
X80130767Y-112550263D01*
X80127000Y-112569199D01*
X80127000Y-114018801D01*
X80130767Y-114037738D01*
X80140814Y-114052773D01*
X80140945Y-114054768D01*
X80139282Y-114055880D01*
X80138553Y-114055793D01*
X80078212Y-114036898D01*
X80013310Y-114055955D01*
X80011367Y-114055483D01*
X80010803Y-114053564D01*
X80011084Y-114052925D01*
X80021233Y-114037737D01*
X80025000Y-114018801D01*
X80025000Y-112569199D01*
X80021233Y-112550262D01*
X80011186Y-112535227D01*
X80011055Y-112533232D01*
X80012718Y-112532120D01*
X80013447Y-112532207D01*
X80073788Y-112551102D01*
X80138690Y-112532045D01*
X80140633Y-112532517D01*
G37*
G36*
X78840633Y-112532517D02*
G01*
X78841197Y-112534436D01*
X78840916Y-112535075D01*
X78830767Y-112550263D01*
X78827000Y-112569199D01*
X78827000Y-114018801D01*
X78830767Y-114037738D01*
X78840814Y-114052773D01*
X78840945Y-114054768D01*
X78839282Y-114055880D01*
X78838553Y-114055793D01*
X78778212Y-114036898D01*
X78713310Y-114055955D01*
X78711367Y-114055483D01*
X78710803Y-114053564D01*
X78711084Y-114052925D01*
X78721233Y-114037737D01*
X78725000Y-114018801D01*
X78725000Y-112569199D01*
X78721233Y-112550262D01*
X78711186Y-112535227D01*
X78711055Y-112533232D01*
X78712718Y-112532120D01*
X78713447Y-112532207D01*
X78773788Y-112551102D01*
X78838690Y-112532045D01*
X78840633Y-112532517D01*
G37*
G36*
X79490633Y-112532517D02*
G01*
X79491197Y-112534436D01*
X79490916Y-112535075D01*
X79480767Y-112550263D01*
X79477000Y-112569199D01*
X79477000Y-114018801D01*
X79480767Y-114037738D01*
X79490814Y-114052773D01*
X79490945Y-114054768D01*
X79489282Y-114055880D01*
X79488553Y-114055793D01*
X79428212Y-114036898D01*
X79363310Y-114055955D01*
X79361367Y-114055483D01*
X79360803Y-114053564D01*
X79361084Y-114052925D01*
X79371233Y-114037737D01*
X79375000Y-114018801D01*
X79375000Y-112569199D01*
X79371233Y-112550262D01*
X79361186Y-112535227D01*
X79361055Y-112533232D01*
X79362718Y-112532120D01*
X79363447Y-112532207D01*
X79423788Y-112551102D01*
X79488690Y-112532045D01*
X79490633Y-112532517D01*
G37*
G36*
X116879234Y-113663919D02*
G01*
X116914561Y-113687524D01*
X116962199Y-113697000D01*
X118286801Y-113697000D01*
X118334439Y-113687524D01*
X118369766Y-113663919D01*
X118371762Y-113663788D01*
X118372873Y-113665451D01*
X118372540Y-113666693D01*
X118364033Y-113679425D01*
X118343253Y-113745789D01*
X118364042Y-113816589D01*
X118372540Y-113829307D01*
X118372671Y-113831303D01*
X118371008Y-113832414D01*
X118369766Y-113832081D01*
X118334439Y-113808476D01*
X118286801Y-113799000D01*
X116962199Y-113799000D01*
X116914561Y-113808476D01*
X116879234Y-113832081D01*
X116877238Y-113832212D01*
X116876127Y-113830549D01*
X116876460Y-113829307D01*
X116884967Y-113816575D01*
X116905747Y-113750211D01*
X116884958Y-113679411D01*
X116876460Y-113666693D01*
X116876329Y-113664697D01*
X116877992Y-113663586D01*
X116879234Y-113663919D01*
G37*
G36*
X108554234Y-113663919D02*
G01*
X108589561Y-113687524D01*
X108637199Y-113697000D01*
X109961801Y-113697000D01*
X110009439Y-113687524D01*
X110044766Y-113663919D01*
X110046762Y-113663788D01*
X110047873Y-113665451D01*
X110047540Y-113666693D01*
X110039033Y-113679425D01*
X110018253Y-113745789D01*
X110039042Y-113816589D01*
X110047540Y-113829307D01*
X110047671Y-113831303D01*
X110046008Y-113832414D01*
X110044766Y-113832081D01*
X110009439Y-113808476D01*
X109961801Y-113799000D01*
X108637199Y-113799000D01*
X108589561Y-113808476D01*
X108554234Y-113832081D01*
X108552238Y-113832212D01*
X108551127Y-113830549D01*
X108551460Y-113829307D01*
X108559967Y-113816575D01*
X108580747Y-113750211D01*
X108559958Y-113679411D01*
X108551460Y-113666693D01*
X108551329Y-113664697D01*
X108552992Y-113663586D01*
X108554234Y-113663919D01*
G37*
G36*
X108554234Y-113163919D02*
G01*
X108589561Y-113187524D01*
X108637199Y-113197000D01*
X109961801Y-113197000D01*
X110009439Y-113187524D01*
X110044766Y-113163919D01*
X110046762Y-113163788D01*
X110047873Y-113165451D01*
X110047540Y-113166693D01*
X110039033Y-113179425D01*
X110018253Y-113245789D01*
X110039042Y-113316589D01*
X110047540Y-113329307D01*
X110047671Y-113331303D01*
X110046008Y-113332414D01*
X110044766Y-113332081D01*
X110009439Y-113308476D01*
X109961801Y-113299000D01*
X108637199Y-113299000D01*
X108589561Y-113308476D01*
X108554234Y-113332081D01*
X108552238Y-113332212D01*
X108551127Y-113330549D01*
X108551460Y-113329307D01*
X108559967Y-113316575D01*
X108580747Y-113250211D01*
X108559958Y-113179411D01*
X108551460Y-113166693D01*
X108551329Y-113164697D01*
X108552992Y-113163586D01*
X108554234Y-113163919D01*
G37*
G36*
X116879234Y-113163919D02*
G01*
X116914561Y-113187524D01*
X116962199Y-113197000D01*
X118286801Y-113197000D01*
X118334439Y-113187524D01*
X118369766Y-113163919D01*
X118371762Y-113163788D01*
X118372873Y-113165451D01*
X118372540Y-113166693D01*
X118364033Y-113179425D01*
X118343253Y-113245789D01*
X118364042Y-113316589D01*
X118372540Y-113329307D01*
X118372671Y-113331303D01*
X118371008Y-113332414D01*
X118369766Y-113332081D01*
X118334439Y-113308476D01*
X118286801Y-113299000D01*
X116962199Y-113299000D01*
X116914561Y-113308476D01*
X116879234Y-113332081D01*
X116877238Y-113332212D01*
X116876127Y-113330549D01*
X116876460Y-113329307D01*
X116884967Y-113316575D01*
X116905747Y-113250211D01*
X116884958Y-113179411D01*
X116876460Y-113166693D01*
X116876329Y-113164697D01*
X116877992Y-113163586D01*
X116879234Y-113163919D01*
G37*
G36*
X112380693Y-110837460D02*
G01*
X112393425Y-110845967D01*
X112459789Y-110866747D01*
X112530589Y-110845958D01*
X112543307Y-110837460D01*
X112545303Y-110837329D01*
X112546414Y-110838992D01*
X112546081Y-110840234D01*
X112522476Y-110875561D01*
X112513000Y-110923199D01*
X112513000Y-112247801D01*
X112522476Y-112295439D01*
X112546081Y-112330766D01*
X112546212Y-112332762D01*
X112544549Y-112333873D01*
X112543307Y-112333540D01*
X112530575Y-112325033D01*
X112464211Y-112304253D01*
X112393411Y-112325042D01*
X112380693Y-112333540D01*
X112378697Y-112333671D01*
X112377586Y-112332008D01*
X112377919Y-112330766D01*
X112401524Y-112295439D01*
X112411000Y-112247801D01*
X112411000Y-110923199D01*
X112401524Y-110875561D01*
X112377919Y-110840234D01*
X112377788Y-110838238D01*
X112379451Y-110837127D01*
X112380693Y-110837460D01*
G37*
G36*
X115380693Y-110837460D02*
G01*
X115393425Y-110845967D01*
X115459789Y-110866747D01*
X115530589Y-110845958D01*
X115543307Y-110837460D01*
X115545303Y-110837329D01*
X115546414Y-110838992D01*
X115546081Y-110840234D01*
X115522476Y-110875561D01*
X115513000Y-110923199D01*
X115513000Y-112247801D01*
X115522476Y-112295439D01*
X115546081Y-112330766D01*
X115546212Y-112332762D01*
X115544549Y-112333873D01*
X115543307Y-112333540D01*
X115530575Y-112325033D01*
X115464211Y-112304253D01*
X115393411Y-112325042D01*
X115380693Y-112333540D01*
X115378697Y-112333671D01*
X115377586Y-112332008D01*
X115377919Y-112330766D01*
X115401524Y-112295439D01*
X115411000Y-112247801D01*
X115411000Y-110923199D01*
X115401524Y-110875561D01*
X115377919Y-110840234D01*
X115377788Y-110838238D01*
X115379451Y-110837127D01*
X115380693Y-110837460D01*
G37*
G36*
X111880693Y-110837460D02*
G01*
X111893425Y-110845967D01*
X111959789Y-110866747D01*
X112030589Y-110845958D01*
X112043307Y-110837460D01*
X112045303Y-110837329D01*
X112046414Y-110838992D01*
X112046081Y-110840234D01*
X112022476Y-110875561D01*
X112013000Y-110923199D01*
X112013000Y-112247801D01*
X112022476Y-112295439D01*
X112046081Y-112330766D01*
X112046212Y-112332762D01*
X112044549Y-112333873D01*
X112043307Y-112333540D01*
X112030575Y-112325033D01*
X111964211Y-112304253D01*
X111893411Y-112325042D01*
X111880693Y-112333540D01*
X111878697Y-112333671D01*
X111877586Y-112332008D01*
X111877919Y-112330766D01*
X111901524Y-112295439D01*
X111911000Y-112247801D01*
X111911000Y-110923199D01*
X111901524Y-110875561D01*
X111877919Y-110840234D01*
X111877788Y-110838238D01*
X111879451Y-110837127D01*
X111880693Y-110837460D01*
G37*
G36*
X114380693Y-110837460D02*
G01*
X114393425Y-110845967D01*
X114459789Y-110866747D01*
X114530589Y-110845958D01*
X114543307Y-110837460D01*
X114545303Y-110837329D01*
X114546414Y-110838992D01*
X114546081Y-110840234D01*
X114522476Y-110875561D01*
X114513000Y-110923199D01*
X114513000Y-112247801D01*
X114522476Y-112295439D01*
X114546081Y-112330766D01*
X114546212Y-112332762D01*
X114544549Y-112333873D01*
X114543307Y-112333540D01*
X114530575Y-112325033D01*
X114464211Y-112304253D01*
X114393411Y-112325042D01*
X114380693Y-112333540D01*
X114378697Y-112333671D01*
X114377586Y-112332008D01*
X114377919Y-112330766D01*
X114401524Y-112295439D01*
X114411000Y-112247801D01*
X114411000Y-110923199D01*
X114401524Y-110875561D01*
X114377919Y-110840234D01*
X114377788Y-110838238D01*
X114379451Y-110837127D01*
X114380693Y-110837460D01*
G37*
G36*
X113880693Y-110837460D02*
G01*
X113893425Y-110845967D01*
X113959789Y-110866747D01*
X114030589Y-110845958D01*
X114043307Y-110837460D01*
X114045303Y-110837329D01*
X114046414Y-110838992D01*
X114046081Y-110840234D01*
X114022476Y-110875561D01*
X114013000Y-110923199D01*
X114013000Y-112247801D01*
X114022476Y-112295439D01*
X114046081Y-112330766D01*
X114046212Y-112332762D01*
X114044549Y-112333873D01*
X114043307Y-112333540D01*
X114030575Y-112325033D01*
X113964211Y-112304253D01*
X113893411Y-112325042D01*
X113880693Y-112333540D01*
X113878697Y-112333671D01*
X113877586Y-112332008D01*
X113877919Y-112330766D01*
X113901524Y-112295439D01*
X113911000Y-112247801D01*
X113911000Y-110923199D01*
X113901524Y-110875561D01*
X113877919Y-110840234D01*
X113877788Y-110838238D01*
X113879451Y-110837127D01*
X113880693Y-110837460D01*
G37*
G36*
X115880693Y-110837460D02*
G01*
X115893425Y-110845967D01*
X115959789Y-110866747D01*
X116030589Y-110845958D01*
X116043307Y-110837460D01*
X116045303Y-110837329D01*
X116046414Y-110838992D01*
X116046081Y-110840234D01*
X116022476Y-110875561D01*
X116013000Y-110923199D01*
X116013000Y-112247801D01*
X116022476Y-112295439D01*
X116046081Y-112330766D01*
X116046212Y-112332762D01*
X116044549Y-112333873D01*
X116043307Y-112333540D01*
X116030575Y-112325033D01*
X115964211Y-112304253D01*
X115893411Y-112325042D01*
X115880693Y-112333540D01*
X115878697Y-112333671D01*
X115877586Y-112332008D01*
X115877919Y-112330766D01*
X115901524Y-112295439D01*
X115911000Y-112247801D01*
X115911000Y-110923199D01*
X115901524Y-110875561D01*
X115877919Y-110840234D01*
X115877788Y-110838238D01*
X115879451Y-110837127D01*
X115880693Y-110837460D01*
G37*
G36*
X111380693Y-110837460D02*
G01*
X111393425Y-110845967D01*
X111459789Y-110866747D01*
X111530589Y-110845958D01*
X111543307Y-110837460D01*
X111545303Y-110837329D01*
X111546414Y-110838992D01*
X111546081Y-110840234D01*
X111522476Y-110875561D01*
X111513000Y-110923199D01*
X111513000Y-112247801D01*
X111522476Y-112295439D01*
X111546081Y-112330766D01*
X111546212Y-112332762D01*
X111544549Y-112333873D01*
X111543307Y-112333540D01*
X111530575Y-112325033D01*
X111464211Y-112304253D01*
X111393411Y-112325042D01*
X111380693Y-112333540D01*
X111378697Y-112333671D01*
X111377586Y-112332008D01*
X111377919Y-112330766D01*
X111401524Y-112295439D01*
X111411000Y-112247801D01*
X111411000Y-110923199D01*
X111401524Y-110875561D01*
X111377919Y-110840234D01*
X111377788Y-110838238D01*
X111379451Y-110837127D01*
X111380693Y-110837460D01*
G37*
G36*
X110880693Y-110837460D02*
G01*
X110893425Y-110845967D01*
X110959789Y-110866747D01*
X111030589Y-110845958D01*
X111043307Y-110837460D01*
X111045303Y-110837329D01*
X111046414Y-110838992D01*
X111046081Y-110840234D01*
X111022476Y-110875561D01*
X111013000Y-110923199D01*
X111013000Y-112247801D01*
X111022476Y-112295439D01*
X111046081Y-112330766D01*
X111046212Y-112332762D01*
X111044549Y-112333873D01*
X111043307Y-112333540D01*
X111030575Y-112325033D01*
X110964211Y-112304253D01*
X110893411Y-112325042D01*
X110880693Y-112333540D01*
X110878697Y-112333671D01*
X110877586Y-112332008D01*
X110877919Y-112330766D01*
X110901524Y-112295439D01*
X110911000Y-112247801D01*
X110911000Y-110923199D01*
X110901524Y-110875561D01*
X110877919Y-110840234D01*
X110877788Y-110838238D01*
X110879451Y-110837127D01*
X110880693Y-110837460D01*
G37*
G36*
X112880693Y-110837460D02*
G01*
X112893425Y-110845967D01*
X112959789Y-110866747D01*
X113030589Y-110845958D01*
X113043307Y-110837460D01*
X113045303Y-110837329D01*
X113046414Y-110838992D01*
X113046081Y-110840234D01*
X113022476Y-110875561D01*
X113013000Y-110923199D01*
X113013000Y-112247801D01*
X113022476Y-112295439D01*
X113046081Y-112330766D01*
X113046212Y-112332762D01*
X113044549Y-112333873D01*
X113043307Y-112333540D01*
X113030575Y-112325033D01*
X112964211Y-112304253D01*
X112893411Y-112325042D01*
X112880693Y-112333540D01*
X112878697Y-112333671D01*
X112877586Y-112332008D01*
X112877919Y-112330766D01*
X112901524Y-112295439D01*
X112911000Y-112247801D01*
X112911000Y-110923199D01*
X112901524Y-110875561D01*
X112877919Y-110840234D01*
X112877788Y-110838238D01*
X112879451Y-110837127D01*
X112880693Y-110837460D01*
G37*
G36*
X114880693Y-110837460D02*
G01*
X114893425Y-110845967D01*
X114959789Y-110866747D01*
X115030589Y-110845958D01*
X115043307Y-110837460D01*
X115045303Y-110837329D01*
X115046414Y-110838992D01*
X115046081Y-110840234D01*
X115022476Y-110875561D01*
X115013000Y-110923199D01*
X115013000Y-112247801D01*
X115022476Y-112295439D01*
X115046081Y-112330766D01*
X115046212Y-112332762D01*
X115044549Y-112333873D01*
X115043307Y-112333540D01*
X115030575Y-112325033D01*
X114964211Y-112304253D01*
X114893411Y-112325042D01*
X114880693Y-112333540D01*
X114878697Y-112333671D01*
X114877586Y-112332008D01*
X114877919Y-112330766D01*
X114901524Y-112295439D01*
X114911000Y-112247801D01*
X114911000Y-110923199D01*
X114901524Y-110875561D01*
X114877919Y-110840234D01*
X114877788Y-110838238D01*
X114879451Y-110837127D01*
X114880693Y-110837460D01*
G37*
G36*
X113380693Y-110837460D02*
G01*
X113393425Y-110845967D01*
X113459789Y-110866747D01*
X113530589Y-110845958D01*
X113543307Y-110837460D01*
X113545303Y-110837329D01*
X113546414Y-110838992D01*
X113546081Y-110840234D01*
X113522476Y-110875561D01*
X113513000Y-110923199D01*
X113513000Y-112247801D01*
X113522476Y-112295439D01*
X113546081Y-112330766D01*
X113546212Y-112332762D01*
X113544549Y-112333873D01*
X113543307Y-112333540D01*
X113530575Y-112325033D01*
X113464211Y-112304253D01*
X113393411Y-112325042D01*
X113380693Y-112333540D01*
X113378697Y-112333671D01*
X113377586Y-112332008D01*
X113377919Y-112330766D01*
X113401524Y-112295439D01*
X113411000Y-112247801D01*
X113411000Y-110923199D01*
X113401524Y-110875561D01*
X113377919Y-110840234D01*
X113377788Y-110838238D01*
X113379451Y-110837127D01*
X113380693Y-110837460D01*
G37*
G36*
X98682919Y-99202267D02*
G01*
X98702595Y-99269279D01*
X98754938Y-99314634D01*
X98823491Y-99324491D01*
X98886647Y-99295648D01*
X98906702Y-99273450D01*
X98928559Y-99242350D01*
X98928880Y-99241993D01*
X98937637Y-99234354D01*
X98939600Y-99233969D01*
X98940915Y-99235476D01*
X98940539Y-99237079D01*
X98859255Y-99343010D01*
X98800916Y-99483854D01*
X98781000Y-99635132D01*
X98781000Y-100364868D01*
X98800916Y-100516146D01*
X98859255Y-100656990D01*
X98938646Y-100760455D01*
X98938907Y-100762438D01*
X98937320Y-100763656D01*
X98935728Y-100763166D01*
X98924790Y-100753420D01*
X98924473Y-100753060D01*
X98907528Y-100728406D01*
X98853578Y-100684506D01*
X98784750Y-100676775D01*
X98722671Y-100707481D01*
X98686962Y-100767018D01*
X98682984Y-100798092D01*
X98681772Y-100799683D01*
X98679788Y-100799429D01*
X98679000Y-100797838D01*
X98679000Y-99202830D01*
X98680000Y-99201098D01*
X98682000Y-99201098D01*
X98682919Y-99202267D01*
G37*
G36*
X101394359Y-99353141D02*
G01*
X101394393Y-99354748D01*
X101340916Y-99483854D01*
X101321000Y-99635132D01*
X101321000Y-100364868D01*
X101340916Y-100516146D01*
X101393204Y-100642380D01*
X101392943Y-100644363D01*
X101391095Y-100645128D01*
X101389708Y-100644278D01*
X101376993Y-100625778D01*
X101376466Y-100625820D01*
X101375730Y-100625220D01*
X101342864Y-100581704D01*
X101277869Y-100557778D01*
X101210259Y-100572789D01*
X101161329Y-100622137D01*
X101155003Y-100635800D01*
X101152504Y-100642209D01*
X101152277Y-100642633D01*
X101149091Y-100647167D01*
X101147277Y-100648009D01*
X101145641Y-100646859D01*
X101145607Y-100645252D01*
X101199084Y-100516146D01*
X101219000Y-100364868D01*
X101219000Y-99635132D01*
X101199084Y-99483854D01*
X101146796Y-99357620D01*
X101147057Y-99355637D01*
X101148905Y-99354872D01*
X101150292Y-99355722D01*
X101163007Y-99374222D01*
X101163534Y-99374180D01*
X101164270Y-99374780D01*
X101197136Y-99418296D01*
X101262131Y-99442222D01*
X101329741Y-99427211D01*
X101378671Y-99377863D01*
X101384997Y-99364200D01*
X101387496Y-99357791D01*
X101387723Y-99357367D01*
X101390909Y-99352833D01*
X101392723Y-99351991D01*
X101394359Y-99353141D01*
G37*
G36*
X100124359Y-99353141D02*
G01*
X100124393Y-99354748D01*
X100070916Y-99483854D01*
X100051000Y-99635132D01*
X100051000Y-100364868D01*
X100070916Y-100516146D01*
X100123204Y-100642380D01*
X100122943Y-100644363D01*
X100121095Y-100645128D01*
X100119708Y-100644278D01*
X100106993Y-100625778D01*
X100106466Y-100625820D01*
X100105730Y-100625220D01*
X100072864Y-100581704D01*
X100007869Y-100557778D01*
X99940259Y-100572789D01*
X99891329Y-100622137D01*
X99885003Y-100635800D01*
X99882504Y-100642209D01*
X99882277Y-100642633D01*
X99879091Y-100647167D01*
X99877277Y-100648009D01*
X99875641Y-100646859D01*
X99875607Y-100645252D01*
X99929084Y-100516146D01*
X99949000Y-100364868D01*
X99949000Y-99635132D01*
X99929084Y-99483854D01*
X99876796Y-99357620D01*
X99877057Y-99355637D01*
X99878905Y-99354872D01*
X99880292Y-99355722D01*
X99893007Y-99374222D01*
X99893534Y-99374180D01*
X99894270Y-99374780D01*
X99927136Y-99418296D01*
X99992131Y-99442222D01*
X100059741Y-99427211D01*
X100108671Y-99377863D01*
X100114997Y-99364200D01*
X100117496Y-99357791D01*
X100117723Y-99357367D01*
X100120909Y-99352833D01*
X100122723Y-99351991D01*
X100124359Y-99353141D01*
G37*
G36*
X124320884Y-86322537D02*
G01*
X124382660Y-86363815D01*
X124458999Y-86379000D01*
X125108601Y-86379000D01*
X125165685Y-86367645D01*
X125167579Y-86368288D01*
X125167969Y-86370250D01*
X125166920Y-86371420D01*
X125142565Y-86382777D01*
X125142475Y-86383800D01*
X125141646Y-86384482D01*
X125100138Y-86402844D01*
X125062002Y-86460658D01*
X125061177Y-86529944D01*
X125092725Y-86583845D01*
X125098286Y-86589406D01*
X125098685Y-86589975D01*
X125103927Y-86601217D01*
X125103752Y-86603209D01*
X125101940Y-86604054D01*
X125100451Y-86603173D01*
X125074486Y-86564314D01*
X125009940Y-86521185D01*
X124933601Y-86506000D01*
X124633999Y-86506000D01*
X124557660Y-86521185D01*
X124493114Y-86564314D01*
X124449985Y-86628860D01*
X124434800Y-86705199D01*
X124434800Y-87354801D01*
X124449985Y-87431140D01*
X124479231Y-87474909D01*
X124479362Y-87476905D01*
X124477699Y-87478016D01*
X124476154Y-87477434D01*
X124470977Y-87472257D01*
X124409928Y-87438923D01*
X124340769Y-87443869D01*
X124296672Y-87472208D01*
X124291446Y-87477434D01*
X124289514Y-87477952D01*
X124288100Y-87476538D01*
X124288369Y-87474909D01*
X124317615Y-87431140D01*
X124332800Y-87354801D01*
X124332800Y-86705199D01*
X124317615Y-86628860D01*
X124288369Y-86585091D01*
X124288238Y-86583095D01*
X124289901Y-86581984D01*
X124291446Y-86582566D01*
X124296623Y-86587743D01*
X124357672Y-86621077D01*
X124426831Y-86616131D01*
X124470928Y-86587792D01*
X124474854Y-86583866D01*
X124508188Y-86522817D01*
X124503248Y-86453735D01*
X124461723Y-86398264D01*
X124403888Y-86374710D01*
X124394560Y-86373481D01*
X124337321Y-86382406D01*
X124335456Y-86381685D01*
X124335101Y-86381016D01*
X124317861Y-86324786D01*
X124318309Y-86322837D01*
X124320221Y-86322251D01*
X124320884Y-86322537D01*
G37*
G36*
X123491446Y-86582566D02*
G01*
X123496623Y-86587743D01*
X123557672Y-86621077D01*
X123626831Y-86616131D01*
X123670928Y-86587792D01*
X123676154Y-86582566D01*
X123678086Y-86582048D01*
X123679500Y-86583462D01*
X123679231Y-86585091D01*
X123649985Y-86628860D01*
X123634800Y-86705199D01*
X123634800Y-87354801D01*
X123649985Y-87431140D01*
X123679231Y-87474909D01*
X123679362Y-87476905D01*
X123677699Y-87478016D01*
X123676154Y-87477434D01*
X123670977Y-87472257D01*
X123609928Y-87438923D01*
X123540769Y-87443869D01*
X123496672Y-87472208D01*
X123491446Y-87477434D01*
X123489514Y-87477952D01*
X123488100Y-87476538D01*
X123488369Y-87474909D01*
X123517615Y-87431140D01*
X123532800Y-87354801D01*
X123532800Y-86705199D01*
X123517615Y-86628860D01*
X123488369Y-86585091D01*
X123488238Y-86583095D01*
X123489901Y-86581984D01*
X123491446Y-86582566D01*
G37*
G36*
X122691446Y-86582566D02*
G01*
X122696623Y-86587743D01*
X122757672Y-86621077D01*
X122826831Y-86616131D01*
X122870928Y-86587792D01*
X122876154Y-86582566D01*
X122878086Y-86582048D01*
X122879500Y-86583462D01*
X122879231Y-86585091D01*
X122849985Y-86628860D01*
X122834800Y-86705199D01*
X122834800Y-87354801D01*
X122849985Y-87431140D01*
X122879231Y-87474909D01*
X122879362Y-87476905D01*
X122877699Y-87478016D01*
X122876154Y-87477434D01*
X122870977Y-87472257D01*
X122809928Y-87438923D01*
X122740769Y-87443869D01*
X122696672Y-87472208D01*
X122691446Y-87477434D01*
X122689514Y-87477952D01*
X122688100Y-87476538D01*
X122688369Y-87474909D01*
X122717615Y-87431140D01*
X122732800Y-87354801D01*
X122732800Y-86705199D01*
X122717615Y-86628860D01*
X122688369Y-86585091D01*
X122688238Y-86583095D01*
X122689901Y-86581984D01*
X122691446Y-86582566D01*
G37*
G36*
X121278908Y-86282054D02*
G01*
X121278927Y-86283784D01*
X121273685Y-86295025D01*
X121273286Y-86295594D01*
X121266446Y-86302434D01*
X121266290Y-86302476D01*
X121266285Y-86302730D01*
X121233113Y-86363482D01*
X121234533Y-86383337D01*
X121233659Y-86385136D01*
X121231839Y-86385354D01*
X121197966Y-86372720D01*
X121173226Y-86373457D01*
X121163744Y-86374706D01*
X121100135Y-86402847D01*
X121062001Y-86460662D01*
X121061179Y-86529948D01*
X121092725Y-86583845D01*
X121096623Y-86587743D01*
X121157672Y-86621077D01*
X121226831Y-86616131D01*
X121270928Y-86587792D01*
X121276154Y-86582566D01*
X121276310Y-86582524D01*
X121276315Y-86582270D01*
X121309487Y-86521518D01*
X121308067Y-86501663D01*
X121308941Y-86499864D01*
X121310761Y-86499646D01*
X121344634Y-86512280D01*
X121369369Y-86511544D01*
X121417488Y-86505210D01*
X121419336Y-86505976D01*
X121419597Y-86507958D01*
X121418139Y-86509155D01*
X121357660Y-86521185D01*
X121293114Y-86564314D01*
X121279733Y-86584339D01*
X121279322Y-86584542D01*
X121279231Y-86585091D01*
X121249985Y-86628860D01*
X121234800Y-86705199D01*
X121234800Y-87354801D01*
X121249985Y-87431140D01*
X121279231Y-87474909D01*
X121279362Y-87476905D01*
X121277699Y-87478016D01*
X121276154Y-87477434D01*
X121270977Y-87472257D01*
X121209928Y-87438923D01*
X121140769Y-87443869D01*
X121096672Y-87472208D01*
X121091446Y-87477434D01*
X121089514Y-87477952D01*
X121088100Y-87476538D01*
X121088369Y-87474909D01*
X121117615Y-87431140D01*
X121132800Y-87354801D01*
X121132800Y-86705199D01*
X121117615Y-86628860D01*
X121074486Y-86564314D01*
X121009940Y-86521185D01*
X120933601Y-86506000D01*
X120633999Y-86506000D01*
X120557660Y-86521185D01*
X120493114Y-86564314D01*
X120467149Y-86603172D01*
X120465355Y-86604057D01*
X120463692Y-86602946D01*
X120463673Y-86601216D01*
X120468915Y-86589975D01*
X120469314Y-86589406D01*
X120474854Y-86583866D01*
X120508188Y-86522817D01*
X120503248Y-86453735D01*
X120461723Y-86398264D01*
X120426317Y-86383845D01*
X120425744Y-86383108D01*
X120400680Y-86371420D01*
X120399533Y-86369781D01*
X120400378Y-86367969D01*
X120401915Y-86367645D01*
X120458999Y-86379000D01*
X121108601Y-86379000D01*
X121184940Y-86363815D01*
X121249486Y-86320686D01*
X121262867Y-86300661D01*
X121263278Y-86300458D01*
X121263369Y-86299909D01*
X121275451Y-86281828D01*
X121277245Y-86280943D01*
X121278908Y-86282054D01*
G37*
G36*
X121891446Y-86582566D02*
G01*
X121896623Y-86587743D01*
X121957672Y-86621077D01*
X122026831Y-86616131D01*
X122070928Y-86587792D01*
X122076154Y-86582566D01*
X122078086Y-86582048D01*
X122079500Y-86583462D01*
X122079231Y-86585091D01*
X122049985Y-86628860D01*
X122034800Y-86705199D01*
X122034800Y-87354801D01*
X122049985Y-87431140D01*
X122079231Y-87474909D01*
X122079362Y-87476905D01*
X122077699Y-87478016D01*
X122076154Y-87477434D01*
X122070977Y-87472257D01*
X122009928Y-87438923D01*
X121940769Y-87443869D01*
X121896672Y-87472208D01*
X121891446Y-87477434D01*
X121889514Y-87477952D01*
X121888100Y-87476538D01*
X121888369Y-87474909D01*
X121917615Y-87431140D01*
X121932800Y-87354801D01*
X121932800Y-86705199D01*
X121917615Y-86628860D01*
X121888369Y-86585091D01*
X121888238Y-86583095D01*
X121889901Y-86581984D01*
X121891446Y-86582566D01*
G37*
G36*
X124291446Y-84582566D02*
G01*
X124296623Y-84587743D01*
X124357672Y-84621077D01*
X124426831Y-84616131D01*
X124470928Y-84587792D01*
X124476154Y-84582566D01*
X124478086Y-84582048D01*
X124479500Y-84583462D01*
X124479231Y-84585091D01*
X124449985Y-84628860D01*
X124434800Y-84705199D01*
X124434800Y-85354801D01*
X124449985Y-85431140D01*
X124493114Y-85495686D01*
X124557660Y-85538815D01*
X124633999Y-85554000D01*
X124933601Y-85554000D01*
X125009940Y-85538815D01*
X125074486Y-85495686D01*
X125100451Y-85456828D01*
X125102245Y-85455943D01*
X125103908Y-85457054D01*
X125103927Y-85458784D01*
X125098685Y-85470025D01*
X125098286Y-85470594D01*
X125092746Y-85476134D01*
X125059412Y-85537183D01*
X125064352Y-85606265D01*
X125105877Y-85661736D01*
X125141283Y-85676155D01*
X125141856Y-85676892D01*
X125166920Y-85688580D01*
X125168067Y-85690219D01*
X125167222Y-85692031D01*
X125165685Y-85692355D01*
X125108601Y-85681000D01*
X124458999Y-85681000D01*
X124382660Y-85696185D01*
X124318114Y-85739314D01*
X124304733Y-85759339D01*
X124304322Y-85759542D01*
X124304231Y-85760091D01*
X124292149Y-85778172D01*
X124290355Y-85779057D01*
X124288692Y-85777946D01*
X124288673Y-85776216D01*
X124293915Y-85764975D01*
X124294314Y-85764406D01*
X124301154Y-85757566D01*
X124301310Y-85757524D01*
X124301315Y-85757270D01*
X124334487Y-85696518D01*
X124333067Y-85676663D01*
X124333941Y-85674864D01*
X124335761Y-85674646D01*
X124369634Y-85687280D01*
X124394374Y-85686543D01*
X124403856Y-85685294D01*
X124467465Y-85657153D01*
X124505599Y-85599338D01*
X124506421Y-85530052D01*
X124474875Y-85476155D01*
X124470977Y-85472257D01*
X124409928Y-85438923D01*
X124340769Y-85443869D01*
X124296672Y-85472208D01*
X124291446Y-85477434D01*
X124291290Y-85477476D01*
X124291285Y-85477730D01*
X124258113Y-85538482D01*
X124259533Y-85558337D01*
X124258659Y-85560136D01*
X124256839Y-85560354D01*
X124222966Y-85547720D01*
X124198231Y-85548456D01*
X124150112Y-85554790D01*
X124148264Y-85554024D01*
X124148003Y-85552042D01*
X124149461Y-85550845D01*
X124209940Y-85538815D01*
X124274486Y-85495686D01*
X124287867Y-85475661D01*
X124288278Y-85475458D01*
X124288369Y-85474909D01*
X124317615Y-85431140D01*
X124332800Y-85354801D01*
X124332800Y-84705199D01*
X124317615Y-84628860D01*
X124288369Y-84585091D01*
X124288238Y-84583095D01*
X124289901Y-84581984D01*
X124291446Y-84582566D01*
G37*
G36*
X121091446Y-84582566D02*
G01*
X121096623Y-84587743D01*
X121157672Y-84621077D01*
X121226831Y-84616131D01*
X121270928Y-84587792D01*
X121276154Y-84582566D01*
X121278086Y-84582048D01*
X121279500Y-84583462D01*
X121279231Y-84585091D01*
X121249985Y-84628860D01*
X121234800Y-84705199D01*
X121234800Y-85354801D01*
X121249985Y-85431140D01*
X121279231Y-85474909D01*
X121279362Y-85476905D01*
X121277699Y-85478016D01*
X121276154Y-85477434D01*
X121270977Y-85472257D01*
X121209928Y-85438923D01*
X121140769Y-85443869D01*
X121096672Y-85472208D01*
X121092746Y-85476134D01*
X121059412Y-85537183D01*
X121064352Y-85606265D01*
X121105877Y-85661736D01*
X121163712Y-85685290D01*
X121173040Y-85686519D01*
X121230279Y-85677594D01*
X121232144Y-85678315D01*
X121232499Y-85678984D01*
X121249739Y-85735214D01*
X121249291Y-85737163D01*
X121247379Y-85737749D01*
X121246716Y-85737463D01*
X121184940Y-85696185D01*
X121108601Y-85681000D01*
X120458999Y-85681000D01*
X120401915Y-85692355D01*
X120400021Y-85691712D01*
X120399631Y-85689750D01*
X120400680Y-85688580D01*
X120425035Y-85677223D01*
X120425125Y-85676200D01*
X120425954Y-85675518D01*
X120467462Y-85657156D01*
X120505598Y-85599342D01*
X120506423Y-85530056D01*
X120474875Y-85476155D01*
X120469314Y-85470594D01*
X120468915Y-85470025D01*
X120463673Y-85458783D01*
X120463848Y-85456791D01*
X120465660Y-85455946D01*
X120467149Y-85456827D01*
X120493114Y-85495686D01*
X120557660Y-85538815D01*
X120633999Y-85554000D01*
X120933601Y-85554000D01*
X121009940Y-85538815D01*
X121074486Y-85495686D01*
X121117615Y-85431140D01*
X121132800Y-85354801D01*
X121132800Y-84705199D01*
X121117615Y-84628860D01*
X121088369Y-84585091D01*
X121088238Y-84583095D01*
X121089901Y-84581984D01*
X121091446Y-84582566D01*
G37*
G36*
X122691446Y-84582566D02*
G01*
X122696623Y-84587743D01*
X122757672Y-84621077D01*
X122826831Y-84616131D01*
X122870928Y-84587792D01*
X122876154Y-84582566D01*
X122878086Y-84582048D01*
X122879500Y-84583462D01*
X122879231Y-84585091D01*
X122849985Y-84628860D01*
X122834800Y-84705199D01*
X122834800Y-85354801D01*
X122849985Y-85431140D01*
X122879231Y-85474909D01*
X122879362Y-85476905D01*
X122877699Y-85478016D01*
X122876154Y-85477434D01*
X122870977Y-85472257D01*
X122809928Y-85438923D01*
X122740769Y-85443869D01*
X122696672Y-85472208D01*
X122691446Y-85477434D01*
X122689514Y-85477952D01*
X122688100Y-85476538D01*
X122688369Y-85474909D01*
X122717615Y-85431140D01*
X122732800Y-85354801D01*
X122732800Y-84705199D01*
X122717615Y-84628860D01*
X122688369Y-84585091D01*
X122688238Y-84583095D01*
X122689901Y-84581984D01*
X122691446Y-84582566D01*
G37*
G36*
X123491446Y-84582566D02*
G01*
X123496623Y-84587743D01*
X123557672Y-84621077D01*
X123626831Y-84616131D01*
X123670928Y-84587792D01*
X123676154Y-84582566D01*
X123678086Y-84582048D01*
X123679500Y-84583462D01*
X123679231Y-84585091D01*
X123649985Y-84628860D01*
X123634800Y-84705199D01*
X123634800Y-85354801D01*
X123649985Y-85431140D01*
X123679231Y-85474909D01*
X123679362Y-85476905D01*
X123677699Y-85478016D01*
X123676154Y-85477434D01*
X123670977Y-85472257D01*
X123609928Y-85438923D01*
X123540769Y-85443869D01*
X123496672Y-85472208D01*
X123491446Y-85477434D01*
X123489514Y-85477952D01*
X123488100Y-85476538D01*
X123488369Y-85474909D01*
X123517615Y-85431140D01*
X123532800Y-85354801D01*
X123532800Y-84705199D01*
X123517615Y-84628860D01*
X123488369Y-84585091D01*
X123488238Y-84583095D01*
X123489901Y-84581984D01*
X123491446Y-84582566D01*
G37*
G36*
X121891446Y-84582566D02*
G01*
X121896623Y-84587743D01*
X121957672Y-84621077D01*
X122026831Y-84616131D01*
X122070928Y-84587792D01*
X122076154Y-84582566D01*
X122078086Y-84582048D01*
X122079500Y-84583462D01*
X122079231Y-84585091D01*
X122049985Y-84628860D01*
X122034800Y-84705199D01*
X122034800Y-85354801D01*
X122049985Y-85431140D01*
X122079231Y-85474909D01*
X122079362Y-85476905D01*
X122077699Y-85478016D01*
X122076154Y-85477434D01*
X122070977Y-85472257D01*
X122009928Y-85438923D01*
X121940769Y-85443869D01*
X121896672Y-85472208D01*
X121891446Y-85477434D01*
X121889514Y-85477952D01*
X121888100Y-85476538D01*
X121888369Y-85474909D01*
X121917615Y-85431140D01*
X121932800Y-85354801D01*
X121932800Y-84705199D01*
X121917615Y-84628860D01*
X121888369Y-84585091D01*
X121888238Y-84583095D01*
X121889901Y-84581984D01*
X121891446Y-84582566D01*
G37*
G36*
X89349006Y-83328899D02*
G01*
X89407599Y-83360827D01*
X89476753Y-83355819D01*
X89517784Y-83329399D01*
X89519782Y-83329303D01*
X89520865Y-83330984D01*
X89520530Y-83332192D01*
X89496931Y-83367510D01*
X89484600Y-83429499D01*
X89484600Y-84829101D01*
X89496931Y-84891090D01*
X89520814Y-84926834D01*
X89520945Y-84928830D01*
X89519282Y-84929941D01*
X89518194Y-84929701D01*
X89459601Y-84897773D01*
X89390447Y-84902781D01*
X89349416Y-84929201D01*
X89347418Y-84929297D01*
X89346335Y-84927616D01*
X89346670Y-84926408D01*
X89370269Y-84891090D01*
X89382600Y-84829101D01*
X89382600Y-83429499D01*
X89370269Y-83367510D01*
X89346386Y-83331766D01*
X89346255Y-83329770D01*
X89347918Y-83328659D01*
X89349006Y-83328899D01*
G37*
G36*
X88699006Y-83328899D02*
G01*
X88757599Y-83360827D01*
X88826753Y-83355819D01*
X88867784Y-83329399D01*
X88869782Y-83329303D01*
X88870865Y-83330984D01*
X88870530Y-83332192D01*
X88846931Y-83367510D01*
X88834600Y-83429499D01*
X88834600Y-84829101D01*
X88846931Y-84891090D01*
X88870814Y-84926834D01*
X88870945Y-84928830D01*
X88869282Y-84929941D01*
X88868194Y-84929701D01*
X88809601Y-84897773D01*
X88740447Y-84902781D01*
X88699416Y-84929201D01*
X88697418Y-84929297D01*
X88696335Y-84927616D01*
X88696670Y-84926408D01*
X88720269Y-84891090D01*
X88732600Y-84829101D01*
X88732600Y-83429499D01*
X88720269Y-83367510D01*
X88696386Y-83331766D01*
X88696255Y-83329770D01*
X88697918Y-83328659D01*
X88699006Y-83328899D01*
G37*
G36*
X89999006Y-83328899D02*
G01*
X90057599Y-83360827D01*
X90126753Y-83355819D01*
X90167784Y-83329399D01*
X90169782Y-83329303D01*
X90170865Y-83330984D01*
X90170530Y-83332192D01*
X90146931Y-83367510D01*
X90134600Y-83429499D01*
X90134600Y-84829101D01*
X90146931Y-84891090D01*
X90170814Y-84926834D01*
X90170945Y-84928830D01*
X90169282Y-84929941D01*
X90168194Y-84929701D01*
X90109601Y-84897773D01*
X90040447Y-84902781D01*
X89999416Y-84929201D01*
X89997418Y-84929297D01*
X89996335Y-84927616D01*
X89996670Y-84926408D01*
X90020269Y-84891090D01*
X90032600Y-84829101D01*
X90032600Y-83429499D01*
X90020269Y-83367510D01*
X89996386Y-83331766D01*
X89996255Y-83329770D01*
X89997918Y-83328659D01*
X89999006Y-83328899D01*
G37*
G36*
X89999006Y-79103899D02*
G01*
X90057599Y-79135827D01*
X90126753Y-79130819D01*
X90167784Y-79104399D01*
X90169782Y-79104303D01*
X90170865Y-79105984D01*
X90170530Y-79107192D01*
X90146931Y-79142510D01*
X90134600Y-79204499D01*
X90134600Y-80604101D01*
X90146931Y-80666090D01*
X90170814Y-80701834D01*
X90170945Y-80703830D01*
X90169282Y-80704941D01*
X90168194Y-80704701D01*
X90109601Y-80672773D01*
X90040447Y-80677781D01*
X89999416Y-80704201D01*
X89997418Y-80704297D01*
X89996335Y-80702616D01*
X89996670Y-80701408D01*
X90020269Y-80666090D01*
X90032600Y-80604101D01*
X90032600Y-79204499D01*
X90020269Y-79142510D01*
X89996386Y-79106766D01*
X89996255Y-79104770D01*
X89997918Y-79103659D01*
X89999006Y-79103899D01*
G37*
G36*
X89349006Y-79103899D02*
G01*
X89407599Y-79135827D01*
X89476753Y-79130819D01*
X89517784Y-79104399D01*
X89519782Y-79104303D01*
X89520865Y-79105984D01*
X89520530Y-79107192D01*
X89496931Y-79142510D01*
X89484600Y-79204499D01*
X89484600Y-80604101D01*
X89496931Y-80666090D01*
X89520814Y-80701834D01*
X89520945Y-80703830D01*
X89519282Y-80704941D01*
X89518194Y-80704701D01*
X89459601Y-80672773D01*
X89390447Y-80677781D01*
X89349416Y-80704201D01*
X89347418Y-80704297D01*
X89346335Y-80702616D01*
X89346670Y-80701408D01*
X89370269Y-80666090D01*
X89382600Y-80604101D01*
X89382600Y-79204499D01*
X89370269Y-79142510D01*
X89346386Y-79106766D01*
X89346255Y-79104770D01*
X89347918Y-79103659D01*
X89349006Y-79103899D01*
G37*
G36*
X88699006Y-79103899D02*
G01*
X88757599Y-79135827D01*
X88826753Y-79130819D01*
X88867784Y-79104399D01*
X88869782Y-79104303D01*
X88870865Y-79105984D01*
X88870530Y-79107192D01*
X88846931Y-79142510D01*
X88834600Y-79204499D01*
X88834600Y-80604101D01*
X88846931Y-80666090D01*
X88870814Y-80701834D01*
X88870945Y-80703830D01*
X88869282Y-80704941D01*
X88868194Y-80704701D01*
X88809601Y-80672773D01*
X88740447Y-80677781D01*
X88699416Y-80704201D01*
X88697418Y-80704297D01*
X88696335Y-80702616D01*
X88696670Y-80701408D01*
X88720269Y-80666090D01*
X88732600Y-80604101D01*
X88732600Y-79204499D01*
X88720269Y-79142510D01*
X88696386Y-79106766D01*
X88696255Y-79104770D01*
X88697918Y-79103659D01*
X88699006Y-79103899D01*
G37*
M02*
