M48
; DRILL file {KiCad 5.1.5-52549c5~84~ubuntu18.04.1} date lun. 06 janv. 2020 14:01:44 CET
; FORMAT={-:-/ absolute / inch / decimal}
; #@! TF.CreationDate,2020-01-06T14:01:44+01:00
; #@! TF.GenerationSoftware,Kicad,Pcbnew,5.1.5-52549c5~84~ubuntu18.04.1
; #@! TF.FileFunction,Plated,1,2,PTH
FMAT,2
INCH
T1C0.0197
T2C0.0236
T3C0.0354
%
G90
G05
T1
X2.991Y-4.401
X3.289Y-4.463
X3.293Y-4.327
X3.363Y-2.893
X3.617Y-4.353
X3.705Y-5.141
X3.773Y-3.311
X3.855Y-3.329
X3.957Y-5.023
X3.967Y-4.879
X4.001Y-5.201
X4.089Y-4.807
X4.109Y-3.369
X4.189Y-4.813
X4.225Y-4.599
X4.239Y-4.765
X4.243Y-4.695
X4.361Y-4.833
X4.387Y-3.405
X4.391Y-3.273
X4.395Y-4.307
X4.405Y-3.035
X4.461Y-3.895
X4.497Y-4.329
X4.563Y-4.487
X4.5695Y-4.2984
X4.601Y-3.385
X4.619Y-4.295
X4.663Y-4.881
X4.669Y-3.437
X4.679Y-4.337
X4.679Y-4.743
X4.691Y-3.345
X4.703Y-4.405
X4.709Y-4.447
X4.725Y-4.647
X4.857Y-3.803
X4.883Y-3.259
X4.895Y-3.689
X4.917Y-4.577
X4.943Y-3.269
X4.965Y-4.311
X4.979Y-3.387
X5.015Y-3.701
T2
X3.587Y-4.882
X3.587Y-4.932
T3
X3.862Y-3.937
X3.912Y-3.937
X3.962Y-3.937
X4.012Y-3.937
T0
M30
