G04 #@! TF.GenerationSoftware,KiCad,Pcbnew,6.0.7-f9a2dced07~116~ubuntu22.04.1*
G04 #@! TF.CreationDate,2022-08-25T07:51:25+02:00*
G04 #@! TF.ProjectId,PCB-Ange,5043422d-416e-4676-952e-6b696361645f,rev?*
G04 #@! TF.SameCoordinates,Original*
G04 #@! TF.FileFunction,Copper,L2,Bot*
G04 #@! TF.FilePolarity,Positive*
%FSLAX46Y46*%
G04 Gerber Fmt 4.6, Leading zero omitted, Abs format (unit mm)*
G04 Created by KiCad (PCBNEW 6.0.7-f9a2dced07~116~ubuntu22.04.1) date 2022-08-25 07:51:25*
%MOMM*%
%LPD*%
G01*
G04 APERTURE LIST*
G04 #@! TA.AperFunction,Profile*
%ADD10C,0.050000*%
G04 #@! TD*
G04 #@! TA.AperFunction,ComponentPad*
%ADD11R,1.070000X1.800000*%
G04 #@! TD*
G04 #@! TA.AperFunction,ComponentPad*
%ADD12O,1.070000X1.800000*%
G04 #@! TD*
G04 #@! TA.AperFunction,ComponentPad*
%ADD13C,1.000000*%
G04 #@! TD*
G04 #@! TA.AperFunction,ViaPad*
%ADD14C,0.900000*%
G04 #@! TD*
G04 #@! TA.AperFunction,Conductor*
%ADD15C,0.300000*%
G04 #@! TD*
G04 #@! TA.AperFunction,Conductor*
%ADD16C,0.500000*%
G04 #@! TD*
G04 APERTURE END LIST*
D10*
X101800000Y-122365000D02*
G75*
G03*
X101800000Y-122365000I-1800000J0D01*
G01*
X101800000Y-77635000D02*
G75*
G03*
X101800000Y-77635000I-1800000J0D01*
G01*
X137500000Y-100000000D02*
G75*
G03*
X137500000Y-100000000I-37500000J0D01*
G01*
D11*
X98095000Y-100000000D03*
D12*
X99365000Y-100000000D03*
X100635000Y-100000000D03*
X101905000Y-100000000D03*
D13*
X91110000Y-125273000D03*
X91110000Y-124003000D03*
D14*
X95834400Y-84099600D03*
X111887200Y-77089200D03*
X111531600Y-83134400D03*
X111430000Y-86487200D03*
X127381200Y-94005600D03*
X126111200Y-109499600D03*
X118846800Y-120472400D03*
X101625600Y-132105600D03*
X94107200Y-130581600D03*
X111633200Y-109398000D03*
X107772400Y-119253200D03*
X120015202Y-118034000D03*
X75971600Y-111785600D03*
X118440400Y-123977600D03*
X124892000Y-116256000D03*
X123368000Y-96596400D03*
X124333200Y-93700800D03*
X97917200Y-84556800D03*
X104368800Y-85572800D03*
X100508000Y-127584400D03*
X101950000Y-124800000D03*
X107670800Y-121031200D03*
X113309600Y-98933200D03*
X85420400Y-73482400D03*
X115900400Y-113970000D03*
X91872000Y-110566400D03*
X107315200Y-116814800D03*
X103860800Y-122098000D03*
X110769600Y-122758400D03*
X106400800Y-122250400D03*
X83642400Y-109906000D03*
X83540800Y-113360400D03*
X119608800Y-112954000D03*
X124028400Y-82778800D03*
X119456400Y-111887200D03*
X125552400Y-83032800D03*
X118846800Y-110160000D03*
X126466800Y-86030000D03*
X117322800Y-109093200D03*
X118592800Y-87300000D03*
X116066413Y-109178443D03*
X116865596Y-85979200D03*
X114224000Y-109956800D03*
X119151600Y-84963200D03*
D15*
X95834400Y-84099600D02*
X96494800Y-83439200D01*
X96494800Y-83439200D02*
X96494800Y-76430200D01*
X96494800Y-76430200D02*
X98550000Y-74375000D01*
X98550000Y-74375000D02*
X109173000Y-74375000D01*
X109173000Y-74375000D02*
X111887200Y-77089200D01*
X102272354Y-124800000D02*
X105080000Y-121992354D01*
X101950000Y-124800000D02*
X101950000Y-125506004D01*
X101950000Y-125506004D02*
X100508000Y-126948004D01*
X100508000Y-126948004D02*
X100508000Y-127584400D01*
X101950000Y-124800000D02*
X102272354Y-124800000D01*
X105080000Y-121992354D02*
X105080000Y-121183600D01*
X105080000Y-121183600D02*
X105232400Y-121031200D01*
X105232400Y-121031200D02*
X107670800Y-121031200D01*
X111887200Y-77089200D02*
X111887200Y-82778800D01*
X111887200Y-82778800D02*
X111531600Y-83134400D01*
X111531600Y-83134400D02*
X111531600Y-86385600D01*
X111531600Y-86385600D02*
X111430000Y-86487200D01*
X128295600Y-84048800D02*
X128295600Y-93091200D01*
X121336000Y-77089200D02*
X128295600Y-84048800D01*
X111887200Y-77089200D02*
X121336000Y-77089200D01*
X128295600Y-93091200D02*
X127381200Y-94005600D01*
X127381200Y-94005600D02*
X127381200Y-108229600D01*
X127381200Y-108229600D02*
X126111200Y-109499600D01*
X118846800Y-120472400D02*
X107213600Y-132105600D01*
X107213600Y-132105600D02*
X101625600Y-132105600D01*
X101625600Y-132105600D02*
X95631200Y-132105600D01*
X95631200Y-132105600D02*
X94107200Y-130581600D01*
X118846800Y-120472400D02*
X108991600Y-120472400D01*
X108991600Y-120472400D02*
X107772400Y-119253200D01*
X112421996Y-109398000D02*
X120015202Y-116991206D01*
X111633200Y-109398000D02*
X112421996Y-109398000D01*
X120465201Y-117584001D02*
X120015202Y-118034000D01*
X120015202Y-117397604D02*
X120015202Y-118034000D01*
X118846800Y-120472400D02*
X118846800Y-119202402D01*
X120015202Y-116991206D02*
X120015202Y-117397604D01*
X126111200Y-111938002D02*
X120465201Y-117584001D01*
X126111200Y-109499600D02*
X126111200Y-111938002D01*
X118846800Y-119202402D02*
X120015202Y-118034000D01*
X75971600Y-112446000D02*
X75971600Y-111785600D01*
X94107200Y-130581600D02*
X75971600Y-112446000D01*
X118440400Y-123977600D02*
X125044400Y-117373600D01*
X125044400Y-117373600D02*
X125044400Y-116408400D01*
X125044400Y-116408400D02*
X124892000Y-116256000D01*
X123368000Y-96596400D02*
X123368000Y-94666000D01*
X123368000Y-94666000D02*
X124333200Y-93700800D01*
X98553596Y-84556800D02*
X99569596Y-85572800D01*
X97917200Y-84556800D02*
X98553596Y-84556800D01*
X99569596Y-85572800D02*
X104368800Y-85572800D01*
D16*
X113309600Y-98933200D02*
X106908800Y-98933200D01*
X106908800Y-98933200D02*
X99898400Y-91922800D01*
X99898400Y-91922800D02*
X90703600Y-91922800D01*
X90703600Y-91922800D02*
X85420400Y-86639600D01*
X85420400Y-86639600D02*
X85420400Y-73482400D01*
D15*
X115900400Y-113970000D02*
X96240800Y-113970000D01*
X96240800Y-113970000D02*
X92837200Y-110566400D01*
X92837200Y-110566400D02*
X91872000Y-110566400D01*
X107315200Y-116814800D02*
X103860800Y-120269200D01*
X103860800Y-120269200D02*
X103860800Y-122098000D01*
X110769600Y-122758400D02*
X110261600Y-122250400D01*
X110261600Y-122250400D02*
X106400800Y-122250400D01*
X83642400Y-113258800D02*
X83540800Y-113360400D01*
X83642400Y-109906000D02*
X83642400Y-113258800D01*
X120208801Y-112353999D02*
X120208801Y-90337003D01*
X119608800Y-112954000D02*
X120208801Y-112353999D01*
X120208801Y-90337003D02*
X120959787Y-89586017D01*
X124526801Y-82280399D02*
X124478399Y-82328801D01*
X124478399Y-82328801D02*
X124028400Y-82778800D01*
X127782810Y-84175814D02*
X125887395Y-82280399D01*
X127782810Y-87720798D02*
X127782810Y-84175814D01*
X125917591Y-89586017D02*
X127782810Y-87720798D01*
X120959787Y-89586017D02*
X125917591Y-89586017D01*
X125887395Y-82280399D02*
X124526801Y-82280399D01*
X127330400Y-87533404D02*
X127330400Y-84810800D01*
X119456400Y-111250804D02*
X119608800Y-111098404D01*
X119608800Y-111098404D02*
X119608800Y-90297200D01*
X120772391Y-89133609D02*
X125730196Y-89133608D01*
X119608800Y-90297200D02*
X120772391Y-89133609D01*
X119456400Y-111887200D02*
X119456400Y-111250804D01*
X127330400Y-84810800D02*
X125552400Y-83032800D01*
X125730196Y-89133608D02*
X127330400Y-87533404D01*
X118846800Y-110160000D02*
X118846800Y-89281200D01*
X119446801Y-88681199D02*
X125542801Y-88681199D01*
X118846800Y-89281200D02*
X119446801Y-88681199D01*
X125542801Y-88681199D02*
X126466800Y-87757200D01*
X126466800Y-87757200D02*
X126466800Y-86030000D01*
X117322800Y-109093200D02*
X117322800Y-88570000D01*
X117322800Y-88570000D02*
X118592800Y-87300000D01*
X116415597Y-86429199D02*
X116865596Y-85979200D01*
X116413189Y-86431607D02*
X116415597Y-86429199D01*
X116066413Y-109178443D02*
X116413189Y-108831667D01*
X116413189Y-108831667D02*
X116413189Y-86431607D01*
X116564846Y-84963200D02*
X118515204Y-84963200D01*
X118515204Y-84963200D02*
X119151600Y-84963200D01*
X115960778Y-108220022D02*
X115960778Y-85567268D01*
X115960778Y-85567268D02*
X116564846Y-84963200D01*
X114224000Y-109956800D02*
X115960778Y-108220022D01*
G04 #@! TA.AperFunction,Conductor*
G36*
X100309916Y-62759368D02*
G01*
X101167920Y-62772847D01*
X101171876Y-62772971D01*
X102336668Y-62827901D01*
X102340619Y-62828149D01*
X103503152Y-62919643D01*
X103507092Y-62920016D01*
X103999930Y-62974425D01*
X104666153Y-63047977D01*
X104670023Y-63048466D01*
X105341128Y-63143978D01*
X105824517Y-63212775D01*
X105828426Y-63213394D01*
X106368309Y-63307618D01*
X106977197Y-63413886D01*
X106981034Y-63414618D01*
X107528401Y-63527973D01*
X108122901Y-63651088D01*
X108126764Y-63651951D01*
X108950350Y-63849676D01*
X109260682Y-63924181D01*
X109264496Y-63925160D01*
X110389262Y-64232862D01*
X110393029Y-64233956D01*
X111507601Y-64576843D01*
X111511345Y-64578060D01*
X111800335Y-64677002D01*
X112614598Y-64955787D01*
X112618322Y-64957128D01*
X113709131Y-65369310D01*
X113712811Y-65370767D01*
X114790139Y-65817011D01*
X114793772Y-65818583D01*
X114828420Y-65834227D01*
X115856599Y-66298467D01*
X115860148Y-66300139D01*
X115974345Y-66356083D01*
X116907323Y-66813145D01*
X116910851Y-66814942D01*
X117941413Y-67360597D01*
X117944817Y-67362467D01*
X118604382Y-67738676D01*
X118957785Y-67940254D01*
X118961192Y-67942269D01*
X119249006Y-68118641D01*
X119955472Y-68551564D01*
X119958774Y-68553659D01*
X120287957Y-68769892D01*
X120933421Y-69193883D01*
X120936695Y-69196108D01*
X121890749Y-69866629D01*
X121893951Y-69868956D01*
X122826440Y-70569088D01*
X122829568Y-70571514D01*
X123739643Y-71300622D01*
X123742692Y-71303145D01*
X124629360Y-72060431D01*
X124632330Y-72063048D01*
X125066877Y-72458455D01*
X125494869Y-72847898D01*
X125497713Y-72850570D01*
X126335156Y-73662107D01*
X126337893Y-73664844D01*
X127149430Y-74502287D01*
X127152102Y-74505131D01*
X127419959Y-74799502D01*
X127936952Y-75367670D01*
X127939569Y-75370640D01*
X128696855Y-76257308D01*
X128699378Y-76260357D01*
X129428486Y-77170432D01*
X129430912Y-77173560D01*
X130131044Y-78106049D01*
X130133371Y-78109251D01*
X130803892Y-79063305D01*
X130806117Y-79066579D01*
X130843882Y-79124071D01*
X131132455Y-79563380D01*
X131446328Y-80041206D01*
X131448449Y-80044548D01*
X132057731Y-81038808D01*
X132059746Y-81042215D01*
X132637533Y-82055183D01*
X132639403Y-82058587D01*
X133140764Y-83005493D01*
X133185058Y-83089150D01*
X133186855Y-83092677D01*
X133682168Y-84103734D01*
X133699854Y-84139836D01*
X133701533Y-84143401D01*
X133923232Y-84634411D01*
X134181417Y-85206228D01*
X134182989Y-85209861D01*
X134318314Y-85536565D01*
X134578834Y-86165514D01*
X134629233Y-86287189D01*
X134630686Y-86290859D01*
X134642109Y-86321088D01*
X135042872Y-87381678D01*
X135044213Y-87385402D01*
X135243585Y-87967719D01*
X135391469Y-88399653D01*
X135421937Y-88488644D01*
X135423157Y-88492399D01*
X135669827Y-89294211D01*
X135766039Y-89606954D01*
X135767138Y-89610738D01*
X136025936Y-90556744D01*
X136074837Y-90735494D01*
X136075822Y-90739328D01*
X136348049Y-91873236D01*
X136348912Y-91877099D01*
X136462854Y-92427300D01*
X136573286Y-92960555D01*
X136585377Y-93018941D01*
X136586114Y-93022803D01*
X136692382Y-93631691D01*
X136786606Y-94171574D01*
X136787225Y-94175483D01*
X136810702Y-94340439D01*
X136951534Y-95329977D01*
X136952026Y-95333872D01*
X137079984Y-96492908D01*
X137080357Y-96496848D01*
X137171851Y-97659381D01*
X137172099Y-97663332D01*
X137227029Y-98828124D01*
X137227153Y-98832080D01*
X137245469Y-99998021D01*
X137245469Y-100001979D01*
X137227153Y-101167920D01*
X137227029Y-101171876D01*
X137172099Y-102336668D01*
X137171851Y-102340619D01*
X137080357Y-103503152D01*
X137079984Y-103507092D01*
X136952026Y-104666128D01*
X136951534Y-104670023D01*
X136856022Y-105341128D01*
X136787225Y-105824517D01*
X136786606Y-105828426D01*
X136593673Y-106933890D01*
X136586119Y-106977171D01*
X136585382Y-106981034D01*
X136472027Y-107528401D01*
X136348912Y-108122901D01*
X136348049Y-108126764D01*
X136187709Y-108794629D01*
X136077520Y-109253601D01*
X136075822Y-109260672D01*
X136074840Y-109264496D01*
X135768898Y-110382831D01*
X135767143Y-110389245D01*
X135766044Y-110393029D01*
X135440707Y-111450553D01*
X135423160Y-111507591D01*
X135421940Y-111511345D01*
X135351103Y-111718245D01*
X135044213Y-112614598D01*
X135042872Y-112618322D01*
X134755306Y-113379344D01*
X134684964Y-113565500D01*
X134630690Y-113709131D01*
X134629237Y-113712801D01*
X134482860Y-114066186D01*
X134182989Y-114790139D01*
X134181417Y-114793772D01*
X133701540Y-115856583D01*
X133699861Y-115860148D01*
X133464816Y-116339935D01*
X133186855Y-116907323D01*
X133185058Y-116910850D01*
X132639403Y-117941413D01*
X132637533Y-117944817D01*
X132395675Y-118368839D01*
X132059746Y-118957785D01*
X132057731Y-118961192D01*
X131817006Y-119354021D01*
X131449106Y-119954380D01*
X131448449Y-119955452D01*
X131446341Y-119958773D01*
X130977968Y-120671803D01*
X130806117Y-120933421D01*
X130803892Y-120936695D01*
X130133371Y-121890749D01*
X130131044Y-121893951D01*
X129430912Y-122826440D01*
X129428486Y-122829568D01*
X128699378Y-123739643D01*
X128696855Y-123742692D01*
X127939569Y-124629360D01*
X127936952Y-124632330D01*
X127777694Y-124807353D01*
X127152102Y-125494869D01*
X127149430Y-125497713D01*
X126337893Y-126335156D01*
X126335156Y-126337893D01*
X125497713Y-127149430D01*
X125494869Y-127152102D01*
X125084560Y-127525455D01*
X124632330Y-127936952D01*
X124629360Y-127939569D01*
X123742692Y-128696855D01*
X123739643Y-128699378D01*
X122829568Y-129428486D01*
X122826440Y-129430912D01*
X121893951Y-130131044D01*
X121890749Y-130133371D01*
X120936695Y-130803892D01*
X120933421Y-130806117D01*
X119958774Y-131446341D01*
X119955472Y-131448436D01*
X119558366Y-131691783D01*
X118961192Y-132057731D01*
X118957785Y-132059746D01*
X118604382Y-132261324D01*
X117944817Y-132637533D01*
X117941413Y-132639403D01*
X117092538Y-133088859D01*
X116910850Y-133185058D01*
X116907322Y-133186855D01*
X115860148Y-133699861D01*
X115856599Y-133701533D01*
X115296787Y-133954297D01*
X114793772Y-134181417D01*
X114790139Y-134182989D01*
X113712811Y-134629233D01*
X113709131Y-134630690D01*
X112618322Y-135042872D01*
X112614598Y-135044213D01*
X111800335Y-135322998D01*
X111511345Y-135421940D01*
X111507601Y-135423157D01*
X110393029Y-135766044D01*
X110389262Y-135767138D01*
X109264496Y-136074840D01*
X109260682Y-136075819D01*
X108950350Y-136150324D01*
X108126764Y-136348049D01*
X108122901Y-136348912D01*
X107528401Y-136472027D01*
X106981034Y-136585382D01*
X106977197Y-136586114D01*
X106368309Y-136692382D01*
X105828426Y-136786606D01*
X105824517Y-136787225D01*
X105382870Y-136850081D01*
X104670023Y-136951534D01*
X104666153Y-136952023D01*
X103999930Y-137025575D01*
X103507092Y-137079984D01*
X103503152Y-137080357D01*
X102340619Y-137171851D01*
X102336668Y-137172099D01*
X101171876Y-137227029D01*
X101167920Y-137227153D01*
X100309916Y-137240632D01*
X100001973Y-137245469D01*
X99998027Y-137245469D01*
X99690084Y-137240632D01*
X98832080Y-137227153D01*
X98828124Y-137227029D01*
X97663332Y-137172099D01*
X97659381Y-137171851D01*
X96496848Y-137080357D01*
X96492908Y-137079984D01*
X96000070Y-137025575D01*
X95333847Y-136952023D01*
X95329977Y-136951534D01*
X94617130Y-136850081D01*
X94175483Y-136787225D01*
X94171574Y-136786606D01*
X93631691Y-136692382D01*
X93022803Y-136586114D01*
X93018966Y-136585382D01*
X92471599Y-136472027D01*
X91877099Y-136348912D01*
X91873236Y-136348049D01*
X91049650Y-136150324D01*
X90739318Y-136075819D01*
X90735504Y-136074840D01*
X89610738Y-135767138D01*
X89606971Y-135766044D01*
X88492399Y-135423157D01*
X88488655Y-135421940D01*
X88199665Y-135322998D01*
X87385402Y-135044213D01*
X87381678Y-135042872D01*
X86290869Y-134630690D01*
X86287189Y-134629233D01*
X85209861Y-134182989D01*
X85206228Y-134181417D01*
X84703213Y-133954297D01*
X84143401Y-133701533D01*
X84139852Y-133699861D01*
X83092678Y-133186855D01*
X83089150Y-133185058D01*
X82907462Y-133088859D01*
X82058587Y-132639403D01*
X82055183Y-132637533D01*
X81395618Y-132261324D01*
X81042215Y-132059746D01*
X81038808Y-132057731D01*
X80441634Y-131691783D01*
X80044528Y-131448436D01*
X80041226Y-131446341D01*
X79066579Y-130806117D01*
X79063305Y-130803892D01*
X78109251Y-130133371D01*
X78106049Y-130131044D01*
X77173560Y-129430912D01*
X77170432Y-129428486D01*
X76260357Y-128699378D01*
X76257308Y-128696855D01*
X75370640Y-127939569D01*
X75367670Y-127936952D01*
X74915440Y-127525455D01*
X74505131Y-127152102D01*
X74502287Y-127149430D01*
X73664844Y-126337893D01*
X73662107Y-126335156D01*
X72850570Y-125497713D01*
X72847898Y-125494869D01*
X72222306Y-124807353D01*
X72063048Y-124632330D01*
X72060431Y-124629360D01*
X71303145Y-123742692D01*
X71300622Y-123739643D01*
X70571514Y-122829568D01*
X70569088Y-122826440D01*
X69868956Y-121893951D01*
X69866629Y-121890749D01*
X69196108Y-120936695D01*
X69193883Y-120933421D01*
X69022032Y-120671803D01*
X68553659Y-119958773D01*
X68551551Y-119955452D01*
X68550895Y-119954380D01*
X68182994Y-119354021D01*
X67942269Y-118961192D01*
X67940254Y-118957785D01*
X67604325Y-118368839D01*
X67362467Y-117944817D01*
X67360597Y-117941413D01*
X66814942Y-116910850D01*
X66813145Y-116907323D01*
X66535184Y-116339935D01*
X66300139Y-115860148D01*
X66298460Y-115856583D01*
X65818583Y-114793772D01*
X65817011Y-114790139D01*
X65517140Y-114066186D01*
X65370763Y-113712801D01*
X65369310Y-113709131D01*
X65315037Y-113565500D01*
X65244694Y-113379344D01*
X64957128Y-112618322D01*
X64955787Y-112614598D01*
X64669413Y-111778168D01*
X75261965Y-111778168D01*
X75280676Y-111947655D01*
X75339276Y-112107785D01*
X75343512Y-112114088D01*
X75343513Y-112114091D01*
X75430140Y-112243007D01*
X75430143Y-112243010D01*
X75434380Y-112249316D01*
X75452673Y-112265961D01*
X75525900Y-112332593D01*
X75562822Y-112393233D01*
X75567100Y-112425786D01*
X75567100Y-112510066D01*
X75570165Y-112519498D01*
X75570165Y-112519500D01*
X75573995Y-112531287D01*
X75578611Y-112550513D01*
X75582102Y-112572555D01*
X75586603Y-112581388D01*
X75592233Y-112592438D01*
X75599799Y-112610704D01*
X75606695Y-112631929D01*
X75612525Y-112639953D01*
X75619816Y-112649989D01*
X75630145Y-112666844D01*
X75640274Y-112686723D01*
X75663062Y-112709511D01*
X75663065Y-112709515D01*
X84537014Y-121583463D01*
X93368769Y-130415218D01*
X93402795Y-130477530D01*
X93404596Y-130520759D01*
X93398556Y-130566636D01*
X93398556Y-130566641D01*
X93397565Y-130574168D01*
X93416276Y-130743655D01*
X93474876Y-130903785D01*
X93479112Y-130910088D01*
X93479113Y-130910091D01*
X93565740Y-131039007D01*
X93565743Y-131039010D01*
X93569980Y-131045316D01*
X93696099Y-131160075D01*
X93702772Y-131163698D01*
X93825085Y-131230108D01*
X93845952Y-131241438D01*
X94010886Y-131284708D01*
X94101344Y-131286129D01*
X94173784Y-131287267D01*
X94173787Y-131287267D01*
X94175318Y-131287291D01*
X94175319Y-131287291D01*
X94181381Y-131287386D01*
X94181365Y-131288397D01*
X94244513Y-131299946D01*
X94276938Y-131323388D01*
X95299874Y-132346323D01*
X95390477Y-132436926D01*
X95410364Y-132447059D01*
X95427222Y-132457391D01*
X95445271Y-132470504D01*
X95454706Y-132473569D01*
X95454707Y-132473570D01*
X95466496Y-132477401D01*
X95484760Y-132484966D01*
X95504645Y-132495098D01*
X95526169Y-132498507D01*
X95526693Y-132498590D01*
X95545918Y-132503206D01*
X95555333Y-132506265D01*
X95567134Y-132510099D01*
X95599362Y-132510099D01*
X95599366Y-132510100D01*
X100981452Y-132510100D01*
X101049573Y-132530102D01*
X101078177Y-132558126D01*
X101079180Y-132557260D01*
X101084141Y-132563007D01*
X101088380Y-132569316D01*
X101094000Y-132574430D01*
X101094002Y-132574432D01*
X101208883Y-132678965D01*
X101214499Y-132684075D01*
X101364352Y-132765438D01*
X101529286Y-132808708D01*
X101616196Y-132810073D01*
X101692182Y-132811267D01*
X101692185Y-132811267D01*
X101699781Y-132811386D01*
X101707186Y-132809690D01*
X101707187Y-132809690D01*
X101768072Y-132795745D01*
X101865993Y-132773319D01*
X101942161Y-132735011D01*
X102011545Y-132700115D01*
X102011548Y-132700113D01*
X102018328Y-132696703D01*
X102147989Y-132585961D01*
X102164794Y-132562574D01*
X102220787Y-132518926D01*
X102267116Y-132510100D01*
X107277666Y-132510100D01*
X107287098Y-132507035D01*
X107287100Y-132507035D01*
X107298887Y-132503205D01*
X107318113Y-132498589D01*
X107330362Y-132496649D01*
X107340155Y-132495098D01*
X107360039Y-132484966D01*
X107378305Y-132477401D01*
X107390096Y-132473570D01*
X107399529Y-132470505D01*
X107417589Y-132457384D01*
X107434446Y-132447054D01*
X107454323Y-132436926D01*
X107477111Y-132414138D01*
X107477115Y-132414135D01*
X113262673Y-126628577D01*
X115167600Y-126628577D01*
X115177983Y-126793616D01*
X115229084Y-126950887D01*
X115317691Y-127090510D01*
X115323470Y-127095937D01*
X115323471Y-127095938D01*
X115382002Y-127150902D01*
X115438237Y-127203710D01*
X115583147Y-127283375D01*
X115743317Y-127324500D01*
X115867178Y-127324500D01*
X115925835Y-127317090D01*
X115982196Y-127309970D01*
X115982199Y-127309969D01*
X115990061Y-127308976D01*
X116143814Y-127248101D01*
X116277597Y-127150902D01*
X116383005Y-127023486D01*
X116453414Y-126873859D01*
X116484400Y-126711423D01*
X116474017Y-126546384D01*
X116422916Y-126389113D01*
X116388655Y-126335125D01*
X116338558Y-126256186D01*
X116334309Y-126249490D01*
X116213763Y-126136290D01*
X116068853Y-126056625D01*
X115908683Y-126015500D01*
X115784822Y-126015500D01*
X115726165Y-126022910D01*
X115669804Y-126030030D01*
X115669801Y-126030031D01*
X115661939Y-126031024D01*
X115508186Y-126091899D01*
X115374403Y-126189098D01*
X115268995Y-126316514D01*
X115198586Y-126466141D01*
X115167600Y-126628577D01*
X113262673Y-126628577D01*
X118678552Y-121212698D01*
X118740864Y-121178672D01*
X118769626Y-121175809D01*
X118913382Y-121178067D01*
X118913385Y-121178067D01*
X118920981Y-121178186D01*
X118928386Y-121176490D01*
X118928387Y-121176490D01*
X118989272Y-121162545D01*
X119087193Y-121140119D01*
X119195967Y-121085412D01*
X119232745Y-121066915D01*
X119232748Y-121066913D01*
X119239528Y-121063503D01*
X119369189Y-120952761D01*
X119468692Y-120814288D01*
X119532292Y-120656077D01*
X119556318Y-120487262D01*
X119556474Y-120472400D01*
X119535989Y-120303119D01*
X119475716Y-120143611D01*
X119448832Y-120104495D01*
X119383436Y-120009343D01*
X119383435Y-120009342D01*
X119379134Y-120003084D01*
X119370048Y-119994988D01*
X119324470Y-119954380D01*
X119293481Y-119926770D01*
X119255925Y-119866520D01*
X119251300Y-119832694D01*
X119251300Y-119422142D01*
X119271302Y-119354021D01*
X119288205Y-119333047D01*
X119846954Y-118774298D01*
X119909266Y-118740272D01*
X119938028Y-118737409D01*
X120081784Y-118739667D01*
X120081787Y-118739667D01*
X120089383Y-118739786D01*
X120096788Y-118738090D01*
X120096789Y-118738090D01*
X120157674Y-118724145D01*
X120255595Y-118701719D01*
X120333059Y-118662759D01*
X120401147Y-118628515D01*
X120401150Y-118628513D01*
X120407930Y-118625103D01*
X120495862Y-118550001D01*
X120531819Y-118519291D01*
X120531820Y-118519290D01*
X120537591Y-118514361D01*
X120637094Y-118375888D01*
X120700694Y-118217677D01*
X120724720Y-118048862D01*
X120724876Y-118034000D01*
X120717386Y-117972105D01*
X120729059Y-117902076D01*
X120753378Y-117867874D01*
X126419734Y-112201517D01*
X126442526Y-112178725D01*
X126452659Y-112158838D01*
X126462991Y-112141979D01*
X126470273Y-112131957D01*
X126470274Y-112131955D01*
X126476104Y-112123931D01*
X126479301Y-112114091D01*
X126483001Y-112102706D01*
X126490567Y-112084439D01*
X126496196Y-112073392D01*
X126500698Y-112064557D01*
X126504190Y-112042509D01*
X126508806Y-112023284D01*
X126512633Y-112011504D01*
X126515699Y-112002068D01*
X126515699Y-111969842D01*
X126515700Y-111969836D01*
X126515700Y-110138736D01*
X126535702Y-110070615D01*
X126559869Y-110042926D01*
X126627813Y-109984896D01*
X126627821Y-109984888D01*
X126633589Y-109979961D01*
X126733092Y-109841488D01*
X126796692Y-109683277D01*
X126820718Y-109514462D01*
X126820874Y-109499600D01*
X126813384Y-109437705D01*
X126825057Y-109367676D01*
X126849376Y-109333474D01*
X127689735Y-108493115D01*
X127689738Y-108493111D01*
X127712526Y-108470323D01*
X127722657Y-108450440D01*
X127732987Y-108433583D01*
X127740276Y-108423550D01*
X127746104Y-108415529D01*
X127749169Y-108406097D01*
X127753001Y-108394305D01*
X127760565Y-108376043D01*
X127766195Y-108364994D01*
X127766196Y-108364990D01*
X127770698Y-108356155D01*
X127774188Y-108334117D01*
X127778805Y-108314886D01*
X127782635Y-108303099D01*
X127785700Y-108293666D01*
X127785700Y-94644736D01*
X127805702Y-94576615D01*
X127829869Y-94548926D01*
X127897813Y-94490896D01*
X127897821Y-94490888D01*
X127903589Y-94485961D01*
X128003092Y-94347488D01*
X128066692Y-94189277D01*
X128090718Y-94020462D01*
X128090874Y-94005600D01*
X128083384Y-93943705D01*
X128095057Y-93873676D01*
X128119376Y-93839474D01*
X128604135Y-93354715D01*
X128604138Y-93354711D01*
X128626926Y-93331923D01*
X128637055Y-93312044D01*
X128647384Y-93295189D01*
X128654675Y-93285153D01*
X128660505Y-93277129D01*
X128667401Y-93255904D01*
X128674967Y-93237638D01*
X128680597Y-93226588D01*
X128685098Y-93217755D01*
X128688589Y-93195713D01*
X128693205Y-93176487D01*
X128697035Y-93164700D01*
X128697035Y-93164698D01*
X128700100Y-93155266D01*
X128700100Y-83984734D01*
X128693205Y-83963513D01*
X128688589Y-83944287D01*
X128686649Y-83932038D01*
X128685098Y-83922245D01*
X128674966Y-83902361D01*
X128667401Y-83884095D01*
X128663569Y-83872302D01*
X128660505Y-83862871D01*
X128647384Y-83844813D01*
X128637055Y-83827957D01*
X128631426Y-83816909D01*
X128626926Y-83808077D01*
X128536323Y-83717474D01*
X121599515Y-76780665D01*
X121599511Y-76780662D01*
X121576723Y-76757874D01*
X121556844Y-76747745D01*
X121539989Y-76737416D01*
X121529953Y-76730125D01*
X121521929Y-76724295D01*
X121500704Y-76717399D01*
X121482438Y-76709833D01*
X121462555Y-76699702D01*
X121440513Y-76696211D01*
X121421287Y-76691595D01*
X121409500Y-76687765D01*
X121409498Y-76687765D01*
X121400066Y-76684700D01*
X112530373Y-76684700D01*
X112462252Y-76664698D01*
X112426535Y-76630070D01*
X112423837Y-76626144D01*
X112423834Y-76626141D01*
X112419534Y-76619884D01*
X112413863Y-76614831D01*
X112297893Y-76511505D01*
X112297890Y-76511503D01*
X112292221Y-76506452D01*
X112285507Y-76502897D01*
X112148237Y-76430216D01*
X112148235Y-76430215D01*
X112141524Y-76426662D01*
X112134159Y-76424812D01*
X111983517Y-76386973D01*
X111983513Y-76386973D01*
X111976146Y-76385122D01*
X111968547Y-76385082D01*
X111968545Y-76385082D01*
X111845685Y-76384439D01*
X111805811Y-76384230D01*
X111737796Y-76363872D01*
X111717376Y-76347327D01*
X109436523Y-74066473D01*
X109436515Y-74066465D01*
X109436511Y-74066462D01*
X109413723Y-74043674D01*
X109393844Y-74033545D01*
X109376989Y-74023216D01*
X109366953Y-74015925D01*
X109358929Y-74010095D01*
X109337704Y-74003199D01*
X109319438Y-73995633D01*
X109299555Y-73985502D01*
X109277513Y-73982011D01*
X109258287Y-73977395D01*
X109246500Y-73973565D01*
X109246498Y-73973565D01*
X109237066Y-73970500D01*
X98485934Y-73970500D01*
X98476502Y-73973565D01*
X98476500Y-73973565D01*
X98464713Y-73977395D01*
X98445487Y-73982011D01*
X98423445Y-73985502D01*
X98403562Y-73995633D01*
X98385296Y-74003199D01*
X98364071Y-74010095D01*
X98346013Y-74023216D01*
X98329160Y-74033543D01*
X98309277Y-74043674D01*
X98286486Y-74066465D01*
X96186265Y-76166685D01*
X96186262Y-76166689D01*
X96163474Y-76189477D01*
X96158971Y-76198315D01*
X96153346Y-76209354D01*
X96143016Y-76226211D01*
X96129895Y-76244271D01*
X96126830Y-76253704D01*
X96122999Y-76265495D01*
X96115434Y-76283761D01*
X96105302Y-76303645D01*
X96103751Y-76313438D01*
X96101811Y-76325687D01*
X96097195Y-76344913D01*
X96090300Y-76366134D01*
X96090300Y-83219461D01*
X96070298Y-83287582D01*
X96053395Y-83308556D01*
X96003383Y-83358568D01*
X95941071Y-83392594D01*
X95913628Y-83395471D01*
X95865275Y-83395218D01*
X95752832Y-83394629D01*
X95745452Y-83396401D01*
X95745450Y-83396401D01*
X95594406Y-83432663D01*
X95594402Y-83432664D01*
X95587027Y-83434435D01*
X95563615Y-83446519D01*
X95453670Y-83503266D01*
X95435504Y-83512642D01*
X95429782Y-83517634D01*
X95429780Y-83517635D01*
X95318442Y-83614761D01*
X95307009Y-83624735D01*
X95208962Y-83764243D01*
X95177546Y-83844820D01*
X95155112Y-83902362D01*
X95147022Y-83923111D01*
X95124765Y-84092168D01*
X95143476Y-84261655D01*
X95202076Y-84421785D01*
X95206312Y-84428088D01*
X95206313Y-84428091D01*
X95292940Y-84557007D01*
X95292943Y-84557010D01*
X95297180Y-84563316D01*
X95302800Y-84568430D01*
X95302802Y-84568432D01*
X95397580Y-84654673D01*
X95423299Y-84678075D01*
X95573152Y-84759438D01*
X95738086Y-84802708D01*
X95824996Y-84804073D01*
X95900982Y-84805267D01*
X95900985Y-84805267D01*
X95908581Y-84805386D01*
X95915986Y-84803690D01*
X95915987Y-84803690D01*
X95989663Y-84786816D01*
X96074793Y-84767319D01*
X96150961Y-84729011D01*
X96220345Y-84694115D01*
X96220348Y-84694113D01*
X96227128Y-84690703D01*
X96356789Y-84579961D01*
X96456292Y-84441488D01*
X96519892Y-84283277D01*
X96543918Y-84114462D01*
X96544074Y-84099600D01*
X96536584Y-84037705D01*
X96548257Y-83967676D01*
X96572576Y-83933474D01*
X96819113Y-83686937D01*
X96819116Y-83686933D01*
X96826126Y-83679923D01*
X96836257Y-83660040D01*
X96846584Y-83643187D01*
X96859705Y-83625129D01*
X96866601Y-83603904D01*
X96874167Y-83585638D01*
X96879797Y-83574588D01*
X96884298Y-83565755D01*
X96887789Y-83543713D01*
X96892405Y-83524487D01*
X96896235Y-83512700D01*
X96896235Y-83512698D01*
X96899300Y-83503266D01*
X96899300Y-77613435D01*
X97940812Y-77613435D01*
X97942055Y-77635000D01*
X97956937Y-77893099D01*
X97957762Y-77897306D01*
X97957763Y-77897311D01*
X97970322Y-77961324D01*
X98010868Y-78167986D01*
X98012255Y-78172037D01*
X98068612Y-78336642D01*
X98101606Y-78433011D01*
X98227473Y-78683269D01*
X98386139Y-78914130D01*
X98389020Y-78917296D01*
X98521878Y-79063305D01*
X98574669Y-79121322D01*
X98789573Y-79301010D01*
X98793199Y-79303285D01*
X98793201Y-79303286D01*
X98848661Y-79338076D01*
X99026876Y-79449869D01*
X99030778Y-79451631D01*
X99030782Y-79451633D01*
X99278273Y-79563380D01*
X99278277Y-79563382D01*
X99282185Y-79565146D01*
X99286305Y-79566366D01*
X99286304Y-79566366D01*
X99546664Y-79643488D01*
X99546668Y-79643489D01*
X99550777Y-79644706D01*
X99555014Y-79645354D01*
X99555017Y-79645355D01*
X99639874Y-79658340D01*
X99827682Y-79687079D01*
X99970296Y-79689319D01*
X100103484Y-79691412D01*
X100103490Y-79691412D01*
X100107775Y-79691479D01*
X100385875Y-79657825D01*
X100656833Y-79586740D01*
X100915638Y-79479540D01*
X100963396Y-79451633D01*
X101153801Y-79340369D01*
X101153802Y-79340369D01*
X101157499Y-79338208D01*
X101377941Y-79165359D01*
X101572886Y-78964192D01*
X101575419Y-78960744D01*
X101575423Y-78960739D01*
X101736187Y-78741884D01*
X101738725Y-78738429D01*
X101766755Y-78686804D01*
X101870341Y-78496023D01*
X101870342Y-78496021D01*
X101872391Y-78492247D01*
X101971409Y-78230203D01*
X102033948Y-77957146D01*
X102048241Y-77796995D01*
X102058629Y-77680595D01*
X102058629Y-77680589D01*
X102058849Y-77678127D01*
X102059301Y-77635000D01*
X102049668Y-77493700D01*
X102040540Y-77359798D01*
X102040539Y-77359792D01*
X102040248Y-77355521D01*
X101983442Y-77081213D01*
X101889933Y-76817153D01*
X101785507Y-76614831D01*
X101763417Y-76572033D01*
X101763417Y-76572032D01*
X101761452Y-76568226D01*
X101748530Y-76549839D01*
X101602844Y-76342550D01*
X101602843Y-76342549D01*
X101600377Y-76339040D01*
X101409689Y-76133834D01*
X101395550Y-76122261D01*
X101196232Y-75959123D01*
X101192914Y-75956407D01*
X100954066Y-75810040D01*
X100697563Y-75697443D01*
X100678210Y-75691930D01*
X100647881Y-75683291D01*
X100428153Y-75620700D01*
X100423911Y-75620096D01*
X100423905Y-75620095D01*
X100218548Y-75590868D01*
X100150819Y-75581229D01*
X100003708Y-75580459D01*
X99874981Y-75579785D01*
X99874975Y-75579785D01*
X99870695Y-75579763D01*
X99866451Y-75580322D01*
X99866447Y-75580322D01*
X99744326Y-75596400D01*
X99592964Y-75616327D01*
X99588824Y-75617460D01*
X99588822Y-75617460D01*
X99326910Y-75689111D01*
X99322765Y-75690245D01*
X99065097Y-75800149D01*
X98919747Y-75887140D01*
X98828411Y-75941803D01*
X98828407Y-75941806D01*
X98824729Y-75944007D01*
X98821386Y-75946685D01*
X98821382Y-75946688D01*
X98812046Y-75954168D01*
X98606109Y-76119155D01*
X98603165Y-76122257D01*
X98603161Y-76122261D01*
X98431033Y-76303645D01*
X98413281Y-76322352D01*
X98249815Y-76549839D01*
X98247811Y-76553624D01*
X98139667Y-76757874D01*
X98118735Y-76797407D01*
X98022466Y-77060473D01*
X97962790Y-77334171D01*
X97962454Y-77338441D01*
X97949541Y-77502526D01*
X97940812Y-77613435D01*
X96899300Y-77613435D01*
X96899300Y-76649940D01*
X96919302Y-76581819D01*
X96936205Y-76560845D01*
X98680644Y-74816405D01*
X98742956Y-74782380D01*
X98769739Y-74779500D01*
X108953260Y-74779500D01*
X109021381Y-74799502D01*
X109042355Y-74816405D01*
X111148769Y-76922818D01*
X111182794Y-76985130D01*
X111184596Y-77028359D01*
X111178556Y-77074236D01*
X111178556Y-77074241D01*
X111177565Y-77081768D01*
X111196276Y-77251255D01*
X111254876Y-77411385D01*
X111259112Y-77417688D01*
X111259113Y-77417691D01*
X111345740Y-77546607D01*
X111345743Y-77546610D01*
X111349980Y-77552916D01*
X111361490Y-77563389D01*
X111441500Y-77636193D01*
X111478422Y-77696833D01*
X111482700Y-77729386D01*
X111482700Y-82322255D01*
X111462698Y-82390376D01*
X111409042Y-82436869D01*
X111386114Y-82444774D01*
X111291607Y-82467463D01*
X111291605Y-82467464D01*
X111284227Y-82469235D01*
X111132704Y-82547442D01*
X111004209Y-82659535D01*
X110906162Y-82799043D01*
X110877127Y-82873514D01*
X110848093Y-82947983D01*
X110844222Y-82957911D01*
X110843230Y-82965444D01*
X110843230Y-82965445D01*
X110824556Y-83107291D01*
X110821965Y-83126968D01*
X110840676Y-83296455D01*
X110899276Y-83456585D01*
X110903512Y-83462888D01*
X110903513Y-83462891D01*
X110990140Y-83591807D01*
X110990143Y-83591810D01*
X110994380Y-83598116D01*
X111023634Y-83624735D01*
X111085900Y-83681393D01*
X111122822Y-83742033D01*
X111127100Y-83774586D01*
X111127100Y-85773935D01*
X111107098Y-85842056D01*
X111058888Y-85885901D01*
X111037858Y-85896755D01*
X111037852Y-85896759D01*
X111031104Y-85900242D01*
X111025382Y-85905234D01*
X111025380Y-85905235D01*
X110928283Y-85989938D01*
X110902609Y-86012335D01*
X110804562Y-86151843D01*
X110742622Y-86310711D01*
X110741630Y-86318244D01*
X110741630Y-86318245D01*
X110721976Y-86467534D01*
X110720365Y-86479768D01*
X110739076Y-86649255D01*
X110797676Y-86809385D01*
X110801912Y-86815688D01*
X110801913Y-86815691D01*
X110888540Y-86944607D01*
X110888543Y-86944610D01*
X110892780Y-86950916D01*
X110898400Y-86956030D01*
X110898402Y-86956032D01*
X110984417Y-87034299D01*
X111018899Y-87065675D01*
X111025572Y-87069298D01*
X111112381Y-87116431D01*
X111168752Y-87147038D01*
X111333686Y-87190308D01*
X111420596Y-87191673D01*
X111496582Y-87192867D01*
X111496585Y-87192867D01*
X111504181Y-87192986D01*
X111511586Y-87191290D01*
X111511587Y-87191290D01*
X111572472Y-87177345D01*
X111670393Y-87154919D01*
X111746918Y-87116431D01*
X111815945Y-87081715D01*
X111815948Y-87081713D01*
X111822728Y-87078303D01*
X111934643Y-86982718D01*
X111946617Y-86972491D01*
X111946618Y-86972490D01*
X111952389Y-86967561D01*
X112051892Y-86829088D01*
X112115492Y-86670877D01*
X112139518Y-86502062D01*
X112139674Y-86487200D01*
X112119189Y-86317919D01*
X112058916Y-86158411D01*
X111962334Y-86017884D01*
X111963715Y-86016935D01*
X111937541Y-85960896D01*
X111936100Y-85941896D01*
X111936100Y-83773536D01*
X111956102Y-83705415D01*
X111980269Y-83677726D01*
X112048213Y-83619696D01*
X112048221Y-83619688D01*
X112053989Y-83614761D01*
X112153492Y-83476288D01*
X112217092Y-83318077D01*
X112241118Y-83149262D01*
X112241274Y-83134400D01*
X112231040Y-83049829D01*
X112243862Y-82977488D01*
X112246276Y-82972750D01*
X112252104Y-82964729D01*
X112255167Y-82955302D01*
X112255169Y-82955298D01*
X112259001Y-82943504D01*
X112266567Y-82925237D01*
X112272196Y-82914190D01*
X112276698Y-82905355D01*
X112280190Y-82883307D01*
X112284806Y-82864082D01*
X112288633Y-82852302D01*
X112291699Y-82842866D01*
X112291699Y-82810640D01*
X112291700Y-82810634D01*
X112291700Y-77728336D01*
X112311702Y-77660215D01*
X112335869Y-77632526D01*
X112403806Y-77574501D01*
X112403809Y-77574497D01*
X112409589Y-77569561D01*
X112426394Y-77546174D01*
X112482387Y-77502526D01*
X112528716Y-77493700D01*
X121116260Y-77493700D01*
X121184381Y-77513702D01*
X121205355Y-77530605D01*
X123333091Y-79658340D01*
X125335555Y-81660804D01*
X125369581Y-81723116D01*
X125364516Y-81793931D01*
X125321969Y-81850767D01*
X125255449Y-81875578D01*
X125246460Y-81875899D01*
X124462735Y-81875899D01*
X124453303Y-81878964D01*
X124453301Y-81878964D01*
X124441514Y-81882794D01*
X124422288Y-81887410D01*
X124400246Y-81890901D01*
X124380363Y-81901032D01*
X124362097Y-81908598D01*
X124340872Y-81915494D01*
X124322814Y-81928615D01*
X124305961Y-81938942D01*
X124286078Y-81949073D01*
X124263287Y-81971864D01*
X124197382Y-82037768D01*
X124135070Y-82071794D01*
X124107627Y-82074671D01*
X124060938Y-82074427D01*
X123946832Y-82073829D01*
X123939452Y-82075601D01*
X123939450Y-82075601D01*
X123788406Y-82111863D01*
X123788402Y-82111864D01*
X123781027Y-82113635D01*
X123629504Y-82191842D01*
X123501009Y-82303935D01*
X123402962Y-82443443D01*
X123391549Y-82472716D01*
X123362415Y-82547442D01*
X123341022Y-82602311D01*
X123340030Y-82609844D01*
X123340030Y-82609845D01*
X123328498Y-82697443D01*
X123318765Y-82771368D01*
X123337476Y-82940855D01*
X123396076Y-83100985D01*
X123400312Y-83107288D01*
X123400313Y-83107291D01*
X123486940Y-83236207D01*
X123486943Y-83236210D01*
X123491180Y-83242516D01*
X123496800Y-83247630D01*
X123496802Y-83247632D01*
X123523199Y-83271651D01*
X123617299Y-83357275D01*
X123767152Y-83438638D01*
X123932086Y-83481908D01*
X124018996Y-83483273D01*
X124094982Y-83484467D01*
X124094985Y-83484467D01*
X124102581Y-83484586D01*
X124109986Y-83482890D01*
X124109987Y-83482890D01*
X124197308Y-83462891D01*
X124268793Y-83446519D01*
X124352993Y-83404171D01*
X124414345Y-83373315D01*
X124414348Y-83373313D01*
X124421128Y-83369903D01*
X124550789Y-83259161D01*
X124555218Y-83252998D01*
X124555223Y-83252992D01*
X124635387Y-83141432D01*
X124691381Y-83097784D01*
X124762085Y-83091338D01*
X124825049Y-83124141D01*
X124860380Y-83186187D01*
X124860643Y-83187307D01*
X124861476Y-83194855D01*
X124864085Y-83201983D01*
X124864085Y-83201985D01*
X124876609Y-83236207D01*
X124920076Y-83354985D01*
X124924312Y-83361288D01*
X124924313Y-83361291D01*
X125010940Y-83490207D01*
X125010943Y-83490210D01*
X125015180Y-83496516D01*
X125020800Y-83501630D01*
X125020802Y-83501632D01*
X125126837Y-83598116D01*
X125141299Y-83611275D01*
X125291152Y-83692638D01*
X125456086Y-83735908D01*
X125546544Y-83737329D01*
X125618984Y-83738467D01*
X125618987Y-83738467D01*
X125620518Y-83738491D01*
X125620519Y-83738491D01*
X125626581Y-83738586D01*
X125626565Y-83739597D01*
X125689713Y-83751146D01*
X125722138Y-83774588D01*
X126888995Y-84941444D01*
X126923020Y-85003756D01*
X126925900Y-85030539D01*
X126925900Y-85266601D01*
X126905898Y-85334722D01*
X126852242Y-85381215D01*
X126781968Y-85391319D01*
X126740941Y-85377955D01*
X126721124Y-85367462D01*
X126713759Y-85365612D01*
X126563117Y-85327773D01*
X126563113Y-85327773D01*
X126555746Y-85325922D01*
X126548147Y-85325882D01*
X126548145Y-85325882D01*
X126477229Y-85325511D01*
X126385232Y-85325029D01*
X126377852Y-85326801D01*
X126377850Y-85326801D01*
X126226806Y-85363063D01*
X126226802Y-85363064D01*
X126219427Y-85364835D01*
X126067904Y-85443042D01*
X126062182Y-85448034D01*
X126062180Y-85448035D01*
X125950685Y-85545298D01*
X125939409Y-85555135D01*
X125841362Y-85694643D01*
X125779422Y-85853511D01*
X125778430Y-85861044D01*
X125778430Y-85861045D01*
X125759170Y-86007339D01*
X125757165Y-86022568D01*
X125775876Y-86192055D01*
X125834476Y-86352185D01*
X125838712Y-86358488D01*
X125838713Y-86358491D01*
X125925340Y-86487407D01*
X125925343Y-86487410D01*
X125929580Y-86493716D01*
X125977111Y-86536966D01*
X126021100Y-86576993D01*
X126058022Y-86637633D01*
X126062300Y-86670186D01*
X126062300Y-87537460D01*
X126042298Y-87605581D01*
X126025395Y-87626555D01*
X125412156Y-88239794D01*
X125349844Y-88273820D01*
X125323061Y-88276699D01*
X119382735Y-88276699D01*
X119373303Y-88279764D01*
X119373301Y-88279764D01*
X119361514Y-88283594D01*
X119342288Y-88288210D01*
X119320246Y-88291701D01*
X119311410Y-88296203D01*
X119311408Y-88296204D01*
X119300369Y-88301829D01*
X119282101Y-88309396D01*
X119270307Y-88313228D01*
X119270302Y-88313230D01*
X119260873Y-88316294D01*
X119252853Y-88322121D01*
X119252851Y-88322122D01*
X119242818Y-88329412D01*
X119225959Y-88339743D01*
X119206078Y-88349873D01*
X119183287Y-88372664D01*
X118538265Y-89017685D01*
X118538262Y-89017689D01*
X118515474Y-89040477D01*
X118510971Y-89049315D01*
X118505346Y-89060354D01*
X118495016Y-89077211D01*
X118481895Y-89095271D01*
X118478830Y-89104704D01*
X118474999Y-89116495D01*
X118467434Y-89134761D01*
X118457302Y-89154645D01*
X118455751Y-89164438D01*
X118453811Y-89176687D01*
X118449195Y-89195913D01*
X118442300Y-89217134D01*
X118442300Y-109520642D01*
X118422298Y-109588763D01*
X118399129Y-109615591D01*
X118330685Y-109675298D01*
X118319409Y-109685135D01*
X118221362Y-109824643D01*
X118185456Y-109916738D01*
X118164042Y-109971662D01*
X118159422Y-109983511D01*
X118158430Y-109991044D01*
X118158430Y-109991045D01*
X118138570Y-110141898D01*
X118137165Y-110152568D01*
X118155876Y-110322055D01*
X118214476Y-110482185D01*
X118218712Y-110488488D01*
X118218713Y-110488491D01*
X118305340Y-110617407D01*
X118305343Y-110617410D01*
X118309580Y-110623716D01*
X118315200Y-110628830D01*
X118315202Y-110628832D01*
X118388597Y-110695616D01*
X118435699Y-110738475D01*
X118585552Y-110819838D01*
X118750486Y-110863108D01*
X118837396Y-110864473D01*
X118913382Y-110865667D01*
X118913385Y-110865667D01*
X118920981Y-110865786D01*
X118971429Y-110854232D01*
X119042294Y-110858521D01*
X119099592Y-110900443D01*
X119125130Y-110966688D01*
X119110799Y-111036223D01*
X119101495Y-111051111D01*
X119091495Y-111064875D01*
X119085801Y-111082401D01*
X119084599Y-111086099D01*
X119077034Y-111104365D01*
X119066902Y-111124249D01*
X119065351Y-111134042D01*
X119063411Y-111146291D01*
X119058795Y-111165517D01*
X119051900Y-111186738D01*
X119051900Y-111247842D01*
X119031898Y-111315963D01*
X119008729Y-111342791D01*
X118929009Y-111412335D01*
X118830962Y-111551843D01*
X118769022Y-111710711D01*
X118768030Y-111718244D01*
X118768030Y-111718245D01*
X118756669Y-111804544D01*
X118746765Y-111879768D01*
X118765476Y-112049255D01*
X118824076Y-112209385D01*
X118828312Y-112215688D01*
X118828313Y-112215691D01*
X118914940Y-112344607D01*
X118914943Y-112344610D01*
X118919180Y-112350916D01*
X118924800Y-112356030D01*
X118924802Y-112356032D01*
X118990933Y-112416206D01*
X119027856Y-112476847D01*
X119026133Y-112547822D01*
X119009221Y-112581849D01*
X118983362Y-112618643D01*
X118960265Y-112677885D01*
X118928600Y-112759101D01*
X118921422Y-112777511D01*
X118920430Y-112785044D01*
X118920430Y-112785045D01*
X118906382Y-112891753D01*
X118899165Y-112946568D01*
X118917876Y-113116055D01*
X118976476Y-113276185D01*
X118980712Y-113282488D01*
X118980713Y-113282491D01*
X119067340Y-113411407D01*
X119067343Y-113411410D01*
X119071580Y-113417716D01*
X119077200Y-113422830D01*
X119077202Y-113422832D01*
X119163495Y-113501352D01*
X119197699Y-113532475D01*
X119347552Y-113613838D01*
X119512486Y-113657108D01*
X119599396Y-113658473D01*
X119675382Y-113659667D01*
X119675385Y-113659667D01*
X119682981Y-113659786D01*
X119690386Y-113658090D01*
X119690387Y-113658090D01*
X119751272Y-113644145D01*
X119849193Y-113621719D01*
X119960973Y-113565500D01*
X119994745Y-113548515D01*
X119994748Y-113548513D01*
X120001528Y-113545103D01*
X120131189Y-113434361D01*
X120230692Y-113295888D01*
X120294292Y-113137677D01*
X120318318Y-112968862D01*
X120318474Y-112954000D01*
X120310984Y-112892105D01*
X120322657Y-112822076D01*
X120346976Y-112787874D01*
X120533114Y-112601736D01*
X120533117Y-112601732D01*
X120540127Y-112594722D01*
X120550257Y-112574841D01*
X120560588Y-112557982D01*
X120567878Y-112547949D01*
X120567879Y-112547947D01*
X120573706Y-112539927D01*
X120576770Y-112530498D01*
X120576772Y-112530493D01*
X120580604Y-112518699D01*
X120588171Y-112500431D01*
X120593796Y-112489392D01*
X120593797Y-112489390D01*
X120598299Y-112480554D01*
X120601790Y-112458512D01*
X120606406Y-112439286D01*
X120610236Y-112427499D01*
X120610236Y-112427497D01*
X120613301Y-112418065D01*
X120613301Y-90556744D01*
X120633303Y-90488623D01*
X120650205Y-90467649D01*
X121090431Y-90027422D01*
X121152744Y-89993397D01*
X121179527Y-89990517D01*
X125981657Y-89990517D01*
X125991089Y-89987452D01*
X125991091Y-89987452D01*
X126002878Y-89983622D01*
X126022104Y-89979006D01*
X126034353Y-89977066D01*
X126044146Y-89975515D01*
X126064030Y-89965383D01*
X126082296Y-89957818D01*
X126094087Y-89953987D01*
X126103520Y-89950922D01*
X126121580Y-89937801D01*
X126138437Y-89927471D01*
X126158314Y-89917343D01*
X126181102Y-89894555D01*
X126181106Y-89894552D01*
X127676005Y-88399653D01*
X127738317Y-88365627D01*
X127809132Y-88370692D01*
X127865968Y-88413239D01*
X127890779Y-88479759D01*
X127891100Y-88488748D01*
X127891100Y-92871460D01*
X127871098Y-92939581D01*
X127854195Y-92960555D01*
X127550182Y-93264568D01*
X127487870Y-93298594D01*
X127460427Y-93301471D01*
X127413738Y-93301227D01*
X127299632Y-93300629D01*
X127292252Y-93302401D01*
X127292250Y-93302401D01*
X127141206Y-93338663D01*
X127141202Y-93338664D01*
X127133827Y-93340435D01*
X126982304Y-93418642D01*
X126853809Y-93530735D01*
X126755762Y-93670243D01*
X126693822Y-93829111D01*
X126671565Y-93998168D01*
X126690276Y-94167655D01*
X126748876Y-94327785D01*
X126753112Y-94334088D01*
X126753113Y-94334091D01*
X126839740Y-94463007D01*
X126839743Y-94463010D01*
X126843980Y-94469316D01*
X126891511Y-94512566D01*
X126935500Y-94552593D01*
X126972422Y-94613233D01*
X126976700Y-94645786D01*
X126976700Y-108009860D01*
X126956698Y-108077981D01*
X126939795Y-108098955D01*
X126280182Y-108758568D01*
X126217870Y-108792594D01*
X126190427Y-108795471D01*
X126143738Y-108795227D01*
X126029632Y-108794629D01*
X126022252Y-108796401D01*
X126022250Y-108796401D01*
X125871206Y-108832663D01*
X125871202Y-108832664D01*
X125863827Y-108834435D01*
X125712304Y-108912642D01*
X125706582Y-108917634D01*
X125706580Y-108917635D01*
X125608197Y-109003460D01*
X125583809Y-109024735D01*
X125485762Y-109164243D01*
X125423822Y-109323111D01*
X125422830Y-109330644D01*
X125422830Y-109330645D01*
X125403570Y-109476939D01*
X125401565Y-109492168D01*
X125420276Y-109661655D01*
X125478876Y-109821785D01*
X125483112Y-109828088D01*
X125483113Y-109828091D01*
X125569740Y-109957007D01*
X125569743Y-109957010D01*
X125573980Y-109963316D01*
X125621511Y-110006566D01*
X125665500Y-110046593D01*
X125702422Y-110107233D01*
X125706700Y-110139786D01*
X125706700Y-111718263D01*
X125686698Y-111786384D01*
X125669795Y-111807358D01*
X120597471Y-116879681D01*
X120535159Y-116913707D01*
X120464344Y-116908642D01*
X120407508Y-116866095D01*
X120396120Y-116847810D01*
X120394580Y-116844789D01*
X120387003Y-116826501D01*
X120383172Y-116814710D01*
X120380107Y-116805277D01*
X120366986Y-116787217D01*
X120356656Y-116770360D01*
X120351031Y-116759321D01*
X120346528Y-116750483D01*
X120323740Y-116727695D01*
X120323737Y-116727691D01*
X114424789Y-110828743D01*
X114390763Y-110766431D01*
X114395828Y-110695616D01*
X114438375Y-110638780D01*
X114464491Y-110624714D01*
X114464393Y-110624519D01*
X114609945Y-110551315D01*
X114609948Y-110551313D01*
X114616728Y-110547903D01*
X114746389Y-110437161D01*
X114845892Y-110298688D01*
X114909492Y-110140477D01*
X114933518Y-109971662D01*
X114933674Y-109956800D01*
X114926184Y-109894905D01*
X114937857Y-109824876D01*
X114962176Y-109790674D01*
X115252722Y-109500128D01*
X115315034Y-109466102D01*
X115385849Y-109471167D01*
X115446398Y-109518947D01*
X115529193Y-109642159D01*
X115534813Y-109647273D01*
X115534815Y-109647275D01*
X115610214Y-109715882D01*
X115655312Y-109756918D01*
X115684854Y-109772958D01*
X115761646Y-109814652D01*
X115805165Y-109838281D01*
X115970099Y-109881551D01*
X116057009Y-109882916D01*
X116132995Y-109884110D01*
X116132998Y-109884110D01*
X116140594Y-109884229D01*
X116147999Y-109882533D01*
X116148000Y-109882533D01*
X116208885Y-109868588D01*
X116306806Y-109846162D01*
X116400606Y-109798986D01*
X116452358Y-109772958D01*
X116452361Y-109772956D01*
X116459141Y-109769546D01*
X116550692Y-109691353D01*
X116583030Y-109663734D01*
X116583031Y-109663733D01*
X116588802Y-109658804D01*
X116593231Y-109652641D01*
X116593236Y-109652635D01*
X116628344Y-109603777D01*
X116684338Y-109560129D01*
X116755042Y-109553683D01*
X116815465Y-109584109D01*
X116911699Y-109671675D01*
X116941241Y-109687715D01*
X117005181Y-109722431D01*
X117061552Y-109753038D01*
X117226486Y-109796308D01*
X117313396Y-109797673D01*
X117389382Y-109798867D01*
X117389385Y-109798867D01*
X117396981Y-109798986D01*
X117404386Y-109797290D01*
X117404387Y-109797290D01*
X117478522Y-109780311D01*
X117563193Y-109760919D01*
X117701511Y-109691353D01*
X117708745Y-109687715D01*
X117708748Y-109687713D01*
X117715528Y-109684303D01*
X117845189Y-109573561D01*
X117944692Y-109435088D01*
X118008292Y-109276877D01*
X118032318Y-109108062D01*
X118032474Y-109093200D01*
X118011989Y-108923919D01*
X117951716Y-108764411D01*
X117930014Y-108732835D01*
X117859436Y-108630143D01*
X117859435Y-108630142D01*
X117855134Y-108623884D01*
X117769481Y-108547570D01*
X117731925Y-108487320D01*
X117727300Y-108453494D01*
X117727300Y-88789740D01*
X117747302Y-88721619D01*
X117764205Y-88700645D01*
X118424552Y-88040298D01*
X118486864Y-88006272D01*
X118515626Y-88003409D01*
X118659382Y-88005667D01*
X118659385Y-88005667D01*
X118666981Y-88005786D01*
X118674386Y-88004090D01*
X118674387Y-88004090D01*
X118735272Y-87990145D01*
X118833193Y-87967719D01*
X118909361Y-87929411D01*
X118978745Y-87894515D01*
X118978748Y-87894513D01*
X118985528Y-87891103D01*
X119115189Y-87780361D01*
X119214692Y-87641888D01*
X119278292Y-87483677D01*
X119302318Y-87314862D01*
X119302474Y-87300000D01*
X119281989Y-87130719D01*
X119221716Y-86971211D01*
X119206968Y-86949753D01*
X119129436Y-86836943D01*
X119129435Y-86836942D01*
X119125134Y-86830684D01*
X119108307Y-86815691D01*
X119025856Y-86742230D01*
X118997821Y-86717252D01*
X118989870Y-86713042D01*
X118853837Y-86641016D01*
X118853835Y-86641015D01*
X118847124Y-86637462D01*
X118839759Y-86635612D01*
X118689117Y-86597773D01*
X118689113Y-86597773D01*
X118681746Y-86595922D01*
X118674147Y-86595882D01*
X118674145Y-86595882D01*
X118603229Y-86595511D01*
X118511232Y-86595029D01*
X118503852Y-86596801D01*
X118503850Y-86596801D01*
X118352806Y-86633063D01*
X118352802Y-86633064D01*
X118345427Y-86634835D01*
X118193904Y-86713042D01*
X118188182Y-86718034D01*
X118188180Y-86718035D01*
X118169879Y-86734000D01*
X118065409Y-86825135D01*
X117967362Y-86964643D01*
X117960315Y-86982718D01*
X117921718Y-87081715D01*
X117905422Y-87123511D01*
X117904430Y-87131044D01*
X117904430Y-87131045D01*
X117896499Y-87191290D01*
X117883165Y-87292568D01*
X117886077Y-87318944D01*
X117890944Y-87363028D01*
X117878538Y-87432933D01*
X117854800Y-87465950D01*
X117032784Y-88287966D01*
X116970472Y-88321992D01*
X116899657Y-88316927D01*
X116842821Y-88274380D01*
X116818010Y-88207860D01*
X116817689Y-88198871D01*
X116817689Y-86810351D01*
X116837691Y-86742230D01*
X116891347Y-86695737D01*
X116930520Y-86685041D01*
X116932179Y-86684867D01*
X116939777Y-86684986D01*
X116947182Y-86683290D01*
X116947183Y-86683290D01*
X117034220Y-86663356D01*
X117105989Y-86646919D01*
X117203706Y-86597773D01*
X117251541Y-86573715D01*
X117251544Y-86573713D01*
X117258324Y-86570303D01*
X117364326Y-86479768D01*
X117382213Y-86464491D01*
X117382214Y-86464490D01*
X117387985Y-86459561D01*
X117487488Y-86321088D01*
X117551088Y-86162877D01*
X117575114Y-85994062D01*
X117575270Y-85979200D01*
X117554785Y-85809919D01*
X117494512Y-85650411D01*
X117435855Y-85565065D01*
X117413756Y-85497599D01*
X117431641Y-85428892D01*
X117483833Y-85380761D01*
X117539696Y-85367700D01*
X118507452Y-85367700D01*
X118575573Y-85387702D01*
X118604177Y-85415726D01*
X118605180Y-85414860D01*
X118610141Y-85420607D01*
X118614380Y-85426916D01*
X118620000Y-85432030D01*
X118620002Y-85432032D01*
X118705561Y-85509884D01*
X118740499Y-85541675D01*
X118890352Y-85623038D01*
X119055286Y-85666308D01*
X119142196Y-85667673D01*
X119218182Y-85668867D01*
X119218185Y-85668867D01*
X119225781Y-85668986D01*
X119233186Y-85667290D01*
X119233187Y-85667290D01*
X119306885Y-85650411D01*
X119391993Y-85630919D01*
X119468160Y-85592611D01*
X119537545Y-85557715D01*
X119537548Y-85557713D01*
X119544328Y-85554303D01*
X119673989Y-85443561D01*
X119773492Y-85305088D01*
X119837092Y-85146877D01*
X119861118Y-84978062D01*
X119861274Y-84963200D01*
X119840789Y-84793919D01*
X119780516Y-84634411D01*
X119775680Y-84627374D01*
X119688236Y-84500143D01*
X119688235Y-84500142D01*
X119683934Y-84493884D01*
X119556621Y-84380452D01*
X119548670Y-84376242D01*
X119412637Y-84304216D01*
X119412635Y-84304215D01*
X119405924Y-84300662D01*
X119398559Y-84298812D01*
X119247917Y-84260973D01*
X119247913Y-84260973D01*
X119240546Y-84259122D01*
X119232947Y-84259082D01*
X119232945Y-84259082D01*
X119162029Y-84258711D01*
X119070032Y-84258229D01*
X119062652Y-84260001D01*
X119062650Y-84260001D01*
X118911606Y-84296263D01*
X118911602Y-84296264D01*
X118904227Y-84298035D01*
X118752704Y-84376242D01*
X118746982Y-84381234D01*
X118746980Y-84381235D01*
X118629936Y-84483339D01*
X118624209Y-84488335D01*
X118619840Y-84494552D01*
X118612390Y-84505152D01*
X118556855Y-84549383D01*
X118509304Y-84558700D01*
X116500780Y-84558700D01*
X116491347Y-84561765D01*
X116479560Y-84565595D01*
X116460329Y-84570212D01*
X116454209Y-84571181D01*
X116448090Y-84572150D01*
X116448089Y-84572150D01*
X116438291Y-84573702D01*
X116429456Y-84578204D01*
X116429452Y-84578205D01*
X116418403Y-84583835D01*
X116400141Y-84591399D01*
X116388349Y-84595231D01*
X116388347Y-84595232D01*
X116378917Y-84598296D01*
X116360863Y-84611413D01*
X116344006Y-84621743D01*
X116324123Y-84631874D01*
X116301335Y-84654662D01*
X116301331Y-84654665D01*
X115652243Y-85303753D01*
X115652240Y-85303757D01*
X115629452Y-85326545D01*
X115624949Y-85335383D01*
X115619324Y-85346422D01*
X115608994Y-85363279D01*
X115595873Y-85381339D01*
X115592808Y-85390772D01*
X115588977Y-85402563D01*
X115581412Y-85420829D01*
X115571280Y-85440713D01*
X115569729Y-85450506D01*
X115567789Y-85462755D01*
X115563173Y-85481981D01*
X115556278Y-85503202D01*
X115556278Y-107169101D01*
X115536276Y-107237222D01*
X115482620Y-107283715D01*
X115412346Y-107293819D01*
X115347766Y-107264325D01*
X115310445Y-107208038D01*
X115305965Y-107194249D01*
X115305964Y-107194246D01*
X115303516Y-107186713D01*
X115292340Y-107169101D01*
X115219158Y-107053786D01*
X115214909Y-107047090D01*
X115094363Y-106933890D01*
X114949453Y-106854225D01*
X114789283Y-106813100D01*
X114665422Y-106813100D01*
X114606765Y-106820510D01*
X114550404Y-106827630D01*
X114550401Y-106827631D01*
X114542539Y-106828624D01*
X114388786Y-106889499D01*
X114255003Y-106986698D01*
X114149595Y-107114114D01*
X114079186Y-107263741D01*
X114048200Y-107426177D01*
X114058583Y-107591216D01*
X114061034Y-107598759D01*
X114097759Y-107711785D01*
X114109684Y-107748487D01*
X114113930Y-107755177D01*
X114113931Y-107755180D01*
X114151206Y-107813915D01*
X114198291Y-107888110D01*
X114318837Y-108001310D01*
X114463747Y-108080975D01*
X114623917Y-108122100D01*
X114747778Y-108122100D01*
X114806435Y-108114690D01*
X114862796Y-108107570D01*
X114862799Y-108107569D01*
X114870661Y-108106576D01*
X114889910Y-108098955D01*
X114935322Y-108080975D01*
X115024414Y-108045701D01*
X115158197Y-107948502D01*
X115263605Y-107821086D01*
X115316270Y-107709167D01*
X115363373Y-107656046D01*
X115431717Y-107636823D01*
X115499605Y-107657602D01*
X115545482Y-107711785D01*
X115556278Y-107762815D01*
X115556278Y-108000282D01*
X115536276Y-108068403D01*
X115519373Y-108089377D01*
X114392982Y-109215768D01*
X114330670Y-109249794D01*
X114303227Y-109252671D01*
X114256538Y-109252427D01*
X114142432Y-109251829D01*
X114135052Y-109253601D01*
X114135050Y-109253601D01*
X113984006Y-109289863D01*
X113984002Y-109289864D01*
X113976627Y-109291635D01*
X113825104Y-109369842D01*
X113819382Y-109374834D01*
X113819380Y-109374835D01*
X113730184Y-109452646D01*
X113696609Y-109481935D01*
X113598562Y-109621443D01*
X113595803Y-109628519D01*
X113595801Y-109628523D01*
X113561742Y-109715882D01*
X113518362Y-109772084D01*
X113451483Y-109795911D01*
X113382339Y-109779798D01*
X113355254Y-109759208D01*
X112685511Y-109089465D01*
X112685507Y-109089462D01*
X112662719Y-109066674D01*
X112642840Y-109056545D01*
X112625985Y-109046216D01*
X112615949Y-109038925D01*
X112607925Y-109033095D01*
X112586700Y-109026199D01*
X112568434Y-109018633D01*
X112548551Y-109008502D01*
X112526509Y-109005011D01*
X112507283Y-109000395D01*
X112495496Y-108996565D01*
X112495494Y-108996565D01*
X112486062Y-108993500D01*
X112276373Y-108993500D01*
X112208252Y-108973498D01*
X112172535Y-108938870D01*
X112169837Y-108934944D01*
X112169834Y-108934941D01*
X112165534Y-108928684D01*
X112038221Y-108815252D01*
X112030270Y-108811042D01*
X111894237Y-108739016D01*
X111894235Y-108739015D01*
X111887524Y-108735462D01*
X111880159Y-108733612D01*
X111729517Y-108695773D01*
X111729513Y-108695773D01*
X111722146Y-108693922D01*
X111714547Y-108693882D01*
X111714545Y-108693882D01*
X111643629Y-108693511D01*
X111551632Y-108693029D01*
X111544252Y-108694801D01*
X111544250Y-108694801D01*
X111393206Y-108731063D01*
X111393202Y-108731064D01*
X111385827Y-108732835D01*
X111335970Y-108758568D01*
X111266104Y-108794629D01*
X111234304Y-108811042D01*
X111228582Y-108816034D01*
X111228580Y-108816035D01*
X111121830Y-108909159D01*
X111105809Y-108923135D01*
X111007762Y-109062643D01*
X110970573Y-109158027D01*
X110952738Y-109203773D01*
X110945822Y-109221511D01*
X110944830Y-109229044D01*
X110944830Y-109229045D01*
X110926294Y-109369842D01*
X110923565Y-109390568D01*
X110942276Y-109560055D01*
X111000876Y-109720185D01*
X111005112Y-109726488D01*
X111005113Y-109726491D01*
X111091740Y-109855407D01*
X111091743Y-109855410D01*
X111095980Y-109861716D01*
X111101600Y-109866830D01*
X111101602Y-109866832D01*
X111207637Y-109963316D01*
X111222099Y-109976475D01*
X111371952Y-110057838D01*
X111536886Y-110101108D01*
X111623796Y-110102473D01*
X111699782Y-110103667D01*
X111699785Y-110103667D01*
X111707381Y-110103786D01*
X111714786Y-110102090D01*
X111714787Y-110102090D01*
X111808404Y-110080649D01*
X111873593Y-110065719D01*
X111949760Y-110027411D01*
X112019145Y-109992515D01*
X112019148Y-109992513D01*
X112025928Y-109989103D01*
X112155589Y-109878361D01*
X112156440Y-109879358D01*
X112210543Y-109846806D01*
X112281509Y-109848904D01*
X112331549Y-109879603D01*
X115599503Y-113147557D01*
X115633529Y-113209869D01*
X115628464Y-113280684D01*
X115585917Y-113337520D01*
X115568199Y-113348617D01*
X115508255Y-113379557D01*
X115508252Y-113379559D01*
X115501504Y-113383042D01*
X115495782Y-113388034D01*
X115495780Y-113388035D01*
X115442676Y-113434361D01*
X115373009Y-113495135D01*
X115368640Y-113501352D01*
X115361190Y-113511952D01*
X115305655Y-113556183D01*
X115258104Y-113565500D01*
X96460540Y-113565500D01*
X96392419Y-113545498D01*
X96371445Y-113528595D01*
X93100715Y-110257865D01*
X93100711Y-110257862D01*
X93077923Y-110235074D01*
X93058044Y-110224945D01*
X93041189Y-110214616D01*
X93031153Y-110207325D01*
X93023129Y-110201495D01*
X93001904Y-110194599D01*
X92983638Y-110187033D01*
X92963755Y-110176902D01*
X92941713Y-110173411D01*
X92922487Y-110168795D01*
X92910700Y-110164965D01*
X92910698Y-110164965D01*
X92901266Y-110161900D01*
X92515173Y-110161900D01*
X92447052Y-110141898D01*
X92411335Y-110107270D01*
X92408637Y-110103344D01*
X92408634Y-110103341D01*
X92404334Y-110097084D01*
X92387580Y-110082156D01*
X92328398Y-110029428D01*
X92277021Y-109983652D01*
X92263383Y-109976431D01*
X92133037Y-109907416D01*
X92133035Y-109907415D01*
X92126324Y-109903862D01*
X92118481Y-109901892D01*
X91968317Y-109864173D01*
X91968313Y-109864173D01*
X91960946Y-109862322D01*
X91953347Y-109862282D01*
X91953345Y-109862282D01*
X91882429Y-109861911D01*
X91790432Y-109861429D01*
X91783052Y-109863201D01*
X91783050Y-109863201D01*
X91632006Y-109899463D01*
X91632002Y-109899464D01*
X91624627Y-109901235D01*
X91584529Y-109921931D01*
X91496168Y-109967538D01*
X91473104Y-109979442D01*
X91467382Y-109984434D01*
X91467380Y-109984435D01*
X91357088Y-110080649D01*
X91344609Y-110091535D01*
X91246562Y-110231043D01*
X91217784Y-110304854D01*
X91192496Y-110369716D01*
X91184622Y-110389911D01*
X91183630Y-110397444D01*
X91183630Y-110397445D01*
X91163373Y-110551315D01*
X91162365Y-110558968D01*
X91181076Y-110728455D01*
X91239676Y-110888585D01*
X91243912Y-110894888D01*
X91243913Y-110894891D01*
X91330540Y-111023807D01*
X91330543Y-111023810D01*
X91334780Y-111030116D01*
X91340400Y-111035230D01*
X91340402Y-111035232D01*
X91455283Y-111139765D01*
X91460899Y-111144875D01*
X91467572Y-111148498D01*
X91561133Y-111199297D01*
X91610752Y-111226238D01*
X91775686Y-111269508D01*
X91862596Y-111270873D01*
X91938582Y-111272067D01*
X91938585Y-111272067D01*
X91946181Y-111272186D01*
X91953586Y-111270490D01*
X91953587Y-111270490D01*
X92052474Y-111247842D01*
X92112393Y-111234119D01*
X92189857Y-111195159D01*
X92257945Y-111160915D01*
X92257948Y-111160913D01*
X92264728Y-111157503D01*
X92394389Y-111046761D01*
X92411194Y-111023374D01*
X92467187Y-110979726D01*
X92513516Y-110970900D01*
X92617460Y-110970900D01*
X92685581Y-110990902D01*
X92706555Y-111007805D01*
X95977285Y-114278535D01*
X95977289Y-114278538D01*
X96000077Y-114301326D01*
X96018000Y-114310458D01*
X96019960Y-114311457D01*
X96036817Y-114321787D01*
X96054871Y-114334904D01*
X96064301Y-114337968D01*
X96064303Y-114337969D01*
X96076095Y-114341801D01*
X96094357Y-114349365D01*
X96105406Y-114354995D01*
X96105410Y-114354996D01*
X96114245Y-114359498D01*
X96124043Y-114361050D01*
X96124044Y-114361050D01*
X96130163Y-114362019D01*
X96136283Y-114362988D01*
X96155514Y-114367605D01*
X96176734Y-114374500D01*
X115256252Y-114374500D01*
X115324373Y-114394502D01*
X115352977Y-114422526D01*
X115353980Y-114421660D01*
X115358941Y-114427407D01*
X115363180Y-114433716D01*
X115368800Y-114438830D01*
X115368802Y-114438832D01*
X115483683Y-114543365D01*
X115489299Y-114548475D01*
X115639152Y-114629838D01*
X115804086Y-114673108D01*
X115890996Y-114674473D01*
X115966982Y-114675667D01*
X115966985Y-114675667D01*
X115974581Y-114675786D01*
X115981986Y-114674090D01*
X115981987Y-114674090D01*
X116042872Y-114660145D01*
X116140793Y-114637719D01*
X116216961Y-114599411D01*
X116286345Y-114564515D01*
X116286348Y-114564513D01*
X116293128Y-114561103D01*
X116422789Y-114450361D01*
X116522292Y-114311888D01*
X116525129Y-114304829D01*
X116526454Y-114302420D01*
X116576797Y-114252359D01*
X116646213Y-114237463D01*
X116712664Y-114262460D01*
X116725967Y-114274021D01*
X119573797Y-117121851D01*
X119607823Y-117184163D01*
X119610702Y-117210946D01*
X119610702Y-117394642D01*
X119590700Y-117462763D01*
X119567531Y-117489591D01*
X119533945Y-117518890D01*
X119487811Y-117559135D01*
X119389764Y-117698643D01*
X119327824Y-117857511D01*
X119326832Y-117865044D01*
X119326832Y-117865045D01*
X119316326Y-117944849D01*
X119305567Y-118026568D01*
X119308479Y-118052944D01*
X119313346Y-118097028D01*
X119300940Y-118166933D01*
X119277202Y-118199950D01*
X118538265Y-118938887D01*
X118538262Y-118938891D01*
X118515474Y-118961679D01*
X118510971Y-118970517D01*
X118505346Y-118981556D01*
X118495016Y-118998413D01*
X118481895Y-119016473D01*
X118478830Y-119025906D01*
X118474999Y-119037697D01*
X118467434Y-119055963D01*
X118457302Y-119075847D01*
X118455751Y-119085640D01*
X118453811Y-119097889D01*
X118449195Y-119117115D01*
X118442300Y-119138336D01*
X118442300Y-119833042D01*
X118422298Y-119901163D01*
X118399129Y-119927991D01*
X118319409Y-119997535D01*
X118311110Y-120009343D01*
X118307590Y-120014352D01*
X118252055Y-120058583D01*
X118204504Y-120067900D01*
X109211340Y-120067900D01*
X109143219Y-120047898D01*
X109122245Y-120030995D01*
X108511162Y-119419912D01*
X108477136Y-119357600D01*
X108475514Y-119313065D01*
X108481336Y-119272149D01*
X108481918Y-119268062D01*
X108482074Y-119253200D01*
X108461589Y-119083919D01*
X108401316Y-118924411D01*
X108304734Y-118783884D01*
X108177421Y-118670452D01*
X108169470Y-118666242D01*
X108033437Y-118594216D01*
X108033435Y-118594215D01*
X108026724Y-118590662D01*
X108019359Y-118588812D01*
X107868717Y-118550973D01*
X107868713Y-118550973D01*
X107861346Y-118549122D01*
X107853747Y-118549082D01*
X107853745Y-118549082D01*
X107782829Y-118548711D01*
X107690832Y-118548229D01*
X107683452Y-118550001D01*
X107683450Y-118550001D01*
X107532406Y-118586263D01*
X107532402Y-118586264D01*
X107525027Y-118588035D01*
X107373504Y-118666242D01*
X107367782Y-118671234D01*
X107367780Y-118671235D01*
X107250736Y-118773339D01*
X107245009Y-118778335D01*
X107146962Y-118917843D01*
X107118676Y-118990393D01*
X107088803Y-119067014D01*
X107085022Y-119076711D01*
X107084030Y-119084244D01*
X107084030Y-119084245D01*
X107079703Y-119117115D01*
X107062765Y-119245768D01*
X107081476Y-119415255D01*
X107140076Y-119575385D01*
X107144312Y-119581688D01*
X107144313Y-119581691D01*
X107230940Y-119710607D01*
X107230943Y-119710610D01*
X107235180Y-119716916D01*
X107361299Y-119831675D01*
X107511152Y-119913038D01*
X107676086Y-119956308D01*
X107766544Y-119957729D01*
X107838984Y-119958867D01*
X107838987Y-119958867D01*
X107840518Y-119958891D01*
X107840519Y-119958891D01*
X107846581Y-119958986D01*
X107846565Y-119959997D01*
X107909713Y-119971546D01*
X107942138Y-119994988D01*
X108728085Y-120780935D01*
X108728089Y-120780938D01*
X108750877Y-120803726D01*
X108768800Y-120812858D01*
X108770760Y-120813857D01*
X108787617Y-120824187D01*
X108805671Y-120837304D01*
X108815101Y-120840368D01*
X108815103Y-120840369D01*
X108826895Y-120844201D01*
X108845157Y-120851765D01*
X108856206Y-120857395D01*
X108856210Y-120857396D01*
X108865045Y-120861898D01*
X108874843Y-120863450D01*
X108874844Y-120863450D01*
X108877269Y-120863834D01*
X108887083Y-120865388D01*
X108906314Y-120870005D01*
X108927534Y-120876900D01*
X117566060Y-120876900D01*
X117634181Y-120896902D01*
X117680674Y-120950558D01*
X117690778Y-121020832D01*
X117661284Y-121085412D01*
X117655155Y-121091995D01*
X107082955Y-131664195D01*
X107020643Y-131698221D01*
X106993860Y-131701100D01*
X102268773Y-131701100D01*
X102200652Y-131681098D01*
X102164935Y-131646470D01*
X102162237Y-131642544D01*
X102162234Y-131642541D01*
X102157934Y-131636284D01*
X102030621Y-131522852D01*
X102022670Y-131518642D01*
X101886637Y-131446616D01*
X101886635Y-131446615D01*
X101879924Y-131443062D01*
X101872559Y-131441212D01*
X101721917Y-131403373D01*
X101721913Y-131403373D01*
X101714546Y-131401522D01*
X101706947Y-131401482D01*
X101706945Y-131401482D01*
X101636029Y-131401111D01*
X101544032Y-131400629D01*
X101536652Y-131402401D01*
X101536650Y-131402401D01*
X101385606Y-131438663D01*
X101385602Y-131438664D01*
X101378227Y-131440435D01*
X101226704Y-131518642D01*
X101220982Y-131523634D01*
X101220980Y-131523635D01*
X101103936Y-131625739D01*
X101098209Y-131630735D01*
X101093840Y-131636952D01*
X101086390Y-131647552D01*
X101030855Y-131691783D01*
X100983304Y-131701100D01*
X95850939Y-131701100D01*
X95782818Y-131681098D01*
X95761848Y-131664199D01*
X94845960Y-130748310D01*
X94811936Y-130686000D01*
X94810314Y-130641465D01*
X94816136Y-130600549D01*
X94816718Y-130596462D01*
X94816874Y-130581600D01*
X94796389Y-130412319D01*
X94736116Y-130252811D01*
X94653251Y-130132242D01*
X94643836Y-130118543D01*
X94643835Y-130118542D01*
X94639534Y-130112284D01*
X94633863Y-130107231D01*
X94517893Y-130003905D01*
X94517890Y-130003903D01*
X94512221Y-129998852D01*
X94505507Y-129995297D01*
X94368237Y-129922616D01*
X94368235Y-129922615D01*
X94361524Y-129919062D01*
X94354159Y-129917212D01*
X94203517Y-129879373D01*
X94203513Y-129879373D01*
X94196146Y-129877522D01*
X94188547Y-129877482D01*
X94188545Y-129877482D01*
X94065685Y-129876839D01*
X94025811Y-129876630D01*
X93957796Y-129856272D01*
X93937376Y-129839727D01*
X89360048Y-125262399D01*
X90350800Y-125262399D01*
X90367318Y-125430862D01*
X90420748Y-125591479D01*
X90508435Y-125736267D01*
X90513326Y-125741332D01*
X90513327Y-125741333D01*
X90537062Y-125765911D01*
X90626021Y-125858031D01*
X90767660Y-125950717D01*
X90926315Y-126009720D01*
X90933296Y-126010651D01*
X90933298Y-126010652D01*
X91087118Y-126031176D01*
X91087122Y-126031176D01*
X91094099Y-126032107D01*
X91101110Y-126031469D01*
X91101114Y-126031469D01*
X91255652Y-126017405D01*
X91262673Y-126016766D01*
X91423659Y-125964458D01*
X91569056Y-125877784D01*
X91691638Y-125761052D01*
X91695539Y-125755181D01*
X91781410Y-125625935D01*
X91781411Y-125625933D01*
X91785311Y-125620063D01*
X91845420Y-125461824D01*
X91868978Y-125294200D01*
X91869274Y-125273000D01*
X91850406Y-125104784D01*
X91794738Y-124944929D01*
X91705038Y-124801379D01*
X91691943Y-124788192D01*
X91590730Y-124686269D01*
X91590726Y-124686266D01*
X91585764Y-124681269D01*
X91580346Y-124677831D01*
X91543163Y-124628322D01*
X91536217Y-124611651D01*
X91122812Y-124198246D01*
X91108868Y-124190632D01*
X91107035Y-124190763D01*
X91100420Y-124195014D01*
X90688385Y-124607049D01*
X90669617Y-124641419D01*
X90641924Y-124674051D01*
X90642544Y-124674684D01*
X90521605Y-124793117D01*
X90429909Y-124935400D01*
X90427498Y-124942025D01*
X90374425Y-125087840D01*
X90374424Y-125087845D01*
X90372015Y-125094463D01*
X90350800Y-125262399D01*
X89360048Y-125262399D01*
X88097067Y-123999418D01*
X90351991Y-123999418D01*
X90367123Y-124153748D01*
X90370034Y-124167442D01*
X90418981Y-124314582D01*
X90424854Y-124327293D01*
X90482768Y-124422920D01*
X90493174Y-124432434D01*
X90501795Y-124428771D01*
X90914754Y-124015812D01*
X90921132Y-124004132D01*
X91297632Y-124004132D01*
X91297763Y-124005965D01*
X91302014Y-124012580D01*
X91713932Y-124424498D01*
X91725226Y-124430665D01*
X91737771Y-124420713D01*
X91780962Y-124355704D01*
X91787365Y-124343245D01*
X91842433Y-124198281D01*
X91845913Y-124184727D01*
X91867924Y-124028109D01*
X91868530Y-124020225D01*
X91868716Y-124006962D01*
X91868329Y-123999062D01*
X91850700Y-123841891D01*
X91847599Y-123828245D01*
X91796601Y-123681800D01*
X91790550Y-123669171D01*
X91736970Y-123583424D01*
X91726432Y-123574057D01*
X91717382Y-123578052D01*
X91305246Y-123990188D01*
X91297632Y-124004132D01*
X90921132Y-124004132D01*
X90922368Y-124001868D01*
X90922237Y-124000035D01*
X90917986Y-123993420D01*
X90505809Y-123581243D01*
X90493429Y-123574483D01*
X90485058Y-123580749D01*
X90434177Y-123659701D01*
X90427950Y-123672246D01*
X90374913Y-123817962D01*
X90371621Y-123831570D01*
X90352187Y-123985412D01*
X90351991Y-123999418D01*
X88097067Y-123999418D01*
X87484034Y-123386385D01*
X90680825Y-123386385D01*
X90684649Y-123395215D01*
X91097188Y-123807754D01*
X91111132Y-123815368D01*
X91112965Y-123815237D01*
X91119580Y-123810986D01*
X91531928Y-123398638D01*
X91538688Y-123386258D01*
X91532595Y-123378118D01*
X91448566Y-123324792D01*
X91435990Y-123318659D01*
X91289902Y-123266640D01*
X91276275Y-123263443D01*
X91122289Y-123245081D01*
X91108293Y-123244983D01*
X90954065Y-123261193D01*
X90940401Y-123264198D01*
X90793602Y-123314172D01*
X90780929Y-123320136D01*
X90690267Y-123375912D01*
X90680825Y-123386385D01*
X87484034Y-123386385D01*
X86441084Y-122343435D01*
X97940812Y-122343435D01*
X97942055Y-122365000D01*
X97956937Y-122623099D01*
X97957762Y-122627306D01*
X97957763Y-122627311D01*
X97979028Y-122735696D01*
X98010868Y-122897986D01*
X98012255Y-122902037D01*
X98068612Y-123066642D01*
X98101606Y-123163011D01*
X98227473Y-123413269D01*
X98386139Y-123644130D01*
X98389020Y-123647296D01*
X98553671Y-123828245D01*
X98574669Y-123851322D01*
X98789573Y-124031010D01*
X98793199Y-124033285D01*
X98793201Y-124033286D01*
X98848661Y-124068076D01*
X99026876Y-124179869D01*
X99030778Y-124181631D01*
X99030782Y-124181633D01*
X99278273Y-124293380D01*
X99278277Y-124293382D01*
X99282185Y-124295146D01*
X99286305Y-124296366D01*
X99286304Y-124296366D01*
X99546664Y-124373488D01*
X99546668Y-124373489D01*
X99550777Y-124374706D01*
X99555014Y-124375354D01*
X99555017Y-124375355D01*
X99639874Y-124388340D01*
X99827682Y-124417079D01*
X99970296Y-124419319D01*
X100103484Y-124421412D01*
X100103490Y-124421412D01*
X100107775Y-124421479D01*
X100385875Y-124387825D01*
X100656833Y-124316740D01*
X100915638Y-124209540D01*
X100934906Y-124198281D01*
X101153801Y-124070369D01*
X101153802Y-124070369D01*
X101157499Y-124068208D01*
X101252880Y-123993420D01*
X101374569Y-123898003D01*
X101377941Y-123895359D01*
X101572886Y-123694192D01*
X101575419Y-123690744D01*
X101575423Y-123690739D01*
X101736187Y-123471884D01*
X101738725Y-123468429D01*
X101741029Y-123464186D01*
X101870341Y-123226023D01*
X101870342Y-123226021D01*
X101872391Y-123222247D01*
X101971409Y-122960203D01*
X102033948Y-122687146D01*
X102055464Y-122446054D01*
X102058629Y-122410595D01*
X102058629Y-122410589D01*
X102058849Y-122408127D01*
X102059301Y-122365000D01*
X102053108Y-122274156D01*
X102040592Y-122090568D01*
X103151165Y-122090568D01*
X103169876Y-122260055D01*
X103228476Y-122420185D01*
X103232712Y-122426488D01*
X103232713Y-122426491D01*
X103319340Y-122555407D01*
X103319343Y-122555410D01*
X103323580Y-122561716D01*
X103329200Y-122566830D01*
X103329202Y-122566832D01*
X103386328Y-122618812D01*
X103449699Y-122676475D01*
X103599552Y-122757838D01*
X103764486Y-122801108D01*
X103851396Y-122802473D01*
X103927382Y-122803667D01*
X103927385Y-122803667D01*
X103934981Y-122803786D01*
X103942386Y-122802090D01*
X103942387Y-122802090D01*
X104003272Y-122788145D01*
X104101193Y-122765719D01*
X104177361Y-122727411D01*
X104246745Y-122692515D01*
X104246748Y-122692513D01*
X104253528Y-122689103D01*
X104383189Y-122578361D01*
X104482692Y-122439888D01*
X104546292Y-122281677D01*
X104551801Y-122242968D01*
X105691165Y-122242968D01*
X105709876Y-122412455D01*
X105768476Y-122572585D01*
X105772712Y-122578888D01*
X105772713Y-122578891D01*
X105859340Y-122707807D01*
X105859343Y-122707810D01*
X105863580Y-122714116D01*
X105869200Y-122719230D01*
X105869202Y-122719232D01*
X105962126Y-122803786D01*
X105989699Y-122828875D01*
X105996372Y-122832498D01*
X106124448Y-122902037D01*
X106139552Y-122910238D01*
X106304486Y-122953508D01*
X106391396Y-122954873D01*
X106467382Y-122956067D01*
X106467385Y-122956067D01*
X106474981Y-122956186D01*
X106482386Y-122954490D01*
X106482387Y-122954490D01*
X106599870Y-122927583D01*
X106641193Y-122918119D01*
X106717360Y-122879811D01*
X106786745Y-122844915D01*
X106786748Y-122844913D01*
X106793528Y-122841503D01*
X106923189Y-122730761D01*
X106939994Y-122707374D01*
X106995987Y-122663726D01*
X107042316Y-122654900D01*
X109936504Y-122654900D01*
X110004625Y-122674902D01*
X110051118Y-122728558D01*
X110061743Y-122767074D01*
X110065500Y-122801108D01*
X110078676Y-122920455D01*
X110137276Y-123080585D01*
X110141512Y-123086888D01*
X110141513Y-123086891D01*
X110228140Y-123215807D01*
X110228143Y-123215810D01*
X110232380Y-123222116D01*
X110238000Y-123227230D01*
X110238002Y-123227232D01*
X110338480Y-123318659D01*
X110358499Y-123336875D01*
X110508352Y-123418238D01*
X110673286Y-123461508D01*
X110760196Y-123462873D01*
X110836182Y-123464067D01*
X110836185Y-123464067D01*
X110843781Y-123464186D01*
X110851186Y-123462490D01*
X110851187Y-123462490D01*
X110912072Y-123448545D01*
X111009993Y-123426119D01*
X111105433Y-123378118D01*
X111155545Y-123352915D01*
X111155548Y-123352913D01*
X111162328Y-123349503D01*
X111265725Y-123261193D01*
X111286217Y-123243691D01*
X111286218Y-123243690D01*
X111291989Y-123238761D01*
X111391492Y-123100288D01*
X111455092Y-122942077D01*
X111479118Y-122773262D01*
X111479274Y-122758400D01*
X111458789Y-122589119D01*
X111398516Y-122429611D01*
X111354110Y-122365000D01*
X111306236Y-122295343D01*
X111306235Y-122295342D01*
X111301934Y-122289084D01*
X111293621Y-122281677D01*
X111180293Y-122180705D01*
X111180290Y-122180703D01*
X111174621Y-122175652D01*
X111167907Y-122172097D01*
X111030637Y-122099416D01*
X111030635Y-122099415D01*
X111023924Y-122095862D01*
X111002848Y-122090568D01*
X110865917Y-122056173D01*
X110865913Y-122056173D01*
X110858546Y-122054322D01*
X110850947Y-122054282D01*
X110850945Y-122054282D01*
X110725513Y-122053625D01*
X110688212Y-122053430D01*
X110620197Y-122033072D01*
X110599777Y-122016527D01*
X110525115Y-121941865D01*
X110525111Y-121941862D01*
X110502323Y-121919074D01*
X110482444Y-121908945D01*
X110465589Y-121898616D01*
X110455553Y-121891325D01*
X110447529Y-121885495D01*
X110426304Y-121878599D01*
X110408038Y-121871033D01*
X110388155Y-121860902D01*
X110366113Y-121857411D01*
X110346887Y-121852795D01*
X110335100Y-121848965D01*
X110335098Y-121848965D01*
X110325666Y-121845900D01*
X107043973Y-121845900D01*
X106975852Y-121825898D01*
X106940135Y-121791270D01*
X106937437Y-121787344D01*
X106937434Y-121787341D01*
X106933134Y-121781084D01*
X106920381Y-121769721D01*
X106811491Y-121672704D01*
X106805821Y-121667652D01*
X106797711Y-121663358D01*
X106661837Y-121591416D01*
X106661835Y-121591415D01*
X106655124Y-121587862D01*
X106647759Y-121586012D01*
X106497117Y-121548173D01*
X106497113Y-121548173D01*
X106489746Y-121546322D01*
X106482147Y-121546282D01*
X106482145Y-121546282D01*
X106411229Y-121545911D01*
X106319232Y-121545429D01*
X106311852Y-121547201D01*
X106311850Y-121547201D01*
X106160806Y-121583463D01*
X106160802Y-121583464D01*
X106153427Y-121585235D01*
X106001904Y-121663442D01*
X105996182Y-121668434D01*
X105996180Y-121668435D01*
X105895313Y-121756427D01*
X105873409Y-121775535D01*
X105775362Y-121915043D01*
X105737984Y-122010912D01*
X105718852Y-122059985D01*
X105713422Y-122073911D01*
X105712430Y-122081444D01*
X105712430Y-122081445D01*
X105697553Y-122194448D01*
X105691165Y-122242968D01*
X104551801Y-122242968D01*
X104570318Y-122112862D01*
X104570474Y-122098000D01*
X104569482Y-122089798D01*
X104565184Y-122054282D01*
X104549989Y-121928719D01*
X104489716Y-121769211D01*
X104393134Y-121628684D01*
X104347317Y-121587862D01*
X104339716Y-121581090D01*
X104307481Y-121552370D01*
X104269925Y-121492120D01*
X104265300Y-121458294D01*
X104265300Y-120488940D01*
X104285302Y-120420819D01*
X104302205Y-120399845D01*
X107146951Y-117555098D01*
X107209263Y-117521072D01*
X107238025Y-117518209D01*
X107381782Y-117520467D01*
X107381785Y-117520467D01*
X107389381Y-117520586D01*
X107396786Y-117518890D01*
X107396787Y-117518890D01*
X107457672Y-117504945D01*
X107555593Y-117482519D01*
X107631761Y-117444211D01*
X107701145Y-117409315D01*
X107701148Y-117409313D01*
X107707928Y-117405903D01*
X107837589Y-117295161D01*
X107937092Y-117156688D01*
X108000692Y-116998477D01*
X108024718Y-116829662D01*
X108024874Y-116814800D01*
X108004389Y-116645519D01*
X107944116Y-116486011D01*
X107847534Y-116345484D01*
X107720221Y-116232052D01*
X107712270Y-116227842D01*
X107576237Y-116155816D01*
X107576235Y-116155815D01*
X107569524Y-116152262D01*
X107562159Y-116150412D01*
X107411517Y-116112573D01*
X107411513Y-116112573D01*
X107404146Y-116110722D01*
X107396547Y-116110682D01*
X107396545Y-116110682D01*
X107325629Y-116110311D01*
X107233632Y-116109829D01*
X107226252Y-116111601D01*
X107226250Y-116111601D01*
X107075206Y-116147863D01*
X107075202Y-116147864D01*
X107067827Y-116149635D01*
X106916304Y-116227842D01*
X106910582Y-116232834D01*
X106910580Y-116232835D01*
X106793536Y-116334939D01*
X106787809Y-116339935D01*
X106689762Y-116479443D01*
X106627822Y-116638311D01*
X106626830Y-116645844D01*
X106626830Y-116645845D01*
X106606897Y-116797253D01*
X106605565Y-116807368D01*
X106613344Y-116877830D01*
X106600938Y-116947734D01*
X106577200Y-116980751D01*
X103552265Y-120005685D01*
X103552262Y-120005689D01*
X103529474Y-120028477D01*
X103524971Y-120037315D01*
X103519346Y-120048354D01*
X103509016Y-120065211D01*
X103506065Y-120069273D01*
X103495895Y-120083271D01*
X103492830Y-120092704D01*
X103488999Y-120104495D01*
X103481434Y-120122761D01*
X103471302Y-120142645D01*
X103469751Y-120152438D01*
X103467811Y-120164687D01*
X103463195Y-120183913D01*
X103456300Y-120205134D01*
X103456300Y-121458642D01*
X103436298Y-121526763D01*
X103413129Y-121553591D01*
X103333409Y-121623135D01*
X103235362Y-121762643D01*
X103200213Y-121852795D01*
X103180077Y-121904443D01*
X103173422Y-121921511D01*
X103172430Y-121929044D01*
X103172430Y-121929045D01*
X103153358Y-122073911D01*
X103151165Y-122090568D01*
X102040592Y-122090568D01*
X102040540Y-122089798D01*
X102040539Y-122089792D01*
X102040248Y-122085521D01*
X102029387Y-122033072D01*
X101984311Y-121815410D01*
X101983442Y-121811213D01*
X101889933Y-121547153D01*
X101761452Y-121298226D01*
X101748530Y-121279839D01*
X101602844Y-121072550D01*
X101602843Y-121072549D01*
X101600377Y-121069040D01*
X101461449Y-120919534D01*
X101412606Y-120866973D01*
X101412605Y-120866972D01*
X101409689Y-120863834D01*
X101395550Y-120852261D01*
X101196232Y-120689123D01*
X101192914Y-120686407D01*
X100954066Y-120540040D01*
X100843134Y-120491344D01*
X100701495Y-120429169D01*
X100697563Y-120427443D01*
X100678210Y-120421930D01*
X100647881Y-120413291D01*
X100428153Y-120350700D01*
X100423911Y-120350096D01*
X100423905Y-120350095D01*
X100218548Y-120320868D01*
X100150819Y-120311229D01*
X100003708Y-120310459D01*
X99874981Y-120309785D01*
X99874975Y-120309785D01*
X99870695Y-120309763D01*
X99866451Y-120310322D01*
X99866447Y-120310322D01*
X99744326Y-120326400D01*
X99592964Y-120346327D01*
X99588824Y-120347460D01*
X99588822Y-120347460D01*
X99397335Y-120399845D01*
X99322765Y-120420245D01*
X99065097Y-120530149D01*
X98919747Y-120617140D01*
X98828411Y-120671803D01*
X98828407Y-120671806D01*
X98824729Y-120674007D01*
X98821386Y-120676685D01*
X98821382Y-120676688D01*
X98812046Y-120684168D01*
X98606109Y-120849155D01*
X98603165Y-120852257D01*
X98603161Y-120852261D01*
X98416231Y-121049243D01*
X98413281Y-121052352D01*
X98249815Y-121279839D01*
X98118735Y-121527407D01*
X98117263Y-121531430D01*
X98117261Y-121531434D01*
X98027751Y-121776031D01*
X98022466Y-121790473D01*
X97962790Y-122064171D01*
X97961440Y-122081324D01*
X97948125Y-122250518D01*
X97940812Y-122343435D01*
X86441084Y-122343435D01*
X77450618Y-113352968D01*
X82831165Y-113352968D01*
X82849876Y-113522455D01*
X82908476Y-113682585D01*
X82912712Y-113688888D01*
X82912713Y-113688891D01*
X82999340Y-113817807D01*
X82999343Y-113817810D01*
X83003580Y-113824116D01*
X83009200Y-113829230D01*
X83009202Y-113829232D01*
X83124083Y-113933765D01*
X83129699Y-113938875D01*
X83279552Y-114020238D01*
X83444486Y-114063508D01*
X83531396Y-114064873D01*
X83607382Y-114066067D01*
X83607385Y-114066067D01*
X83614981Y-114066186D01*
X83622386Y-114064490D01*
X83622387Y-114064490D01*
X83683272Y-114050545D01*
X83781193Y-114028119D01*
X83857361Y-113989811D01*
X83926745Y-113954915D01*
X83926748Y-113954913D01*
X83933528Y-113951503D01*
X84063189Y-113840761D01*
X84162692Y-113702288D01*
X84226292Y-113544077D01*
X84250318Y-113375262D01*
X84250474Y-113360400D01*
X84229989Y-113191119D01*
X84169716Y-113031611D01*
X84073134Y-112891084D01*
X84074515Y-112890135D01*
X84048341Y-112834096D01*
X84046900Y-112815096D01*
X84046900Y-110545136D01*
X84066902Y-110477015D01*
X84091069Y-110449326D01*
X84159013Y-110391296D01*
X84159021Y-110391288D01*
X84164789Y-110386361D01*
X84264292Y-110247888D01*
X84327892Y-110089677D01*
X84351918Y-109920862D01*
X84352074Y-109906000D01*
X84350732Y-109894906D01*
X84341883Y-109821785D01*
X84331589Y-109736719D01*
X84271316Y-109577211D01*
X84225355Y-109510338D01*
X84179036Y-109442943D01*
X84179035Y-109442942D01*
X84174734Y-109436684D01*
X84047421Y-109323252D01*
X84033783Y-109316031D01*
X83903437Y-109247016D01*
X83903435Y-109247015D01*
X83896724Y-109243462D01*
X83889359Y-109241612D01*
X83738717Y-109203773D01*
X83738713Y-109203773D01*
X83731346Y-109201922D01*
X83723747Y-109201882D01*
X83723745Y-109201882D01*
X83652829Y-109201511D01*
X83560832Y-109201029D01*
X83553452Y-109202801D01*
X83553450Y-109202801D01*
X83402406Y-109239063D01*
X83402402Y-109239064D01*
X83395027Y-109240835D01*
X83243504Y-109319042D01*
X83237782Y-109324034D01*
X83237780Y-109324035D01*
X83179547Y-109374835D01*
X83115009Y-109431135D01*
X83016962Y-109570643D01*
X82981478Y-109661655D01*
X82960336Y-109715882D01*
X82955022Y-109729511D01*
X82954030Y-109737044D01*
X82954030Y-109737045D01*
X82934653Y-109884229D01*
X82932765Y-109898568D01*
X82951476Y-110068055D01*
X83010076Y-110228185D01*
X83014312Y-110234488D01*
X83014313Y-110234491D01*
X83100940Y-110363407D01*
X83100943Y-110363410D01*
X83105180Y-110369716D01*
X83135654Y-110397445D01*
X83196700Y-110452993D01*
X83233622Y-110513633D01*
X83237900Y-110546186D01*
X83237900Y-112647135D01*
X83217898Y-112715256D01*
X83169688Y-112759101D01*
X83148658Y-112769955D01*
X83148652Y-112769959D01*
X83141904Y-112773442D01*
X83136182Y-112778434D01*
X83136180Y-112778435D01*
X83075658Y-112831232D01*
X83013409Y-112885535D01*
X82915362Y-113025043D01*
X82853422Y-113183911D01*
X82852430Y-113191444D01*
X82852430Y-113191445D01*
X82833199Y-113337520D01*
X82831165Y-113352968D01*
X77450618Y-113352968D01*
X76515168Y-112417518D01*
X76481142Y-112355206D01*
X76486207Y-112284391D01*
X76501940Y-112254897D01*
X76589061Y-112133655D01*
X76589062Y-112133652D01*
X76593492Y-112127488D01*
X76657092Y-111969277D01*
X76681118Y-111800462D01*
X76681274Y-111785600D01*
X76660789Y-111616319D01*
X76600516Y-111456811D01*
X76503934Y-111316284D01*
X76451568Y-111269627D01*
X76407885Y-111230707D01*
X76376621Y-111202852D01*
X76364921Y-111196657D01*
X76232637Y-111126616D01*
X76232635Y-111126615D01*
X76225924Y-111123062D01*
X76218559Y-111121212D01*
X76067917Y-111083373D01*
X76067913Y-111083373D01*
X76060546Y-111081522D01*
X76052947Y-111081482D01*
X76052945Y-111081482D01*
X75982029Y-111081111D01*
X75890032Y-111080629D01*
X75882652Y-111082401D01*
X75882650Y-111082401D01*
X75731606Y-111118663D01*
X75731602Y-111118664D01*
X75724227Y-111120435D01*
X75652409Y-111157503D01*
X75595768Y-111186738D01*
X75572704Y-111198642D01*
X75566982Y-111203634D01*
X75566980Y-111203635D01*
X75491332Y-111269627D01*
X75444209Y-111310735D01*
X75346162Y-111450243D01*
X75284222Y-111609111D01*
X75283230Y-111616644D01*
X75283230Y-111616645D01*
X75262981Y-111770453D01*
X75261965Y-111778168D01*
X64669413Y-111778168D01*
X64648897Y-111718245D01*
X64578060Y-111511345D01*
X64576840Y-111507591D01*
X64559293Y-111450553D01*
X64233956Y-110393029D01*
X64232857Y-110389245D01*
X64231103Y-110382831D01*
X63925160Y-109264496D01*
X63924178Y-109260672D01*
X63922481Y-109253601D01*
X63812291Y-108794629D01*
X63651951Y-108126764D01*
X63651088Y-108122901D01*
X63527973Y-107528401D01*
X63414618Y-106981034D01*
X63413881Y-106977171D01*
X63406328Y-106933890D01*
X63213394Y-105828426D01*
X63212775Y-105824517D01*
X63143978Y-105341128D01*
X63048466Y-104670023D01*
X63047974Y-104666128D01*
X62920016Y-103507092D01*
X62919643Y-103503152D01*
X62828149Y-102340619D01*
X62827901Y-102336668D01*
X62772971Y-101171876D01*
X62772847Y-101167920D01*
X62754531Y-100001979D01*
X62754531Y-99998021D01*
X62769032Y-99074933D01*
X97305500Y-99074933D01*
X97305501Y-100925066D01*
X97307594Y-100935588D01*
X97317649Y-100986142D01*
X97320266Y-100999301D01*
X97327161Y-101009621D01*
X97327162Y-101009622D01*
X97357009Y-101054290D01*
X97376516Y-101083484D01*
X97460699Y-101139734D01*
X97534933Y-101154500D01*
X98094909Y-101154500D01*
X98655066Y-101154499D01*
X98690818Y-101147388D01*
X98717126Y-101142156D01*
X98717128Y-101142155D01*
X98729301Y-101139734D01*
X98739621Y-101132839D01*
X98739622Y-101132838D01*
X98803168Y-101090377D01*
X98813484Y-101083484D01*
X98820377Y-101073168D01*
X98821965Y-101071580D01*
X98884277Y-101037554D01*
X98955092Y-101042619D01*
X98978574Y-101054290D01*
X99010988Y-101074861D01*
X99023570Y-101080997D01*
X99177055Y-101135651D01*
X99190683Y-101138848D01*
X99218013Y-101142107D01*
X99232417Y-101139680D01*
X99236000Y-101126910D01*
X99236000Y-101126717D01*
X99494000Y-101126717D01*
X99498196Y-101141008D01*
X99510801Y-101143066D01*
X99528499Y-101141206D01*
X99542160Y-101138202D01*
X99696398Y-101085695D01*
X99709064Y-101079734D01*
X99847830Y-100994365D01*
X99858864Y-100985745D01*
X99911347Y-100934349D01*
X99974012Y-100900978D01*
X100044771Y-100906784D01*
X100088911Y-100935588D01*
X100132203Y-100979184D01*
X100132207Y-100979187D01*
X100137166Y-100984181D01*
X100143112Y-100987955D01*
X100143114Y-100987956D01*
X100160991Y-100999301D01*
X100286716Y-101079088D01*
X100389987Y-101115862D01*
X100446942Y-101136143D01*
X100446944Y-101136144D01*
X100453576Y-101138505D01*
X100460562Y-101139338D01*
X100460566Y-101139339D01*
X100577575Y-101153291D01*
X100629453Y-101159477D01*
X100636455Y-101158741D01*
X100636457Y-101158741D01*
X100688307Y-101153291D01*
X100805606Y-101140962D01*
X100812272Y-101138693D01*
X100812275Y-101138692D01*
X100966613Y-101086151D01*
X100966616Y-101086150D01*
X100973280Y-101083881D01*
X101093987Y-101009622D01*
X101118140Y-100994763D01*
X101118141Y-100994762D01*
X101124141Y-100991071D01*
X101129171Y-100986145D01*
X101129179Y-100986139D01*
X101181701Y-100934705D01*
X101244366Y-100901334D01*
X101315125Y-100907140D01*
X101359265Y-100935944D01*
X101407166Y-100984181D01*
X101413112Y-100987955D01*
X101413114Y-100987956D01*
X101430991Y-100999301D01*
X101556716Y-101079088D01*
X101659987Y-101115862D01*
X101716942Y-101136143D01*
X101716944Y-101136144D01*
X101723576Y-101138505D01*
X101730562Y-101139338D01*
X101730566Y-101139339D01*
X101847575Y-101153291D01*
X101899453Y-101159477D01*
X101906455Y-101158741D01*
X101906457Y-101158741D01*
X101958307Y-101153291D01*
X102075606Y-101140962D01*
X102082272Y-101138693D01*
X102082275Y-101138692D01*
X102236613Y-101086151D01*
X102236616Y-101086150D01*
X102243280Y-101083881D01*
X102363987Y-101009622D01*
X102388140Y-100994763D01*
X102388141Y-100994762D01*
X102394141Y-100991071D01*
X102467863Y-100918877D01*
X102515659Y-100872072D01*
X102515660Y-100872071D01*
X102520690Y-100867145D01*
X102616639Y-100718261D01*
X102620269Y-100708290D01*
X102674810Y-100558438D01*
X102674810Y-100558437D01*
X102677219Y-100551819D01*
X102694500Y-100415030D01*
X102694500Y-99590460D01*
X102679752Y-99458981D01*
X102672879Y-99439243D01*
X102642935Y-99353258D01*
X102621502Y-99291710D01*
X102527641Y-99141501D01*
X102503189Y-99116877D01*
X102452314Y-99065646D01*
X102402834Y-99015819D01*
X102386160Y-99005237D01*
X102302498Y-98952144D01*
X102253284Y-98920912D01*
X102150013Y-98884138D01*
X102093058Y-98863857D01*
X102093056Y-98863856D01*
X102086424Y-98861495D01*
X102079438Y-98860662D01*
X102079434Y-98860661D01*
X101952294Y-98845501D01*
X101910547Y-98840523D01*
X101903545Y-98841259D01*
X101903543Y-98841259D01*
X101863195Y-98845500D01*
X101734394Y-98859038D01*
X101727728Y-98861307D01*
X101727725Y-98861308D01*
X101573387Y-98913849D01*
X101573384Y-98913850D01*
X101566720Y-98916119D01*
X101508162Y-98952144D01*
X101429237Y-99000699D01*
X101415859Y-99008929D01*
X101410829Y-99013855D01*
X101410821Y-99013861D01*
X101358299Y-99065295D01*
X101295634Y-99098666D01*
X101224875Y-99092860D01*
X101180735Y-99064056D01*
X101137796Y-99020816D01*
X101132834Y-99015819D01*
X101116160Y-99005237D01*
X101032498Y-98952144D01*
X100983284Y-98920912D01*
X100880013Y-98884138D01*
X100823058Y-98863857D01*
X100823056Y-98863856D01*
X100816424Y-98861495D01*
X100809438Y-98860662D01*
X100809434Y-98860661D01*
X100682294Y-98845501D01*
X100640547Y-98840523D01*
X100633545Y-98841259D01*
X100633543Y-98841259D01*
X100593195Y-98845500D01*
X100464394Y-98859038D01*
X100457728Y-98861307D01*
X100457725Y-98861308D01*
X100303387Y-98913849D01*
X100303384Y-98913850D01*
X100296720Y-98916119D01*
X100238162Y-98952144D01*
X100159237Y-99000699D01*
X100145859Y-99008929D01*
X100140824Y-99013860D01*
X100140821Y-99013862D01*
X100087940Y-99065646D01*
X100025275Y-99099016D01*
X99954516Y-99093210D01*
X99910377Y-99064406D01*
X99867481Y-99021209D01*
X99856570Y-99012437D01*
X99719017Y-98925144D01*
X99706420Y-98919000D01*
X99552945Y-98864349D01*
X99539317Y-98861152D01*
X99511987Y-98857893D01*
X99497583Y-98860320D01*
X99494000Y-98873090D01*
X99494000Y-101126717D01*
X99236000Y-101126717D01*
X99236000Y-98873283D01*
X99231804Y-98858992D01*
X99219199Y-98856934D01*
X99201501Y-98858794D01*
X99187840Y-98861798D01*
X99033602Y-98914305D01*
X99020934Y-98920266D01*
X98977456Y-98947015D01*
X98908955Y-98965674D01*
X98841241Y-98944336D01*
X98822338Y-98928793D01*
X98820377Y-98926832D01*
X98813484Y-98916516D01*
X98729301Y-98860266D01*
X98655067Y-98845500D01*
X98095091Y-98845500D01*
X97534934Y-98845501D01*
X97499182Y-98852612D01*
X97472874Y-98857844D01*
X97472872Y-98857845D01*
X97460699Y-98860266D01*
X97450379Y-98867161D01*
X97450378Y-98867162D01*
X97389985Y-98907516D01*
X97376516Y-98916516D01*
X97320266Y-99000699D01*
X97305500Y-99074933D01*
X62769032Y-99074933D01*
X62772847Y-98832080D01*
X62772971Y-98828124D01*
X62827901Y-97663332D01*
X62828149Y-97659381D01*
X62919643Y-96496848D01*
X62920016Y-96492908D01*
X63047974Y-95333872D01*
X63048466Y-95329977D01*
X63189298Y-94340439D01*
X63212775Y-94175483D01*
X63213394Y-94171574D01*
X63307618Y-93631691D01*
X63413886Y-93022803D01*
X63414623Y-93018941D01*
X63426715Y-92960555D01*
X63537146Y-92427300D01*
X63651088Y-91877099D01*
X63651951Y-91873236D01*
X63924178Y-90739328D01*
X63925163Y-90735494D01*
X63974064Y-90556744D01*
X64232862Y-89610738D01*
X64233961Y-89606954D01*
X64330174Y-89294211D01*
X64576843Y-88492399D01*
X64578063Y-88488644D01*
X64608532Y-88399653D01*
X64756415Y-87967719D01*
X64955787Y-87385402D01*
X64957128Y-87381678D01*
X65357891Y-86321088D01*
X65369314Y-86290859D01*
X65370767Y-86287189D01*
X65421167Y-86165514D01*
X65681686Y-85536565D01*
X65817011Y-85209861D01*
X65818583Y-85206228D01*
X66076768Y-84634411D01*
X66298467Y-84143401D01*
X66300146Y-84139836D01*
X66317833Y-84103734D01*
X66813145Y-83092677D01*
X66814942Y-83089150D01*
X66859236Y-83005493D01*
X67360597Y-82058587D01*
X67362467Y-82055183D01*
X67940254Y-81042215D01*
X67942269Y-81038808D01*
X68551551Y-80044548D01*
X68553672Y-80041206D01*
X68867546Y-79563380D01*
X69156118Y-79124071D01*
X69193883Y-79066579D01*
X69196108Y-79063305D01*
X69866629Y-78109251D01*
X69868956Y-78106049D01*
X70569088Y-77173560D01*
X70571514Y-77170432D01*
X71300622Y-76260357D01*
X71303145Y-76257308D01*
X72060431Y-75370640D01*
X72063048Y-75367670D01*
X72580041Y-74799502D01*
X72847898Y-74505131D01*
X72850570Y-74502287D01*
X73662107Y-73664844D01*
X73664844Y-73662107D01*
X73857957Y-73474968D01*
X84710765Y-73474968D01*
X84729476Y-73644455D01*
X84788076Y-73804585D01*
X84792312Y-73810888D01*
X84792313Y-73810891D01*
X84805463Y-73830460D01*
X84883180Y-73946116D01*
X84885960Y-73948645D01*
X84914652Y-74011793D01*
X84915900Y-74029485D01*
X84915900Y-86568976D01*
X84914559Y-86580981D01*
X84915055Y-86581021D01*
X84914335Y-86589968D01*
X84912354Y-86598724D01*
X84912910Y-86607684D01*
X84915658Y-86651982D01*
X84915900Y-86659784D01*
X84915900Y-86675826D01*
X84916535Y-86680257D01*
X84916535Y-86680262D01*
X84917365Y-86686053D01*
X84918396Y-86696114D01*
X84921302Y-86742959D01*
X84924349Y-86751399D01*
X84925030Y-86754689D01*
X84928982Y-86770538D01*
X84929927Y-86773768D01*
X84931199Y-86782652D01*
X84934914Y-86790823D01*
X84950618Y-86825363D01*
X84954430Y-86834728D01*
X84967322Y-86870437D01*
X84967324Y-86870440D01*
X84970372Y-86878884D01*
X84975668Y-86886133D01*
X84977240Y-86889090D01*
X84985493Y-86903214D01*
X84987298Y-86906037D01*
X84991012Y-86914205D01*
X85017209Y-86944607D01*
X85021643Y-86949753D01*
X85027925Y-86957664D01*
X85035873Y-86968544D01*
X85046735Y-86979406D01*
X85053093Y-86986252D01*
X85085344Y-87023682D01*
X85092879Y-87028566D01*
X85099451Y-87034299D01*
X85110855Y-87043526D01*
X90296923Y-92229594D01*
X90304465Y-92239034D01*
X90304845Y-92238711D01*
X90310663Y-92245547D01*
X90315453Y-92253139D01*
X90322181Y-92259081D01*
X90355459Y-92288471D01*
X90361146Y-92293817D01*
X90372480Y-92305151D01*
X90376063Y-92307836D01*
X90376065Y-92307838D01*
X90380755Y-92311353D01*
X90388598Y-92317738D01*
X90423770Y-92348801D01*
X90431892Y-92352614D01*
X90434693Y-92354454D01*
X90448688Y-92362863D01*
X90451651Y-92364485D01*
X90458836Y-92369870D01*
X90467246Y-92373023D01*
X90467248Y-92373024D01*
X90502782Y-92386346D01*
X90512095Y-92390270D01*
X90554582Y-92410217D01*
X90563456Y-92411599D01*
X90566683Y-92412585D01*
X90582466Y-92416725D01*
X90585744Y-92417446D01*
X90594152Y-92420598D01*
X90607909Y-92421620D01*
X90640957Y-92424076D01*
X90651004Y-92425230D01*
X90659486Y-92426551D01*
X90659489Y-92426551D01*
X90664297Y-92427300D01*
X90679662Y-92427300D01*
X90689000Y-92427646D01*
X90738267Y-92431307D01*
X90747042Y-92429434D01*
X90755738Y-92428841D01*
X90770338Y-92427300D01*
X99637239Y-92427300D01*
X99705360Y-92447302D01*
X99726334Y-92464205D01*
X106502123Y-99239994D01*
X106509665Y-99249434D01*
X106510045Y-99249111D01*
X106515863Y-99255947D01*
X106520653Y-99263539D01*
X106527381Y-99269481D01*
X106560659Y-99298871D01*
X106566346Y-99304217D01*
X106577680Y-99315551D01*
X106581266Y-99318238D01*
X106581271Y-99318243D01*
X106585959Y-99321757D01*
X106593797Y-99328138D01*
X106628970Y-99359201D01*
X106637095Y-99363016D01*
X106639916Y-99364869D01*
X106653912Y-99373277D01*
X106656850Y-99374886D01*
X106664036Y-99380271D01*
X106672441Y-99383422D01*
X106672443Y-99383423D01*
X106707978Y-99396744D01*
X106717292Y-99400668D01*
X106759782Y-99420617D01*
X106768653Y-99421998D01*
X106771875Y-99422983D01*
X106787658Y-99427123D01*
X106790942Y-99427845D01*
X106799352Y-99430998D01*
X106846157Y-99434476D01*
X106856197Y-99435629D01*
X106862466Y-99436605D01*
X106864686Y-99436951D01*
X106864687Y-99436951D01*
X106869497Y-99437700D01*
X106884866Y-99437700D01*
X106894204Y-99438047D01*
X106934516Y-99441043D01*
X106934517Y-99441043D01*
X106943467Y-99441708D01*
X106952242Y-99439835D01*
X106960926Y-99439243D01*
X106975542Y-99437700D01*
X112768456Y-99437700D01*
X112836577Y-99457702D01*
X112853254Y-99470505D01*
X112898499Y-99511675D01*
X112905172Y-99515298D01*
X113037158Y-99586960D01*
X113048352Y-99593038D01*
X113213286Y-99636308D01*
X113300196Y-99637673D01*
X113376182Y-99638867D01*
X113376185Y-99638867D01*
X113383781Y-99638986D01*
X113391186Y-99637290D01*
X113391187Y-99637290D01*
X113452072Y-99623345D01*
X113549993Y-99600919D01*
X113626160Y-99562611D01*
X113695545Y-99527715D01*
X113695548Y-99527713D01*
X113702328Y-99524303D01*
X113807501Y-99434476D01*
X113826217Y-99418491D01*
X113826218Y-99418490D01*
X113831989Y-99413561D01*
X113931492Y-99275088D01*
X113995092Y-99116877D01*
X114019118Y-98948062D01*
X114019274Y-98933200D01*
X114018504Y-98926832D01*
X114011283Y-98867162D01*
X113998789Y-98763919D01*
X113938516Y-98604411D01*
X113841934Y-98463884D01*
X113802445Y-98428700D01*
X113720291Y-98355504D01*
X113714621Y-98350452D01*
X113706670Y-98346242D01*
X113570637Y-98274216D01*
X113570635Y-98274215D01*
X113563924Y-98270662D01*
X113556559Y-98268812D01*
X113405917Y-98230973D01*
X113405913Y-98230973D01*
X113398546Y-98229122D01*
X113390947Y-98229082D01*
X113390945Y-98229082D01*
X113320029Y-98228711D01*
X113228032Y-98228229D01*
X113220652Y-98230001D01*
X113220650Y-98230001D01*
X113069606Y-98266263D01*
X113069602Y-98266264D01*
X113062227Y-98268035D01*
X112910704Y-98346242D01*
X112904982Y-98351234D01*
X112904980Y-98351235D01*
X112876812Y-98375807D01*
X112858486Y-98391795D01*
X112851775Y-98397649D01*
X112787293Y-98427357D01*
X112768946Y-98428700D01*
X107169961Y-98428700D01*
X107101840Y-98408698D01*
X107080866Y-98391795D01*
X100305077Y-91616006D01*
X100297535Y-91606566D01*
X100297155Y-91606889D01*
X100291337Y-91600053D01*
X100286547Y-91592461D01*
X100246540Y-91557128D01*
X100240854Y-91551783D01*
X100229520Y-91540449D01*
X100221245Y-91534247D01*
X100213400Y-91527860D01*
X100184957Y-91502740D01*
X100178230Y-91496799D01*
X100170108Y-91492986D01*
X100167307Y-91491146D01*
X100153312Y-91482737D01*
X100150349Y-91481115D01*
X100143164Y-91475730D01*
X100134754Y-91472577D01*
X100134752Y-91472576D01*
X100099218Y-91459254D01*
X100089902Y-91455329D01*
X100047418Y-91435383D01*
X100038544Y-91434001D01*
X100035317Y-91433015D01*
X100019534Y-91428875D01*
X100016256Y-91428154D01*
X100007848Y-91425002D01*
X99994091Y-91423980D01*
X99961043Y-91421524D01*
X99950996Y-91420370D01*
X99942514Y-91419049D01*
X99942511Y-91419049D01*
X99937703Y-91418300D01*
X99922338Y-91418300D01*
X99913001Y-91417954D01*
X99896919Y-91416759D01*
X99863733Y-91414293D01*
X99854958Y-91416166D01*
X99846262Y-91416759D01*
X99831662Y-91418300D01*
X90964761Y-91418300D01*
X90896640Y-91398298D01*
X90875666Y-91381395D01*
X85961805Y-86467534D01*
X85927779Y-86405222D01*
X85924900Y-86378439D01*
X85924900Y-74028232D01*
X85948578Y-73954706D01*
X86037858Y-73830460D01*
X86037861Y-73830454D01*
X86042292Y-73824288D01*
X86105892Y-73666077D01*
X86129918Y-73497262D01*
X86130074Y-73482400D01*
X86109589Y-73313119D01*
X86049316Y-73153611D01*
X85952734Y-73013084D01*
X85825421Y-72899652D01*
X85817470Y-72895442D01*
X85681437Y-72823416D01*
X85681435Y-72823415D01*
X85674724Y-72819862D01*
X85667359Y-72818012D01*
X85516717Y-72780173D01*
X85516713Y-72780173D01*
X85509346Y-72778322D01*
X85501747Y-72778282D01*
X85501745Y-72778282D01*
X85430829Y-72777911D01*
X85338832Y-72777429D01*
X85331452Y-72779201D01*
X85331450Y-72779201D01*
X85180406Y-72815463D01*
X85180402Y-72815464D01*
X85173027Y-72817235D01*
X85021504Y-72895442D01*
X85015782Y-72900434D01*
X85015780Y-72900435D01*
X84898736Y-73002539D01*
X84893009Y-73007535D01*
X84794962Y-73147043D01*
X84733022Y-73305911D01*
X84710765Y-73474968D01*
X73857957Y-73474968D01*
X74502287Y-72850570D01*
X74505131Y-72847898D01*
X74933123Y-72458455D01*
X75367670Y-72063048D01*
X75370640Y-72060431D01*
X76257308Y-71303145D01*
X76260357Y-71300622D01*
X77170432Y-70571514D01*
X77173560Y-70569088D01*
X78106049Y-69868956D01*
X78109251Y-69866629D01*
X79063305Y-69196108D01*
X79066579Y-69193883D01*
X79712043Y-68769892D01*
X80041226Y-68553659D01*
X80044528Y-68551564D01*
X80750994Y-68118641D01*
X81038808Y-67942269D01*
X81042215Y-67940254D01*
X81395618Y-67738676D01*
X82055183Y-67362467D01*
X82058587Y-67360597D01*
X83089149Y-66814942D01*
X83092677Y-66813145D01*
X84025655Y-66356083D01*
X84139852Y-66300139D01*
X84143401Y-66298467D01*
X85171580Y-65834227D01*
X85206228Y-65818583D01*
X85209861Y-65817011D01*
X86287189Y-65370767D01*
X86290869Y-65369310D01*
X87381678Y-64957128D01*
X87385402Y-64955787D01*
X88199665Y-64677002D01*
X88488655Y-64578060D01*
X88492399Y-64576843D01*
X89606971Y-64233956D01*
X89610738Y-64232862D01*
X90735504Y-63925160D01*
X90739318Y-63924181D01*
X91049650Y-63849676D01*
X91873236Y-63651951D01*
X91877099Y-63651088D01*
X92471599Y-63527973D01*
X93018966Y-63414618D01*
X93022803Y-63413886D01*
X93631691Y-63307618D01*
X94171574Y-63213394D01*
X94175483Y-63212775D01*
X94658872Y-63143978D01*
X95329977Y-63048466D01*
X95333847Y-63047977D01*
X96000070Y-62974425D01*
X96492908Y-62920016D01*
X96496848Y-62919643D01*
X97659381Y-62828149D01*
X97663332Y-62827901D01*
X98828124Y-62772971D01*
X98832080Y-62772847D01*
X99690084Y-62759368D01*
X99998027Y-62754531D01*
X100001973Y-62754531D01*
X100309916Y-62759368D01*
G37*
G04 #@! TD.AperFunction*
M02*
